G04*
G04 #@! TF.GenerationSoftware,Altium Limited,Altium Designer,24.9.1 (31)*
G04*
G04 Layer_Physical_Order=3*
G04 Layer_Color=3707366*
%FSLAX44Y44*%
%MOMM*%
G71*
G04*
G04 #@! TF.SameCoordinates,11843470-2C0B-4DC8-9AB9-1888B6BF92CD*
G04*
G04*
G04 #@! TF.FilePolarity,Positive*
G04*
G01*
G75*
%ADD10C,0.2000*%
%ADD11C,0.2500*%
%ADD12C,0.3000*%
%ADD131C,1.3000*%
%ADD133C,1.5000*%
%ADD134C,1.5240*%
%ADD136C,4.0000*%
%ADD146C,0.5000*%
%ADD147C,0.2800*%
%ADD152C,6.3500*%
%ADD153C,0.4000*%
G36*
X40057Y655000D02*
X40057Y655000D01*
X1460000Y654999D01*
X1462294Y654999D01*
X1466842Y654401D01*
X1471274Y653214D01*
X1475513Y651458D01*
X1479487Y649164D01*
X1483127Y646371D01*
X1486371Y643127D01*
X1489164Y639487D01*
X1491458Y635513D01*
X1493214Y631275D01*
X1494401Y626843D01*
X1495000Y622294D01*
X1495000Y620000D01*
X1495000Y620000D01*
X1494999Y39999D01*
Y37705D01*
X1494400Y33157D01*
X1493213Y28725D01*
X1491457Y24486D01*
X1489163Y20513D01*
X1486370Y16873D01*
X1483126Y13629D01*
X1479486Y10836D01*
X1475513Y8542D01*
X1471274Y6786D01*
X1466843Y5599D01*
X1462294Y5000D01*
X39997D01*
X37703Y5000D01*
X33155Y5599D01*
X28723Y6786D01*
X24485Y8542D01*
X20511Y10836D01*
X16872Y13629D01*
X13628Y16874D01*
X10835Y20513D01*
X8541Y24487D01*
X6786Y28726D01*
X5598Y33157D01*
X5000Y37706D01*
X5000Y40000D01*
Y40000D01*
Y70000D01*
Y110000D01*
Y620000D01*
X5000Y622296D01*
X5599Y626850D01*
X6789Y631286D01*
X8548Y635529D01*
X10847Y639505D01*
X13645Y643147D01*
X16896Y646392D01*
X20542Y649185D01*
X24522Y651477D01*
X28768Y653229D01*
X33206Y654411D01*
X37761Y655004D01*
X40057Y655000D01*
D02*
G37*
%LPC*%
G36*
X40000Y640000D02*
Y290000D01*
X60000Y270000D01*
Y110000D01*
Y70000D01*
Y15157D01*
X1439999Y15157D01*
X1440001Y640000D01*
X40000Y640000D01*
D02*
G37*
%LPD*%
D10*
X756300Y306300D02*
X760000Y310000D01*
X753780Y283000D02*
X830000D01*
X892442D01*
X924192Y314750D01*
X746509Y292700D02*
X753097Y299288D01*
X744852Y296700D02*
X754452Y306300D01*
X753097Y299288D02*
X767412D01*
X754754Y295288D02*
X769069D01*
X770725Y291288D02*
X786000Y306563D01*
X749823Y284700D02*
X756411Y291288D01*
X770725D01*
X754452Y306300D02*
X756300D01*
X748166Y288700D02*
X754754Y295288D01*
X751479Y280700D02*
X753780Y283000D01*
X769069Y295288D02*
X780000Y306220D01*
X767412Y299288D02*
X774000Y305877D01*
X737148Y296700D02*
X744852D01*
X733834Y288700D02*
X748166D01*
X732534Y290000D02*
X733834Y288700D01*
X706796Y310000D02*
X718796Y298000D01*
X696636Y310000D02*
X712636Y294000D01*
X718796Y298000D02*
X735848D01*
X737148Y296700D01*
X732177Y284700D02*
X749823D01*
X655524Y310000D02*
X683524Y282000D01*
X687524Y310000D02*
X707524Y290000D01*
X730877Y286000D02*
X732177Y284700D01*
X683524Y282000D02*
X729221D01*
X712636Y294000D02*
X734191D01*
X735491Y292700D02*
X746509D01*
X707524Y290000D02*
X732534D01*
X734191Y294000D02*
X735491Y292700D01*
X730520Y280700D02*
X751479D01*
X677180Y307616D02*
X698796Y286000D01*
X730877D01*
X729221Y282000D02*
X730520Y280700D01*
X858000Y412000D02*
Y412541D01*
X839843Y400500D02*
X871843Y432500D01*
X841566Y395900D02*
X857833Y412167D01*
X871843Y432500D02*
X876864D01*
X761571Y400500D02*
X839843D01*
X488136Y411500D02*
X692580D01*
X708180Y395900D01*
X469000Y414000D02*
X485636D01*
X488136Y411500D01*
X708180Y395900D02*
X841566D01*
X295455Y52867D02*
X297822Y50500D01*
X295455Y47210D02*
X296166Y46500D01*
X294509Y42500D02*
X295455D01*
X348848D01*
X295048Y47617D02*
X295455Y47210D01*
X274561Y43500D02*
X293509D01*
X299479Y54500D02*
X337349D01*
X301136Y58500D02*
X320136D01*
X293509Y43500D02*
X294509Y42500D01*
X297822Y50500D02*
X346843D01*
X296166Y46500D02*
X366084D01*
X298136Y61500D02*
X301136Y58500D01*
X296479Y57500D02*
X299479Y54500D01*
X320136Y58500D02*
X326875Y65239D01*
X366084Y46500D02*
X370322Y42262D01*
X346843Y50500D02*
X361582Y65239D01*
X337349Y54500D02*
X348088Y65239D01*
X348848Y42500D02*
X358848Y32500D01*
X265561Y34500D02*
X274561Y43500D01*
X295455Y57500D02*
X296479D01*
X261500D02*
X295455D01*
X425636Y20000D02*
X431136Y25500D01*
X306000Y20000D02*
X384545D01*
X425636D01*
X296000Y30000D02*
X306000Y20000D01*
X403965Y32500D02*
X404964Y33500D01*
X402308Y36500D02*
X403308Y37500D01*
X431479D02*
X444479Y50500D01*
X384545Y28500D02*
X405621D01*
X434864Y25500D02*
X440364Y20000D01*
X404964Y33500D02*
X433136D01*
X384545Y36500D02*
X402308D01*
X447636Y20000D02*
X456136Y28500D01*
X440364Y20000D02*
X447636D01*
X384545Y32500D02*
X403965D01*
X451479Y29500D02*
X464479Y42500D01*
X405621Y28500D02*
X406621Y29500D01*
X351192Y34500D02*
X357192Y28500D01*
X406621Y29500D02*
X451479D01*
X431136Y25500D02*
X434864D01*
X403308Y37500D02*
X431479D01*
X433136Y33500D02*
X446136Y46500D01*
X370322Y40314D02*
X374136Y36500D01*
X167759Y66877D02*
X179136Y55500D01*
X625000Y257000D02*
X631000Y251000D01*
X248000Y71000D02*
X261500Y57500D01*
X780000Y306220D02*
Y310000D01*
X749770Y478894D02*
X753876Y483000D01*
X221289Y406347D02*
X257756Y369880D01*
X616654Y443018D02*
X672376D01*
X756136Y408500D02*
X794500D01*
X798500Y404500D01*
X696230Y320566D02*
X706796Y310000D01*
X774000Y305877D02*
Y310000D01*
X356286Y308350D02*
X477802D01*
X853364Y401000D02*
X862500Y410136D01*
X760000Y310000D02*
X767000Y317000D01*
X357136Y95500D02*
X418636D01*
X1178500Y500000D02*
Y501103D01*
X754479Y412500D02*
X818429D01*
X1110247Y540700D02*
X1171593Y479354D01*
X604000Y495778D02*
X616777Y483000D01*
X531089Y338750D02*
X655886D01*
X624077Y475700D02*
X722300D01*
X216130Y356847D02*
X220339Y352638D01*
X280136Y61500D02*
X295455D01*
X786000Y306563D02*
Y310000D01*
X532957Y547500D02*
X626864D01*
X348088Y65239D02*
X362349Y79500D01*
X616777Y483000D02*
X624077Y475700D01*
X376843Y80500D02*
X427864D01*
X788358Y251000D02*
X791858Y254500D01*
X601778Y498000D02*
X604000Y495778D01*
X631000Y251000D02*
X632259Y249741D01*
X220339Y352638D02*
X223000D01*
X325774D01*
X600121Y494000D02*
X604000Y490121D01*
X458000Y343000D02*
X670364D01*
X295455Y34500D02*
X351192D01*
X836864Y404500D02*
X855000Y422636D01*
X358848Y32500D02*
X384545D01*
X380864Y91500D02*
X416979D01*
X374136Y36500D02*
X384545D01*
X686500Y320136D02*
X696636Y310000D01*
X294136Y34500D02*
X295455D01*
X611121Y483000D02*
X627621Y466500D01*
X357192Y28500D02*
X384545D01*
X825994Y176500D02*
X977363D01*
X1125246Y548700D02*
X1166011Y507935D01*
X671718Y547000D02*
X681218Y537500D01*
X823451Y184700D02*
X1010445D01*
X1166011Y513592D02*
X1178500Y501103D01*
X817136Y250500D02*
X833136Y234500D01*
X356500Y183500D02*
X435089D01*
X774000Y310000D02*
Y317000D01*
X609589Y318035D02*
X652693D01*
X649718Y569000D02*
X671718Y547000D01*
X223000Y360636D02*
X226998Y356638D01*
X604000Y528700D02*
X777064D01*
X562349Y334500D02*
X653864D01*
X780000Y310000D02*
Y317000D01*
X382000Y507021D02*
X388500Y513521D01*
X217567Y366069D02*
X223000Y360636D01*
X604000Y490121D02*
X611121Y483000D01*
X326875Y65239D02*
X357136Y95500D01*
X753876Y483000D02*
X769676Y498800D01*
X1043066Y566500D02*
X1068866Y540700D01*
X892136Y395500D02*
X909136Y412500D01*
X819500Y254500D02*
X823000Y251000D01*
X302500Y187710D02*
X479712D01*
X173011Y356847D02*
X216130D01*
X316500Y165500D02*
X564864D01*
X285000Y153000D02*
X395736D01*
X686324Y311200D02*
X687524Y310000D01*
X607932Y314035D02*
X651489D01*
X855021Y397000D02*
X866500Y408479D01*
X786000Y310000D02*
Y317000D01*
X355479Y99500D02*
X470419D01*
X820479Y152500D02*
X932521D01*
X677180Y310000D02*
Y311184D01*
X1173946Y500000D02*
X1174500Y499446D01*
X565443Y415900D02*
X693837D01*
X787000Y479000D02*
X827000D01*
X785500Y248142D02*
X788358Y251000D01*
X361582Y65239D02*
X376843Y80500D01*
X961712Y314750D02*
X985963Y290500D01*
X622000Y260000D02*
X625000Y257000D01*
X818822Y148500D02*
X930864D01*
X581636Y347000D02*
X672364D01*
X215632Y406347D02*
X256099Y365880D01*
X1166011Y507935D02*
X1173946Y500000D01*
X677180Y307616D02*
Y310000D01*
X626864Y547500D02*
X627364Y547000D01*
X544000Y569000D02*
X607151D01*
X403000Y505000D02*
X426750Y481250D01*
X627364Y547000D02*
X641664Y532700D01*
X847578Y383900D02*
X870500Y406822D01*
X823000Y251000D02*
X835000Y239000D01*
X815086Y163550D02*
X844864D01*
X546100Y528700D02*
X604000D01*
X690924Y407500D02*
X721924Y376500D01*
X541636Y321000D02*
X543136Y319500D01*
X656617Y321960D02*
Y324617D01*
X543136Y319500D02*
X608124D01*
X417000Y329000D02*
X463636D01*
X542136Y327500D02*
X544386Y329750D01*
X354000Y321000D02*
X541636D01*
X463636Y329000D02*
X465136Y327500D01*
X652693Y318035D02*
X656617Y321960D01*
X653864Y334500D02*
X677180Y311184D01*
X1174500Y484063D02*
Y499446D01*
X386500Y505864D02*
X432136Y551500D01*
X425136Y552500D02*
X433136Y560500D01*
X991148Y573700D02*
X1041523D01*
X418136Y552500D02*
X425136D01*
X627621Y466500D02*
X697864D01*
X416000Y505000D02*
X427636D01*
X749770Y477406D02*
Y478894D01*
X427636Y505000D02*
X447386Y485250D01*
X524240Y494000D02*
X600121D01*
X924192Y314750D02*
X961712D01*
X484952Y315500D02*
X606468D01*
X1105381Y284100D02*
X1113781Y292500D01*
X875822Y424500D02*
X895529D01*
X843222Y391900D02*
X852322Y401000D01*
X853979Y397000D02*
X855021D01*
X957719Y427500D02*
X958719Y428500D01*
X844879Y387900D02*
X853979Y397000D01*
X958719Y428500D02*
X1032500D01*
X805000Y219459D02*
Y220000D01*
X931619Y165500D02*
X974419Y122700D01*
X1003351D01*
X802500Y216959D02*
X805000Y219459D01*
X977363Y176500D02*
X1008363Y145500D01*
X1068636Y169000D02*
X1069000D01*
X808500Y207962D02*
X812000Y211462D01*
X433859Y73464D02*
X452822Y54500D01*
X370322Y40314D02*
Y42262D01*
X446021Y131000D02*
X451521Y125500D01*
X515390Y135500D02*
X545594D01*
X489136Y113500D02*
X491136Y115500D01*
X620036Y99500D02*
X653765D01*
X451500Y113500D02*
X489136D01*
X653765Y99500D02*
X667635Y113370D01*
X453864Y117500D02*
X485664D01*
X490864Y122700D01*
X609036Y110500D02*
X620036Y99500D01*
X563936Y126700D02*
X565136Y125500D01*
X462086Y126700D02*
X563936D01*
X483622Y83000D02*
X601000D01*
X274000Y64000D02*
X274383Y63617D01*
X278019D02*
X280136Y61500D01*
X479122Y78500D02*
X483622Y83000D01*
X480779Y74500D02*
X484779Y78500D01*
X461425Y74500D02*
X480779D01*
X438500Y80136D02*
X443136Y75500D01*
X444000Y81000D02*
X460582D01*
X568136Y114500D02*
X628500D01*
X414593Y114000D02*
X425093Y124500D01*
X446864D01*
X672364Y347000D02*
X696230Y323134D01*
X575136Y353500D02*
X581636Y347000D01*
X253000Y115000D02*
X391822D01*
X392822Y114000D01*
X257500Y110500D02*
X390665D01*
X392822Y114000D02*
X414593D01*
X355381Y99402D02*
X355479Y99500D01*
X618379Y95500D02*
X655422D01*
X608579Y105300D02*
X618379Y95500D01*
X566022Y105300D02*
X608579D01*
X661652Y91500D02*
X707152Y137000D01*
X616722Y91500D02*
X661652D01*
X435089Y183500D02*
X440089Y178500D01*
X528136Y188500D02*
X552521D01*
X518136Y178500D02*
X528136Y188500D01*
X352500Y179500D02*
X356500Y183500D01*
X606969Y145031D02*
X612000Y140000D01*
X471606Y142500D02*
X478786Y149680D01*
X395736Y153000D02*
X405236Y143500D01*
X570605Y145031D02*
X606969D01*
X478786Y149680D02*
X565956D01*
X570605Y145031D01*
X549394Y139300D02*
X593700D01*
X458938Y143500D02*
X459938Y142500D01*
X477724Y142962D02*
X507929D01*
X448000Y139000D02*
X457781D01*
X1093464Y284100D02*
X1105381D01*
X1182500Y292500D02*
X1187000Y288000D01*
X480042Y560500D02*
X482292Y562750D01*
X388500Y522864D02*
X418136Y552500D01*
X516051Y558750D02*
X546100Y528700D01*
X992691Y566500D02*
X1043066D01*
X985241Y573950D02*
X992691Y566500D01*
X986898Y577950D02*
X991148Y573700D01*
X817798Y573950D02*
X985241D01*
X813586Y577950D02*
X986898D01*
X758000Y404000D02*
X758071D01*
X1010954Y445682D02*
X1095682D01*
X880175Y460539D02*
X996097D01*
X835000Y415364D02*
X880175Y460539D01*
X897864Y453500D02*
X994779D01*
X1006597Y441682D02*
X1085339D01*
X996097Y460539D02*
X1010954Y445682D01*
X1082864Y428500D02*
X1085500Y425864D01*
X994779Y453500D02*
X1006597Y441682D01*
X1080136Y428500D02*
X1082864D01*
X1085500Y411022D02*
Y425864D01*
X852322Y401000D02*
X853364D01*
X1098500Y409336D02*
Y428521D01*
X1074459Y207000D02*
X1075000D01*
X837000Y204000D02*
X852300Y188700D01*
X976848Y203000D02*
X981648Y207800D01*
X866343Y235000D02*
X898343Y203000D01*
X1022201Y219800D02*
X1075750D01*
X1115459Y219000D02*
X1116000D01*
X1078050Y217500D02*
X1113959D01*
X966321Y118700D02*
X1005008D01*
X857500Y230500D02*
X863000Y225000D01*
X932521Y152500D02*
X966321Y118700D01*
X831479Y230500D02*
X848703D01*
X1102500Y108500D02*
X1110000Y116000D01*
X789500Y235754D02*
X794500Y230754D01*
X794479Y250500D02*
X817136D01*
X707152Y137000D02*
X713000D01*
X563666Y102000D02*
X564366Y101300D01*
X514136Y42500D02*
X517136Y45500D01*
X446136Y46500D02*
X512479D01*
X593364Y61000D02*
X630000D01*
X517479Y51500D02*
X583864D01*
X517136Y45500D02*
X613500D01*
X591500Y28500D02*
X604000Y41000D01*
X173000Y37000D02*
X194636D01*
X456136Y28500D02*
X591500D01*
X613500Y45500D02*
X622000Y54000D01*
X482219Y87700D02*
X597700D01*
X362349Y79500D02*
X368864D01*
X423479Y85000D02*
X429021D01*
X167759Y66877D02*
Y68241D01*
X427864Y80500D02*
X430500Y77864D01*
X440089Y178500D02*
X518136D01*
X552521Y188500D02*
X562021Y198000D01*
X618000D01*
X563364Y205000D02*
X618000D01*
X479712Y187710D02*
X484502Y192500D01*
X279054Y99500D02*
X303066D01*
X276554Y97000D02*
X279054Y99500D01*
X303066D02*
X303164Y99402D01*
X392665Y108500D02*
X489136D01*
X628500Y114500D02*
X639000Y104000D01*
X655422Y95500D02*
X675000Y115078D01*
X564822Y106500D02*
X566022Y105300D01*
X545594Y135500D02*
X549394Y139300D01*
X457781Y139000D02*
X458281Y138500D01*
X593700Y139300D02*
X602000Y131000D01*
X458281Y138500D02*
X473263D01*
X477724Y142962D01*
X565136Y125500D02*
X569864D01*
X646700Y121700D02*
X658000Y133000D01*
X460886Y125500D02*
X462086Y126700D01*
X573664Y121700D02*
X646700D01*
X569864Y125500D02*
X573664Y121700D01*
X342500Y325864D02*
X401636Y385000D01*
X410000D01*
X985963Y290500D02*
X1016864D01*
X357739Y390500D02*
X358239Y390000D01*
X256099Y365880D02*
X327556D01*
X369842Y390000D02*
X370072Y390230D01*
X347676Y386000D02*
X353000D01*
X358239Y390000D02*
X369842D01*
X325899Y369880D02*
X346519Y390500D01*
X324117Y356638D02*
X340038Y372559D01*
X226998Y356638D02*
X324117D01*
X275000Y33000D02*
X292636D01*
X583864Y51500D02*
X593364Y61000D01*
X433136Y560500D02*
X480042D01*
X788700Y544852D02*
X790848Y547000D01*
X1185851Y469241D02*
Y472712D01*
X782636Y547000D02*
X813586Y577950D01*
X1161739Y517864D02*
X1166011Y513592D01*
X768336Y532700D02*
X782636Y547000D01*
X790848D02*
X817798Y573950D01*
X1178500Y485720D02*
Y500000D01*
Y485720D02*
X1190351Y473868D01*
X1151421Y391153D02*
X1183483D01*
X1194826Y374153D02*
X1214761D01*
X1194738Y374241D02*
X1194826Y374153D01*
X1181826Y387153D02*
X1194738Y374241D01*
X1193220Y352000D02*
X1214761D01*
X1164771Y371500D02*
X1173720D01*
X1085500Y411022D02*
X1125822Y370700D01*
X1095682Y445682D02*
X1140500Y400864D01*
X1203805Y378153D02*
X1243153D01*
X1098500Y409336D02*
X1129136Y378700D01*
X1214761Y374153D02*
X1254153D01*
X1153077Y387153D02*
X1181826D01*
X835000Y409000D02*
Y415364D01*
X1146822Y384500D02*
X1150425D01*
X1085339Y441682D02*
X1098500Y428521D01*
X1194805Y387153D02*
X1203805Y378153D01*
X1140500Y391136D02*
X1143136Y388500D01*
X762900Y391900D02*
X843222D01*
X862500Y411178D02*
X875822Y424500D01*
X1145136Y371500D02*
X1164771D01*
X1144336Y370700D02*
X1145136Y371500D01*
X1129136Y378700D02*
X1141022D01*
X1143136Y388500D02*
X1148768D01*
X342500Y322136D02*
Y325864D01*
X1016864Y290500D02*
X1030864Y276500D01*
X1090464Y281100D02*
X1093464Y284100D01*
X342500Y322136D02*
X356286Y308350D01*
X1113781Y292500D02*
X1182500D01*
X1030864Y276500D02*
X1061772D01*
X477802Y308350D02*
X484952Y315500D01*
X1061772Y276500D02*
X1066372Y281100D01*
X606468Y315500D02*
X607932Y314035D01*
X1066372Y281100D02*
X1090464D01*
X516000Y73000D02*
X635000D01*
X602864Y78500D02*
X604364Y80000D01*
X506500Y63500D02*
X516000Y73000D01*
X274383Y63617D02*
X278019D01*
X368864Y79500D02*
X380864Y91500D01*
X325774Y352638D02*
X341694Y368559D01*
X340038Y372559D02*
X350183D01*
X363017Y385392D01*
X327556Y365880D02*
X347676Y386000D01*
X341694Y368559D02*
X358559D01*
X380000Y390000D01*
X129000Y356847D02*
X173011D01*
X110153D02*
X129000D01*
X173011Y432500D02*
X189479D01*
X129500D02*
X173011D01*
X129011Y432990D02*
X129500Y432500D01*
X189479D02*
X215632Y406347D01*
X195931Y431705D02*
Y461069D01*
Y431705D02*
X221289Y406347D01*
X1007837Y211800D02*
X1012012Y215975D01*
X796000Y463000D02*
X833000D01*
X818429Y412500D02*
X821929Y409000D01*
X464500Y454136D02*
X468636Y450000D01*
X525343Y456000D02*
X565443Y415900D01*
X855000Y423364D02*
X873136Y441500D01*
X464500Y457864D02*
X467136Y460500D01*
X464500Y454136D02*
Y457864D01*
X1171593Y468616D02*
X1183987Y456222D01*
X1171593Y469241D02*
Y479354D01*
X432136Y551500D02*
X476699D01*
X1190351Y469241D02*
Y473868D01*
X482292Y562750D02*
X517707D01*
X1161739Y517864D02*
Y534623D01*
X1164375Y537259D01*
X777064Y528700D02*
X788700Y540336D01*
X483949Y558750D02*
X516051D01*
X388500Y513521D02*
Y522864D01*
X386500Y477659D02*
X396894Y467265D01*
X1187715Y456222D02*
X1190351Y458858D01*
X517707Y562750D02*
X532957Y547500D01*
X1164375Y537259D02*
X1166011D01*
X788700Y540336D02*
Y544852D01*
X476699Y551500D02*
X483949Y558750D01*
X1171593Y468616D02*
Y469241D01*
X1183987Y456222D02*
X1187715D01*
X1174500Y484063D02*
X1185851Y472712D01*
X1190351Y458858D02*
Y469241D01*
X1068866Y540700D02*
X1110247D01*
X382000Y467879D02*
Y507021D01*
X1066523Y548700D02*
X1125246D01*
X386500Y477659D02*
Y505864D01*
X651489Y314035D02*
X655524Y310000D01*
X100931Y461069D02*
X129011Y432990D01*
X346519Y390500D02*
X357739D01*
X257756Y369880D02*
X325899D01*
X1139351Y122700D02*
X1160500Y143849D01*
X970864Y108500D02*
X1102500D01*
X789500Y245521D02*
X794479Y250500D01*
X893864Y160500D02*
X898864Y165500D01*
X1071636Y127500D02*
X1076435Y122700D01*
X1139351D01*
X847914Y160500D02*
X893864D01*
X1014965Y123700D02*
X1056563D01*
X1160500Y143849D02*
Y165001D01*
X802500Y176136D02*
X815086Y163550D01*
X1005151Y124500D02*
X1014165D01*
X898864Y165500D02*
X931619D01*
X1014165Y124500D02*
X1014965Y123700D01*
X802500Y176136D02*
Y216959D01*
X1056563Y123700D02*
X1060363Y127500D01*
X1071636D01*
X1005008Y118700D02*
X1005925Y119617D01*
X1003351Y122700D02*
X1005151Y124500D01*
X1005925Y119617D02*
X1008617D01*
X1009000Y120000D01*
X808500Y193994D02*
X825994Y176500D01*
X1010201Y207800D02*
X1022201Y219800D01*
X1149864Y204500D02*
X1162864Y217500D01*
X1199500Y222136D02*
Y227500D01*
X1194864Y217500D02*
X1199500Y222136D01*
X1134136Y201500D02*
X1137136Y204500D01*
X1077272Y203000D02*
X1103636D01*
X591364Y192000D02*
X618000D01*
X302000Y180000D02*
X316500Y165500D01*
X253000Y106000D02*
X257500Y110500D01*
X292636Y33000D02*
X294136Y34500D01*
X194636Y37000D02*
X197136Y34500D01*
X464479Y42500D02*
X514136D01*
X850679Y371700D02*
X859564D01*
X920333Y356000D02*
X966000D01*
X808469Y350500D02*
X849677D01*
X837479Y358500D02*
X850679Y371700D01*
X777136Y366500D02*
X782136Y361500D01*
X1031363Y146500D02*
X1046136D01*
X1030363Y145500D02*
X1031363Y146500D01*
X812000Y211462D02*
Y221000D01*
X452822Y54500D02*
X503157D01*
X564864Y165500D02*
X591364Y192000D01*
X655886Y338750D02*
X683436Y311200D01*
X417500Y353500D02*
X575136D01*
X544386Y329750D02*
X557599D01*
X465136Y327500D02*
X542136D01*
X451521Y125500D02*
X460886D01*
X405236Y143500D02*
X458938D01*
X507929Y142962D02*
X515390Y135500D01*
X503157Y54500D02*
X515657Y67000D01*
X257843Y55500D02*
X259843Y53500D01*
X504814Y50500D02*
X510314Y56000D01*
X433859Y73464D02*
Y73464D01*
X292383Y47617D02*
X295048D01*
X292000Y48000D02*
X292383Y47617D01*
X294822Y53500D02*
X295455Y52867D01*
Y61500D02*
X298136D01*
X425136Y89000D02*
X430678D01*
X259843Y53500D02*
X294822D01*
X697864Y466500D02*
X706864Y457500D01*
X447386Y485250D02*
X515490D01*
X1132000Y591000D02*
X1136000Y587000D01*
X1120500Y619000D02*
X1144000Y595500D01*
X1147521Y587000D02*
X1152500Y591979D01*
X1136000Y587000D02*
X1147521D01*
X1145864Y591000D02*
X1148500Y593636D01*
X1140500Y591000D02*
X1145864D01*
X1136000Y595500D02*
X1140500Y591000D01*
X1168879Y537259D02*
X1187101Y555481D01*
X1166011Y537259D02*
X1168879D01*
X195931Y366069D02*
X217567D01*
X100931D02*
X110153Y356847D01*
X1173720Y371500D02*
X1193220Y352000D01*
X1254153Y374153D02*
X1265000Y385000D01*
X156000Y80000D02*
X167759Y68241D01*
X444479Y50500D02*
X504814D01*
X512479Y46500D02*
X517479Y51500D01*
X197136Y34500D02*
X265561D01*
X510314Y56000D02*
X582000D01*
X484779Y78500D02*
X602864D01*
X460425Y75500D02*
X461425Y74500D01*
X449479Y63500D02*
X506500D01*
X490864Y122700D02*
X559936D01*
X632259Y249741D02*
X689623D01*
X702136Y206500D02*
X706136D01*
X715136Y215500D02*
X735349D01*
X699500Y209136D02*
X702136Y206500D01*
X787864Y219500D02*
X790500Y222136D01*
X699500Y209136D02*
Y239864D01*
X706136Y206500D02*
X715136Y215500D01*
X426750Y481250D02*
X526750D01*
X670364Y343000D02*
X686500Y326864D01*
X708459Y540000D02*
X709000D01*
X681218Y537500D02*
X705959D01*
X769676Y498800D02*
X781200D01*
X515490Y485250D02*
X524240Y494000D01*
X729864Y457500D02*
X749770Y477406D01*
X706864Y457500D02*
X729864D01*
X526750Y481250D02*
X536000Y472000D01*
X571144Y498000D02*
X601778D01*
X781200Y498800D02*
X786000Y494000D01*
X607151Y569000D02*
X657151Y619000D01*
X1120500D01*
X913864Y211000D02*
X917000Y214136D01*
X865000Y242000D02*
X896000Y211000D01*
X981648Y207800D02*
X1010201D01*
X812500Y195651D02*
Y206305D01*
X774500Y222136D02*
X777136Y219500D01*
X787864D01*
X860864Y373000D02*
X974000D01*
X849677Y350500D02*
X863677Y364500D01*
X805469Y353500D02*
X808469Y350500D01*
X847136Y362500D02*
X856021D01*
X863677Y364500D02*
X911833D01*
X856021Y362500D02*
X862020Y368500D01*
X820068Y361500D02*
X823068Y358500D01*
X784479Y353500D02*
X805469D01*
X733000Y362000D02*
X737500Y366500D01*
X913490Y368500D02*
X921990Y360000D01*
X729000Y357000D02*
X749760D01*
X775479Y362500D02*
X784479Y353500D01*
X755260Y362500D02*
X775479D01*
X911833Y364500D02*
X920333Y356000D01*
X862020Y368500D02*
X913490D01*
X821411Y354500D02*
X839136D01*
X921990Y360000D02*
X974000D01*
X864896Y385000D02*
X974000D01*
X849023Y375700D02*
X855596D01*
X737500Y366500D02*
X777136D01*
X859564Y371700D02*
X860864Y373000D01*
X839136Y354500D02*
X847136Y362500D01*
X814000Y357000D02*
X814089Y356911D01*
X819000D02*
X821411Y354500D01*
X814089Y356911D02*
X819000D01*
X1148768Y388500D02*
X1151421Y391153D01*
X876864Y432500D02*
X897864Y453500D01*
X1140500Y391136D02*
Y400864D01*
X1010445Y184700D02*
X1025246Y199500D01*
X1103636Y203000D02*
X1105136Y201500D01*
X1162864Y217500D02*
X1194864D01*
X819000Y212805D02*
Y224000D01*
X844000Y242000D02*
X865000D01*
X978136Y215800D02*
X1001163D01*
X1013813Y228449D02*
X1019793D01*
X597000Y585000D02*
X635000Y623000D01*
X595000Y593000D02*
X629000Y627000D01*
X1148500Y593636D02*
Y597364D01*
X1122864Y623000D02*
X1148500Y597364D01*
X705959Y537500D02*
X708459Y540000D01*
X514394Y554750D02*
X571144Y498000D01*
X485606Y554750D02*
X514394D01*
X475856Y545000D02*
X485606Y554750D01*
X432000Y545000D02*
X475856D01*
X641664Y532700D02*
X768336D01*
X635000Y623000D02*
X1122864D01*
X1152500Y591979D02*
Y599021D01*
X1124521Y627000D02*
X1152500Y599021D01*
X1041523Y573700D02*
X1066523Y548700D01*
X622000Y569000D02*
X649718D01*
X629000Y627000D02*
X1124521D01*
X827000Y479000D02*
X834000Y472000D01*
X780000Y479000D02*
X796000Y463000D01*
X1051500Y412500D02*
X1063000Y424000D01*
X869739Y395500D02*
X892136D01*
X898343Y203000D02*
X976848D01*
X1046136Y146500D02*
X1068636Y169000D01*
X808500Y193994D02*
Y207962D01*
X782136Y361500D02*
X820068D01*
X836322Y363000D02*
X849023Y375700D01*
X855596D02*
X864896Y385000D01*
X390665Y110500D02*
X392665Y108500D01*
X489136D02*
X491136Y106500D01*
X559936Y122700D02*
X568136Y114500D01*
X446864Y124500D02*
X453864Y117500D01*
X604364Y80000D02*
X614000D01*
X179136Y55500D02*
X257843D01*
X446000Y131000D02*
X446021D01*
X252000Y97000D02*
X276554D01*
X430500Y76823D02*
Y77864D01*
Y76823D02*
X433859Y73464D01*
X429021Y85000D02*
X434500Y79521D01*
X418636Y95500D02*
X425136Y89000D01*
X434500Y78479D02*
Y79521D01*
Y78479D02*
X449479Y63500D01*
X438500Y80136D02*
Y81178D01*
X430678Y89000D02*
X438500Y81178D01*
X303164Y99402D02*
X355381D01*
X597700Y87700D02*
X602000Y92000D01*
X463082Y78500D02*
X479122D01*
X460582Y81000D02*
X463082Y78500D01*
X606923Y101300D02*
X616722Y91500D01*
X491136Y115500D02*
X516336D01*
X491136Y106500D02*
X564822D01*
X521336Y110500D02*
X609036D01*
X524000Y102000D02*
X563666D01*
X675000Y115078D02*
Y133000D01*
X564366Y101300D02*
X606923D01*
X658000Y133000D02*
X669000D01*
X530000Y158000D02*
X705000D01*
X710000Y153000D01*
X771864Y228500D02*
X774500Y225864D01*
X748349Y228500D02*
X771864D01*
X789500Y235754D02*
Y245521D01*
X689623Y249741D02*
X699500Y239864D01*
X785500Y234097D02*
X788100Y231497D01*
X798500Y174479D02*
Y235136D01*
Y174479D02*
X820479Y152500D01*
X788100Y228264D02*
Y231497D01*
Y228264D02*
X790500Y225864D01*
X793500Y243864D02*
X796136Y246500D01*
X774500Y222136D02*
Y225864D01*
X735349Y215500D02*
X748349Y228500D01*
X794500Y172822D02*
X818822Y148500D01*
X516336Y115500D02*
X521336Y110500D01*
X445000Y120000D02*
X451500Y113500D01*
X416979Y91500D02*
X423479Y85000D01*
X959866Y219500D02*
X967566Y211800D01*
X896000Y211000D02*
X913864D01*
X972000Y217000D02*
X972064Y216936D01*
X977000D01*
X1001163Y215800D02*
X1013813Y228449D01*
X977000Y216936D02*
X978136Y215800D01*
X917000Y216364D02*
X920136Y219500D01*
X812500Y195651D02*
X823451Y184700D01*
X1025246Y199500D02*
X1073772D01*
X1028589Y208500D02*
X1072959D01*
X812500Y206305D02*
X819000Y212805D01*
X852136Y234500D02*
X856136Y230500D01*
X848703D02*
X853000Y226203D01*
X793500Y240136D02*
X798500Y235136D01*
X1160500Y165001D02*
X1167499Y172000D01*
X785500Y234097D02*
Y248142D01*
X790500Y222136D02*
Y225864D01*
X930864Y148500D02*
X970864Y108500D01*
X833136Y234500D02*
X852136D01*
X791858Y254500D02*
X819500D01*
X796136Y246500D02*
X815479D01*
X831479Y230500D01*
X793500Y240136D02*
Y243864D01*
X794500Y172822D02*
Y230754D01*
X856136Y230500D02*
X857500D01*
X813021Y242000D02*
X836000Y219021D01*
X815850Y233514D02*
X823500Y225864D01*
X798000Y241636D02*
X806122Y233514D01*
X804000Y242000D02*
X813021D01*
X806122Y233514D02*
X815850D01*
X798000Y241636D02*
Y242000D01*
X967566Y211800D02*
X1007837D01*
X1113959Y217500D02*
X1115459Y219000D01*
X858000Y235000D02*
X866343D01*
X917000Y214136D02*
Y216364D01*
X920136Y219500D02*
X959866D01*
X1008789Y188700D02*
X1028589Y208500D01*
X1072959D02*
X1074459Y207000D01*
X1075750Y219800D02*
X1078050Y217500D01*
X1105136Y201500D02*
X1134136D01*
X1137136Y204500D02*
X1149864D01*
X852300Y188700D02*
X1008789D01*
X627000Y407000D02*
X645000Y389000D01*
X703767D02*
X720267Y372500D01*
X645000Y389000D02*
X703767D01*
X749760Y357000D02*
X755260Y362500D01*
X966000Y356000D02*
X974000Y348000D01*
X823068Y358500D02*
X837479D01*
X696230Y320566D02*
Y323134D01*
X656617Y324617D02*
X657000Y325000D01*
X608124Y319500D02*
X609589Y318035D01*
X405000Y338000D02*
X530339D01*
X1183483Y391153D02*
X1187483Y387153D01*
X1150425Y384500D02*
X1153077Y387153D01*
X721924Y376500D02*
X838509D01*
X845909Y383900D01*
X636000Y407000D02*
X663482D01*
X870500Y406822D02*
Y407864D01*
X1076136Y432500D02*
X1080136Y428500D01*
X862500Y410136D02*
Y411178D01*
X897186Y420500D02*
X904186Y427500D01*
X866500Y408479D02*
Y409521D01*
X877479Y420500D01*
X904186Y427500D02*
X957719D01*
X1141022Y378700D02*
X1146822Y384500D01*
X956062Y431500D02*
X957062Y432500D01*
X826000Y363000D02*
X836322D01*
X909136Y412500D02*
X1051500D01*
X853939Y379700D02*
X869739Y395500D01*
X840166Y372500D02*
X847366Y379700D01*
X853939D01*
X720267Y372500D02*
X840166D01*
X877479Y420500D02*
X897186D01*
X469000Y456000D02*
X525343D01*
X874458Y441500D02*
X888997Y456039D01*
X798500Y404500D02*
X836864D01*
X831000Y383000D02*
X835900Y387900D01*
X1032500Y428500D02*
X1037000Y424000D01*
X957062Y432500D02*
X1076136D01*
X835900Y387900D02*
X844879D01*
X902530Y431500D02*
X956062D01*
X1022500Y416500D02*
X1030000Y424000D01*
X752000Y381000D02*
X762900Y391900D01*
X663482Y407000D02*
X663982Y407500D01*
X879136Y416500D02*
X1022500D01*
X758071Y404000D02*
X761571Y400500D01*
X754286Y406650D02*
X756136Y408500D01*
X895529Y424500D02*
X902530Y431500D01*
X663982Y407500D02*
X690924D01*
X845909Y383900D02*
X847578D01*
X855000Y422636D02*
Y423364D01*
X1125822Y370700D02*
X1144336D01*
X870500Y407864D02*
X879136Y416500D01*
X1187483Y387153D02*
X1194805D01*
X686500Y320136D02*
Y326864D01*
X412000Y348000D02*
X417500Y353500D01*
X683436Y311200D02*
X686324D01*
X823000Y200000D02*
X823500Y200500D01*
X443136Y75500D02*
X460425D01*
X1008363Y145500D02*
X1030363D01*
X557599Y329750D02*
X562349Y334500D01*
X530339Y338000D02*
X531089Y338750D01*
X722300Y475700D02*
X732000Y466000D01*
X1214761Y352000D02*
X1256240D01*
X1243153Y378153D02*
X1264000Y399000D01*
X515657Y67000D02*
X606000D01*
X470419Y99500D02*
X482219Y87700D01*
X459938Y142500D02*
X471606D01*
X484502Y192500D02*
X550864D01*
X563364Y205000D01*
X672376Y443018D02*
X704744Y410650D01*
X526500Y460500D02*
X558500Y428500D01*
X752629Y410650D02*
X754479Y412500D01*
X558500Y428500D02*
X602136D01*
X467136Y460500D02*
X526500D01*
X821929Y409000D02*
X822000D01*
X704744Y410650D02*
X752629D01*
X602136Y428500D02*
X616654Y443018D01*
X468636Y450000D02*
X469000D01*
X693837Y415900D02*
X703087Y406650D01*
X754286D01*
X873136Y441500D02*
X874458D01*
X458000Y24000D02*
X552000D01*
X823500Y200500D02*
Y225864D01*
X836000Y219000D02*
Y219021D01*
X1195000Y232000D02*
X1199500Y227500D01*
X844864Y163550D02*
X847914Y160500D01*
X1073772Y199500D02*
X1077272Y203000D01*
D11*
X1120250Y253603D02*
X1120251Y253603D01*
X1104000Y266100D02*
X1104287Y265813D01*
X1120499Y174283D02*
X1123532Y171250D01*
X1127467D01*
X1172239Y514759D02*
X1185823D01*
X1195170Y505412D01*
X1185851Y460722D02*
Y469241D01*
X1095224Y279850D02*
X1117744D01*
X1120594Y277000D01*
X1024251D02*
X1029001Y272250D01*
X1112481Y270850D02*
X1117501Y265831D01*
X1024979Y258253D02*
X1030383D01*
X1117445Y272250D02*
X1122968D01*
X1114345Y275350D02*
X1117445Y272250D01*
X1029001D02*
X1063533D01*
X1038168Y255750D02*
X1068532D01*
X1120594Y277000D02*
X1121000D01*
X1101876Y198750D02*
X1108876Y191750D01*
X1097088Y275350D02*
X1114345D01*
X1069532Y267250D02*
X1088988D01*
X1035666Y167252D02*
X1036169Y166750D01*
X1035666Y258253D02*
X1038168Y255750D01*
X1028000Y267000D02*
X1028000D01*
X1037530Y262752D02*
X1040033Y260250D01*
X1028000Y267000D02*
X1032247Y262752D01*
X1037530D01*
X1015000Y174730D02*
X1022478Y167252D01*
X1122830Y191750D02*
X1130249Y184331D01*
X1025033Y189750D02*
X1030520D01*
X129000Y273000D02*
X144250D01*
X155750Y261500D01*
X1025499Y176000D02*
X1033282D01*
X1080967Y179750D02*
X1103467D01*
X1088988Y267250D02*
X1097088Y275350D01*
X1017501Y265730D02*
X1024979Y258253D01*
X1060033Y166750D02*
X1069533Y176250D01*
X1116967Y185750D02*
X1122467D01*
X1127713Y276996D02*
Y277713D01*
X1033282Y176000D02*
X1038033Y171250D01*
X1127713Y277713D02*
X1128000Y278000D01*
X1022478Y167252D02*
X1035666D01*
X1170989Y420000D02*
X1180336Y410653D01*
X1193920D01*
X86069Y325347D02*
X95416Y316000D01*
X109000D01*
X190416D02*
X204000D01*
X181069Y325347D02*
X190416Y316000D01*
X204000Y504000D02*
X204000Y504000D01*
X181069Y513348D02*
X190417Y504000D01*
X204000D01*
X190416Y411000D02*
X204000D01*
X181069Y420347D02*
X190416Y411000D01*
X86069Y420347D02*
X95416Y411000D01*
X109000D01*
X1068133Y276850D02*
X1092224D01*
X1065532Y185750D02*
X1103831D01*
X1040033Y260250D02*
X1062533D01*
X1069532Y267250D01*
X1068668Y195250D02*
X1075533D01*
X1030520Y189750D02*
X1036020Y184250D01*
X1057668D01*
X1180347Y315653D02*
X1193931D01*
X1171000Y325000D02*
X1180347Y315653D01*
X1125499Y176101D02*
Y182717D01*
X1079033Y198750D02*
X1101876D01*
X1063533Y272250D02*
X1068133Y276850D01*
X1120499Y174283D02*
Y181100D01*
X1030384Y258253D02*
X1035666D01*
X1113467Y182250D02*
X1116967Y185750D01*
X1038033Y171250D02*
X1051032D01*
X1107331Y182250D02*
X1113467D01*
X1122467Y185750D02*
X1125499Y182717D01*
X1127467Y171250D02*
X1130249Y174032D01*
X1068532Y255750D02*
X1070033Y257250D01*
X1057668Y184250D02*
X1068668Y195250D01*
X1092224Y276850D02*
X1095224Y279850D01*
X1036169Y166750D02*
X1060033D01*
X1077467Y176250D02*
X1080967Y179750D01*
X1098952Y270850D02*
X1112481D01*
X1009279Y162502D02*
X1017750D01*
X1001499Y173000D02*
X1001786Y172713D01*
Y169996D02*
X1009279Y162502D01*
X1001786Y169996D02*
Y172713D01*
X1020786Y185504D02*
X1025033Y189750D01*
X1070033Y257250D02*
X1085352D01*
X1130249Y174032D02*
Y184331D01*
X1030383Y258253D02*
X1030384Y258253D01*
X1017501Y265730D02*
X1017501D01*
X1108467Y174750D02*
X1114919D01*
X1075533Y195250D02*
X1079033Y198750D01*
X1108876Y191750D02*
X1122830D01*
X1051032Y171250D02*
X1065532Y185750D01*
X1101499Y175000D02*
X1101786Y174713D01*
Y169995D02*
Y174713D01*
X1109279Y162502D02*
X1117750D01*
X1101786Y169995D02*
X1109279Y162502D01*
X1111780Y253603D02*
X1120250D01*
X1104287Y261096D02*
Y265813D01*
Y261096D02*
X1111780Y253603D01*
X1024000Y277000D02*
X1024251D01*
X1103831Y185750D02*
X1107331Y182250D01*
X1122968Y272250D02*
X1127713Y276996D01*
X1103467Y179750D02*
X1108467Y174750D01*
X1069533Y176250D02*
X1077467D01*
X1085352Y257250D02*
X1098952Y270850D01*
X1020499Y181000D02*
X1020786Y181287D01*
Y185504D01*
D12*
X830000Y287500D02*
X890578D01*
X922328Y319250D01*
X816500Y287500D02*
X830000D01*
X799000Y305000D02*
X816500Y287500D01*
X963576Y319250D02*
X987827Y295000D01*
X1093077Y290077D02*
X1104994D01*
X1113917Y299000D02*
X1165000D01*
X1104994Y290077D02*
X1113917Y299000D01*
X987827Y295000D02*
X1018728D01*
X922328Y319250D02*
X963576D01*
X1018728Y295000D02*
X1027128Y286600D01*
X1089600D02*
X1093077Y290077D01*
X1027128Y286600D02*
X1089600D01*
D131*
X622000Y569000D02*
D03*
X616000Y181000D02*
D03*
X823000Y200000D02*
D03*
X902000Y223000D02*
D03*
X836000Y219000D02*
D03*
X731000Y226000D02*
D03*
X724000Y240000D02*
D03*
D133*
X1402100Y368400D02*
D03*
Y393800D02*
D03*
X1325900Y368400D02*
D03*
Y393800D02*
D03*
X1402100Y419200D02*
D03*
X1325900D02*
D03*
X1402100Y470000D02*
D03*
Y444600D02*
D03*
Y520800D02*
D03*
X1325900Y571600D02*
D03*
X1402100D02*
D03*
Y546200D02*
D03*
X1325900Y495400D02*
D03*
Y470000D02*
D03*
Y444600D02*
D03*
Y546200D02*
D03*
X1402100Y495400D02*
D03*
X1325900Y520800D02*
D03*
Y286200D02*
D03*
Y184600D02*
D03*
Y210000D02*
D03*
Y235400D02*
D03*
X1402100Y286200D02*
D03*
Y311600D02*
D03*
X1325900D02*
D03*
X1402100Y260800D02*
D03*
X1325900Y159200D02*
D03*
X1402100D02*
D03*
X1325900Y133800D02*
D03*
Y108400D02*
D03*
X1402100Y133800D02*
D03*
Y108400D02*
D03*
Y184600D02*
D03*
Y210000D02*
D03*
Y235400D02*
D03*
X1325900Y260800D02*
D03*
D134*
X323000Y549500D02*
D03*
Y562500D02*
D03*
X284000Y549500D02*
D03*
Y562500D02*
D03*
X297000Y549500D02*
D03*
Y562500D02*
D03*
X310000Y549500D02*
D03*
Y562500D02*
D03*
X308500Y393500D02*
D03*
Y380500D02*
D03*
X295500Y393500D02*
D03*
Y380500D02*
D03*
X282500Y393500D02*
D03*
Y380500D02*
D03*
X321500Y393500D02*
D03*
Y380500D02*
D03*
X17140Y620000D02*
D03*
X23836Y603835D02*
D03*
X40000Y597140D02*
D03*
X23836Y636165D02*
D03*
X40000Y642860D02*
D03*
X56164Y603835D02*
D03*
Y636165D02*
D03*
X62860Y620000D02*
D03*
X1460000Y597140D02*
D03*
X1476164Y603835D02*
D03*
X1443836D02*
D03*
X1482860Y620000D02*
D03*
X1437140D02*
D03*
X1476164Y636165D02*
D03*
X1443836D02*
D03*
X1460000Y642860D02*
D03*
X1443836Y23836D02*
D03*
X1437140Y40000D02*
D03*
X1460000Y17140D02*
D03*
X1476164Y56164D02*
D03*
X1443836D02*
D03*
X1460000Y62860D02*
D03*
X1476164Y23836D02*
D03*
X1482860Y40000D02*
D03*
X23836Y23836D02*
D03*
X40000Y17140D02*
D03*
X17140Y40000D02*
D03*
X56164Y23836D02*
D03*
Y56164D02*
D03*
X62860Y40000D02*
D03*
X23836Y56164D02*
D03*
X40000Y62860D02*
D03*
X483835Y503836D02*
D03*
X500000Y497140D02*
D03*
X516164Y503836D02*
D03*
X477140Y520000D02*
D03*
X522860D02*
D03*
X483835Y536164D02*
D03*
X516164D02*
D03*
X500000Y542860D02*
D03*
X940000Y257140D02*
D03*
X923835Y263836D02*
D03*
X956165D02*
D03*
X917140Y280000D02*
D03*
X923835Y296164D02*
D03*
X962860Y280000D02*
D03*
X940000Y302860D02*
D03*
X956165Y296164D02*
D03*
X483835Y263836D02*
D03*
X500000Y257140D02*
D03*
X516164Y263836D02*
D03*
X477140Y280000D02*
D03*
X522860D02*
D03*
X483835Y296164D02*
D03*
X516164D02*
D03*
X500000Y302860D02*
D03*
X923835Y503836D02*
D03*
X917140Y520000D02*
D03*
X923835Y536164D02*
D03*
X940000Y497140D02*
D03*
X956165Y503836D02*
D03*
Y536164D02*
D03*
X962860Y520000D02*
D03*
X940000Y542860D02*
D03*
D136*
X570000Y470000D02*
D03*
X870000Y330000D02*
D03*
D146*
X324858Y316000D02*
X399358Y390500D01*
X380129Y461265D02*
X399379D01*
X593018Y448518D02*
X689482D01*
X1203424Y291071D02*
X1276556D01*
X245000Y312000D02*
X249000Y316000D01*
X1214750Y436322D02*
X1257596D01*
X1308000Y504000D02*
Y589485D01*
X991000Y322727D02*
X1009727Y304000D01*
X1214761Y341000D02*
X1264485D01*
X1164771Y343000D02*
X1167000D01*
X1166667Y436322D02*
X1214750D01*
X1156000Y343000D02*
X1164771D01*
X1169000Y341000D02*
X1214761D01*
X739000Y66000D02*
X745000Y60000D01*
X739000Y66000D02*
Y173000D01*
X1294000Y595000D02*
X1302485D01*
X1308000Y589485D01*
X1279000Y457727D02*
Y472485D01*
X991000Y322727D02*
Y323000D01*
X1189495Y305000D02*
X1203424Y291071D01*
X399358Y390500D02*
X402985D01*
X249000Y316000D02*
X324858D01*
X425462Y412977D02*
Y468102D01*
X402985Y390500D02*
X425462Y412977D01*
X1276556Y291071D02*
X1281000Y295515D01*
X1087115Y292600D02*
X1090592Y296077D01*
X1009727Y304000D02*
X1025485D01*
X1090592Y296077D02*
X1095438D01*
X1104361Y305000D02*
X1189495D01*
X1095438Y296077D02*
X1104361Y305000D01*
X1025485Y304000D02*
X1036885Y292600D01*
X1276000Y321000D02*
X1281000Y316000D01*
X1036885Y292600D02*
X1087115D01*
X1281000Y295515D02*
Y316000D01*
X1164989Y438000D02*
X1166667Y436322D01*
X1155989Y438000D02*
X1164989D01*
X714515Y436250D02*
X727890Y449625D01*
X768625D02*
X782000Y463000D01*
X560778Y434000D02*
X578500D01*
X399379Y461265D02*
X413216Y475102D01*
X519676D01*
X321000Y467000D02*
X374393D01*
X272000Y422000D02*
X276000D01*
X727890Y449625D02*
X768625D01*
X276000Y422000D02*
X321000Y467000D01*
X689482Y448518D02*
X701750Y436250D01*
X519676Y475102D02*
X560778Y434000D01*
X701750Y436250D02*
X714515D01*
X374393Y467000D02*
X380129Y461265D01*
X578500Y434000D02*
X593018Y448518D01*
X1102485Y507000D02*
X1113000D01*
X1088885Y520600D02*
X1102485Y507000D01*
X1011400Y520600D02*
X1088885D01*
X1280515Y500000D02*
X1304000D01*
X1264485Y341000D02*
X1304000Y380515D01*
X1155989Y447000D02*
X1155989Y447000D01*
X1257596Y436322D02*
X1279000Y457727D01*
X1155989Y438000D02*
Y447000D01*
X1304000Y380515D02*
Y500000D01*
X1273000Y478485D02*
Y492485D01*
Y478485D02*
X1279000Y472485D01*
X1167000Y343000D02*
X1169000Y341000D01*
X1156000Y343000D02*
Y352000D01*
X1156000Y352000D01*
X1156000Y343000D02*
X1156000Y343000D01*
X1167000D02*
Y352000D01*
X1155989Y447000D02*
X1164989D01*
X1273000Y492485D02*
X1280515Y500000D01*
X1304000D02*
X1308000Y504000D01*
X995000Y537000D02*
X1011400Y520600D01*
D147*
X324185Y576900D02*
X347985Y553100D01*
X326173Y581700D02*
X341773Y566100D01*
X328162Y586500D02*
X338362Y576300D01*
X429137D01*
X121970Y576900D02*
X324185D01*
X110770Y581700D02*
X326173D01*
X108782Y586500D02*
X328162D01*
X753770Y310700D02*
X764970Y321900D01*
X751930Y310000D02*
X752630Y310700D01*
X753770D01*
X743030Y301100D02*
X751930Y310000D01*
X715070Y273000D02*
X774308D01*
X703100Y261030D02*
X715070Y273000D01*
X774308D02*
X777308Y276000D01*
X738970Y301100D02*
X743030D01*
X722000Y310000D02*
X729600Y302400D01*
X737670D01*
X738970Y301100D01*
X90920Y565817D02*
Y566000D01*
X811594Y432100D02*
X854994Y475500D01*
X214583Y500347D02*
X232256Y482674D01*
X197906Y243165D02*
X333330D01*
X784370Y266300D02*
X830000D01*
X1104977Y450082D02*
X1154506Y400553D01*
X1178188Y442222D02*
X1214750D01*
X90920Y566000D02*
Y568638D01*
X346045Y230450D02*
X536070D01*
X799930Y310000D02*
X800030Y309900D01*
X1004000Y266000D02*
X1004229Y265770D01*
X776413Y547000D02*
X811763Y582350D01*
X1164761Y425622D02*
X1214750D01*
X766514Y537100D02*
X776413Y547000D01*
X714000D02*
X723900Y537100D01*
X774300Y251000D02*
Y263018D01*
X1193120Y405553D02*
X1193432Y405241D01*
X758257Y422500D02*
X815570D01*
X623000Y483000D02*
X625900Y480100D01*
X101000Y554000D02*
X129011Y525989D01*
X788030Y321900D02*
X799930Y310000D01*
X1164761Y430422D02*
X1214750D01*
X1154868Y366000D02*
X1164771D01*
X703100Y242487D02*
Y251000D01*
X95720Y563829D02*
Y566000D01*
X704000Y211000D02*
Y241586D01*
X73071Y407000D02*
X80427D01*
X71848Y548778D02*
X76011D01*
X1056170Y509900D02*
X1088170Y477900D01*
X1046643Y556700D02*
X1067043Y536300D01*
X470500Y400679D02*
X627098D01*
X1122100Y500928D02*
X1164761Y458268D01*
X813582Y427300D02*
X856982Y470700D01*
X72070Y313000D02*
X77000D01*
X578000Y357000D02*
X668586D01*
X368900Y581100D02*
X419382D01*
X1214750Y454753D02*
X1221262D01*
X1191997Y347000D02*
X1214761D01*
X55511Y564429D02*
X87381Y596300D01*
X1159831Y469986D02*
X1164761Y465056D01*
X77930Y313000D02*
X88900Y302030D01*
X777308Y276000D02*
X830000D01*
X1214750Y425622D02*
X1238378D01*
X50711Y566418D02*
X85393Y601100D01*
X1214761Y334700D02*
X1261975D01*
X890160Y300800D02*
X920310Y330950D01*
X195530Y519400D02*
X214583Y500347D01*
X208582Y225700D02*
X344007D01*
X703100Y242487D02*
X704000Y241586D01*
X1164761Y452900D02*
X1167510D01*
X591070Y284000D02*
X629730Y245341D01*
X800030Y309900D02*
X803170D01*
X1155223Y430422D02*
X1164761D01*
X87381Y596300D02*
X353700D01*
X173350Y220900D02*
X228524D01*
X933000Y139675D02*
Y140000D01*
X1197228Y390953D02*
X1244953D01*
X1180176Y447022D02*
X1214750D01*
X593706Y379800D02*
X682482D01*
X1202920Y395753D02*
X1236949D01*
X1103630Y536300D02*
X1159831Y480099D01*
X963706Y559950D02*
X1008956Y514700D01*
X892148Y296000D02*
X920298Y324150D01*
X195931Y554069D02*
X224080Y525921D01*
X1164761Y405553D02*
X1193120D01*
X830000Y296000D02*
X892148D01*
X832000Y490000D02*
X897150Y555150D01*
X1097317Y306300D02*
X1102317Y311300D01*
X831000Y498000D02*
X892950Y559950D01*
X95720Y566000D02*
Y566649D01*
X830000Y305283D02*
X834483Y300800D01*
X998189Y323881D02*
X1012170Y309900D01*
X825283Y310000D02*
X830000Y305283D01*
X961718Y555150D02*
X1006968Y509900D01*
X1214761Y329900D02*
X1243100D01*
X50711Y326360D02*
Y566418D01*
X593130Y366800D02*
X681906D01*
X347985Y553100D02*
X412514D01*
X372610Y409320D02*
X389770Y392159D01*
X135600Y519400D02*
X172000D01*
X1164771Y334700D02*
X1214761D01*
X604000Y502000D02*
X623000Y483000D01*
X69860Y553578D02*
X76011D01*
X830000Y266300D02*
X841018D01*
X60311Y419760D02*
X73071Y407000D01*
X1154506Y400553D02*
X1187628D01*
X106070Y566000D02*
X107170Y567100D01*
X228573Y220850D02*
X585526D01*
X817070Y296000D02*
X830000D01*
X1079370Y514700D02*
X1115024Y479046D01*
X1036832Y314700D02*
X1048232Y303300D01*
X587000Y519000D02*
X604000Y502000D01*
X703100Y251000D02*
Y261030D01*
X1038820Y319500D02*
X1050220Y308100D01*
X774300Y232286D02*
Y251000D01*
X1156261Y334700D02*
X1164771D01*
X129011Y525989D02*
X135600Y519400D01*
X1164771Y329900D02*
X1214761D01*
X172000Y519400D02*
X195530D01*
X1214750Y442222D02*
X1255152D01*
X1044655Y551900D02*
X1065055Y531500D01*
X1079018Y303300D02*
X1086818Y311100D01*
X805171Y336900D02*
X836471Y305600D01*
X1214750Y430422D02*
X1274470D01*
X1153235Y425622D02*
X1164761D01*
X591200Y361800D02*
X680118D01*
X595118Y371600D02*
X683894D01*
X806953Y328330D02*
X825283Y310000D01*
X76011Y553578D02*
X78681D01*
X1163340Y452900D02*
X1164761D01*
X1214750Y447022D02*
X1253022D01*
X1153556Y357900D02*
X1164771D01*
X1147977Y395653D02*
X1169000D01*
X888172Y305600D02*
X920872Y338300D01*
X779100Y251000D02*
Y261030D01*
X344057Y225650D02*
X538058D01*
X830000Y271100D02*
X839030D01*
X76011Y548778D02*
X80669D01*
X804000Y547000D02*
X821750Y564750D01*
X1164761Y458268D02*
X1165328Y457700D01*
X1214761Y347000D02*
X1261800D01*
X341773Y566100D02*
X425725D01*
X50711Y326360D02*
X82624Y294447D01*
X779100Y234275D02*
Y251000D01*
X77000Y313000D02*
X77930D01*
X80427Y407000D02*
X93080Y394347D01*
X1193432Y405241D02*
X1202920Y395753D01*
X782382Y271100D02*
X830000D01*
X803170Y309900D02*
X817070Y296000D01*
X85393Y601100D02*
X569900D01*
X224080Y525921D02*
X225316Y524684D01*
X1164771Y357900D02*
X1181097D01*
X605100Y96900D02*
X616100Y85900D01*
X673830D02*
X719700Y131770D01*
X414788Y57030D02*
X429359Y71600D01*
X485000Y96000D02*
X538298D01*
X429237Y576400D02*
X476144D01*
X476493Y576750D01*
X60311Y544029D02*
X69860Y553578D01*
X474505Y581550D02*
X575126D01*
X419482Y581200D02*
X474155D01*
X533468Y560000D02*
X545000D01*
X521518Y571950D02*
X533468Y560000D01*
X474155Y581200D02*
X474505Y581550D01*
X569675Y574000D02*
X570000D01*
X433214Y566800D02*
X480120D01*
X112170Y567100D02*
X121970Y576900D01*
X891000Y249000D02*
X921291D01*
X737770Y330230D02*
X738000Y330000D01*
X921291Y249000D02*
X925440Y244850D01*
X398000Y59000D02*
X399970Y57030D01*
X389000Y59000D02*
X398000D01*
X459393Y130230D02*
X460264Y131100D01*
X582023Y126100D02*
X644877D01*
X679100Y203185D02*
X714900Y167385D01*
X616100Y85900D02*
X673830D01*
X595170Y92100D02*
X599970Y96900D01*
X392000Y65000D02*
X392059Y65059D01*
X547417Y131100D02*
X551217Y134900D01*
X538298Y96000D02*
X542198Y92100D01*
X644877Y126100D02*
X657313Y138535D01*
X267018Y81300D02*
X267618Y81900D01*
X234100Y103030D02*
X239970Y108900D01*
X679100Y203185D02*
Y240030D01*
X234100Y98970D02*
Y103030D01*
Y98970D02*
X251770Y81300D01*
X155750Y238500D02*
X173350Y220900D01*
X228524D02*
X228573Y220850D01*
X344007Y225700D02*
X344057Y225650D01*
X189382Y244900D02*
X208582Y225700D01*
X136770Y249700D02*
X191370D01*
X333330Y243165D02*
X346045Y230450D01*
X137750Y238500D02*
X144150Y244900D01*
X124100Y237030D02*
X136770Y249700D01*
X251770Y81300D02*
X267018D01*
X247100Y100100D02*
X253000Y106000D01*
X684000Y205073D02*
X719700Y169373D01*
X542198Y92100D02*
X595170D01*
X265030Y86100D02*
X265630Y86700D01*
X239970Y108900D02*
X246900D01*
X1034844Y309900D02*
X1046244Y298500D01*
X965606Y324150D02*
X966056Y323700D01*
X998189Y323881D02*
Y325486D01*
X1092471Y306300D02*
X1097317D01*
X810525Y587900D02*
X997030D01*
X717970Y553100D02*
X722830D01*
X997030Y587900D02*
X999330Y585600D01*
X1043345Y578100D02*
X1068345Y553100D01*
X1094159Y564770D02*
X1098900Y560030D01*
X1042633Y585600D02*
X1070233Y558000D01*
X797070Y547000D02*
X819620Y569550D01*
X983419D02*
X996268Y556700D01*
X1046643D01*
X1062150Y580850D02*
X1075000Y568000D01*
X762200Y600200D02*
X1049530D01*
X1062150Y580850D02*
Y587580D01*
X1049530Y600200D02*
X1062150Y587580D01*
X988721Y582350D02*
X992970Y578100D01*
X811763Y582350D02*
X988721D01*
X1133688Y225900D02*
X1163232D01*
X876000Y110000D02*
Y144000D01*
X874900Y108900D02*
X876000Y110000D01*
X859000Y59000D02*
X874900Y74900D01*
Y108900D01*
X719700Y131770D02*
Y169373D01*
X212700Y124666D02*
Y185975D01*
X246900Y108900D02*
X253000Y115000D01*
X247100Y94970D02*
X255970Y86100D01*
X265630Y86700D02*
X275018D01*
X191370Y249700D02*
X197906Y243165D01*
X138154Y230100D02*
X146750Y238696D01*
X126970Y230100D02*
X138154D01*
X124100Y232970D02*
Y237030D01*
Y232970D02*
X126970Y230100D01*
X370480Y404520D02*
X375000Y400000D01*
X277018Y403300D02*
X278238Y404520D01*
X256400Y422670D02*
Y495529D01*
X225316Y524684D02*
X227245D01*
X408238Y66100D02*
X416100D01*
X398200Y65059D02*
X399970Y66830D01*
X416100Y66100D02*
X426000Y76000D01*
X407508Y66830D02*
X408238Y66100D01*
X392059Y65059D02*
X398200D01*
X679100Y240030D02*
X681970Y242900D01*
X309000Y492000D02*
Y498000D01*
Y492000D02*
X314000D01*
Y498000D01*
X309000D02*
X314000D01*
X277912Y529089D02*
X309000Y498000D01*
X263725Y529089D02*
X277912D01*
X110830Y290100D02*
X178833D01*
X576675Y580000D02*
X577000D01*
X419382Y581100D02*
X419482Y581200D01*
X575126Y581550D02*
X576675Y580000D01*
X88900Y301425D02*
X90000Y300325D01*
X106483Y294447D02*
X110830Y290100D01*
X569900Y601100D02*
X576000Y595000D01*
X178833Y290100D02*
X188080Y299347D01*
X88900Y301425D02*
Y302030D01*
X90000Y300000D02*
Y300325D01*
X1028400Y454882D02*
X1106965D01*
X1159091Y405553D02*
X1164761D01*
X1145000Y393000D02*
X1145325D01*
X1141460Y423183D02*
X1159091Y405553D01*
X815570Y422500D02*
X858970Y465900D01*
X1137661Y316100D02*
X1156261Y334700D01*
X1100329Y316100D02*
X1137661D01*
X1102317Y311300D02*
X1139649D01*
X1158249Y329900D01*
X723328Y322770D02*
X730599Y315500D01*
X1023675Y277000D02*
X1024000D01*
X737770Y330230D02*
Y335947D01*
X691982Y370300D02*
X698994D01*
X740030Y325100D02*
X740700Y325770D01*
X1078000Y250000D02*
X1100071D01*
X1121000Y229071D01*
X888820Y235250D02*
X963756D01*
X689994Y365500D02*
X697006D01*
X459300Y398162D02*
X480762Y376700D01*
X732900Y328170D02*
Y334030D01*
X981406Y334900D02*
X1005312D01*
X834483Y300800D02*
X890160D01*
X1140709Y333779D02*
Y345053D01*
X994000Y329675D02*
X998189Y325486D01*
X788259Y328330D02*
X806953D01*
X1243100Y329900D02*
X1275000Y298000D01*
X1048232Y303300D02*
X1079018D01*
X1077030Y308100D02*
X1085136Y316207D01*
X1050220Y308100D02*
X1077030D01*
X890950Y240050D02*
X961768D01*
X999406Y270900D02*
X1006029D01*
X1011029Y265900D01*
X1046244Y298500D02*
X1084671D01*
X1092471Y306300D01*
X976994Y323700D02*
X983294Y330000D01*
X730599Y315500D02*
X751782D01*
X718000Y323000D02*
X718230Y322770D01*
X1086818Y311100D02*
X1095329D01*
X1263675Y333000D02*
X1264000D01*
X719000Y329000D02*
X719230Y328770D01*
X1145325Y393000D02*
X1147977Y395653D01*
X1025512Y314700D02*
X1036832D01*
X1095329Y311100D02*
X1100329Y316100D01*
X718230Y322770D02*
X723328D01*
X749794Y320300D02*
X766394Y336900D01*
X920298Y324150D02*
X965606D01*
X966056Y323700D02*
X976994D01*
X1012170Y309900D02*
X1034844D01*
X998775Y347900D02*
X1002675Y344000D01*
X1085136Y316207D02*
X1086277D01*
X1127861Y320932D02*
X1140709Y333779D01*
X719230Y328770D02*
X724300D01*
X1088170Y477900D02*
X1102463D01*
X1115881Y464482D01*
X1141460Y423183D02*
Y427469D01*
X643589Y245341D02*
X668000Y220930D01*
X920310Y330950D02*
X964921D01*
X967470Y333500D02*
X980006D01*
X981406Y334900D01*
X766394Y336900D02*
X805171D01*
X1261975Y334700D02*
X1263675Y333000D01*
X1091002Y320932D02*
X1127861D01*
X787030Y327100D02*
X788259Y328330D01*
X763382Y327100D02*
X787030D01*
X819620Y569550D02*
X983419D01*
X1122100Y500928D02*
Y506244D01*
X968321Y564750D02*
X981170Y551900D01*
X1165977Y463839D02*
X1170148D01*
X1189538Y451822D02*
X1192468Y454753D01*
X1182165Y451822D02*
X1189538D01*
X1167510Y452900D02*
X1178188Y442222D01*
X892950Y559950D02*
X963706D01*
X981170Y551900D02*
X1044655D01*
X1192468Y454753D02*
X1214750D01*
X821750Y564750D02*
X968321D01*
X1164761Y465056D02*
X1165977Y463839D01*
X1067043Y536300D02*
X1103630D01*
X1165328Y457700D02*
X1169499D01*
X1170148Y463839D02*
X1182165Y451822D01*
X1121164Y464482D02*
X1155223Y430422D01*
X1221262Y454753D02*
X1228509Y462000D01*
X1065055Y531500D02*
X1096844D01*
X1122100Y506244D01*
X1169499Y457700D02*
X1180176Y447022D01*
X389770Y390230D02*
X390000Y390000D01*
X389770Y390230D02*
Y392159D01*
X256400Y422670D02*
X270970Y408100D01*
X276249Y409320D02*
X372610D01*
X232256Y440026D02*
X268982Y403300D01*
X278238Y404520D02*
X370480D01*
X268982Y403300D02*
X277018D01*
X270970Y408100D02*
X275030D01*
X276249Y409320D01*
X227245Y524684D02*
X256400Y495529D01*
X232256Y440026D02*
Y482674D01*
X1325900Y159200D02*
X1363200Y196500D01*
X1412675Y195000D02*
X1413000D01*
X1363200Y196500D02*
X1411175D01*
X1412675Y195000D01*
X1279000Y490000D02*
X1284900Y484100D01*
X897150Y555150D02*
X961718D01*
X1115881Y464482D02*
X1121164D01*
X1274470Y430422D02*
X1284900Y440853D01*
X1014570Y475500D02*
X1019970Y470100D01*
X1093389Y459682D02*
X1119175D01*
X1043270Y470100D02*
X1051070Y477900D01*
X1079030D02*
X1082000Y474930D01*
X1158249Y329900D02*
X1164771D01*
X994000Y329675D02*
Y330000D01*
X1086277Y316207D02*
X1091002Y320932D01*
X920872Y338300D02*
X978018D01*
X1010141Y368000D02*
X1012652Y370510D01*
X1118830Y343100D02*
X1131968D01*
X1181097Y357900D02*
X1191997Y347000D01*
X987382Y389900D02*
X994182Y383100D01*
X969676Y389900D02*
X987382D01*
X1146446Y366770D02*
X1146770D01*
X1164771Y366000D02*
X1169000D01*
X1115024Y479046D02*
X1137194D01*
X1273000Y460070D02*
Y470000D01*
X1116412Y224171D02*
X1125171D01*
X1058000Y152000D02*
X1069675D01*
X1071675Y154000D01*
X1125171Y224171D02*
X1139000Y238000D01*
X1050399Y139970D02*
Y144399D01*
X1090469Y127100D02*
X1137529D01*
X1089675Y241500D02*
X1099083D01*
X1116412Y224171D01*
X1152500Y238000D02*
X1158000Y243500D01*
X1071675Y154000D02*
X1072000D01*
Y145569D02*
Y154000D01*
X1139000Y238000D02*
X1152500D01*
X1058675Y243500D02*
X1087675D01*
X1038170Y236100D02*
X1041755Y239685D01*
X995400Y236100D02*
X1038170D01*
X1001529Y127100D02*
X1003328Y128900D01*
X997199Y143370D02*
Y147231D01*
X1016575Y135100D02*
X1018675Y133000D01*
X997199Y143370D02*
X1005469Y135100D01*
X1018675Y133000D02*
X1019000D01*
X997469Y127100D02*
X1001529D01*
X990000Y241500D02*
X995400Y236100D01*
X1072000Y145569D02*
X1090469Y127100D01*
X1005469Y135100D02*
X1016575D01*
X981659Y162771D02*
X997199Y147231D01*
X1003328Y128900D02*
X1015987D01*
X992399Y132170D02*
X997469Y127100D01*
X992399Y132170D02*
Y145101D01*
X1008523Y199900D02*
X1021524Y212900D01*
X846000Y224000D02*
X876900Y193100D01*
X1050399Y144399D02*
X1058000Y152000D01*
X1156000Y145571D02*
Y153000D01*
X1054861Y239685D02*
X1058675Y243500D01*
X1038529Y128100D02*
X1050399Y139970D01*
X1137529Y127100D02*
X1156000Y145571D01*
X1087675Y243500D02*
X1089675Y241500D01*
X1041755Y239685D02*
X1054861D01*
X1015987Y128900D02*
X1016787Y128100D01*
X1038529D01*
X987000Y150500D02*
X992399Y145101D01*
X1103670Y136900D02*
X1105570Y135000D01*
X1099100Y136900D02*
X1103670D01*
X975729Y162771D02*
X981659D01*
X975499Y163000D02*
X975729Y162771D01*
X925000Y98070D02*
Y141000D01*
X918000Y60000D02*
Y91070D01*
X925000Y98070D01*
X933900Y65900D02*
Y138775D01*
X933000Y139675D02*
X933900Y138775D01*
X928000Y60000D02*
X933900Y65900D01*
X173000Y85930D02*
X205970Y118900D01*
X206934D01*
X212700Y124666D01*
X173000Y77000D02*
Y85930D01*
X196100Y174900D02*
X203000Y168000D01*
X196100Y194030D02*
X203070Y201000D01*
X72000Y264000D02*
X106000D01*
X1137532Y253603D02*
X1146900Y262970D01*
X1129751Y253603D02*
X1137532D01*
X1118000Y288000D02*
X1125930D01*
X1146900Y267030D01*
X879100Y244970D02*
Y253100D01*
Y244970D02*
X888820Y235250D01*
X718018Y337700D02*
X722300D01*
X603100Y229900D02*
X617000Y216000D01*
X605300Y234700D02*
X622541Y217460D01*
X267618Y81900D02*
X273030D01*
X132500Y261500D02*
X146750D01*
X115000Y244000D02*
X132500Y261500D01*
X720750Y424750D02*
X728100Y432100D01*
X709000Y552000D02*
X714000Y547000D01*
X707000Y559000D02*
Y571930D01*
X740070Y605000D01*
X712230Y558841D02*
Y560770D01*
X724830Y551100D02*
X773725D01*
X810525Y587900D01*
X999330Y585600D02*
X1042633D01*
X712000Y561000D02*
X712230Y560770D01*
X566926Y576750D02*
X569675Y574000D01*
X60311Y419760D02*
Y544029D01*
X144150Y244900D02*
X189382D01*
X78681Y553578D02*
X90920Y565817D01*
X80669Y548778D02*
X95720Y563829D01*
X1284900Y440853D02*
Y484100D01*
X1119175Y459682D02*
X1153235Y425622D01*
X65111Y475970D02*
Y542040D01*
X429137Y576300D02*
X429237Y576400D01*
X55511Y329560D02*
Y564429D01*
Y329560D02*
X72070Y313000D01*
X766400Y595400D02*
X1039621D01*
X1071921Y563100D01*
X992970Y578100D02*
X1043345D01*
X1092230Y564770D02*
X1094159D01*
X1098900Y555970D02*
Y560030D01*
X546000Y284000D02*
X591070D01*
X668000Y204000D02*
Y220930D01*
X551217Y134900D02*
X573223D01*
X582023Y126100D01*
X702465Y138535D02*
X714900Y150970D01*
Y167385D01*
X684000Y205073D02*
Y238000D01*
X741617Y352100D02*
X744717Y349000D01*
X643177Y384600D02*
X684470D01*
X590018Y376700D02*
X595118Y371600D01*
X740700Y325770D02*
X743770D01*
X464100Y400150D02*
X482750Y381500D01*
X959780Y244850D02*
X995430Y280500D01*
X723900Y537100D02*
X766514D01*
X1045100Y337970D02*
X1061964Y321107D01*
X1028530Y365710D02*
X1045100Y349140D01*
X976030Y343100D02*
X987030Y354100D01*
X859800Y354400D02*
X915710D01*
X1006968Y509900D02*
X1056170D01*
X1137194Y479046D02*
X1163340Y452900D01*
X1008956Y514700D02*
X1079370D01*
X1096030Y553100D02*
X1098900Y555970D01*
X1068345Y553100D02*
X1096030D01*
X987030Y354100D02*
X1003030D01*
X813105Y346100D02*
X851500D01*
X957400Y345500D02*
X959800Y343100D01*
X1014640Y365710D02*
X1028530D01*
X1045100Y337970D02*
Y349140D01*
X732770Y320300D02*
X749794D01*
X1061964Y321107D02*
X1084107D01*
X978018Y338300D02*
X987618Y347900D01*
X983294Y330000D02*
X994000D01*
X959800Y343100D02*
X976030D01*
X1027500Y319500D02*
X1038820D01*
X915710Y354400D02*
X924610Y345500D01*
X1003030Y354100D02*
X1014640Y365710D01*
X724300Y328770D02*
X732770Y320300D01*
X924610Y345500D02*
X957400D01*
X808003Y340998D02*
X813105Y346100D01*
X851500D02*
X859800Y354400D01*
X891100Y266900D02*
X900000Y258000D01*
X879100Y253100D02*
X888000Y262000D01*
X714770Y333230D02*
Y334159D01*
X698511Y350419D02*
X714770Y334159D01*
X1010594Y465900D02*
X1026412Y450082D01*
X1116747Y445100D02*
X1123830D01*
X1106965Y454882D02*
X1116747Y445100D01*
X750807Y415050D02*
X758257Y422500D01*
X715525Y415050D02*
X750807D01*
X743770Y325770D02*
X744000Y326000D01*
X1008018Y275700D02*
X1012253Y271465D01*
X474900Y426830D02*
Y438100D01*
X482750Y381500D02*
X592006D01*
X1011568Y253503D02*
X1020251D01*
X1004229Y260841D02*
X1011568Y253503D01*
X1004229Y260841D02*
Y265770D01*
X698994Y370300D02*
X721994Y347300D01*
X712230Y558841D02*
X717970Y553100D01*
X722830D02*
X724830Y551100D01*
X625900Y480100D02*
X733900D01*
X480470Y567150D02*
X519530D01*
X420714Y561300D02*
X427714D01*
X577580Y586350D02*
X584770Y579159D01*
X90920Y568638D02*
X108782Y586500D01*
X480120Y566800D02*
X480470Y567150D01*
X425725Y566100D02*
X431225Y571600D01*
X387000Y586000D02*
X472167D01*
X478481Y571950D02*
X521518D01*
X353700Y596300D02*
X368900Y581100D01*
X476493Y576750D02*
X566926D01*
X472167Y586000D02*
X472517Y586350D01*
X534680Y552000D02*
X550000D01*
X65111Y542040D02*
X71848Y548778D01*
X519530Y567150D02*
X534680Y552000D01*
X95720Y566649D02*
X110770Y581700D01*
X427714Y561300D02*
X433214Y566800D01*
X412514Y553100D02*
X420714Y561300D01*
X478132Y571600D02*
X478481Y571950D01*
X1071921Y563100D02*
X1077030D01*
X1070233Y558000D02*
X1094000D01*
X803100Y536100D02*
X812000Y545000D01*
X795970Y536100D02*
X803100D01*
X734870Y609800D02*
X1065200D01*
X740070Y605000D02*
X1061000D01*
X707670Y614600D02*
X1069400D01*
X107170Y567100D02*
X112170D01*
X431225Y571600D02*
X478132D01*
X830000Y276000D02*
X837000D01*
X1255152Y442222D02*
X1273000Y460070D01*
X727000Y556000D02*
X766400Y595400D01*
X1061000Y605000D02*
X1085000Y581000D01*
X1065200Y609800D02*
X1093000Y582000D01*
X688230Y563159D02*
X734870Y609800D01*
X1069400Y614600D02*
X1101000Y583000D01*
X683100Y590030D02*
X707670Y614600D01*
X720000Y558000D02*
X762200Y600200D01*
X584770Y575230D02*
X585000Y575000D01*
X584770Y575230D02*
Y579159D01*
X82624Y294447D02*
X106483D01*
X472517Y586350D02*
X577580D01*
X1253022Y447022D02*
X1260000Y454000D01*
X1228509Y462000D02*
X1265000D01*
X1159831Y469986D02*
Y480099D01*
X884000Y247000D02*
X890950Y240050D01*
X592006Y381500D02*
X593706Y379800D01*
X925440Y244850D02*
X959780D01*
X459300Y419300D02*
X470000Y430000D01*
X469000Y444000D02*
X474900Y438100D01*
X681906Y366800D02*
X688006Y360700D01*
X454500Y422500D02*
X469000Y437000D01*
X454500Y396173D02*
X478773Y371900D01*
X454500Y396173D02*
Y422500D01*
X691499Y350419D02*
X698511D01*
X841618Y266900D02*
X891100D01*
X895300Y271700D02*
X901000Y266000D01*
X839030Y271100D02*
X839630Y271700D01*
X961768Y240050D02*
X997418Y275700D01*
X735970Y325100D02*
X740030D01*
X1005312Y334900D02*
X1025512Y314700D01*
X964921Y330950D02*
X967470Y333500D01*
X751782Y315500D02*
X763382Y327100D01*
X697006Y365500D02*
X720006Y342500D01*
X1023210Y271465D02*
X1027675Y267000D01*
X720006Y342500D02*
X724430D01*
X480762Y376700D02*
X590018D01*
X693970Y375100D02*
X708688D01*
X995430Y280500D02*
X1020175D01*
X682482Y379800D02*
X691982Y370300D01*
X1020175Y280500D02*
X1023675Y277000D01*
X724100Y354970D02*
Y359688D01*
X744717Y349000D02*
X745042D01*
X724100Y354970D02*
X726970Y352100D01*
X1012253Y271465D02*
X1023210D01*
X459300Y398162D02*
Y419300D01*
X708688Y375100D02*
X724100Y359688D01*
X721994Y347300D02*
X726418D01*
X684470Y384600D02*
X693970Y375100D01*
X680118Y361800D02*
X691499Y350419D01*
X683894Y371600D02*
X689994Y365500D01*
X691587Y334000D02*
X708000D01*
X726970Y352100D02*
X741617D01*
X714770Y333230D02*
X715000Y333000D01*
X586000Y367000D02*
X591200Y361800D01*
X695018Y360700D02*
X718018Y337700D01*
X464100Y400150D02*
Y416030D01*
X688006Y360700D02*
X695018D01*
X997418Y275700D02*
X1008018D01*
X732900Y328170D02*
X735970Y325100D01*
X839630Y271700D02*
X895300D01*
X1056382Y369900D02*
X1092030D01*
X1146770Y366770D02*
X1147000Y367000D01*
X1092030Y369900D02*
X1118830Y343100D01*
X1012652Y370510D02*
X1055772D01*
X969500Y368000D02*
X1010141D01*
X1131968Y343100D02*
X1154868Y366000D01*
X1055772Y370510D02*
X1056382Y369900D01*
X1055170Y377900D02*
X1058370Y374700D01*
X972425Y377900D02*
X1055170D01*
X1123680Y366300D02*
X1145975D01*
X969825Y380500D02*
X972425Y377900D01*
X1094300Y374700D02*
X1121000Y348000D01*
X1058370Y374700D02*
X1094300D01*
X969500Y380500D02*
X969825D01*
X1098780Y391200D02*
X1123680Y366300D01*
X1042431Y383100D02*
X1050531Y391200D01*
X1145975Y366300D02*
X1146446Y366770D01*
X1050531Y391200D02*
X1098780D01*
X994182Y383100D02*
X1042431D01*
X969500Y389724D02*
X969676Y389900D01*
X970000Y395000D02*
X989070D01*
X990970Y393100D02*
X1028775D01*
X1029675Y394000D01*
X1030000D01*
X989070Y395000D02*
X990970Y393100D01*
X1163232Y225900D02*
X1165132Y224000D01*
X1146900Y262970D02*
Y267030D01*
X255970Y86100D02*
X265030D01*
X247100Y94970D02*
Y100100D01*
X282000Y66000D02*
Y72930D01*
X273030Y81900D02*
X282000Y72930D01*
X457000Y130000D02*
X457230Y130230D01*
X399970Y57030D02*
X414788D01*
X289770Y66230D02*
X290000Y66000D01*
X599970Y96900D02*
X605100D01*
X681970Y242900D02*
X690100D01*
X695000Y238000D01*
X460264Y131100D02*
X547417D01*
X657313Y138535D02*
X702465D01*
X457230Y130230D02*
X459393D01*
X399970Y66830D02*
X407508D01*
X778900Y224100D02*
X779000Y224000D01*
X779100Y234275D02*
X783700Y229675D01*
X841018Y266300D02*
X841618Y266900D01*
X786000Y224000D02*
Y224141D01*
X783700Y226441D02*
X786000Y224141D01*
X668586Y357000D02*
X691587Y334000D01*
X778900Y224100D02*
Y227687D01*
X783700Y226441D02*
Y229675D01*
X779100Y261030D02*
X784370Y266300D01*
X774300Y232286D02*
X778900Y227687D01*
X774300Y263018D02*
X782382Y271100D01*
X629730Y245341D02*
X643589D01*
X585526Y220850D02*
X589675Y225000D01*
X590000D01*
X275018Y86700D02*
X289770Y71947D01*
Y66230D02*
Y71947D01*
X588030Y371900D02*
X593130Y366800D01*
X754000Y208000D02*
X770000Y224000D01*
X714000Y208000D02*
X754000D01*
X1021524Y212900D02*
X1120688D01*
X973170Y193100D02*
X979970Y199900D01*
X1008523D01*
X868000Y60000D02*
X885000Y77000D01*
Y144000D01*
X627098Y400679D02*
X643177Y384600D01*
X1082000Y471070D02*
X1093389Y459682D01*
X728100Y432100D02*
X811594D01*
X1238378Y425622D02*
X1244000Y420000D01*
X858970Y465900D02*
X1010594D01*
X754572Y427300D02*
X813582D01*
X1082000Y471070D02*
Y474930D01*
X854994Y475500D02*
X1014570D01*
X856982Y470700D02*
X1012582D01*
X747122Y419850D02*
X754572Y427300D01*
X1187628Y400553D02*
X1197228Y390953D01*
X1236949Y395753D02*
X1244000Y402803D01*
X1019970Y470100D02*
X1043270D01*
X1012582Y470700D02*
X1028400Y454882D01*
X1051070Y477900D02*
X1079030D01*
X793100Y538970D02*
X795970Y536100D01*
X793100Y538970D02*
Y543030D01*
X797070Y547000D01*
X798000Y541000D02*
X804000Y547000D01*
X987618Y347900D02*
X998775D01*
X1140709Y345053D02*
X1153556Y357900D01*
X609418Y244300D02*
X641718Y212000D01*
X536343Y244300D02*
X609418D01*
X641718Y212000D02*
X659000D01*
X611406Y249100D02*
X640506Y220000D01*
X534355Y249100D02*
X611406D01*
X641294Y226000D02*
X656000D01*
X640506Y220000D02*
X657000D01*
X540000Y278000D02*
X589294D01*
X641294Y226000D01*
X538331Y239500D02*
X607430D01*
X640930Y206000D01*
X657000D01*
X464100Y416030D02*
X474900Y426830D01*
X724430Y342500D02*
X732900Y334030D01*
X722300Y337700D02*
X728000Y332000D01*
X1129751Y253603D02*
X1129751Y253603D01*
X1127250Y162502D02*
X1127479Y162273D01*
X1129156D01*
X1100524Y145100D02*
X1130529D01*
X211000Y187675D02*
Y188000D01*
Y187675D02*
X212700Y185975D01*
X733900Y480100D02*
X740000Y474000D01*
X191100Y170900D02*
X203000Y159000D01*
X191100Y204100D02*
X203000Y216000D01*
X191100Y170900D02*
Y204100D01*
X204000Y180930D02*
Y195000D01*
Y180930D02*
X207900Y177030D01*
Y136900D02*
Y177030D01*
X203000Y132000D02*
X207900Y136900D01*
X196100Y174900D02*
Y194030D01*
X203070Y201000D02*
X211000D01*
X210930Y208000D02*
X217500Y201430D01*
Y110500D02*
Y201430D01*
X203000Y96000D02*
X217500Y110500D01*
X203000Y208000D02*
X210930D01*
X534082Y235250D02*
X538331Y239500D01*
X469750Y235250D02*
X534082D01*
X452000Y253000D02*
X469750Y235250D01*
X474950Y240050D02*
X532093D01*
X536343Y244300D01*
X462000Y253000D02*
X474950Y240050D01*
X96100Y535970D02*
Y556030D01*
X129011Y503060D02*
X144723Y487347D01*
X179080D01*
X96100Y535970D02*
X129011Y503060D01*
X96100Y556030D02*
X106070Y566000D01*
X129011Y428100D02*
X145327D01*
X65111Y475970D02*
X76011Y465070D01*
X145327Y428100D02*
X179080Y394347D01*
X112981Y428100D02*
X129011D01*
X76011Y465070D02*
X112981Y428100D01*
X1244000Y402803D02*
Y403000D01*
X714500Y423500D02*
X714825D01*
X718475Y419850D02*
X747122D01*
X714825Y423500D02*
X718475Y419850D01*
X1026412Y450082D02*
X1104977D01*
X708662Y421912D02*
X715525Y415050D01*
X1244953Y390953D02*
X1245000Y391000D01*
X876900Y193100D02*
X973170D01*
X1120688Y212900D02*
X1133688Y225900D01*
X538058Y225650D02*
X542308Y229900D01*
X603100D01*
X540320Y234700D02*
X605300D01*
X536070Y230450D02*
X540320Y234700D01*
X764970Y321900D02*
X788030D01*
X721000Y311000D02*
X722000Y310000D01*
X1003000Y344000D02*
X1027500Y319500D01*
X1002675Y344000D02*
X1002760D01*
X836471Y305600D02*
X888172D01*
X477079Y244850D02*
X530105D01*
X534355Y249100D01*
X356000Y278000D02*
X443930D01*
X477079Y244850D01*
X683100Y554900D02*
X688000Y550000D01*
X683100Y554900D02*
Y590030D01*
X688230Y559230D02*
Y563159D01*
X688000Y559000D02*
X688230Y559230D01*
X1076000Y574675D02*
Y575000D01*
Y574675D02*
X1079900Y570775D01*
X1077030Y563100D02*
X1079900Y565970D01*
Y570775D01*
X1092000Y565000D02*
X1092230Y564770D01*
X726418Y347300D02*
X737770Y335947D01*
X1027675Y267000D02*
X1028000D01*
X1017331Y265900D02*
X1017501Y265731D01*
X1011029Y265900D02*
X1017331D01*
X1133399Y147970D02*
Y158030D01*
X1130529Y145100D02*
X1133399Y147970D01*
X1129156Y162273D02*
X1133399Y158030D01*
X1089029Y156595D02*
X1100524Y145100D01*
X1105570Y135000D02*
X1118000D01*
X1076000Y160000D02*
X1099100Y136900D01*
X963756Y235250D02*
X999406Y270900D01*
X478773Y371900D02*
X588030D01*
X1123830Y445100D02*
X1141460Y427469D01*
X1165132Y224000D02*
X1195000D01*
D152*
X40000Y620000D02*
D03*
X1460000D02*
D03*
Y40000D02*
D03*
X40000D02*
D03*
X500000Y520000D02*
D03*
X940000Y280000D02*
D03*
X500000D02*
D03*
X940000Y520000D02*
D03*
D153*
X517000Y39000D02*
D03*
X1384000Y584000D02*
D03*
X1375000Y436000D02*
D03*
Y449000D02*
D03*
X1361000Y561000D02*
D03*
X1355000Y557000D02*
D03*
X1377000Y517000D02*
D03*
X1370000Y512000D02*
D03*
X1377000Y533000D02*
D03*
X1371000Y578600D02*
D03*
X1342000Y78000D02*
D03*
X1328000D02*
D03*
X334107Y126645D02*
D03*
X327000Y134000D02*
D03*
X1430000Y640000D02*
D03*
Y650000D02*
D03*
X1480000Y70000D02*
D03*
X1450000Y100000D02*
D03*
Y90000D02*
D03*
Y120000D02*
D03*
Y110000D02*
D03*
Y80000D02*
D03*
Y150000D02*
D03*
Y140000D02*
D03*
Y170000D02*
D03*
Y160000D02*
D03*
Y130000D02*
D03*
Y210000D02*
D03*
Y200000D02*
D03*
Y230000D02*
D03*
Y220000D02*
D03*
Y180000D02*
D03*
Y190000D02*
D03*
Y250000D02*
D03*
Y240000D02*
D03*
Y270000D02*
D03*
Y260000D02*
D03*
Y290000D02*
D03*
Y280000D02*
D03*
Y300000D02*
D03*
Y320000D02*
D03*
Y310000D02*
D03*
Y340000D02*
D03*
Y330000D02*
D03*
Y360000D02*
D03*
Y350000D02*
D03*
Y380000D02*
D03*
Y370000D02*
D03*
Y390000D02*
D03*
Y400000D02*
D03*
Y410000D02*
D03*
Y430000D02*
D03*
Y420000D02*
D03*
Y450000D02*
D03*
Y440000D02*
D03*
Y470000D02*
D03*
Y460000D02*
D03*
Y490000D02*
D03*
Y480000D02*
D03*
Y500000D02*
D03*
Y540000D02*
D03*
Y530000D02*
D03*
Y560000D02*
D03*
Y550000D02*
D03*
Y520000D02*
D03*
Y510000D02*
D03*
Y580000D02*
D03*
Y570000D02*
D03*
X1460000Y100000D02*
D03*
Y90000D02*
D03*
Y120000D02*
D03*
Y110000D02*
D03*
Y80000D02*
D03*
Y150000D02*
D03*
Y140000D02*
D03*
Y170000D02*
D03*
Y160000D02*
D03*
Y130000D02*
D03*
Y210000D02*
D03*
Y200000D02*
D03*
Y230000D02*
D03*
Y220000D02*
D03*
Y180000D02*
D03*
Y190000D02*
D03*
Y250000D02*
D03*
Y240000D02*
D03*
Y270000D02*
D03*
Y260000D02*
D03*
Y290000D02*
D03*
Y280000D02*
D03*
Y300000D02*
D03*
Y320000D02*
D03*
Y310000D02*
D03*
Y340000D02*
D03*
Y330000D02*
D03*
Y360000D02*
D03*
Y350000D02*
D03*
Y380000D02*
D03*
Y370000D02*
D03*
Y390000D02*
D03*
Y400000D02*
D03*
Y410000D02*
D03*
Y430000D02*
D03*
Y420000D02*
D03*
Y450000D02*
D03*
Y440000D02*
D03*
Y470000D02*
D03*
Y460000D02*
D03*
Y490000D02*
D03*
Y480000D02*
D03*
Y500000D02*
D03*
Y540000D02*
D03*
Y530000D02*
D03*
Y560000D02*
D03*
Y550000D02*
D03*
Y520000D02*
D03*
Y510000D02*
D03*
Y580000D02*
D03*
Y570000D02*
D03*
X1470000Y100000D02*
D03*
Y90000D02*
D03*
Y120000D02*
D03*
Y110000D02*
D03*
Y80000D02*
D03*
Y150000D02*
D03*
Y140000D02*
D03*
Y170000D02*
D03*
Y160000D02*
D03*
Y130000D02*
D03*
Y210000D02*
D03*
Y200000D02*
D03*
Y230000D02*
D03*
Y220000D02*
D03*
Y180000D02*
D03*
Y190000D02*
D03*
Y250000D02*
D03*
Y240000D02*
D03*
Y270000D02*
D03*
Y260000D02*
D03*
Y290000D02*
D03*
Y280000D02*
D03*
Y300000D02*
D03*
Y320000D02*
D03*
Y310000D02*
D03*
Y340000D02*
D03*
Y330000D02*
D03*
Y360000D02*
D03*
Y350000D02*
D03*
Y380000D02*
D03*
Y370000D02*
D03*
Y390000D02*
D03*
Y400000D02*
D03*
Y410000D02*
D03*
Y430000D02*
D03*
Y420000D02*
D03*
Y450000D02*
D03*
Y440000D02*
D03*
Y470000D02*
D03*
Y460000D02*
D03*
Y490000D02*
D03*
Y480000D02*
D03*
Y500000D02*
D03*
Y540000D02*
D03*
Y530000D02*
D03*
Y560000D02*
D03*
Y550000D02*
D03*
Y520000D02*
D03*
Y510000D02*
D03*
Y580000D02*
D03*
Y570000D02*
D03*
X1480000Y80000D02*
D03*
Y110000D02*
D03*
Y100000D02*
D03*
Y130000D02*
D03*
Y120000D02*
D03*
Y90000D02*
D03*
Y160000D02*
D03*
Y150000D02*
D03*
Y180000D02*
D03*
Y170000D02*
D03*
Y140000D02*
D03*
Y220000D02*
D03*
Y210000D02*
D03*
Y240000D02*
D03*
Y230000D02*
D03*
Y190000D02*
D03*
Y200000D02*
D03*
Y260000D02*
D03*
Y250000D02*
D03*
Y280000D02*
D03*
Y270000D02*
D03*
Y300000D02*
D03*
Y290000D02*
D03*
Y310000D02*
D03*
Y330000D02*
D03*
Y320000D02*
D03*
Y350000D02*
D03*
Y340000D02*
D03*
Y370000D02*
D03*
Y360000D02*
D03*
Y390000D02*
D03*
Y380000D02*
D03*
Y400000D02*
D03*
Y410000D02*
D03*
Y420000D02*
D03*
Y440000D02*
D03*
Y430000D02*
D03*
Y460000D02*
D03*
Y450000D02*
D03*
Y480000D02*
D03*
Y470000D02*
D03*
Y500000D02*
D03*
Y490000D02*
D03*
Y510000D02*
D03*
Y550000D02*
D03*
Y540000D02*
D03*
Y570000D02*
D03*
Y560000D02*
D03*
Y530000D02*
D03*
Y520000D02*
D03*
Y590000D02*
D03*
Y580000D02*
D03*
X30000Y80000D02*
D03*
Y110000D02*
D03*
Y100000D02*
D03*
Y130000D02*
D03*
Y120000D02*
D03*
Y90000D02*
D03*
Y160000D02*
D03*
Y150000D02*
D03*
Y180000D02*
D03*
Y170000D02*
D03*
Y140000D02*
D03*
Y220000D02*
D03*
Y210000D02*
D03*
Y240000D02*
D03*
Y230000D02*
D03*
Y190000D02*
D03*
Y200000D02*
D03*
Y260000D02*
D03*
Y250000D02*
D03*
Y280000D02*
D03*
Y270000D02*
D03*
Y300000D02*
D03*
Y290000D02*
D03*
Y310000D02*
D03*
Y330000D02*
D03*
Y320000D02*
D03*
Y350000D02*
D03*
Y340000D02*
D03*
Y370000D02*
D03*
Y360000D02*
D03*
Y390000D02*
D03*
Y380000D02*
D03*
Y400000D02*
D03*
Y410000D02*
D03*
Y420000D02*
D03*
Y440000D02*
D03*
Y430000D02*
D03*
Y460000D02*
D03*
Y450000D02*
D03*
Y480000D02*
D03*
Y470000D02*
D03*
Y500000D02*
D03*
Y490000D02*
D03*
Y510000D02*
D03*
Y550000D02*
D03*
Y540000D02*
D03*
Y570000D02*
D03*
Y560000D02*
D03*
Y530000D02*
D03*
Y520000D02*
D03*
Y580000D02*
D03*
X20000Y80000D02*
D03*
Y70000D02*
D03*
Y110000D02*
D03*
Y100000D02*
D03*
Y130000D02*
D03*
Y120000D02*
D03*
Y90000D02*
D03*
Y160000D02*
D03*
Y150000D02*
D03*
Y180000D02*
D03*
Y170000D02*
D03*
Y140000D02*
D03*
Y220000D02*
D03*
Y210000D02*
D03*
Y240000D02*
D03*
Y230000D02*
D03*
Y190000D02*
D03*
Y200000D02*
D03*
Y260000D02*
D03*
Y250000D02*
D03*
Y280000D02*
D03*
Y270000D02*
D03*
Y300000D02*
D03*
Y290000D02*
D03*
Y310000D02*
D03*
Y330000D02*
D03*
Y320000D02*
D03*
Y350000D02*
D03*
Y340000D02*
D03*
Y370000D02*
D03*
Y360000D02*
D03*
Y390000D02*
D03*
Y380000D02*
D03*
Y400000D02*
D03*
Y410000D02*
D03*
Y420000D02*
D03*
Y440000D02*
D03*
Y430000D02*
D03*
Y460000D02*
D03*
Y450000D02*
D03*
Y480000D02*
D03*
Y470000D02*
D03*
Y500000D02*
D03*
Y490000D02*
D03*
Y510000D02*
D03*
Y550000D02*
D03*
Y540000D02*
D03*
Y570000D02*
D03*
Y560000D02*
D03*
Y530000D02*
D03*
Y520000D02*
D03*
Y590000D02*
D03*
Y580000D02*
D03*
X504818Y429446D02*
D03*
X505086Y451119D02*
D03*
X519268Y363086D02*
D03*
X490000Y430000D02*
D03*
Y450000D02*
D03*
X1410000Y610000D02*
D03*
X1400000D02*
D03*
X1420000D02*
D03*
X1320000D02*
D03*
X1340000D02*
D03*
X1330000D02*
D03*
X1370000D02*
D03*
X1360000D02*
D03*
X1390000D02*
D03*
X1380000D02*
D03*
X1350000D02*
D03*
X1410000Y620000D02*
D03*
X1400000D02*
D03*
X1420000D02*
D03*
X1320000D02*
D03*
X1340000D02*
D03*
X1330000D02*
D03*
X1370000D02*
D03*
X1360000D02*
D03*
X1390000D02*
D03*
X1380000D02*
D03*
X1350000D02*
D03*
Y630000D02*
D03*
X1380000D02*
D03*
X1390000D02*
D03*
X1360000D02*
D03*
X1370000D02*
D03*
X1330000D02*
D03*
X1340000D02*
D03*
X1320000D02*
D03*
X1310000D02*
D03*
X1420000D02*
D03*
X1400000D02*
D03*
X1410000D02*
D03*
X150000Y640000D02*
D03*
X160000D02*
D03*
X80000D02*
D03*
X90000D02*
D03*
X70000D02*
D03*
X130000D02*
D03*
X140000D02*
D03*
X100000D02*
D03*
X120000D02*
D03*
X110000D02*
D03*
X190000D02*
D03*
X170000D02*
D03*
X180000D02*
D03*
X230000D02*
D03*
X200000D02*
D03*
X220000D02*
D03*
X210000D02*
D03*
X260000D02*
D03*
X240000D02*
D03*
X250000D02*
D03*
X300000D02*
D03*
X310000D02*
D03*
X270000D02*
D03*
X290000D02*
D03*
X280000D02*
D03*
X410000D02*
D03*
X420000D02*
D03*
X450000D02*
D03*
X430000D02*
D03*
X440000D02*
D03*
X340000D02*
D03*
X350000D02*
D03*
X320000D02*
D03*
X330000D02*
D03*
X390000D02*
D03*
X400000D02*
D03*
X360000D02*
D03*
X380000D02*
D03*
X370000D02*
D03*
X570000D02*
D03*
X580000D02*
D03*
X550000D02*
D03*
X560000D02*
D03*
X610000D02*
D03*
X620000D02*
D03*
X590000D02*
D03*
X600000D02*
D03*
X480000D02*
D03*
X490000D02*
D03*
X460000D02*
D03*
X470000D02*
D03*
X530000D02*
D03*
X540000D02*
D03*
X500000D02*
D03*
X520000D02*
D03*
X510000D02*
D03*
X630000D02*
D03*
X640000D02*
D03*
X650000D02*
D03*
X670000D02*
D03*
X660000D02*
D03*
X680000D02*
D03*
X690000D02*
D03*
X700000D02*
D03*
X720000D02*
D03*
X710000D02*
D03*
X750000D02*
D03*
X730000D02*
D03*
X740000D02*
D03*
X760000D02*
D03*
X780000D02*
D03*
X770000D02*
D03*
X880000D02*
D03*
X810000D02*
D03*
X820000D02*
D03*
X790000D02*
D03*
X800000D02*
D03*
X860000D02*
D03*
X870000D02*
D03*
X830000D02*
D03*
X850000D02*
D03*
X840000D02*
D03*
X980000D02*
D03*
X990000D02*
D03*
X1000000D02*
D03*
X1010000D02*
D03*
X910000D02*
D03*
X920000D02*
D03*
X890000D02*
D03*
X900000D02*
D03*
X960000D02*
D03*
X970000D02*
D03*
X930000D02*
D03*
X950000D02*
D03*
X940000D02*
D03*
X1040000D02*
D03*
X1020000D02*
D03*
X1030000D02*
D03*
X1080000D02*
D03*
X1050000D02*
D03*
X1070000D02*
D03*
X1060000D02*
D03*
X1180000D02*
D03*
X1190000D02*
D03*
X1110000D02*
D03*
X1120000D02*
D03*
X1090000D02*
D03*
X1100000D02*
D03*
X1160000D02*
D03*
X1170000D02*
D03*
X1130000D02*
D03*
X1150000D02*
D03*
X1140000D02*
D03*
X1200000D02*
D03*
X1210000D02*
D03*
X1250000D02*
D03*
X1220000D02*
D03*
X1240000D02*
D03*
X1230000D02*
D03*
X1350000D02*
D03*
X1380000D02*
D03*
X1390000D02*
D03*
X1360000D02*
D03*
X1370000D02*
D03*
X1280000D02*
D03*
X1290000D02*
D03*
X1260000D02*
D03*
X1270000D02*
D03*
X1330000D02*
D03*
X1340000D02*
D03*
X1300000D02*
D03*
X1320000D02*
D03*
X1310000D02*
D03*
X1420000D02*
D03*
X1400000D02*
D03*
X1410000D02*
D03*
X771000Y278000D02*
D03*
X710000Y277000D02*
D03*
X694000D02*
D03*
X662000Y279000D02*
D03*
X648000D02*
D03*
X807323Y513227D02*
D03*
X793000Y513000D02*
D03*
X763000Y514000D02*
D03*
X742000Y514000D02*
D03*
X729000D02*
D03*
X702076Y511988D02*
D03*
X691000Y512000D02*
D03*
X647596Y512845D02*
D03*
X658000Y513000D02*
D03*
X638000D02*
D03*
X286000Y49000D02*
D03*
X291000Y39000D02*
D03*
X295000Y21000D02*
D03*
X303000Y63000D02*
D03*
X1029500Y85031D02*
D03*
X325000Y13000D02*
D03*
X1435000Y503000D02*
D03*
X1436000Y178000D02*
D03*
X1437000Y205000D02*
D03*
X1435000Y243000D02*
D03*
X1436000Y468000D02*
D03*
X1437000Y438000D02*
D03*
X194000Y46000D02*
D03*
X133000Y63000D02*
D03*
X141000Y73000D02*
D03*
X690000Y210000D02*
D03*
X643540Y191000D02*
D03*
X545000Y324000D02*
D03*
X488000Y418000D02*
D03*
X423000Y571000D02*
D03*
X420000Y548000D02*
D03*
X427000Y491000D02*
D03*
X409000D02*
D03*
X377000D02*
D03*
X441000Y498000D02*
D03*
X399693Y363140D02*
D03*
X436000Y362000D02*
D03*
X355000D02*
D03*
X398813Y344078D02*
D03*
X371000Y259000D02*
D03*
X347000Y271000D02*
D03*
X369000Y312850D02*
D03*
X1062129Y400044D02*
D03*
X1115250Y494000D02*
D03*
X1113146Y474146D02*
D03*
X1053100Y473000D02*
D03*
X972100Y496000D02*
D03*
X951000Y408000D02*
D03*
X966000Y348000D02*
D03*
X876000Y165000D02*
D03*
X1033012Y193975D02*
D03*
X1161000Y187000D02*
D03*
X1173000Y231000D02*
D03*
X1232300Y244000D02*
D03*
X1277000Y261000D02*
D03*
X1210000Y281000D02*
D03*
X1270000Y89000D02*
D03*
X1209000Y102000D02*
D03*
X1125000Y87500D02*
D03*
X1088331Y96305D02*
D03*
X998000Y95500D02*
D03*
X906000Y80000D02*
D03*
X904000Y141000D02*
D03*
X813000Y85000D02*
D03*
X807000Y185000D02*
D03*
X835000Y194000D02*
D03*
X754200Y183000D02*
D03*
X746000Y127000D02*
D03*
X310797Y65564D02*
D03*
X253000Y51000D02*
D03*
X365822Y40398D02*
D03*
X402000Y61930D02*
D03*
X520000Y118200D02*
D03*
X471000Y83000D02*
D03*
X435000Y240000D02*
D03*
X519000Y198000D02*
D03*
X370000Y119500D02*
D03*
X246000Y118000D02*
D03*
X166535Y238465D02*
D03*
X187000Y240000D02*
D03*
X456000Y533000D02*
D03*
X355000D02*
D03*
X436000Y345000D02*
D03*
X362000Y329000D02*
D03*
X1262000Y490000D02*
D03*
X1301000Y588000D02*
D03*
X1265000Y593000D02*
D03*
X162307Y262329D02*
D03*
X394686Y118500D02*
D03*
X561000Y97000D02*
D03*
X493000Y111000D02*
D03*
X569750Y186000D02*
D03*
X569000Y153000D02*
D03*
X464000Y147000D02*
D03*
X452000Y170000D02*
D03*
X1102923Y295077D02*
D03*
X1025000Y296000D02*
D03*
X1004000Y325000D02*
D03*
X1037000Y590500D02*
D03*
X1015000Y562000D02*
D03*
X1025000Y537000D02*
D03*
X1015000D02*
D03*
X1025000Y547000D02*
D03*
X1015000Y547000D02*
D03*
X1005000Y537000D02*
D03*
Y547000D02*
D03*
X1025000Y562000D02*
D03*
X1005000Y562000D02*
D03*
X1056000Y586800D02*
D03*
X995000Y583000D02*
D03*
X1002000Y461000D02*
D03*
X1082000Y433000D02*
D03*
X904900Y198000D02*
D03*
X950429Y207500D02*
D03*
X907000Y161000D02*
D03*
X843000Y159050D02*
D03*
X898000Y110125D02*
D03*
X952000Y96000D02*
D03*
X945000Y80000D02*
D03*
X879800Y82000D02*
D03*
X854000Y83000D02*
D03*
X842000Y110000D02*
D03*
X799000Y125000D02*
D03*
X709000Y128000D02*
D03*
X660000D02*
D03*
X572000Y61000D02*
D03*
X499000Y59000D02*
D03*
X463000Y33000D02*
D03*
X443000Y37000D02*
D03*
X433000Y21000D02*
D03*
X427000Y93500D02*
D03*
X354107Y64893D02*
D03*
X367000Y84000D02*
D03*
X375000Y179000D02*
D03*
X334000Y172000D02*
D03*
X328000Y177000D02*
D03*
X334000Y182000D02*
D03*
X323000Y172000D02*
D03*
Y182000D02*
D03*
X341000Y195000D02*
D03*
X276389Y209389D02*
D03*
X261000Y153000D02*
D03*
X253000Y174000D02*
D03*
X207759Y126654D02*
D03*
X347000Y132000D02*
D03*
X308000Y131000D02*
D03*
X344652Y103902D02*
D03*
X304965Y103965D02*
D03*
X263000Y91000D02*
D03*
X159000Y207000D02*
D03*
X121000D02*
D03*
X129000Y235000D02*
D03*
X96000Y240000D02*
D03*
Y270000D02*
D03*
X255000Y407000D02*
D03*
Y401000D02*
D03*
X71000Y509000D02*
D03*
X628000Y540000D02*
D03*
X526000Y140000D02*
D03*
X347000Y324000D02*
D03*
X262798Y361138D02*
D03*
X263725Y529089D02*
D03*
X126000Y591400D02*
D03*
X120000Y295000D02*
D03*
X296000Y30000D02*
D03*
X275000Y33000D02*
D03*
X90000Y300000D02*
D03*
X84000D02*
D03*
X1170000Y489000D02*
D03*
X1145000Y393000D02*
D03*
X1169000Y395653D02*
D03*
X1165000Y299000D02*
D03*
X1078000Y262000D02*
D03*
X1071500Y252000D02*
D03*
X1078000Y250000D02*
D03*
X1071000Y262000D02*
D03*
X1232300Y237000D02*
D03*
X1192000Y282000D02*
D03*
X1226000Y297071D02*
D03*
X991000Y323000D02*
D03*
X1276000Y321000D02*
D03*
X979000Y561000D02*
D03*
X1069000Y504000D02*
D03*
X1132000Y430000D02*
D03*
X712000Y561000D02*
D03*
X370000Y342000D02*
D03*
X232000Y140000D02*
D03*
X1256000Y593000D02*
D03*
X1302000Y595000D02*
D03*
X1294000D02*
D03*
X354000Y321000D02*
D03*
X373000Y467000D02*
D03*
X969500Y328600D02*
D03*
X871000Y250000D02*
D03*
X1248000Y506000D02*
D03*
X1033633Y536300D02*
D03*
X272000Y422000D02*
D03*
X251500Y467000D02*
D03*
X273000Y413000D02*
D03*
X1413000Y195000D02*
D03*
X1429000Y216000D02*
D03*
Y479000D02*
D03*
X1419000Y185000D02*
D03*
X1422000Y261000D02*
D03*
X1429000Y449000D02*
D03*
Y514000D02*
D03*
X1410000Y650000D02*
D03*
X1400000D02*
D03*
X1420000D02*
D03*
X1490000Y610000D02*
D03*
Y590000D02*
D03*
Y600000D02*
D03*
X1310000Y650000D02*
D03*
X1320000D02*
D03*
X1300000D02*
D03*
X1340000D02*
D03*
X1330000D02*
D03*
X1270000D02*
D03*
X1260000D02*
D03*
X1290000D02*
D03*
X1280000D02*
D03*
X1370000D02*
D03*
X1360000D02*
D03*
X1390000D02*
D03*
X1380000D02*
D03*
X1350000D02*
D03*
X1490000Y540000D02*
D03*
Y530000D02*
D03*
Y550000D02*
D03*
Y510000D02*
D03*
Y520000D02*
D03*
Y570000D02*
D03*
Y580000D02*
D03*
Y560000D02*
D03*
Y480000D02*
D03*
Y490000D02*
D03*
Y460000D02*
D03*
Y470000D02*
D03*
Y500000D02*
D03*
X1297000Y521000D02*
D03*
X1230000Y650000D02*
D03*
X1240000D02*
D03*
X1220000D02*
D03*
X1250000D02*
D03*
X1210000D02*
D03*
X1200000D02*
D03*
X1216170Y554412D02*
D03*
Y572412D02*
D03*
X1210170D02*
D03*
X1194181D02*
D03*
X1216000Y559000D02*
D03*
X1140000Y650000D02*
D03*
X1150000D02*
D03*
X1130000D02*
D03*
X1170000D02*
D03*
X1160000D02*
D03*
X1100000D02*
D03*
X1090000D02*
D03*
X1120000D02*
D03*
X1110000D02*
D03*
X1190000D02*
D03*
X1180000D02*
D03*
X1188250Y488759D02*
D03*
X1214920Y465653D02*
D03*
Y471653D02*
D03*
Y459653D02*
D03*
X1208920Y477653D02*
D03*
X1192931D02*
D03*
X1214920D02*
D03*
X1157170Y510412D02*
D03*
X1490000Y450000D02*
D03*
Y440000D02*
D03*
Y410000D02*
D03*
Y420000D02*
D03*
Y390000D02*
D03*
Y400000D02*
D03*
Y430000D02*
D03*
X1192941Y382653D02*
D03*
X1214931D02*
D03*
X1208931D02*
D03*
X1155920Y415653D02*
D03*
X1187000Y394000D02*
D03*
X1490000Y380000D02*
D03*
Y370000D02*
D03*
Y360000D02*
D03*
X1214931Y364653D02*
D03*
X1490000Y300000D02*
D03*
Y310000D02*
D03*
Y280000D02*
D03*
Y290000D02*
D03*
Y340000D02*
D03*
Y350000D02*
D03*
Y320000D02*
D03*
Y330000D02*
D03*
X1155931Y320653D02*
D03*
X1187010Y299000D02*
D03*
X1136000Y399000D02*
D03*
X1130000Y393000D02*
D03*
X1103000Y421000D02*
D03*
X1131000Y383200D02*
D03*
X1130000Y357000D02*
D03*
X1131000Y331000D02*
D03*
X1090000Y380000D02*
D03*
Y355000D02*
D03*
Y365000D02*
D03*
Y340000D02*
D03*
X1060000Y650000D02*
D03*
X1070000D02*
D03*
X1050000D02*
D03*
X1080000D02*
D03*
X1030000D02*
D03*
X1020000D02*
D03*
X1040000D02*
D03*
X940000D02*
D03*
X950000D02*
D03*
X930000D02*
D03*
X970000D02*
D03*
X960000D02*
D03*
X900000D02*
D03*
X890000D02*
D03*
X920000D02*
D03*
X910000D02*
D03*
X1010000D02*
D03*
X1000000D02*
D03*
X990000D02*
D03*
X980000D02*
D03*
X1017000Y407000D02*
D03*
X840000Y650000D02*
D03*
X850000D02*
D03*
X830000D02*
D03*
X870000D02*
D03*
X860000D02*
D03*
X800000D02*
D03*
X790000D02*
D03*
X820000D02*
D03*
X810000D02*
D03*
X880000D02*
D03*
X770000D02*
D03*
X780000D02*
D03*
X760000D02*
D03*
X740000D02*
D03*
X730000D02*
D03*
X750000D02*
D03*
X880000Y454000D02*
D03*
X771540Y494300D02*
D03*
X751540D02*
D03*
X783000Y442000D02*
D03*
X1060000Y380000D02*
D03*
X1080000D02*
D03*
Y365000D02*
D03*
X1060000D02*
D03*
X1080000Y355000D02*
D03*
X1060000D02*
D03*
X1049607Y365584D02*
D03*
X1050000Y355000D02*
D03*
X993000Y398000D02*
D03*
X1004000Y388000D02*
D03*
X1001000Y359000D02*
D03*
X1080000Y340000D02*
D03*
X1060000D02*
D03*
X1050000D02*
D03*
X987000Y279000D02*
D03*
X849000Y358000D02*
D03*
X782000Y381000D02*
D03*
X769000Y358000D02*
D03*
X817000Y340000D02*
D03*
X793430Y323430D02*
D03*
X785000Y332000D02*
D03*
X1490000Y270000D02*
D03*
Y260000D02*
D03*
Y250000D02*
D03*
Y240000D02*
D03*
X1170000Y272100D02*
D03*
Y254100D02*
D03*
X1125000Y247100D02*
D03*
X1142000Y233100D02*
D03*
X1148000D02*
D03*
X1131000Y247100D02*
D03*
X1125000Y241100D02*
D03*
X1131000D02*
D03*
X1490000Y220000D02*
D03*
Y210000D02*
D03*
Y230000D02*
D03*
Y190000D02*
D03*
Y200000D02*
D03*
Y180000D02*
D03*
Y170000D02*
D03*
X1167499Y181000D02*
D03*
Y163000D02*
D03*
X1160000Y221000D02*
D03*
X1167000Y213000D02*
D03*
Y204100D02*
D03*
X1111000Y261100D02*
D03*
X1119000Y241100D02*
D03*
Y247100D02*
D03*
X1102000Y231100D02*
D03*
X1090000Y228100D02*
D03*
X1078000Y272100D02*
D03*
X1070000Y272000D02*
D03*
X1102000Y223100D02*
D03*
X1090000Y222000D02*
D03*
X1108499Y170000D02*
D03*
X1067000Y204000D02*
D03*
X1075499Y181000D02*
D03*
X1067499D02*
D03*
X1075000Y168000D02*
D03*
X1490000Y110000D02*
D03*
Y100000D02*
D03*
Y120000D02*
D03*
Y80000D02*
D03*
Y90000D02*
D03*
Y150000D02*
D03*
Y160000D02*
D03*
Y130000D02*
D03*
Y140000D02*
D03*
Y60000D02*
D03*
Y70000D02*
D03*
X1360000Y10000D02*
D03*
X1350000D02*
D03*
X1320000D02*
D03*
X1310000D02*
D03*
X1340000D02*
D03*
X1330000D02*
D03*
X1410000D02*
D03*
X1400000D02*
D03*
X1430000D02*
D03*
X1420000D02*
D03*
X1370000D02*
D03*
X1390000D02*
D03*
X1380000D02*
D03*
X1220000D02*
D03*
X1190000D02*
D03*
X1180000D02*
D03*
X1210000D02*
D03*
X1200000D02*
D03*
X1280000D02*
D03*
X1270000D02*
D03*
X1300000D02*
D03*
X1290000D02*
D03*
X1240000D02*
D03*
X1230000D02*
D03*
X1260000D02*
D03*
X1250000D02*
D03*
X1128499Y156000D02*
D03*
X1122499Y150000D02*
D03*
Y156000D02*
D03*
X1128499Y150000D02*
D03*
X1116499D02*
D03*
Y156000D02*
D03*
X1145499Y142000D02*
D03*
X1156499Y130000D02*
D03*
X1139499Y142000D02*
D03*
X1068000Y160000D02*
D03*
X1107499Y140000D02*
D03*
X1087499Y137000D02*
D03*
X1099499Y132000D02*
D03*
X1077499Y128000D02*
D03*
X1064499Y123000D02*
D03*
X1164499Y113000D02*
D03*
Y123000D02*
D03*
X1150000Y10000D02*
D03*
X1140000D02*
D03*
X1170000D02*
D03*
X1160000D02*
D03*
X1064499Y113000D02*
D03*
X1110000Y10000D02*
D03*
X1130000D02*
D03*
X1120000D02*
D03*
X1080000D02*
D03*
X1070000D02*
D03*
X1100000D02*
D03*
X1090000D02*
D03*
X1025000Y247000D02*
D03*
X1031000D02*
D03*
X1019000Y241000D02*
D03*
X1025000D02*
D03*
X1019000Y247000D02*
D03*
X1048000Y233000D02*
D03*
X1042000D02*
D03*
X1031000Y241000D02*
D03*
X1011000Y261000D02*
D03*
X1010000Y231000D02*
D03*
X1002000Y223000D02*
D03*
X1008499Y170000D02*
D03*
X1028499Y156000D02*
D03*
X1022499Y150000D02*
D03*
X1028499D02*
D03*
X1022499Y156000D02*
D03*
X1016499D02*
D03*
Y150000D02*
D03*
X980000Y220300D02*
D03*
X975499Y172000D02*
D03*
X804000Y259000D02*
D03*
X784000D02*
D03*
X756000D02*
D03*
X736000D02*
D03*
X1039499Y142000D02*
D03*
X1045499D02*
D03*
X1056499Y130000D02*
D03*
X1007499Y140000D02*
D03*
X999499Y132000D02*
D03*
X987499Y137000D02*
D03*
X990000Y10000D02*
D03*
X980000D02*
D03*
X970000D02*
D03*
X1040000D02*
D03*
X1030000D02*
D03*
X1060000D02*
D03*
X1050000D02*
D03*
X1000000D02*
D03*
X1020000D02*
D03*
X1010000D02*
D03*
X960000D02*
D03*
X950000D02*
D03*
X920000D02*
D03*
X910000D02*
D03*
X940000D02*
D03*
X930000D02*
D03*
X880000D02*
D03*
X870000D02*
D03*
X900000D02*
D03*
X890000D02*
D03*
X840000D02*
D03*
X860000D02*
D03*
X850000D02*
D03*
X730000D02*
D03*
X750000D02*
D03*
X740000D02*
D03*
X810000D02*
D03*
X800000D02*
D03*
X830000D02*
D03*
X820000D02*
D03*
X770000D02*
D03*
X760000D02*
D03*
X790000D02*
D03*
X780000D02*
D03*
X710000Y650000D02*
D03*
X720000D02*
D03*
X700000D02*
D03*
X690000D02*
D03*
X680000D02*
D03*
X660000D02*
D03*
X670000D02*
D03*
X650000D02*
D03*
X640000D02*
D03*
X630000D02*
D03*
X715540Y494300D02*
D03*
X699540D02*
D03*
X688000Y494000D02*
D03*
X676000Y493000D02*
D03*
X640000Y495000D02*
D03*
X627000D02*
D03*
X651000Y487000D02*
D03*
Y493000D02*
D03*
X510000Y650000D02*
D03*
X520000D02*
D03*
X500000D02*
D03*
X540000D02*
D03*
X530000D02*
D03*
X470000D02*
D03*
X460000D02*
D03*
X490000D02*
D03*
X480000D02*
D03*
X600000D02*
D03*
X590000D02*
D03*
X620000D02*
D03*
X610000D02*
D03*
X560000D02*
D03*
X550000D02*
D03*
X580000D02*
D03*
X570000D02*
D03*
X370000D02*
D03*
X380000D02*
D03*
X360000D02*
D03*
X400000D02*
D03*
X390000D02*
D03*
X330000D02*
D03*
X320000D02*
D03*
X350000D02*
D03*
X340000D02*
D03*
X440000D02*
D03*
X430000D02*
D03*
X450000D02*
D03*
X420000D02*
D03*
X410000D02*
D03*
X696000Y462000D02*
D03*
X461000D02*
D03*
X576000Y440000D02*
D03*
X687000Y403000D02*
D03*
X574000Y407000D02*
D03*
X432000Y393000D02*
D03*
X470000Y370000D02*
D03*
X416000Y465000D02*
D03*
X418000Y444000D02*
D03*
Y414000D02*
D03*
Y429000D02*
D03*
X403000Y444000D02*
D03*
X388000Y429000D02*
D03*
X403000D02*
D03*
X388000Y414000D02*
D03*
Y444000D02*
D03*
X403000Y414000D02*
D03*
X280000Y650000D02*
D03*
X290000D02*
D03*
X270000D02*
D03*
X310000D02*
D03*
X300000D02*
D03*
X250000D02*
D03*
X240000D02*
D03*
X260000D02*
D03*
X276000Y546000D02*
D03*
Y553000D02*
D03*
X262000Y546000D02*
D03*
Y553000D02*
D03*
X210000Y650000D02*
D03*
X220000D02*
D03*
X200000D02*
D03*
X230000D02*
D03*
X180000D02*
D03*
X170000D02*
D03*
X190000D02*
D03*
X225000Y565000D02*
D03*
Y571000D02*
D03*
Y553000D02*
D03*
Y559000D02*
D03*
X219000Y571000D02*
D03*
X203011Y570999D02*
D03*
X282000Y505000D02*
D03*
X280000Y488000D02*
D03*
X290000D02*
D03*
X275000Y505000D02*
D03*
X268000D02*
D03*
X271000Y488000D02*
D03*
X166000Y509000D02*
D03*
X197080Y487347D02*
D03*
X110000Y650000D02*
D03*
X120000D02*
D03*
X100000D02*
D03*
X140000D02*
D03*
X130000D02*
D03*
X70000D02*
D03*
X60000D02*
D03*
X90000D02*
D03*
X80000D02*
D03*
X160000D02*
D03*
X150000D02*
D03*
X108000Y572000D02*
D03*
X10000Y600000D02*
D03*
Y580000D02*
D03*
Y590000D02*
D03*
X129931Y565653D02*
D03*
Y559653D02*
D03*
Y571653D02*
D03*
Y553653D02*
D03*
X124000Y572000D02*
D03*
X10000Y520000D02*
D03*
Y530000D02*
D03*
Y560000D02*
D03*
Y570000D02*
D03*
Y540000D02*
D03*
Y550000D02*
D03*
X103294Y494442D02*
D03*
X10000Y510000D02*
D03*
Y490000D02*
D03*
Y500000D02*
D03*
X225000Y460000D02*
D03*
X296000Y428000D02*
D03*
X219000Y478000D02*
D03*
X203011D02*
D03*
X225000Y466000D02*
D03*
Y472000D02*
D03*
X274500Y384000D02*
D03*
X260500D02*
D03*
X274500Y377000D02*
D03*
X260500D02*
D03*
X203011Y383000D02*
D03*
X219000D02*
D03*
X197080Y394347D02*
D03*
X225000Y371000D02*
D03*
Y377000D02*
D03*
Y365000D02*
D03*
Y383000D02*
D03*
X130000Y478000D02*
D03*
Y472000D02*
D03*
X124000Y478000D02*
D03*
X130000Y466000D02*
D03*
X108011Y478000D02*
D03*
X166000Y416000D02*
D03*
X130000Y460000D02*
D03*
X10000Y470000D02*
D03*
Y480000D02*
D03*
Y450000D02*
D03*
Y460000D02*
D03*
X71000Y416000D02*
D03*
X10000Y430000D02*
D03*
Y440000D02*
D03*
Y420000D02*
D03*
X124000Y383000D02*
D03*
X108011D02*
D03*
X130000Y371000D02*
D03*
Y377000D02*
D03*
Y365000D02*
D03*
Y383000D02*
D03*
X102080Y394347D02*
D03*
X10000Y410000D02*
D03*
Y400000D02*
D03*
Y380000D02*
D03*
Y390000D02*
D03*
Y360000D02*
D03*
Y370000D02*
D03*
X708000Y259000D02*
D03*
X636000D02*
D03*
X668000D02*
D03*
X648000D02*
D03*
X494000Y160000D02*
D03*
X463000Y349000D02*
D03*
X457000Y183000D02*
D03*
X418000Y174000D02*
D03*
X567000Y130000D02*
D03*
X620000Y10000D02*
D03*
X640000D02*
D03*
X630000D02*
D03*
X590000D02*
D03*
X610000D02*
D03*
X600000D02*
D03*
X700000D02*
D03*
X690000D02*
D03*
X720000D02*
D03*
X710000D02*
D03*
X660000D02*
D03*
X650000D02*
D03*
X680000D02*
D03*
X670000D02*
D03*
X500000D02*
D03*
X490000D02*
D03*
X480000D02*
D03*
X560000D02*
D03*
X550000D02*
D03*
X580000D02*
D03*
X570000D02*
D03*
X520000D02*
D03*
X510000D02*
D03*
X540000D02*
D03*
X530000D02*
D03*
X393000Y45000D02*
D03*
X390000Y10000D02*
D03*
X450000D02*
D03*
X440000D02*
D03*
X470000D02*
D03*
X460000D02*
D03*
X410000D02*
D03*
X400000D02*
D03*
X430000D02*
D03*
X420000D02*
D03*
X300000D02*
D03*
X290000D02*
D03*
X360000D02*
D03*
X350000D02*
D03*
X380000D02*
D03*
X370000D02*
D03*
X320000D02*
D03*
X310000D02*
D03*
X340000D02*
D03*
X330000D02*
D03*
X280500Y336000D02*
D03*
X275500Y322000D02*
D03*
X273500Y336000D02*
D03*
X285500Y322000D02*
D03*
X266500Y336000D02*
D03*
X265500Y322000D02*
D03*
X204000Y288000D02*
D03*
X197080Y299347D02*
D03*
X246000Y250000D02*
D03*
X238000D02*
D03*
X231000D02*
D03*
X204000Y281000D02*
D03*
X166000Y321000D02*
D03*
X102080Y299347D02*
D03*
X129000Y284000D02*
D03*
X106000Y288000D02*
D03*
X71000Y321000D02*
D03*
X10000Y340000D02*
D03*
Y350000D02*
D03*
Y320000D02*
D03*
Y330000D02*
D03*
Y310000D02*
D03*
Y290000D02*
D03*
Y300000D02*
D03*
Y270000D02*
D03*
Y280000D02*
D03*
Y250000D02*
D03*
Y260000D02*
D03*
Y200000D02*
D03*
X87000Y186000D02*
D03*
X10000Y190000D02*
D03*
Y230000D02*
D03*
Y240000D02*
D03*
Y210000D02*
D03*
Y220000D02*
D03*
X226000Y180000D02*
D03*
X178266Y155734D02*
D03*
X220000Y10000D02*
D03*
X210000D02*
D03*
X280000D02*
D03*
X270000D02*
D03*
X240000D02*
D03*
X230000D02*
D03*
X260000D02*
D03*
X250000D02*
D03*
X162900Y103900D02*
D03*
X200000Y10000D02*
D03*
X190000D02*
D03*
X160000D02*
D03*
X180000D02*
D03*
X170000D02*
D03*
X100000Y173000D02*
D03*
X86000Y116000D02*
D03*
X85750Y152000D02*
D03*
X10000Y140000D02*
D03*
Y170000D02*
D03*
Y180000D02*
D03*
Y150000D02*
D03*
Y160000D02*
D03*
Y90000D02*
D03*
Y120000D02*
D03*
Y130000D02*
D03*
Y100000D02*
D03*
Y110000D02*
D03*
X70000Y10000D02*
D03*
X130000D02*
D03*
X120000D02*
D03*
X150000D02*
D03*
X140000D02*
D03*
X90000D02*
D03*
X80000D02*
D03*
X110000D02*
D03*
X100000D02*
D03*
X10000Y70000D02*
D03*
Y80000D02*
D03*
X60000Y10000D02*
D03*
X10000Y60000D02*
D03*
X1279000Y490000D02*
D03*
X1273000Y470000D02*
D03*
X1058000Y152000D02*
D03*
X1110000Y116000D02*
D03*
X1072000Y154000D02*
D03*
X1156000Y153000D02*
D03*
X987000Y150500D02*
D03*
X1158000Y243500D02*
D03*
X1090000Y241500D02*
D03*
X1059000Y243500D02*
D03*
X990000Y241500D02*
D03*
X739000Y173000D02*
D03*
X692000D02*
D03*
X745000Y60000D02*
D03*
X715000Y61000D02*
D03*
X684000Y59000D02*
D03*
X896000Y169000D02*
D03*
X843721Y168050D02*
D03*
X929000Y81000D02*
D03*
X896000D02*
D03*
X870000D02*
D03*
X843000D02*
D03*
X898000Y125000D02*
D03*
X832285Y128267D02*
D03*
X208000Y114000D02*
D03*
X328000Y84000D02*
D03*
X248000Y152000D02*
D03*
X367000Y106000D02*
D03*
X565000Y23000D02*
D03*
X992000Y83000D02*
D03*
X1202000Y35000D02*
D03*
X1109000Y41000D02*
D03*
X1083000Y39000D02*
D03*
X1052000Y38000D02*
D03*
X1022000Y39000D02*
D03*
X759000Y41000D02*
D03*
X757000Y52000D02*
D03*
X722000Y41000D02*
D03*
X692000Y39000D02*
D03*
X665000D02*
D03*
X1127000Y506000D02*
D03*
X782000Y368000D02*
D03*
X808000Y177000D02*
D03*
X770200Y192000D02*
D03*
X753000Y175000D02*
D03*
X636000Y287000D02*
D03*
X434000Y511000D02*
D03*
X391000Y504000D02*
D03*
X202000Y105000D02*
D03*
X203000Y141000D02*
D03*
X201000Y177000D02*
D03*
X173000Y77000D02*
D03*
Y68000D02*
D03*
X106000Y264000D02*
D03*
X72000D02*
D03*
X129000Y273000D02*
D03*
X1142000Y265000D02*
D03*
X1042000D02*
D03*
X1040000Y176000D02*
D03*
X1147000Y181000D02*
D03*
X1173319Y171250D02*
D03*
X1179000Y132500D02*
D03*
X1232500Y152000D02*
D03*
X524000Y178000D02*
D03*
X563000Y170000D02*
D03*
X425462Y468102D02*
D03*
X436000Y399000D02*
D03*
X138000Y283000D02*
D03*
X340000Y424000D02*
D03*
X531000Y311000D02*
D03*
X551360Y334250D02*
D03*
X453000Y364000D02*
D03*
X467000Y332000D02*
D03*
X386000Y313000D02*
D03*
X337000Y271000D02*
D03*
X408000Y260000D02*
D03*
X494000Y212750D02*
D03*
X465000D02*
D03*
X458000D02*
D03*
X568000Y121000D02*
D03*
X463750Y122000D02*
D03*
X479588Y138462D02*
D03*
X490000Y59000D02*
D03*
X412000Y71000D02*
D03*
X161215Y41785D02*
D03*
X349000Y196000D02*
D03*
X308000Y198000D02*
D03*
X286000Y258000D02*
D03*
X376000Y41000D02*
D03*
X94000Y252000D02*
D03*
X87000D02*
D03*
X115000Y244000D02*
D03*
X749000Y462000D02*
D03*
X735000Y437000D02*
D03*
X726000Y462000D02*
D03*
X709000Y552000D02*
D03*
X707000Y559000D02*
D03*
X177011Y383000D02*
D03*
X259000Y570000D02*
D03*
X84080Y394347D02*
D03*
X121000Y61000D02*
D03*
X114000D02*
D03*
Y67000D02*
D03*
X203080Y254347D02*
D03*
X194000Y254000D02*
D03*
X203080Y261347D02*
D03*
X194080D02*
D03*
X278000Y441000D02*
D03*
X286000Y441000D02*
D03*
X270000Y441000D02*
D03*
X285000Y273000D02*
D03*
X277000Y273000D02*
D03*
X269000D02*
D03*
X261000Y273000D02*
D03*
X1160941Y382653D02*
D03*
X1166941D02*
D03*
X1144000Y595500D02*
D03*
X1168000Y572000D02*
D03*
X1162000D02*
D03*
X1167000Y352000D02*
D03*
Y343000D02*
D03*
X1169000Y366000D02*
D03*
X1147000Y367000D02*
D03*
X1156000Y343000D02*
D03*
X1156000Y352000D02*
D03*
X1155989Y438000D02*
D03*
X1164989D02*
D03*
X1155989Y447000D02*
D03*
X1164989D02*
D03*
X1157239Y532759D02*
D03*
X1166239D02*
D03*
X1157239Y541759D02*
D03*
X1166239D02*
D03*
X166069Y531347D02*
D03*
X175069D02*
D03*
X166069Y540347D02*
D03*
X175069D02*
D03*
X166069Y438347D02*
D03*
X175069D02*
D03*
X166069Y447347D02*
D03*
X175069D02*
D03*
X166069Y343347D02*
D03*
X175069D02*
D03*
X166069Y352347D02*
D03*
X175069D02*
D03*
X71069Y343347D02*
D03*
X80069D02*
D03*
X71069Y352347D02*
D03*
X80069D02*
D03*
X71069Y438347D02*
D03*
X80069D02*
D03*
X71069Y447347D02*
D03*
X80069D02*
D03*
X80000Y541000D02*
D03*
X71000D02*
D03*
X80000Y532000D02*
D03*
X71000D02*
D03*
X1159000Y44000D02*
D03*
X1037000Y57000D02*
D03*
X481000Y68000D02*
D03*
X485243Y72600D02*
D03*
X373000Y201000D02*
D03*
X413000Y299000D02*
D03*
X412000Y348000D02*
D03*
X458000Y343000D02*
D03*
X405000Y338000D02*
D03*
X417000Y329000D02*
D03*
X470500Y400679D02*
D03*
X416000Y505000D02*
D03*
X618000Y192000D02*
D03*
X822000Y304000D02*
D03*
X816000D02*
D03*
X995000Y537000D02*
D03*
X1113000Y507000D02*
D03*
X1084107Y321107D02*
D03*
X888000Y262000D02*
D03*
X1095000Y506000D02*
D03*
X1087000Y473000D02*
D03*
X1107000Y206000D02*
D03*
X1128000Y278000D02*
D03*
X1121000Y277000D02*
D03*
X1095000Y116000D02*
D03*
X1082000Y83000D02*
D03*
X1069000D02*
D03*
X1149784Y197534D02*
D03*
X1081000Y194000D02*
D03*
X1040000Y82000D02*
D03*
X1139000Y200000D02*
D03*
X1132000Y591000D02*
D03*
X1136000Y595500D02*
D03*
X1187000Y288000D02*
D03*
X396894Y467265D02*
D03*
X382000Y467879D02*
D03*
X595000Y593000D02*
D03*
X597000Y585000D02*
D03*
X585000Y575000D02*
D03*
X544000Y569000D02*
D03*
X576000Y595000D02*
D03*
X570000Y574000D02*
D03*
X577000Y580000D02*
D03*
X536000Y472000D02*
D03*
X550000Y552000D02*
D03*
X545000Y560000D02*
D03*
X541000Y427000D02*
D03*
X545500Y422000D02*
D03*
X587000Y519000D02*
D03*
X403000Y505000D02*
D03*
X387000Y586000D02*
D03*
X432000Y545000D02*
D03*
X423000Y536000D02*
D03*
X831000Y498000D02*
D03*
X833000Y463000D02*
D03*
X834000Y472000D02*
D03*
X832000Y490000D02*
D03*
X837000Y276000D02*
D03*
X470000Y430000D02*
D03*
X469000Y437000D02*
D03*
X715000Y333000D02*
D03*
X708000Y334000D02*
D03*
X728000Y332000D02*
D03*
X578000Y357000D02*
D03*
X586000Y367000D02*
D03*
X1121000Y348000D02*
D03*
X1030000Y394000D02*
D03*
X1093000Y316000D02*
D03*
X969500Y368000D02*
D03*
Y380500D02*
D03*
Y389724D02*
D03*
X970000Y395000D02*
D03*
X898000Y379000D02*
D03*
X1040000Y281000D02*
D03*
X1140000Y283000D02*
D03*
X530000Y158000D02*
D03*
X519000Y173000D02*
D03*
X547000Y175000D02*
D03*
X282000Y66000D02*
D03*
X290000D02*
D03*
X292000Y48000D02*
D03*
X274000Y64000D02*
D03*
X445000Y120000D02*
D03*
X446000Y131000D02*
D03*
X452000Y71000D02*
D03*
X485000Y96000D02*
D03*
X392000Y65000D02*
D03*
X389000Y59000D02*
D03*
X429359Y71600D02*
D03*
X426000Y76000D02*
D03*
X444000Y81000D02*
D03*
X457000Y130000D02*
D03*
X622000Y260000D02*
D03*
X704000Y211000D02*
D03*
X667865Y116000D02*
D03*
X635000Y73000D02*
D03*
X248000Y71000D02*
D03*
X639000Y104000D02*
D03*
X669000Y133000D02*
D03*
X675000D02*
D03*
X805000Y220000D02*
D03*
X835000Y239000D02*
D03*
X770000Y224000D02*
D03*
X786000D02*
D03*
X779000D02*
D03*
X846000D02*
D03*
X1009000Y120000D02*
D03*
X1116000Y219000D02*
D03*
X1012012Y215975D02*
D03*
X925000Y141000D02*
D03*
X961000Y225000D02*
D03*
X967000Y227000D02*
D03*
X955000D02*
D03*
X876000Y144000D02*
D03*
X933000Y140000D02*
D03*
X885000Y144000D02*
D03*
X859000Y59000D02*
D03*
X745042Y349000D02*
D03*
X729000Y357000D02*
D03*
X733000Y362000D02*
D03*
X647000Y330000D02*
D03*
X650829Y322535D02*
D03*
X826000Y363000D02*
D03*
X668000Y204000D02*
D03*
X714000Y208000D02*
D03*
X858000Y412000D02*
D03*
X873000Y360000D02*
D03*
X831000Y383000D02*
D03*
X888997Y456039D02*
D03*
X814000Y357000D02*
D03*
X629000Y287000D02*
D03*
X974000Y385000D02*
D03*
Y360000D02*
D03*
Y348000D02*
D03*
Y373000D02*
D03*
X612000Y140000D02*
D03*
X622000Y54000D02*
D03*
X614000Y80000D02*
D03*
X601000Y83000D02*
D03*
X602000Y92000D02*
D03*
X1069000Y169000D02*
D03*
X982000Y195000D02*
D03*
X812000Y221000D02*
D03*
X912000Y215500D02*
D03*
X483115Y184750D02*
D03*
X592250Y447750D02*
D03*
X603360Y406000D02*
D03*
X701750Y436250D02*
D03*
X782000Y463000D02*
D03*
X875000Y437000D02*
D03*
X993000Y343000D02*
D03*
X1021000Y424000D02*
D03*
X1028000Y388000D02*
D03*
X696000Y380000D02*
D03*
X1054000Y424000D02*
D03*
X469000Y408000D02*
D03*
X1299000Y513000D02*
D03*
X1231000Y189000D02*
D03*
X799000Y305000D02*
D03*
X741000Y306000D02*
D03*
X663000Y541000D02*
D03*
X648000Y542000D02*
D03*
X688000D02*
D03*
X752000D02*
D03*
X784000D02*
D03*
X721000Y548000D02*
D03*
X179080Y299347D02*
D03*
X188080Y394347D02*
D03*
Y487347D02*
D03*
X768460Y306700D02*
D03*
X716460D02*
D03*
X684460D02*
D03*
X652460D02*
D03*
X70011Y478000D02*
D03*
X76011D02*
D03*
X82011D02*
D03*
X82173Y470000D02*
D03*
X138000Y401000D02*
D03*
Y407000D02*
D03*
X144000D02*
D03*
Y401000D02*
D03*
X150000D02*
D03*
Y407000D02*
D03*
X858000Y235000D02*
D03*
X863000Y225000D02*
D03*
X853000Y226203D02*
D03*
X844000Y242000D02*
D03*
X762000Y77000D02*
D03*
X730000Y56000D02*
D03*
X732000Y87000D02*
D03*
X769000Y86000D02*
D03*
X775596Y78000D02*
D03*
X1056250Y318000D02*
D03*
X1118000Y288000D02*
D03*
X1069000Y315000D02*
D03*
X1077000D02*
D03*
X1089029Y156595D02*
D03*
X837000Y204000D02*
D03*
X819000Y224000D02*
D03*
X199000Y51000D02*
D03*
X108000Y53000D02*
D03*
X118000Y35000D02*
D03*
X199000Y39000D02*
D03*
X630000Y61000D02*
D03*
X719000Y317000D02*
D03*
X173000Y37000D02*
D03*
X691000Y322000D02*
D03*
X1081000Y424000D02*
D03*
X738000Y330000D02*
D03*
X469000Y444000D02*
D03*
X1090000Y424000D02*
D03*
X891000Y249000D02*
D03*
X744000Y326000D02*
D03*
X1072000Y424000D02*
D03*
X884000Y247000D02*
D03*
X922000Y215000D02*
D03*
X903000Y102000D02*
D03*
X1026000Y334000D02*
D03*
X1026500Y360810D02*
D03*
X838000Y101050D02*
D03*
X1027000Y343000D02*
D03*
X1051250Y314000D02*
D03*
X849000Y214000D02*
D03*
X980000Y312000D02*
D03*
X914000Y94000D02*
D03*
X1062000Y313000D02*
D03*
X1027000Y351500D02*
D03*
X546000Y284000D02*
D03*
X786000Y494000D02*
D03*
Y317000D02*
D03*
X780000D02*
D03*
X774000D02*
D03*
X767000D02*
D03*
X869000Y214000D02*
D03*
X868000Y60000D02*
D03*
X934000Y215000D02*
D03*
X928000Y60000D02*
D03*
X524000Y102000D02*
D03*
X713000Y137000D02*
D03*
X710000Y153000D02*
D03*
X732000Y466000D02*
D03*
X343000Y75000D02*
D03*
X347243Y70757D02*
D03*
X317000Y67000D02*
D03*
X165011Y478000D02*
D03*
X171011D02*
D03*
X177011D02*
D03*
X177173Y470000D02*
D03*
X233000Y401000D02*
D03*
Y407000D02*
D03*
X239000D02*
D03*
Y401000D02*
D03*
X245000D02*
D03*
Y407000D02*
D03*
X82173Y375000D02*
D03*
X138000Y306000D02*
D03*
Y312000D02*
D03*
X144000D02*
D03*
Y306000D02*
D03*
X150000D02*
D03*
Y312000D02*
D03*
X70011Y383000D02*
D03*
X76011D02*
D03*
X82011D02*
D03*
X101000Y151000D02*
D03*
X98000Y101000D02*
D03*
X211000Y188000D02*
D03*
X195931Y366069D02*
D03*
X362625Y385000D02*
D03*
X380000Y390000D02*
D03*
X100931Y366069D02*
D03*
Y461069D02*
D03*
X353000Y386000D02*
D03*
X375000Y400000D02*
D03*
X101000Y554000D02*
D03*
X70011Y572000D02*
D03*
X76011D02*
D03*
X82011D02*
D03*
X82173Y564000D02*
D03*
X144000Y501000D02*
D03*
Y495000D02*
D03*
X150000D02*
D03*
Y501000D02*
D03*
X307500Y323000D02*
D03*
Y329000D02*
D03*
X312500D02*
D03*
Y323000D02*
D03*
X309000Y498000D02*
D03*
Y492000D02*
D03*
X314000Y498000D02*
D03*
Y492000D02*
D03*
X412000Y357000D02*
D03*
X404000Y352000D02*
D03*
X323500Y340000D02*
D03*
X335500D02*
D03*
Y348000D02*
D03*
Y356000D02*
D03*
X325000Y509000D02*
D03*
X337000D02*
D03*
Y525000D02*
D03*
Y517000D02*
D03*
X380000Y558000D02*
D03*
X435000Y556000D02*
D03*
X384000Y522000D02*
D03*
X436000D02*
D03*
X552000Y200000D02*
D03*
X545000Y197000D02*
D03*
X86069Y325347D02*
D03*
X109000Y316000D02*
D03*
X181069Y325347D02*
D03*
X204000Y316000D02*
D03*
X86069Y420347D02*
D03*
X109000Y411000D02*
D03*
X146750Y261500D02*
D03*
X740000Y474000D02*
D03*
X203000Y216000D02*
D03*
Y159000D02*
D03*
X204000Y195000D02*
D03*
X203000Y132000D02*
D03*
X196000Y202000D02*
D03*
X211000Y201000D02*
D03*
X203000Y168000D02*
D03*
Y123000D02*
D03*
Y96000D02*
D03*
Y208000D02*
D03*
X128000Y101000D02*
D03*
X618000Y438000D02*
D03*
X722250Y435500D02*
D03*
X397000Y87000D02*
D03*
X400000Y177000D02*
D03*
X379000Y146000D02*
D03*
X347000Y123000D02*
D03*
X239000Y101000D02*
D03*
X308000Y123000D02*
D03*
X165011Y570999D02*
D03*
X171011D02*
D03*
X177011D02*
D03*
X177173Y562999D02*
D03*
X233000Y500000D02*
D03*
Y494000D02*
D03*
X239000D02*
D03*
Y500000D02*
D03*
X245000Y494000D02*
D03*
Y500000D02*
D03*
X181069Y513348D02*
D03*
X204000Y504000D02*
D03*
X1077000Y473000D02*
D03*
X452000Y253000D02*
D03*
X657000Y206000D02*
D03*
X462000Y253000D02*
D03*
X659000Y212000D02*
D03*
X390000Y390000D02*
D03*
X195931Y554069D02*
D03*
X370000Y390000D02*
D03*
X195931Y461069D02*
D03*
X181069Y420347D02*
D03*
X204000Y411000D02*
D03*
X155750Y261500D02*
D03*
X233000Y312000D02*
D03*
Y306000D02*
D03*
X239000D02*
D03*
Y312000D02*
D03*
X165011Y383000D02*
D03*
X171011D02*
D03*
X177173Y375000D02*
D03*
X245000Y306000D02*
D03*
Y312000D02*
D03*
X792000Y349000D02*
D03*
X1107000Y331000D02*
D03*
X1096750Y386300D02*
D03*
X758000Y404000D02*
D03*
X1265000Y385000D02*
D03*
X752000Y381000D02*
D03*
X1256000Y352000D02*
D03*
X835000Y409000D02*
D03*
X1264000Y399000D02*
D03*
X720750Y424750D02*
D03*
X1244000Y420000D02*
D03*
X179080Y487347D02*
D03*
X656000Y226000D02*
D03*
X540000Y278000D02*
D03*
X188080Y299347D02*
D03*
X93080Y394347D02*
D03*
X179080D02*
D03*
X709000Y540000D02*
D03*
X604000Y41000D02*
D03*
X582000Y56000D02*
D03*
X404000Y151100D02*
D03*
Y157100D02*
D03*
X402900Y104000D02*
D03*
X408900D02*
D03*
X290000Y95000D02*
D03*
X284000D02*
D03*
X239000Y190000D02*
D03*
X238000Y159000D02*
D03*
X798000Y541000D02*
D03*
X1260000Y454000D02*
D03*
X1276000Y193000D02*
D03*
X1261000Y175000D02*
D03*
X1260000Y157000D02*
D03*
X1176000Y210000D02*
D03*
X1174000Y198000D02*
D03*
Y190000D02*
D03*
Y178000D02*
D03*
Y165000D02*
D03*
X1173000Y152000D02*
D03*
Y140000D02*
D03*
X1233000Y227000D02*
D03*
X1233000Y216250D02*
D03*
X1233000Y207000D02*
D03*
X1232000Y200000D02*
D03*
Y177000D02*
D03*
X1233000Y167000D02*
D03*
X1232000Y143000D02*
D03*
X100000Y118000D02*
D03*
Y129000D02*
D03*
Y140000D02*
D03*
Y163000D02*
D03*
Y184000D02*
D03*
Y195000D02*
D03*
X606000Y67000D02*
D03*
X156000Y80000D02*
D03*
X714500Y423500D02*
D03*
X708662Y421912D02*
D03*
X1245000Y391000D02*
D03*
X1195000Y224000D02*
D03*
X617000Y216000D02*
D03*
X137750Y238500D02*
D03*
X146750Y238696D02*
D03*
X622541Y217460D02*
D03*
X718000Y323000D02*
D03*
X1261000Y220000D02*
D03*
X1264000Y333000D02*
D03*
X721000Y311000D02*
D03*
X1275000Y298000D02*
D03*
X1022000Y487000D02*
D03*
X994000Y330000D02*
D03*
X719000Y329000D02*
D03*
X1003000Y344000D02*
D03*
X1026000Y481000D02*
D03*
X1260000Y211000D02*
D03*
X1262000Y347000D02*
D03*
X646000Y308000D02*
D03*
X808003Y340998D02*
D03*
X271000Y71000D02*
D03*
X271000Y77000D02*
D03*
X657000Y325000D02*
D03*
X356000Y278000D02*
D03*
X657000Y220000D02*
D03*
X590000Y225000D02*
D03*
X155750Y238500D02*
D03*
X1009000Y505000D02*
D03*
X1022000Y475000D02*
D03*
X888000Y400000D02*
D03*
X908000Y445000D02*
D03*
X904180Y440240D02*
D03*
X883000Y405000D02*
D03*
X878000Y409000D02*
D03*
X688000Y550000D02*
D03*
X1101000Y583000D02*
D03*
X688000Y559000D02*
D03*
X1093000Y582000D02*
D03*
X694000Y562000D02*
D03*
X1094000Y558000D02*
D03*
X727000Y556000D02*
D03*
X1076000Y575000D02*
D03*
X910000Y400000D02*
D03*
X901000Y436000D02*
D03*
X415000Y390000D02*
D03*
X1302000Y576000D02*
D03*
X787000Y479000D02*
D03*
X637750Y438250D02*
D03*
X644091Y438518D02*
D03*
X650750Y438500D02*
D03*
X657250Y438422D02*
D03*
X837000Y437000D02*
D03*
X844000D02*
D03*
X850000D02*
D03*
X773000Y463000D02*
D03*
X448000Y139000D02*
D03*
X602000Y131000D02*
D03*
X252000Y97000D02*
D03*
X285000Y153000D02*
D03*
X253000Y106000D02*
D03*
Y115000D02*
D03*
X352500Y179500D02*
D03*
X618000Y198000D02*
D03*
X302000Y180000D02*
D03*
X302500Y187710D02*
D03*
X618000Y205000D02*
D03*
X812000Y545000D02*
D03*
X1265000Y462000D02*
D03*
X1259000Y139000D02*
D03*
X130000Y47000D02*
D03*
X108000Y73000D02*
D03*
X905000Y402000D02*
D03*
X625000Y438000D02*
D03*
X1224170Y495412D02*
D03*
Y501412D02*
D03*
X1230170Y495412D02*
D03*
Y501412D02*
D03*
X1236170Y495412D02*
D03*
Y501412D02*
D03*
X1168343Y564412D02*
D03*
X469000Y450000D02*
D03*
X822000Y409000D02*
D03*
X469000Y456000D02*
D03*
Y414000D02*
D03*
X1037000Y424000D02*
D03*
X636000Y407000D02*
D03*
X1030000Y424000D02*
D03*
X627000Y407000D02*
D03*
X1063000Y424000D02*
D03*
X1187101Y555481D02*
D03*
X410000Y385000D02*
D03*
X695000Y238000D02*
D03*
X684000D02*
D03*
X558000Y145000D02*
D03*
X543000Y142000D02*
D03*
X771000Y201000D02*
D03*
X763000Y198000D02*
D03*
X1195170Y505412D02*
D03*
X1172239Y514759D02*
D03*
X780000Y479000D02*
D03*
X774000Y471000D02*
D03*
X661000Y485000D02*
D03*
X667000D02*
D03*
X689000Y589000D02*
D03*
Y583000D02*
D03*
X716000Y574000D02*
D03*
Y568000D02*
D03*
X547240Y145180D02*
D03*
X583000Y352000D02*
D03*
X1222931Y305653D02*
D03*
Y311653D02*
D03*
X1228931D02*
D03*
Y305653D02*
D03*
X1154941Y382653D02*
D03*
X1234920Y406653D02*
D03*
Y400653D02*
D03*
X1228920D02*
D03*
Y406653D02*
D03*
X1222920D02*
D03*
Y400653D02*
D03*
X1167093Y469653D02*
D03*
X1166931Y477653D02*
D03*
X1154931D02*
D03*
X1185862Y365722D02*
D03*
X1185851Y460722D02*
D03*
X1193920Y410653D02*
D03*
X1170989Y420000D02*
D03*
X1193931Y315653D02*
D03*
X1171000Y325000D02*
D03*
X1085000Y581000D02*
D03*
X720000Y558000D02*
D03*
X1075000Y568000D02*
D03*
X752000Y438000D02*
D03*
X552000Y24000D02*
D03*
X458000D02*
D03*
X671000Y336000D02*
D03*
X677000Y324000D02*
D03*
X900000Y258000D02*
D03*
X901000Y266000D02*
D03*
X1092000Y565000D02*
D03*
X798000Y242000D02*
D03*
X804000D02*
D03*
X1024000Y277000D02*
D03*
X1029751Y253503D02*
D03*
X1129751Y253603D02*
D03*
X1046000Y247000D02*
D03*
X1146000Y247100D02*
D03*
X1017501Y265731D02*
D03*
X1117501Y265831D02*
D03*
X1028000Y267000D02*
D03*
X1004000Y266000D02*
D03*
X1020251Y253503D02*
D03*
X1120250Y253603D02*
D03*
X1104000Y266100D02*
D03*
X1121000Y229071D02*
D03*
X1027250Y162502D02*
D03*
X1127250D02*
D03*
X1008499Y176000D02*
D03*
X1111499Y187000D02*
D03*
X1043499Y156000D02*
D03*
X1143499D02*
D03*
X1167499Y172000D02*
D03*
X1015000Y174730D02*
D03*
X1115000D02*
D03*
X1020499Y181000D02*
D03*
X1120499D02*
D03*
X1025499Y176000D02*
D03*
X1125499D02*
D03*
X1117750Y162502D02*
D03*
X1101499Y175000D02*
D03*
X975499Y163000D02*
D03*
X1017750Y162502D02*
D03*
X1001499Y173000D02*
D03*
X1076000Y160000D02*
D03*
X1118000Y135000D02*
D03*
X1019000Y133000D02*
D03*
X972000Y217000D02*
D03*
X1019793Y228449D02*
D03*
X1075000Y207000D02*
D03*
X1195000Y232000D02*
D03*
X1196000Y241000D02*
D03*
X1195000Y248000D02*
D03*
X1226100Y153400D02*
D03*
X1244000Y403000D02*
D03*
X1241000Y114000D02*
D03*
X1233000Y134000D02*
D03*
X918000Y60000D02*
D03*
X1027000Y185000D02*
D03*
X1003000Y89000D02*
D03*
X1050000Y195000D02*
D03*
Y189000D02*
D03*
X1025000Y89000D02*
D03*
M02*
