M48
;Layer_Color=9474304
;FILE_FORMAT=4:3
METRIC,TZ
;TYPE=PLATED
T01F00S00C0.200
T02F00S00C0.203
T03F00S00C0.762
T04F00S00C0.800
T05F00S00C1.000
T06F00S00C2.000
T07F00S00C3.180
%
T01
X148000Y7000
X149000
Y8000
X148000
Y9000
X149000
Y6000
X147000Y8000
Y9000
X146000
Y8000
X145000
Y9000
X143000Y1000
X142000
X141000
X140000
X139000
X138000
X137000
X136000
X135000
X134000
X133000
X132000
X131000
X130000
X129000
X128000
X127000
X126000
X125000
X124000
X123000
X122000
X121000
X120000
X119000
X118000
X117000
X116000
X115000
X114000
X113000
X112000
X111000
X110000
X109000
X110900Y4100
X115900Y4400
X120200Y3500
X127000Y8900
X132800Y7800
X134200
X112500Y8750
X108200Y8300
X106900
X104000Y8200
X102950Y8503
X102500Y8900
X100300
X99200Y8300
X94500Y8000
X92900Y8100
X92800Y6000
X91800
X90600Y8000
X89600Y8100
X87980Y8200
X87000Y8100
X85400Y8300
X84300Y8100
X81300Y8500
X77560Y7800
X76200Y7700
X76900Y8600
X73200Y8700
X73000Y5600
X74500Y6000
X75700Y5200
X75900Y4100
X76000Y1000
X75000
X74000
X73000
X72000
X71000
X70000
X69000
X69200Y3900
X72200Y4100
X71500Y6100
X77000Y1000
X78000
X79000
X80000
X81000
X82000
X83000
X84000
X85000
X86000
X87000
X88000
X89000
X90000
X91000
X92000
X93000
X94000
X95000
X96000
X97000
X98000
X99000
X100000
X101000
X102000
X103000
X104000
X105000
X106000
X107000
X108000
X108300Y3900
X105200Y3800
X102200Y3900
X103700Y5700
X86800Y6000
X85900Y5900
X68400
X66500Y3900
X66000Y1000
X65000
X64000
X63000
X62000
X61000
X60000
X59000
X58000
X57000
X56000
X55000
X54000
X53000
X52000
X51000
X50000
X49000
X48000
X47000
X46000
X45000
X44000
X43000
X42000
X41000
X40000
X39000
X38000
X37000
X36000
X35000
X34000
X33000
X32500Y1300
X32000Y1000
X31000
X30000
X29000
X29500Y2100
X29600Y3000
X29100Y3900
X29200Y4800
X29000Y6600
X30300Y6300
X31080Y6556
X31700Y6700
X32800Y8400
X34300Y7500
X34724Y7076
X35411Y6489
X36700Y8400
X39700Y8700
X39200Y6500
X38900Y5900
X40200Y6193
X41200Y7100
X42936Y7160
X42600Y7600
X44400Y8100
X45200Y7100
X47100Y8300
X48524Y7260
X48100Y6800
X49000Y5900
X49900
X51700Y3900
X55200Y2400
X56500Y2300
X57200Y6100
X58200Y5600
X60600Y6700
X61400Y8000
X60100Y8300
X60200Y9200
X63500Y7300
X63000Y6100
X62200Y5400
X60400Y4100
X67000Y1000
X68000
X45800Y2400
X46300Y3300
X44300Y3700
X43300Y2100
X39300Y4500
X37600Y4100
X36582Y4040
X28600Y4900
X28200Y6600
X27400Y6400
X27100Y7100
X27100Y7700
X26300Y9100
X24800Y7100
X25300Y5100
X27500Y3300
X28000Y1000
X27000
X26000
X25000
X24000
X23000
X22000
X21000
X20000
X19000
X18000
X17000
X16000
X15000
X14000
X13000
X12000
X11000
X10000
X9000
X8000
X7000
X6000
X11800Y3500
X13000Y4700
X13300Y6300
X12100Y6100
X11400
Y6700
X10800Y7300
Y5300
X14100Y7300
X15600Y8000
X17300Y7700
Y6800
Y3700
X16121Y4179
X19400Y4600
X19900Y5100
Y3900
X3000Y8000
Y9000
X2000
Y8000
Y7000
X1000
Y8000
Y9000
Y6000
Y10000
Y11000
Y12000
Y13000
Y14000
Y15000
Y16000
Y17000
Y18000
Y19000
Y20000
Y21000
Y22000
Y23000
Y24000
Y25000
Y26000
X2000
X3000
Y25000
Y24000
Y23000
Y22000
Y21000
Y20000
Y19000
Y18000
Y17000
Y16000
Y15000
Y14000
Y13000
Y12000
Y11000
Y10000
X2000
Y11000
Y12000
Y13000
Y14000
Y15000
Y16000
Y17000
Y18000
Y19000
Y20000
Y21000
Y22000
Y23000
Y24000
Y25000
Y27000
X3000
Y28000
Y29000
Y30000
Y31000
Y32000
Y33000
Y34000
Y35000
Y36000
Y37000
Y38000
Y39000
Y40000
Y41000
Y42000
Y43000
Y44000
Y45000
Y46000
Y47000
Y48000
X2000
Y47000
Y46000
Y45000
Y44000
Y43000
Y42000
Y41000
Y40000
Y39000
Y38000
Y37000
Y36000
Y35000
Y34000
Y33000
Y32000
Y31000
Y30000
Y29000
Y28000
X1000
Y29000
Y30000
Y31000
Y32000
Y33000
Y34000
Y35000
Y36000
Y37000
Y38000
Y39000
Y40000
Y41000
Y42000
Y43000
Y44000
Y45000
Y46000
Y47000
Y48000
X7001Y47800
X7601
X8201
X8217Y47000
X8007Y44735
X7107
X7107Y43835
X8007
X8607Y42035
X7100Y41600
X7001Y38300
X7601
X8201
X8217Y37500
X8408Y39435
X9308
X10208
X10801Y38300
X12400
X13000
Y37700
Y37100
Y36500
X10093Y36607
X8007Y35235
X7107
X7107Y34335
X8007
X8607Y32535
X7100Y32100
X8400Y30000
X9000
X10208Y29935
X10600Y28800
X12000Y29500
X12900Y28400
X13800Y28300
X12900Y27300
X14675Y26150
X15575
X16231Y26233
X16654Y23846
X15575Y23850
X14675Y23870
X13775Y23850
X12900Y23500
X11500Y24400
X9600Y24000
X9400Y25200
X8700
X9600Y27000
X10600Y26400
X7200
X1000Y27000
X10900Y31600
X13800Y31200
Y30600
X14400
Y31200
X15000
Y30600
X16600Y32100
X18107Y32535
X17507Y34335
X16607
X16607Y35235
X17507
X17717Y37500
X17701Y38300
X17101
X16501
X17908Y39435
X18808
X19708
X20301Y38300
X21900
X22500
Y37700
Y37100
Y36500
X19593Y36607
X20400Y41100
X18107Y42035
X16600Y41600
X16607Y43835
X17507
X17507Y44735
X16607
X16501Y47800
X17101
X17701
X17717Y47000
X17908Y48735
X18808
X19708
X20301Y47800
X21900
X22500Y47200
Y46600
Y46000
X19593Y46107
X25150Y46700
X27100Y48800
X28000
X27800Y44100
X27000
X28600Y44100
X27200Y42200
X27300Y41300
X25500Y40700
Y40100
X24500Y40100
X23900
X23300
Y40700
X23900
X24500
X26050Y38400
Y37700
X27450
Y38400
X26280Y36114
X26650Y33600
X27350
X28050
X27550Y32200
X28550
X26550
X24500Y31200
X23900
X23300
Y30600
X23900
X24500
X26100Y27300
X26900Y27300
X27700
X28500Y27300
X28600Y25800
X24600Y25000
X23800
X23100
X20308Y25435
Y26135
X19408
X19400Y25400
X18700Y24000
X20300Y21600
Y20800
X19600Y20200
X20400Y19500
X21100Y20100
Y18800
X20100Y17700
X20300Y16800
Y15900
Y14100
Y13200
Y12300
X20776Y12665
X20800Y11400
X20200Y10500
X20300Y9600
X23900Y10100
X25200Y9700
X25300Y10600
Y11500
X24600Y11800
X23200Y14000
X23800Y15900
X24800Y15200
X26100Y15300
X28500
X25300Y17400
X23900Y19000
X22600Y18000
X17827Y15573
X16290Y10390
X12800Y10100
X9800
X10000Y11800
Y12900
Y14000
X10100Y15100
X10000Y16300
Y17300
Y18400
Y19500
X8700Y18600
X8575Y15200
X8600Y11600
X12100Y20700
X15900
X17908Y29935
X18808
X19708
X20400Y28800
Y28100
X20400Y31600
X15000Y40100
X14400
X13800
Y40700
X14400
X15000
X10900Y41100
X10093Y46107
X10801Y47800
X12400
X13000
Y47200
Y46600
Y46000
X27639Y20939
X28400Y9500
X29000
X30496Y10396
X30800Y12300
Y13100
X32700Y13400
X33411Y12664
X34700Y12300
Y13200
X34465Y10390
X36700Y10600
X37000Y11950
X39469Y11850
X40290Y10400
X40890
X42700Y9350
X44500Y12000
X44600Y13100
X44800Y13900
X45700Y13000
X46375Y12200
X46400Y14700
X47959Y13846
X49400Y16000
X48312Y18475
X45700Y18300
X45200Y17000
X41800Y17400
X40000Y17700
X40400Y15710
Y15110
X37900Y14600
X37500Y17900
X35250Y17950
X34900Y19600
X34100Y19500
X33400Y18200
Y17200
X32800Y17700
X32300Y18200
Y17200
X30200Y18000
X30250Y18771
X30800Y19800
X37300Y20100
X37100Y25900
X35600Y27800
X34700Y27100
X33700
X34700Y32400
X35400Y32100
X36200Y32900
X37000Y34200
X36900Y31285
X38600Y31300
X41300Y29900
X41700Y32900
X40500Y33800
X39881Y34408
X40400Y35200
X41200Y34800
Y35700
X39969Y36314
X41000Y38500
X41500Y39000
X43200Y39300
X43600Y39900
X41800Y41400
Y42900
Y44400
X40300
Y42900
X38800
Y41400
X40300
X39000Y39000
X38000
X37000
X36262Y38500
X35300Y38600
X35500Y36200
X33550Y35600
Y34800
Y34000
X32350
X31250Y32900
X30750
Y32300
X31250
X29600Y42800
X34000Y42400
X37500Y40000
X38800Y44400
X38200Y46788
X37300Y46700
X39689Y46726
X41600Y46500
X42546Y46810
X46100Y46200
X46900Y45600
Y45000
Y44400
Y43700
X47000Y43000
X46900Y41400
Y40800
X47050Y40068
X47000Y37000
X45300Y36400
X43600Y36200
Y34500
X45800Y34300
X46300Y34900
X46700Y33200
X51927Y36309
X55136Y33425
X54500Y32400
X53100Y31100
X54600Y28400
X54000Y27800
X54500Y19700
X55200Y20000
X54700Y17500
X56300Y17000
X56975Y18600
X56900Y15300
X55800Y14500
X54724Y14518
X54300Y14200
X52600Y14000
X53000Y15800
X52400Y17800
X51900Y17300
Y19800
X49400Y21275
X46500
X45800
X46200Y25300
X45200
X43500Y24000
X40800Y26000
X62200
X63600Y25900
X64800
X66800
X66200Y27900
X64800
X63600Y28700
X62900Y28700
X64600Y30800
X65246Y30670
X65083Y32254
X65700Y32500
X64700Y33000
X67100Y33600
X67700Y32400
X68446Y30670
X68400Y23800
X65600Y22600
X65700Y22000
X65900Y21200
X65700Y20600
X66800Y20400
X64354Y19100
X61800Y19200
Y19800
Y20500
X61700Y21600
X62254Y21746
X59000Y22500
X60200Y13100
X61200Y14000
X56700Y13000
X56800Y12100
X56100Y9700
X52400Y10200
X52000Y11820
X49300Y11100
X48500Y9600
X63900Y10400
X66786Y11600
X66900Y13300
X67500
X66000Y12800
X58300Y35200
X57800Y35700
X58600Y36700
X57400Y40700
X60336Y40600
X62700Y40700
X63600
X63775Y43825
X64409Y43852
X65075Y43850
X65725Y43842
X62500Y43800
X61800
X59225Y44775
X57600Y44000
X54100Y42700
X54550Y42200
X50482Y42945
X49000Y43000
X48800Y41800
X49000Y45000
X50509Y45112
X53600Y47200
X65100Y48700
X66100Y48500
X66700
X29000Y48800
X69600Y46200
X72600
X73200Y46600
X74000Y47400
X74900Y46200
X77300Y46300
X78200
X77400Y47100
X78000Y47900
X78700
X78300Y44200
X75200Y43800
X73500Y43700
X72225Y43550
X72075Y42475
X71450Y42350
X70866Y42191
X70175Y43625
X68700Y40300
X69600Y38000
X73300Y36200
X72900Y35700
X74504Y34900
X74400Y32600
X73800Y33000
X72800Y33200
X71900Y32900
X71800Y32300
X71900Y31700
X72100Y31100
X71646Y30670
X74100Y30600
X76846Y30670
X76700Y31700
X77400
X78000
X78600
X79343Y32343
X78500Y33200
X79200Y34900
X80800Y34100
X81700Y34000
X81400Y35700
X82600Y36300
X83100Y38300
X83500Y40900
X82200
X85800Y41200
X87800Y40900
X88300Y40500
X88800Y40000
X90500Y40200
X91000Y40000
X89800Y37900
X87300Y36000
X84900Y35800
X78200Y36800
Y38100
X75200
X75800Y40400
X76900Y35800
X71500Y33300
X70800Y33400
X69100Y32200
X69400Y27700
X71000
X70800Y25900
X73600
X75600
X78400
X80400
X80400Y24200
X79800
X80500Y22000
X81200Y22100
X81900Y22400
X84600
X85300Y22620
X86300Y22500
X85800Y23500
X84400Y24200
X83500Y23900
X83700Y20400
X83500Y19400
X84900Y21400
X86900
X87100Y25000
X88400Y24700
X89100Y24900
X88800Y26200
X90000Y25800
X90100Y26600
X91200Y21550
X92200Y21500
X93400
X95043Y20750
X95500Y22700
X96100Y22500
X96700Y22700
X97200Y21700
X98000Y22030
X100200Y22300
X101000Y23100
X101979Y22845
X101900Y24100
X102500
Y24700
X103100
Y24100
X102975Y25350
X102025
X101900Y24700
X101750Y26573
X101100Y26100
X100400Y26600
X102800Y26700
X102400Y27700
X102500Y29600
X104000Y28100
X104200Y26500
X104600Y24700
X104800Y23300
X104200
X105900Y24350
X107150Y25200
X107800Y25000
Y26200
X107100
X107000Y27200
X107800Y27210
X107700Y31500
X106900
X106200Y31300
X105625Y31800
X105125Y31400
X105000Y34000
X106000
Y35500
X105000
X104961Y36558
X106000Y36500
Y38000
X108000
Y36500
Y35500
Y34000
X102700Y34300
X102700Y35150
X102650Y36081
X102600Y33400
X100400Y32500
X99400Y33000
X99100Y32300
X98000Y31200
X96950Y32860
X96600Y34800
X97400
Y36000
X96950Y36800
X97400Y37300
Y38500
X96950Y38050
Y38972
X97000Y39500
X99300Y39800
X100400Y38800
X102800Y38800
X103000Y39400
X101700Y40700
X102100Y42400
X103000
X103700
X105400
X106300
X107200
X108100
X108200Y43300
X107700Y47300
X105310
X102200Y47500
X102600Y48100
X102200Y48700
X100200Y46100
X100100Y35900
X100300Y34400
X99300Y34300
X98700Y27900
X99000Y24150
X101201Y21598
X103301Y19398
X102700Y18500
X102050Y18100
X102550Y17600
X101500Y17473
X100850Y17600
Y17000
X100150Y17300
X101775Y16250
X101650Y15600
X102250
X102850
Y15000
X102250
X101650
X100750Y14000
X99950Y13200
X98750Y13700
X98700Y15050
X97550Y16300
Y17200
X98200Y19500
X105000
Y18900
X104000Y17600
X104350Y15600
X104550Y14200
X103950
X105800Y15200
X107200Y15400
X106800Y16000
X107600
X107500Y16800
X106900Y16900
X106750Y18100
X107550
X108100Y19400
X107500Y20700
X106700Y20400
X102725Y16250
X101900Y13300
X100900Y12000
X99800Y9550
X95200Y9600
X91400Y9400
X90300Y10200
X89800Y11013
X89800Y12500
X90400Y14100
X92500
X93300Y14000
X90700Y16100
X89600Y16900
X87600Y16500
Y14400
X88500
X84300Y15905
X84372Y16805
X80800Y17700
X80700Y18500
X77020Y19200
X77100Y20100
X76300Y19800
X75420Y18300
X75300Y17500
X73900Y17300
X69200
X71000Y15300
X71300Y13700
X70900Y12800
X74600Y12700
X79900Y12500
X83228Y12827
X84200Y11000
X83800Y10105
X90490Y19800
X78600Y22400
X77900
X77000
X77100Y27800
X79900Y30500
X81600Y30400
X82200
X83700Y27600
Y43700
X84400
X85000
X87500
X88000Y45400
X88900Y45604
X90800Y44500
X90418Y44024
X90100Y43600
X95100Y40800
X106213Y40004
X105650Y13000
X106450Y12300
Y11300
X107750Y12800
X71400Y20800
X70400Y21100
X69000Y21000
X69500Y23800
X83300Y46300
X83400Y47200
X108700Y47300
X111315Y47415
X115493Y47765
X116693
X116709Y46965
X117000Y48900
X118825Y48876
X119293Y47765
X120892
X121492
Y47165
Y46565
Y45965
X118585Y46072
X116499Y44700
X115599
X115599Y43800
X116499
X117099Y42000
X115592Y41565
X116900Y39565
X116694Y38265
X116094
X115494
X114500Y39300
X113000
X113100Y38320
X113600Y39900
X113200Y43000
X110300Y42100
X109000Y42400
Y38000
X109675Y38630
X109000Y36500
Y35500
Y34000
X108411Y32111
X109300Y31600
X110700Y33100
X113100Y33100
X113000Y35700
X112100Y34800
X115600Y35200
X115600Y34300
X116700Y34300
Y35200
X116900Y36600
X118586Y36572
X119294Y38265
X120893
X121493
Y36465
X122292Y40065
X122892
X123492
Y40665
X122892
X122292
X124400Y40300
X124500Y39100
X126500Y38500
X126400Y39900
X124400Y42000
X126000Y45400
X126500Y46200
X127300Y47000
X137500Y44900
Y43600
X143700Y43800
X145000Y44000
Y43000
Y42000
Y41000
Y40000
Y39000
Y38000
Y37000
Y36000
Y35000
Y34000
Y33000
Y32000
Y31000
Y30000
Y29000
Y28000
Y27000
Y26000
X146000
Y27000
Y28000
Y29000
Y30000
Y31000
Y32000
Y33000
Y34000
Y35000
Y36000
Y37000
Y38000
Y39000
Y40000
Y41000
Y42000
Y43000
Y44000
Y45000
Y46000
Y47000
Y48000
X145000
Y47000
Y46000
Y45000
X147000
Y44000
Y43000
Y42000
Y41000
Y40000
Y39000
Y38000
Y37000
Y36000
Y35000
Y34000
Y33000
Y32000
Y31000
Y30000
Y29000
Y28000
Y27000
Y26000
Y25000
Y24000
Y23000
Y22000
Y21000
Y20000
Y19000
Y18000
Y17000
Y16000
Y15000
Y14000
Y13000
Y12000
Y11000
Y10000
X146000
Y11000
Y12000
Y13000
Y14000
Y15000
Y16000
Y17000
Y18000
Y19000
Y20000
Y21000
Y22000
Y23000
Y24000
Y25000
X145000
Y24000
Y23000
Y22000
Y21000
Y20000
Y19000
Y18000
Y17000
Y16000
Y15000
Y14000
Y13000
Y12000
Y11000
Y10000
X143600Y17800
X141900Y18500
X141300Y19500
X143700Y20500
X142900Y21600
X143500Y24300
X142200Y26100
X127700
X127500Y29800
X127600Y32100
X126400Y33300
X126200Y34700
X125600Y35200
X122893Y31165
X122293
Y30565
X122893
X122600Y29707
X121000Y28100
X119200Y28200
X118700Y28800
X118701Y29900
X116500Y29900
X115593Y32065
X117100Y32500
X119393Y31565
X117000Y27210
Y25410
X115800Y24350
X114600Y24710
X113100
X112500
Y24110
X113100
X111900
Y24710
X112025Y25360
X112975
X114200Y26500
X114000Y28300
X112800Y27800
X112100Y27700
X111800Y28800
X110292Y29508
X110400Y26610
X111100Y26110
X111750Y26583
X112100Y22907
X111600Y21900
X110200Y22310
Y23110
X109000Y22810
X109000Y22200
Y24150
X110700Y20600
X111150Y18700
X112050Y18100
X112550Y17600
X111500Y17473
X110850Y17000
X110150Y17500
X111775Y16250
X111650Y15600
X112250
X112850
Y15000
X112250
X111650
X111800Y13500
X110750Y14000
X109950Y13200
X108750Y13700
X108903Y15660
X112725Y16250
X114350Y15600
X115600Y15300
X117300Y15200
Y14000
X117900Y13250
X116450Y12300
Y11300
X115650Y13000
X114550Y14200
X113950
X114700Y18100
X114978Y19753
X113900Y20000
X116700Y20410
Y21300
X117600Y21000
X117400Y19800
Y19000
Y17800
X117332Y17125
X116750Y17200
Y16300
X117400Y16500
X116750Y18100
X116100Y18700
X116000Y22100
X117300Y23100
X119500Y23200
Y22400
X119600Y24100
X119500Y24800
X123230Y24400
Y23700
X123300Y22700
X123300Y21625
X123300Y20700
X123200Y20000
X123100Y18900
X123200Y17700
X123300Y16700
X123250Y15200
X122610Y15340
X123200Y14300
X123300Y13400
X124100Y11400
X125900Y13900
X126000Y15700
X126100Y17500
X127600Y19300
X126000Y21100
X126100Y22000
X114800Y23310
X114200
X114700Y36700
X118700Y39400
X119392Y41065
X142900Y44900
X143600Y46800
X142900Y47900
X147000Y48000
Y47000
Y46000
X120900Y10200
X111000Y11600
X109500
X108833Y9630
X148000Y10000
X149000
Y11000
X148000
Y12000
X149000
Y13000
X148000
Y14000
X149000
Y15000
X148000
Y16000
X149000
Y17000
X148000
Y18000
X149000
Y19000
X148000
Y20000
X149000
Y21000
X148000
Y22000
X149000
Y23000
X148000
Y24000
X149000
Y25000
X148000
Y26000
X149000
Y27000
X148000
Y28000
X149000
Y29000
X148000
Y30000
X149000
Y31000
X148000
Y32000
X149000
Y33000
X148000
Y34000
X149000
Y35000
X148000
Y36000
X149000
Y37000
X148000
Y38000
X149000
Y39000
X148000
Y40000
X149000
Y41000
X148000
Y42000
X149000
Y43000
X148000
Y44000
X149000
Y45000
X148000
Y46000
X149000
Y47000
X148000
Y48000
X149000
Y49000
X148000
Y50000
X149000
Y51000
X148000
Y52000
X149000
Y53000
X148000
Y54000
X149000
Y55000
X148000
Y56000
X149000
Y57000
X148000
Y58000
X149000
Y59000
X148000
X149000Y60000
Y61000
X147000Y58000
Y57000
Y56000
Y55000
Y54000
Y53000
Y52000
X146000
Y53000
Y54000
Y55000
Y56000
Y57000
Y58000
X145000
Y57000
Y56000
Y55000
Y54000
Y53000
Y52000
Y51000
Y50000
Y49000
X146000
Y50000
Y51000
X147000
Y50000
Y49000
X143500Y50300
X142900Y51400
X137700Y51700
X137000Y51200
X137700Y53300
X136100Y56100
X135500Y55700
X137100Y57860
X138400Y58400
X138000Y61000
X137000
X136000
X135000
X134000
Y62000
X135000
X136000
X137000
X138000
X139000
X140000
X141000
X142000
Y61000
X141000
X140000
X139000
Y63000
X138000
X137000
X136000
X135000
X134000
Y64000
X135000
X136000
X137000
X138000
X139000
X140000
Y63000
X141000
X142000
Y64000
X143000Y64000
Y65000
X142000Y65000
X141000
X140000
X139000
X138000
X137000
X136000
X135000
X134000
X133000
X132000
X131000
X130000
X129000
X128000
X127000
X126000
X125000
X124000
X123000
X122000
X121000
X120000
X119000
X118000
X117000
X116000
X115000
X114000
X113000
X112000
X111000
X110000
X109000
Y64000
X110000
X111000
X112000
X113000
X114000
X115000
X116000
X117000
X118000
X119000
X120000
X121000
X122000
X123000
X124000
X125000
X126000
X127000
X128000
X129000
X130000
X131000
Y63000
X132000
X133000
Y64000
X132000
Y62000
X133000
Y61000
X132000
X130200Y59500
X129400
X130100Y58800
X130200Y57600
X126500Y59300
X125600
X121617Y57241
X121017
X119418
X118710Y55548
X116834Y56441
X116800Y57200
X116200
X116624Y54176
X115724
X115724Y53276
X116624
X117224Y51476
X115717Y51041
X112700Y50600
X111300Y50700
X111525Y49400
X109500Y50600
X109400Y55800
X109200Y56500
X109300Y58200
X110100Y58300
X108500Y58100
X113200Y59100
X113600Y59550
X114400
X121600Y55900
X121617Y55441
X122417Y50141
X123017
X123617
Y49541
X123017
X122417
X124800Y50600
X126200Y49000
X127900
X129900Y51300
X129700Y52100
X119517Y50541
X141000Y64000
X108000
Y65000
X107000
X106000
X105000
X104000
X103000
X102000
X101000
X100000
X99000
X98000
X97000
X96000
X95000
X94000
X93000
X92000
X91000
X90000
X89000
X88000
X87000
X86000
X85000
X84000
X83000
Y64000
X84000
X85000
X86000
X87000
X88000
X89000
X90000
X91000
X92000
X93000
X94000
X95000
X96000
X97000
X98000
X99000
X100000
X101000
X102000
X103000
X104000
X105000
X106000
X107000
X105600Y58680
X103700Y59050
X102500Y56200
X101500Y56200
X100500
Y54700
X101500
Y53700
X102500
X103363Y53630
X102500Y54700
X100500Y53700
X99500Y53700
X97900Y56100
X99500Y58300
X107600Y57500
X107500Y56800
X106900Y50400
X100900Y50500
X97210Y49600
X83100Y49800
X83200Y49000
X80732Y51323
X79300Y51300
X78600Y49400
X77154Y49430
X75154
X74200Y51400
X72900
X70208Y51199
X69100Y51200
X68800Y49400
X69954Y49430
X71554
X70900Y54000
Y55200
X70700Y55900
X71200Y56100
X71600Y56800
Y57400
X72000Y55800
X72700Y55600
X72100Y54800
X68800Y55000
Y54200
X68800Y55900
X69400Y56200
X68900Y58300
Y58900
X69000Y64000
X70000
X71000
X72000
X73000
X74000
X75000
X76000
X77000
X78000
X79000
X80000
X81000
X82000
Y65000
X81000
X80000
X79000
X78000
X77000
X76000
X75000
X74000
X73000
X72000
X71000
X70000
X69000
X75200Y54200
X78400
X79800Y54100
X81200Y54500
X76300Y51400
X65800Y51300
X64760Y51285
X63800Y51300
X64000Y49500
X62700
X65100Y49300
X67600
X66300Y54100
X64800Y54200
X62800Y54000
X58700Y51900
X58500Y57500
X57700Y58000
X57000Y57400
X57600Y59500
X59500Y59300
X59700Y58500
X60000Y64000
X61000
X62000
X63000
X64000
X65000
X66000
X67000
X68000
Y65000
X67000
X66000
X65000
X64000
X63000
X62000
X61000
X60000
X59000
X58000
Y64000
X59000
X57000
X56000
X55000
X54000
X53000
X52000
X51000
X50000
X49000
X48000
X47000
X46000
X45000
X44000
X43000
X42000
X41000
X40000
X39000
X38000
X37000
X36000
X35000
X34000
X33000
X32000
Y65000
X33000
X34000
X35000
X36000
X37000
X38000
X39000
X40000
X41000
X42000
X43000
X44000
X45000
X46000
X47000
X48000
X49000
X50000
X51000
X52000
X53000
X54000
X55000
X56000
X57000
X54400Y56900
X54500Y56000
X55000Y55200
X45600Y53300
X43600Y52200
X43400Y51100
X44100Y49800
X42700Y49100
X40900
X40300Y50500
X39100Y50400
X38400Y52200
X37700Y49100
X41600Y50500
X42300Y53600
X42000Y54800
X43200Y54500
X43500Y55600
X42300Y57100
X38700Y58600
X38000Y55800
X35500Y53300
X33700Y52500
Y51700
Y50900
X32500
X31400Y49800
X30900
Y49200
X31400
X31000Y64000
X30000
X29000
Y65000
X30000
X31000
X28000
X27000
X26000
X25000
X24000
X23000
X22000
X21000
X20000
X19000
X18000
X17000
X16000
X15000
X14000
X13000
X12000
X11000
X10000
X9000
X8000
X7000
Y64000
X8000
X9000
X10000
X11000
X12000
X13000
X14000
X15000
X16000
X17000
X18000
X19000
X20000
X21000
X22000
X23000
X24000
X25000
X26000
X27000
X28000
X27600Y55300
Y54600
X26200
Y55300
X25900Y57000
X22500Y57100
Y56500
Y55900
Y55300
X21900Y57100
X20301Y57100
X19593Y55407
X17717Y56300
X17701Y57100
X17101
X16501
X16607Y54035
X17507
X17507Y53135
X16607
X16600Y50900
X18107Y51335
X20400Y50400
X23300Y50000
Y49400
X23900
Y50000
X24500
Y49400
X26800Y50500
X27500
X28200
X26372Y52909
X15000Y50100
X14400
Y49500
X15000
X10329Y49444
X7100Y50900
X7100Y53200
X8000
X8000Y54100
X7100
X7001Y57200
X7601
X8201
X8217Y56400
X10100Y55400
X10800Y57200
X12400
X12993Y57165
Y56565
Y55965
Y55365
X12600Y59140
X3000Y58000
Y57000
Y56000
Y55000
Y54000
Y53000
X2000
Y54000
Y55000
Y56000
Y57000
Y58000
Y59000
X1000
Y60000
Y58000
Y57000
Y56000
Y55000
Y54000
Y53000
Y52000
Y51000
Y50000
Y49000
X2000
X3000
Y50000
Y51000
Y52000
X2000
Y51000
Y50000
X6000Y65000
T02
X28250Y38050
Y39350
X29550
X30850
X32150
Y38050
X30850
X29550
X29700Y54950
Y56250
X31000
X32300
Y54950
X31000
X28400
Y56250
T03
X148286Y4000
X147616Y5616
X146000Y6286
X144384Y5616
X143714Y4000
X144384Y2384
X146000Y1714
X147616Y2384
X5616
X4000Y1714
X2384Y2384
X1714Y4000
X2384Y5616
X4000Y6286
X5616Y5616
X6286Y4000
X48384Y26384
X50000Y25714
X51616Y26384
X52286Y28000
X51616Y29616
X50000Y30286
X48384Y29616
X47714Y28000
X91714
X92384Y29616
X94000Y30286
X95616Y29616
X96286Y28000
X95616Y26384
X94000Y25714
X92384Y26384
X148286Y62000
X147616Y60384
X146000Y59714
X144384Y60384
X143714Y62000
X144384Y63616
X146000Y64286
X147616Y63616
X95616Y53616
X96286Y52000
X95616Y50384
X94000Y49714
X92384Y50384
X91714Y52000
X92384Y53616
X94000Y54286
X51616Y53616
X52286Y52000
X51616Y50384
X50000Y49714
X48384Y50384
X47714Y52000
X48384Y53616
X50000Y54286
X5616Y60384
X4000Y59714
X2384Y60384
X1714Y62000
X2384Y63616
X4000Y64286
X5616Y63616
X6286Y62000
T04
X61600Y18100
X73100Y22600
X72400Y24000
X83600Y21900
X82300Y20000
X90200Y22300
X62200Y56900
T05
X132590Y10840
Y13380
Y15920
Y18460
Y21000
Y23540
Y26080
Y28620
Y31160
Y36840
Y39380
Y41920
Y44460
Y47000
X140210
Y44460
Y41920
Y39380
Y36840
Y31160
Y28620
Y26080
Y23540
Y21000
Y18460
Y15920
Y13380
Y10840
Y49540
Y52080
Y54620
Y57160
X132590
Y54620
Y52080
Y49540
T06
X57000Y47000
X87000Y33000
T07
X146000Y4000
X4000
X50000Y28000
X94000
X146000Y62000
X94000Y52000
X50000
X4000Y62000
M30
