G04*
G04 #@! TF.GenerationSoftware,Altium Limited,Altium Designer,24.9.1 (31)*
G04*
G04 Layer_Color=128*
%FSLAX44Y44*%
%MOMM*%
G71*
G04*
G04 #@! TF.SameCoordinates,11843470-2C0B-4DC8-9AB9-1888B6BF92CD*
G04*
G04*
G04 #@! TF.FilePolarity,Positive*
G04*
G01*
G75*
%ADD15C,0.1270*%
D15*
X618000Y569000D02*
X626000D01*
X622000Y565000D02*
Y573000D01*
X321984Y549500D02*
X324016D01*
X323000Y548484D02*
Y550516D01*
X321984Y562500D02*
X324016D01*
X323000Y561484D02*
Y563516D01*
X282984Y549500D02*
X285016D01*
X284000Y548484D02*
Y550516D01*
X282984Y562500D02*
X285016D01*
X284000Y561484D02*
Y563516D01*
X295984Y549500D02*
X298016D01*
X297000Y548484D02*
Y550516D01*
X295984Y562500D02*
X298016D01*
X297000Y561484D02*
Y563516D01*
X308984Y549500D02*
X311016D01*
X310000Y548484D02*
Y550516D01*
X308984Y562500D02*
X311016D01*
X310000Y561484D02*
Y563516D01*
X307484Y393500D02*
X309516D01*
X308500Y392484D02*
Y394516D01*
X307484Y380500D02*
X309516D01*
X308500Y379484D02*
Y381516D01*
X294484Y393500D02*
X296516D01*
X295500Y392484D02*
Y394516D01*
X294484Y380500D02*
X296516D01*
X295500Y379484D02*
Y381516D01*
X281484Y393500D02*
X283516D01*
X282500Y392484D02*
Y394516D01*
X281484Y380500D02*
X283516D01*
X282500Y379484D02*
Y381516D01*
X320484Y393500D02*
X322516D01*
X321500Y392484D02*
Y394516D01*
X320484Y380500D02*
X322516D01*
X321500Y379484D02*
Y381516D01*
X612000Y181000D02*
X620000D01*
X616000Y177000D02*
Y185000D01*
X819000Y200000D02*
X827000D01*
X823000Y196000D02*
Y204000D01*
X898000Y223000D02*
X906000D01*
X902000Y219000D02*
Y227000D01*
X832000Y219000D02*
X840000D01*
X836000Y215000D02*
Y223000D01*
X727000Y226000D02*
X735000D01*
X731000Y222000D02*
Y230000D01*
X720000Y240000D02*
X728000D01*
X724000Y236000D02*
Y244000D01*
X1397100Y368400D02*
X1407100D01*
X1402100Y363400D02*
Y373400D01*
X1397100Y393800D02*
X1407100D01*
X1402100Y388800D02*
Y398800D01*
X1320900Y368400D02*
X1330900D01*
X1325900Y363400D02*
Y373400D01*
X1320900Y393800D02*
X1330900D01*
X1325900Y388800D02*
Y398800D01*
X1397100Y419200D02*
X1407100D01*
X1402100Y414200D02*
Y424200D01*
X1320900Y419200D02*
X1330900D01*
X1325900Y414200D02*
Y424200D01*
X1397100Y470000D02*
X1407100D01*
X1402100Y465000D02*
Y475000D01*
X1397100Y444600D02*
X1407100D01*
X1402100Y439600D02*
Y449600D01*
X1397100Y520800D02*
X1407100D01*
X1402100Y515800D02*
Y525800D01*
X1320900Y571600D02*
X1330900D01*
X1325900Y566600D02*
Y576600D01*
X1397100Y571600D02*
X1407100D01*
X1402100Y566600D02*
Y576600D01*
X1397100Y546200D02*
X1407100D01*
X1402100Y541200D02*
Y551200D01*
X1320900Y495400D02*
X1330900D01*
X1325900Y490400D02*
Y500400D01*
X1320900Y470000D02*
X1330900D01*
X1325900Y465000D02*
Y475000D01*
X1320900Y444600D02*
X1330900D01*
X1325900Y439600D02*
Y449600D01*
X1320900Y546200D02*
X1330900D01*
X1325900Y541200D02*
Y551200D01*
X1397100Y495400D02*
X1407100D01*
X1402100Y490400D02*
Y500400D01*
X1320900Y520800D02*
X1330900D01*
X1325900Y515800D02*
Y525800D01*
X1320900Y286200D02*
X1330900D01*
X1325900Y281200D02*
Y291200D01*
X1320900Y184600D02*
X1330900D01*
X1325900Y179600D02*
Y189600D01*
X1320900Y210000D02*
X1330900D01*
X1325900Y205000D02*
Y215000D01*
X1320900Y235400D02*
X1330900D01*
X1325900Y230400D02*
Y240400D01*
X1397100Y286200D02*
X1407100D01*
X1402100Y281200D02*
Y291200D01*
X1397100Y311600D02*
X1407100D01*
X1402100Y306600D02*
Y316600D01*
X1320900Y311600D02*
X1330900D01*
X1325900Y306600D02*
Y316600D01*
X1397100Y260800D02*
X1407100D01*
X1402100Y255800D02*
Y265800D01*
X1320900Y159200D02*
X1330900D01*
X1325900Y154200D02*
Y164200D01*
X1397100Y159200D02*
X1407100D01*
X1402100Y154200D02*
Y164200D01*
X1320900Y133800D02*
X1330900D01*
X1325900Y128800D02*
Y138800D01*
X1320900Y108400D02*
X1330900D01*
X1325900Y103400D02*
Y113400D01*
X1397100Y133800D02*
X1407100D01*
X1402100Y128800D02*
Y138800D01*
X1397100Y108400D02*
X1407100D01*
X1402100Y103400D02*
Y113400D01*
X1397100Y184600D02*
X1407100D01*
X1402100Y179600D02*
Y189600D01*
X1397100Y210000D02*
X1407100D01*
X1402100Y205000D02*
Y215000D01*
X1397100Y235400D02*
X1407100D01*
X1402100Y230400D02*
Y240400D01*
X1320900Y260800D02*
X1330900D01*
X1325900Y255800D02*
Y265800D01*
X13330Y620000D02*
X20950D01*
X17140Y616190D02*
Y623810D01*
X20026Y603835D02*
X27646D01*
X23836Y600025D02*
Y607645D01*
X36190Y597140D02*
X43810D01*
X40000Y593330D02*
Y600950D01*
X20026Y636165D02*
X27646D01*
X23836Y632355D02*
Y639975D01*
X36190Y642860D02*
X43810D01*
X40000Y639050D02*
Y646670D01*
X52354Y603835D02*
X59974D01*
X56164Y600025D02*
Y607645D01*
X24100Y620000D02*
X55900D01*
X40000Y604100D02*
Y635900D01*
X52354Y636165D02*
X59974D01*
X56164Y632355D02*
Y639975D01*
X59050Y620000D02*
X66670D01*
X62860Y616190D02*
Y623810D01*
X1456190Y597140D02*
X1463810D01*
X1460000Y593330D02*
Y600950D01*
X1472354Y603835D02*
X1479974D01*
X1476164Y600025D02*
Y607645D01*
X1440026Y603835D02*
X1447646D01*
X1443836Y600025D02*
Y607645D01*
X1479050Y620000D02*
X1486670D01*
X1482860Y616190D02*
Y623810D01*
X1444100Y620000D02*
X1475900D01*
X1460000Y604100D02*
Y635900D01*
X1433330Y620000D02*
X1440950D01*
X1437140Y616190D02*
Y623810D01*
X1472354Y636165D02*
X1479974D01*
X1476164Y632355D02*
Y639975D01*
X1440026Y636165D02*
X1447646D01*
X1443836Y632355D02*
Y639975D01*
X1456190Y642860D02*
X1463810D01*
X1460000Y639050D02*
Y646670D01*
X1444100Y40000D02*
X1475900D01*
X1460000Y24100D02*
Y55900D01*
X1440026Y23836D02*
X1447646D01*
X1443836Y20026D02*
Y27646D01*
X1433330Y40000D02*
X1440950D01*
X1437140Y36190D02*
Y43810D01*
X1456190Y17140D02*
X1463810D01*
X1460000Y13330D02*
Y20950D01*
X1472354Y56164D02*
X1479974D01*
X1476164Y52354D02*
Y59974D01*
X1440026Y56164D02*
X1447646D01*
X1443836Y52354D02*
Y59974D01*
X1456190Y62860D02*
X1463810D01*
X1460000Y59050D02*
Y66670D01*
X1472354Y23836D02*
X1479974D01*
X1476164Y20026D02*
Y27646D01*
X1479050Y40000D02*
X1486670D01*
X1482860Y36190D02*
Y43810D01*
X20026Y23836D02*
X27646D01*
X23836Y20026D02*
Y27646D01*
X36190Y17140D02*
X43810D01*
X40000Y13330D02*
Y20950D01*
X13330Y40000D02*
X20950D01*
X17140Y36190D02*
Y43810D01*
X52354Y23836D02*
X59974D01*
X56164Y20026D02*
Y27646D01*
X52354Y56164D02*
X59974D01*
X56164Y52354D02*
Y59974D01*
X59050Y40000D02*
X66670D01*
X62860Y36190D02*
Y43810D01*
X20026Y56164D02*
X27646D01*
X23836Y52354D02*
Y59974D01*
X24100Y40000D02*
X55900D01*
X40000Y24100D02*
Y55900D01*
X36190Y62860D02*
X43810D01*
X40000Y59050D02*
Y66670D01*
X480025Y503836D02*
X487645D01*
X483835Y500026D02*
Y507646D01*
X496190Y497140D02*
X503810D01*
X500000Y493330D02*
Y500950D01*
X512354Y503836D02*
X519974D01*
X516164Y500026D02*
Y507646D01*
X484100Y520000D02*
X515900D01*
X500000Y504100D02*
Y535900D01*
X473330Y520000D02*
X480950D01*
X477140Y516190D02*
Y523810D01*
X519050Y520000D02*
X526670D01*
X522860Y516190D02*
Y523810D01*
X480025Y536164D02*
X487645D01*
X483835Y532354D02*
Y539974D01*
X512354Y536164D02*
X519974D01*
X516164Y532354D02*
Y539974D01*
X496190Y542860D02*
X503810D01*
X500000Y539050D02*
Y546670D01*
X936190Y257140D02*
X943810D01*
X940000Y253330D02*
Y260950D01*
X924100Y280000D02*
X955900D01*
X940000Y264100D02*
Y295900D01*
X920025Y263836D02*
X927645D01*
X923835Y260026D02*
Y267646D01*
X952355Y263836D02*
X959975D01*
X956165Y260026D02*
Y267646D01*
X913330Y280000D02*
X920950D01*
X917140Y276190D02*
Y283810D01*
X920025Y296164D02*
X927645D01*
X923835Y292354D02*
Y299974D01*
X959050Y280000D02*
X966670D01*
X962860Y276190D02*
Y283810D01*
X936190Y302860D02*
X943810D01*
X940000Y299050D02*
Y306670D01*
X952355Y296164D02*
X959975D01*
X956165Y292354D02*
Y299974D01*
X484100Y280000D02*
X515900D01*
X500000Y264100D02*
Y295900D01*
X480025Y263836D02*
X487645D01*
X483835Y260026D02*
Y267646D01*
X496190Y257140D02*
X503810D01*
X500000Y253330D02*
Y260950D01*
X512354Y263836D02*
X519974D01*
X516164Y260026D02*
Y267646D01*
X473330Y280000D02*
X480950D01*
X477140Y276190D02*
Y283810D01*
X519050Y280000D02*
X526670D01*
X522860Y276190D02*
Y283810D01*
X480025Y296164D02*
X487645D01*
X483835Y292354D02*
Y299974D01*
X512354Y296164D02*
X519974D01*
X516164Y292354D02*
Y299974D01*
X496190Y302860D02*
X503810D01*
X500000Y299050D02*
Y306670D01*
X920025Y503836D02*
X927645D01*
X923835Y500026D02*
Y507646D01*
X924100Y520000D02*
X955900D01*
X940000Y504100D02*
Y535900D01*
X913330Y520000D02*
X920950D01*
X917140Y516190D02*
Y523810D01*
X920025Y536164D02*
X927645D01*
X923835Y532354D02*
Y539974D01*
X936190Y497140D02*
X943810D01*
X940000Y493330D02*
Y500950D01*
X952355Y503836D02*
X959975D01*
X956165Y500026D02*
Y507646D01*
X952355Y536164D02*
X959975D01*
X956165Y532354D02*
Y539974D01*
X959050Y520000D02*
X966670D01*
X962860Y516190D02*
Y523810D01*
X936190Y542860D02*
X943810D01*
X940000Y539050D02*
Y546670D01*
X560000Y470000D02*
X580000D01*
X570000Y460000D02*
Y480000D01*
X860000Y330000D02*
X880000D01*
X870000Y320000D02*
Y340000D01*
X516000Y39000D02*
X518000D01*
X517000Y38000D02*
Y40000D01*
X1383000Y584000D02*
X1385000D01*
X1384000Y583000D02*
Y585000D01*
X1374000Y436000D02*
X1376000D01*
X1375000Y435000D02*
Y437000D01*
X1374000Y449000D02*
X1376000D01*
X1375000Y448000D02*
Y450000D01*
X1360000Y561000D02*
X1362000D01*
X1361000Y560000D02*
Y562000D01*
X1354000Y557000D02*
X1356000D01*
X1355000Y556000D02*
Y558000D01*
X1376000Y517000D02*
X1378000D01*
X1377000Y516000D02*
Y518000D01*
X1369000Y512000D02*
X1371000D01*
X1370000Y511000D02*
Y513000D01*
X1376000Y533000D02*
X1378000D01*
X1377000Y532000D02*
Y534000D01*
X1370000Y578600D02*
X1372000D01*
X1371000Y577600D02*
Y579600D01*
X1341000Y78000D02*
X1343000D01*
X1342000Y77000D02*
Y79000D01*
X1327000Y78000D02*
X1329000D01*
X1328000Y77000D02*
Y79000D01*
X333107Y126645D02*
X335107D01*
X334107Y125645D02*
Y127645D01*
X326000Y134000D02*
X328000D01*
X327000Y133000D02*
Y135000D01*
X1429000Y640000D02*
X1431000D01*
X1430000Y639000D02*
Y641000D01*
X1429000Y650000D02*
X1431000D01*
X1430000Y649000D02*
Y651000D01*
X1479000Y70000D02*
X1481000D01*
X1480000Y69000D02*
Y71000D01*
X1449000Y100000D02*
X1451000D01*
X1450000Y99000D02*
Y101000D01*
X1449000Y90000D02*
X1451000D01*
X1450000Y89000D02*
Y91000D01*
X1449000Y120000D02*
X1451000D01*
X1450000Y119000D02*
Y121000D01*
X1449000Y110000D02*
X1451000D01*
X1450000Y109000D02*
Y111000D01*
X1449000Y80000D02*
X1451000D01*
X1450000Y79000D02*
Y81000D01*
X1449000Y150000D02*
X1451000D01*
X1450000Y149000D02*
Y151000D01*
X1449000Y140000D02*
X1451000D01*
X1450000Y139000D02*
Y141000D01*
X1449000Y170000D02*
X1451000D01*
X1450000Y169000D02*
Y171000D01*
X1449000Y160000D02*
X1451000D01*
X1450000Y159000D02*
Y161000D01*
X1449000Y130000D02*
X1451000D01*
X1450000Y129000D02*
Y131000D01*
X1449000Y210000D02*
X1451000D01*
X1450000Y209000D02*
Y211000D01*
X1449000Y200000D02*
X1451000D01*
X1450000Y199000D02*
Y201000D01*
X1449000Y230000D02*
X1451000D01*
X1450000Y229000D02*
Y231000D01*
X1449000Y220000D02*
X1451000D01*
X1450000Y219000D02*
Y221000D01*
X1449000Y180000D02*
X1451000D01*
X1450000Y179000D02*
Y181000D01*
X1449000Y190000D02*
X1451000D01*
X1450000Y189000D02*
Y191000D01*
X1449000Y250000D02*
X1451000D01*
X1450000Y249000D02*
Y251000D01*
X1449000Y240000D02*
X1451000D01*
X1450000Y239000D02*
Y241000D01*
X1449000Y270000D02*
X1451000D01*
X1450000Y269000D02*
Y271000D01*
X1449000Y260000D02*
X1451000D01*
X1450000Y259000D02*
Y261000D01*
X1449000Y290000D02*
X1451000D01*
X1450000Y289000D02*
Y291000D01*
X1449000Y280000D02*
X1451000D01*
X1450000Y279000D02*
Y281000D01*
X1449000Y300000D02*
X1451000D01*
X1450000Y299000D02*
Y301000D01*
X1449000Y320000D02*
X1451000D01*
X1450000Y319000D02*
Y321000D01*
X1449000Y310000D02*
X1451000D01*
X1450000Y309000D02*
Y311000D01*
X1449000Y340000D02*
X1451000D01*
X1450000Y339000D02*
Y341000D01*
X1449000Y330000D02*
X1451000D01*
X1450000Y329000D02*
Y331000D01*
X1449000Y360000D02*
X1451000D01*
X1450000Y359000D02*
Y361000D01*
X1449000Y350000D02*
X1451000D01*
X1450000Y349000D02*
Y351000D01*
X1449000Y380000D02*
X1451000D01*
X1450000Y379000D02*
Y381000D01*
X1449000Y370000D02*
X1451000D01*
X1450000Y369000D02*
Y371000D01*
X1449000Y390000D02*
X1451000D01*
X1450000Y389000D02*
Y391000D01*
X1449000Y400000D02*
X1451000D01*
X1450000Y399000D02*
Y401000D01*
X1449000Y410000D02*
X1451000D01*
X1450000Y409000D02*
Y411000D01*
X1449000Y430000D02*
X1451000D01*
X1450000Y429000D02*
Y431000D01*
X1449000Y420000D02*
X1451000D01*
X1450000Y419000D02*
Y421000D01*
X1449000Y450000D02*
X1451000D01*
X1450000Y449000D02*
Y451000D01*
X1449000Y440000D02*
X1451000D01*
X1450000Y439000D02*
Y441000D01*
X1449000Y470000D02*
X1451000D01*
X1450000Y469000D02*
Y471000D01*
X1449000Y460000D02*
X1451000D01*
X1450000Y459000D02*
Y461000D01*
X1449000Y490000D02*
X1451000D01*
X1450000Y489000D02*
Y491000D01*
X1449000Y480000D02*
X1451000D01*
X1450000Y479000D02*
Y481000D01*
X1449000Y500000D02*
X1451000D01*
X1450000Y499000D02*
Y501000D01*
X1449000Y540000D02*
X1451000D01*
X1450000Y539000D02*
Y541000D01*
X1449000Y530000D02*
X1451000D01*
X1450000Y529000D02*
Y531000D01*
X1449000Y560000D02*
X1451000D01*
X1450000Y559000D02*
Y561000D01*
X1449000Y550000D02*
X1451000D01*
X1450000Y549000D02*
Y551000D01*
X1449000Y520000D02*
X1451000D01*
X1450000Y519000D02*
Y521000D01*
X1449000Y510000D02*
X1451000D01*
X1450000Y509000D02*
Y511000D01*
X1449000Y580000D02*
X1451000D01*
X1450000Y579000D02*
Y581000D01*
X1449000Y570000D02*
X1451000D01*
X1450000Y569000D02*
Y571000D01*
X1459000Y100000D02*
X1461000D01*
X1460000Y99000D02*
Y101000D01*
X1459000Y90000D02*
X1461000D01*
X1460000Y89000D02*
Y91000D01*
X1459000Y120000D02*
X1461000D01*
X1460000Y119000D02*
Y121000D01*
X1459000Y110000D02*
X1461000D01*
X1460000Y109000D02*
Y111000D01*
X1459000Y80000D02*
X1461000D01*
X1460000Y79000D02*
Y81000D01*
X1459000Y150000D02*
X1461000D01*
X1460000Y149000D02*
Y151000D01*
X1459000Y140000D02*
X1461000D01*
X1460000Y139000D02*
Y141000D01*
X1459000Y170000D02*
X1461000D01*
X1460000Y169000D02*
Y171000D01*
X1459000Y160000D02*
X1461000D01*
X1460000Y159000D02*
Y161000D01*
X1459000Y130000D02*
X1461000D01*
X1460000Y129000D02*
Y131000D01*
X1459000Y210000D02*
X1461000D01*
X1460000Y209000D02*
Y211000D01*
X1459000Y200000D02*
X1461000D01*
X1460000Y199000D02*
Y201000D01*
X1459000Y230000D02*
X1461000D01*
X1460000Y229000D02*
Y231000D01*
X1459000Y220000D02*
X1461000D01*
X1460000Y219000D02*
Y221000D01*
X1459000Y180000D02*
X1461000D01*
X1460000Y179000D02*
Y181000D01*
X1459000Y190000D02*
X1461000D01*
X1460000Y189000D02*
Y191000D01*
X1459000Y250000D02*
X1461000D01*
X1460000Y249000D02*
Y251000D01*
X1459000Y240000D02*
X1461000D01*
X1460000Y239000D02*
Y241000D01*
X1459000Y270000D02*
X1461000D01*
X1460000Y269000D02*
Y271000D01*
X1459000Y260000D02*
X1461000D01*
X1460000Y259000D02*
Y261000D01*
X1459000Y290000D02*
X1461000D01*
X1460000Y289000D02*
Y291000D01*
X1459000Y280000D02*
X1461000D01*
X1460000Y279000D02*
Y281000D01*
X1459000Y300000D02*
X1461000D01*
X1460000Y299000D02*
Y301000D01*
X1459000Y320000D02*
X1461000D01*
X1460000Y319000D02*
Y321000D01*
X1459000Y310000D02*
X1461000D01*
X1460000Y309000D02*
Y311000D01*
X1459000Y340000D02*
X1461000D01*
X1460000Y339000D02*
Y341000D01*
X1459000Y330000D02*
X1461000D01*
X1460000Y329000D02*
Y331000D01*
X1459000Y360000D02*
X1461000D01*
X1460000Y359000D02*
Y361000D01*
X1459000Y350000D02*
X1461000D01*
X1460000Y349000D02*
Y351000D01*
X1459000Y380000D02*
X1461000D01*
X1460000Y379000D02*
Y381000D01*
X1459000Y370000D02*
X1461000D01*
X1460000Y369000D02*
Y371000D01*
X1459000Y390000D02*
X1461000D01*
X1460000Y389000D02*
Y391000D01*
X1459000Y400000D02*
X1461000D01*
X1460000Y399000D02*
Y401000D01*
X1459000Y410000D02*
X1461000D01*
X1460000Y409000D02*
Y411000D01*
X1459000Y430000D02*
X1461000D01*
X1460000Y429000D02*
Y431000D01*
X1459000Y420000D02*
X1461000D01*
X1460000Y419000D02*
Y421000D01*
X1459000Y450000D02*
X1461000D01*
X1460000Y449000D02*
Y451000D01*
X1459000Y440000D02*
X1461000D01*
X1460000Y439000D02*
Y441000D01*
X1459000Y470000D02*
X1461000D01*
X1460000Y469000D02*
Y471000D01*
X1459000Y460000D02*
X1461000D01*
X1460000Y459000D02*
Y461000D01*
X1459000Y490000D02*
X1461000D01*
X1460000Y489000D02*
Y491000D01*
X1459000Y480000D02*
X1461000D01*
X1460000Y479000D02*
Y481000D01*
X1459000Y500000D02*
X1461000D01*
X1460000Y499000D02*
Y501000D01*
X1459000Y540000D02*
X1461000D01*
X1460000Y539000D02*
Y541000D01*
X1459000Y530000D02*
X1461000D01*
X1460000Y529000D02*
Y531000D01*
X1459000Y560000D02*
X1461000D01*
X1460000Y559000D02*
Y561000D01*
X1459000Y550000D02*
X1461000D01*
X1460000Y549000D02*
Y551000D01*
X1459000Y520000D02*
X1461000D01*
X1460000Y519000D02*
Y521000D01*
X1459000Y510000D02*
X1461000D01*
X1460000Y509000D02*
Y511000D01*
X1459000Y580000D02*
X1461000D01*
X1460000Y579000D02*
Y581000D01*
X1459000Y570000D02*
X1461000D01*
X1460000Y569000D02*
Y571000D01*
X1469000Y100000D02*
X1471000D01*
X1470000Y99000D02*
Y101000D01*
X1469000Y90000D02*
X1471000D01*
X1470000Y89000D02*
Y91000D01*
X1469000Y120000D02*
X1471000D01*
X1470000Y119000D02*
Y121000D01*
X1469000Y110000D02*
X1471000D01*
X1470000Y109000D02*
Y111000D01*
X1469000Y80000D02*
X1471000D01*
X1470000Y79000D02*
Y81000D01*
X1469000Y150000D02*
X1471000D01*
X1470000Y149000D02*
Y151000D01*
X1469000Y140000D02*
X1471000D01*
X1470000Y139000D02*
Y141000D01*
X1469000Y170000D02*
X1471000D01*
X1470000Y169000D02*
Y171000D01*
X1469000Y160000D02*
X1471000D01*
X1470000Y159000D02*
Y161000D01*
X1469000Y130000D02*
X1471000D01*
X1470000Y129000D02*
Y131000D01*
X1469000Y210000D02*
X1471000D01*
X1470000Y209000D02*
Y211000D01*
X1469000Y200000D02*
X1471000D01*
X1470000Y199000D02*
Y201000D01*
X1469000Y230000D02*
X1471000D01*
X1470000Y229000D02*
Y231000D01*
X1469000Y220000D02*
X1471000D01*
X1470000Y219000D02*
Y221000D01*
X1469000Y180000D02*
X1471000D01*
X1470000Y179000D02*
Y181000D01*
X1469000Y190000D02*
X1471000D01*
X1470000Y189000D02*
Y191000D01*
X1469000Y250000D02*
X1471000D01*
X1470000Y249000D02*
Y251000D01*
X1469000Y240000D02*
X1471000D01*
X1470000Y239000D02*
Y241000D01*
X1469000Y270000D02*
X1471000D01*
X1470000Y269000D02*
Y271000D01*
X1469000Y260000D02*
X1471000D01*
X1470000Y259000D02*
Y261000D01*
X1469000Y290000D02*
X1471000D01*
X1470000Y289000D02*
Y291000D01*
X1469000Y280000D02*
X1471000D01*
X1470000Y279000D02*
Y281000D01*
X1469000Y300000D02*
X1471000D01*
X1470000Y299000D02*
Y301000D01*
X1469000Y320000D02*
X1471000D01*
X1470000Y319000D02*
Y321000D01*
X1469000Y310000D02*
X1471000D01*
X1470000Y309000D02*
Y311000D01*
X1469000Y340000D02*
X1471000D01*
X1470000Y339000D02*
Y341000D01*
X1469000Y330000D02*
X1471000D01*
X1470000Y329000D02*
Y331000D01*
X1469000Y360000D02*
X1471000D01*
X1470000Y359000D02*
Y361000D01*
X1469000Y350000D02*
X1471000D01*
X1470000Y349000D02*
Y351000D01*
X1469000Y380000D02*
X1471000D01*
X1470000Y379000D02*
Y381000D01*
X1469000Y370000D02*
X1471000D01*
X1470000Y369000D02*
Y371000D01*
X1469000Y390000D02*
X1471000D01*
X1470000Y389000D02*
Y391000D01*
X1469000Y400000D02*
X1471000D01*
X1470000Y399000D02*
Y401000D01*
X1469000Y410000D02*
X1471000D01*
X1470000Y409000D02*
Y411000D01*
X1469000Y430000D02*
X1471000D01*
X1470000Y429000D02*
Y431000D01*
X1469000Y420000D02*
X1471000D01*
X1470000Y419000D02*
Y421000D01*
X1469000Y450000D02*
X1471000D01*
X1470000Y449000D02*
Y451000D01*
X1469000Y440000D02*
X1471000D01*
X1470000Y439000D02*
Y441000D01*
X1469000Y470000D02*
X1471000D01*
X1470000Y469000D02*
Y471000D01*
X1469000Y460000D02*
X1471000D01*
X1470000Y459000D02*
Y461000D01*
X1469000Y490000D02*
X1471000D01*
X1470000Y489000D02*
Y491000D01*
X1469000Y480000D02*
X1471000D01*
X1470000Y479000D02*
Y481000D01*
X1469000Y500000D02*
X1471000D01*
X1470000Y499000D02*
Y501000D01*
X1469000Y540000D02*
X1471000D01*
X1470000Y539000D02*
Y541000D01*
X1469000Y530000D02*
X1471000D01*
X1470000Y529000D02*
Y531000D01*
X1469000Y560000D02*
X1471000D01*
X1470000Y559000D02*
Y561000D01*
X1469000Y550000D02*
X1471000D01*
X1470000Y549000D02*
Y551000D01*
X1469000Y520000D02*
X1471000D01*
X1470000Y519000D02*
Y521000D01*
X1469000Y510000D02*
X1471000D01*
X1470000Y509000D02*
Y511000D01*
X1469000Y580000D02*
X1471000D01*
X1470000Y579000D02*
Y581000D01*
X1469000Y570000D02*
X1471000D01*
X1470000Y569000D02*
Y571000D01*
X1479000Y80000D02*
X1481000D01*
X1480000Y79000D02*
Y81000D01*
X1479000Y110000D02*
X1481000D01*
X1480000Y109000D02*
Y111000D01*
X1479000Y100000D02*
X1481000D01*
X1480000Y99000D02*
Y101000D01*
X1479000Y130000D02*
X1481000D01*
X1480000Y129000D02*
Y131000D01*
X1479000Y120000D02*
X1481000D01*
X1480000Y119000D02*
Y121000D01*
X1479000Y90000D02*
X1481000D01*
X1480000Y89000D02*
Y91000D01*
X1479000Y160000D02*
X1481000D01*
X1480000Y159000D02*
Y161000D01*
X1479000Y150000D02*
X1481000D01*
X1480000Y149000D02*
Y151000D01*
X1479000Y180000D02*
X1481000D01*
X1480000Y179000D02*
Y181000D01*
X1479000Y170000D02*
X1481000D01*
X1480000Y169000D02*
Y171000D01*
X1479000Y140000D02*
X1481000D01*
X1480000Y139000D02*
Y141000D01*
X1479000Y220000D02*
X1481000D01*
X1480000Y219000D02*
Y221000D01*
X1479000Y210000D02*
X1481000D01*
X1480000Y209000D02*
Y211000D01*
X1479000Y240000D02*
X1481000D01*
X1480000Y239000D02*
Y241000D01*
X1479000Y230000D02*
X1481000D01*
X1480000Y229000D02*
Y231000D01*
X1479000Y190000D02*
X1481000D01*
X1480000Y189000D02*
Y191000D01*
X1479000Y200000D02*
X1481000D01*
X1480000Y199000D02*
Y201000D01*
X1479000Y260000D02*
X1481000D01*
X1480000Y259000D02*
Y261000D01*
X1479000Y250000D02*
X1481000D01*
X1480000Y249000D02*
Y251000D01*
X1479000Y280000D02*
X1481000D01*
X1480000Y279000D02*
Y281000D01*
X1479000Y270000D02*
X1481000D01*
X1480000Y269000D02*
Y271000D01*
X1479000Y300000D02*
X1481000D01*
X1480000Y299000D02*
Y301000D01*
X1479000Y290000D02*
X1481000D01*
X1480000Y289000D02*
Y291000D01*
X1479000Y310000D02*
X1481000D01*
X1480000Y309000D02*
Y311000D01*
X1479000Y330000D02*
X1481000D01*
X1480000Y329000D02*
Y331000D01*
X1479000Y320000D02*
X1481000D01*
X1480000Y319000D02*
Y321000D01*
X1479000Y350000D02*
X1481000D01*
X1480000Y349000D02*
Y351000D01*
X1479000Y340000D02*
X1481000D01*
X1480000Y339000D02*
Y341000D01*
X1479000Y370000D02*
X1481000D01*
X1480000Y369000D02*
Y371000D01*
X1479000Y360000D02*
X1481000D01*
X1480000Y359000D02*
Y361000D01*
X1479000Y390000D02*
X1481000D01*
X1480000Y389000D02*
Y391000D01*
X1479000Y380000D02*
X1481000D01*
X1480000Y379000D02*
Y381000D01*
X1479000Y400000D02*
X1481000D01*
X1480000Y399000D02*
Y401000D01*
X1479000Y410000D02*
X1481000D01*
X1480000Y409000D02*
Y411000D01*
X1479000Y420000D02*
X1481000D01*
X1480000Y419000D02*
Y421000D01*
X1479000Y440000D02*
X1481000D01*
X1480000Y439000D02*
Y441000D01*
X1479000Y430000D02*
X1481000D01*
X1480000Y429000D02*
Y431000D01*
X1479000Y460000D02*
X1481000D01*
X1480000Y459000D02*
Y461000D01*
X1479000Y450000D02*
X1481000D01*
X1480000Y449000D02*
Y451000D01*
X1479000Y480000D02*
X1481000D01*
X1480000Y479000D02*
Y481000D01*
X1479000Y470000D02*
X1481000D01*
X1480000Y469000D02*
Y471000D01*
X1479000Y500000D02*
X1481000D01*
X1480000Y499000D02*
Y501000D01*
X1479000Y490000D02*
X1481000D01*
X1480000Y489000D02*
Y491000D01*
X1479000Y510000D02*
X1481000D01*
X1480000Y509000D02*
Y511000D01*
X1479000Y550000D02*
X1481000D01*
X1480000Y549000D02*
Y551000D01*
X1479000Y540000D02*
X1481000D01*
X1480000Y539000D02*
Y541000D01*
X1479000Y570000D02*
X1481000D01*
X1480000Y569000D02*
Y571000D01*
X1479000Y560000D02*
X1481000D01*
X1480000Y559000D02*
Y561000D01*
X1479000Y530000D02*
X1481000D01*
X1480000Y529000D02*
Y531000D01*
X1479000Y520000D02*
X1481000D01*
X1480000Y519000D02*
Y521000D01*
X1479000Y590000D02*
X1481000D01*
X1480000Y589000D02*
Y591000D01*
X1479000Y580000D02*
X1481000D01*
X1480000Y579000D02*
Y581000D01*
X29000Y80000D02*
X31000D01*
X30000Y79000D02*
Y81000D01*
X29000Y110000D02*
X31000D01*
X30000Y109000D02*
Y111000D01*
X29000Y100000D02*
X31000D01*
X30000Y99000D02*
Y101000D01*
X29000Y130000D02*
X31000D01*
X30000Y129000D02*
Y131000D01*
X29000Y120000D02*
X31000D01*
X30000Y119000D02*
Y121000D01*
X29000Y90000D02*
X31000D01*
X30000Y89000D02*
Y91000D01*
X29000Y160000D02*
X31000D01*
X30000Y159000D02*
Y161000D01*
X29000Y150000D02*
X31000D01*
X30000Y149000D02*
Y151000D01*
X29000Y180000D02*
X31000D01*
X30000Y179000D02*
Y181000D01*
X29000Y170000D02*
X31000D01*
X30000Y169000D02*
Y171000D01*
X29000Y140000D02*
X31000D01*
X30000Y139000D02*
Y141000D01*
X29000Y220000D02*
X31000D01*
X30000Y219000D02*
Y221000D01*
X29000Y210000D02*
X31000D01*
X30000Y209000D02*
Y211000D01*
X29000Y240000D02*
X31000D01*
X30000Y239000D02*
Y241000D01*
X29000Y230000D02*
X31000D01*
X30000Y229000D02*
Y231000D01*
X29000Y190000D02*
X31000D01*
X30000Y189000D02*
Y191000D01*
X29000Y200000D02*
X31000D01*
X30000Y199000D02*
Y201000D01*
X29000Y260000D02*
X31000D01*
X30000Y259000D02*
Y261000D01*
X29000Y250000D02*
X31000D01*
X30000Y249000D02*
Y251000D01*
X29000Y280000D02*
X31000D01*
X30000Y279000D02*
Y281000D01*
X29000Y270000D02*
X31000D01*
X30000Y269000D02*
Y271000D01*
X29000Y300000D02*
X31000D01*
X30000Y299000D02*
Y301000D01*
X29000Y290000D02*
X31000D01*
X30000Y289000D02*
Y291000D01*
X29000Y310000D02*
X31000D01*
X30000Y309000D02*
Y311000D01*
X29000Y330000D02*
X31000D01*
X30000Y329000D02*
Y331000D01*
X29000Y320000D02*
X31000D01*
X30000Y319000D02*
Y321000D01*
X29000Y350000D02*
X31000D01*
X30000Y349000D02*
Y351000D01*
X29000Y340000D02*
X31000D01*
X30000Y339000D02*
Y341000D01*
X29000Y370000D02*
X31000D01*
X30000Y369000D02*
Y371000D01*
X29000Y360000D02*
X31000D01*
X30000Y359000D02*
Y361000D01*
X29000Y390000D02*
X31000D01*
X30000Y389000D02*
Y391000D01*
X29000Y380000D02*
X31000D01*
X30000Y379000D02*
Y381000D01*
X29000Y400000D02*
X31000D01*
X30000Y399000D02*
Y401000D01*
X29000Y410000D02*
X31000D01*
X30000Y409000D02*
Y411000D01*
X29000Y420000D02*
X31000D01*
X30000Y419000D02*
Y421000D01*
X29000Y440000D02*
X31000D01*
X30000Y439000D02*
Y441000D01*
X29000Y430000D02*
X31000D01*
X30000Y429000D02*
Y431000D01*
X29000Y460000D02*
X31000D01*
X30000Y459000D02*
Y461000D01*
X29000Y450000D02*
X31000D01*
X30000Y449000D02*
Y451000D01*
X29000Y480000D02*
X31000D01*
X30000Y479000D02*
Y481000D01*
X29000Y470000D02*
X31000D01*
X30000Y469000D02*
Y471000D01*
X29000Y500000D02*
X31000D01*
X30000Y499000D02*
Y501000D01*
X29000Y490000D02*
X31000D01*
X30000Y489000D02*
Y491000D01*
X29000Y510000D02*
X31000D01*
X30000Y509000D02*
Y511000D01*
X29000Y550000D02*
X31000D01*
X30000Y549000D02*
Y551000D01*
X29000Y540000D02*
X31000D01*
X30000Y539000D02*
Y541000D01*
X29000Y570000D02*
X31000D01*
X30000Y569000D02*
Y571000D01*
X29000Y560000D02*
X31000D01*
X30000Y559000D02*
Y561000D01*
X29000Y530000D02*
X31000D01*
X30000Y529000D02*
Y531000D01*
X29000Y520000D02*
X31000D01*
X30000Y519000D02*
Y521000D01*
X29000Y580000D02*
X31000D01*
X30000Y579000D02*
Y581000D01*
X19000Y80000D02*
X21000D01*
X20000Y79000D02*
Y81000D01*
X19000Y70000D02*
X21000D01*
X20000Y69000D02*
Y71000D01*
X19000Y110000D02*
X21000D01*
X20000Y109000D02*
Y111000D01*
X19000Y100000D02*
X21000D01*
X20000Y99000D02*
Y101000D01*
X19000Y130000D02*
X21000D01*
X20000Y129000D02*
Y131000D01*
X19000Y120000D02*
X21000D01*
X20000Y119000D02*
Y121000D01*
X19000Y90000D02*
X21000D01*
X20000Y89000D02*
Y91000D01*
X19000Y160000D02*
X21000D01*
X20000Y159000D02*
Y161000D01*
X19000Y150000D02*
X21000D01*
X20000Y149000D02*
Y151000D01*
X19000Y180000D02*
X21000D01*
X20000Y179000D02*
Y181000D01*
X19000Y170000D02*
X21000D01*
X20000Y169000D02*
Y171000D01*
X19000Y140000D02*
X21000D01*
X20000Y139000D02*
Y141000D01*
X19000Y220000D02*
X21000D01*
X20000Y219000D02*
Y221000D01*
X19000Y210000D02*
X21000D01*
X20000Y209000D02*
Y211000D01*
X19000Y240000D02*
X21000D01*
X20000Y239000D02*
Y241000D01*
X19000Y230000D02*
X21000D01*
X20000Y229000D02*
Y231000D01*
X19000Y190000D02*
X21000D01*
X20000Y189000D02*
Y191000D01*
X19000Y200000D02*
X21000D01*
X20000Y199000D02*
Y201000D01*
X19000Y260000D02*
X21000D01*
X20000Y259000D02*
Y261000D01*
X19000Y250000D02*
X21000D01*
X20000Y249000D02*
Y251000D01*
X19000Y280000D02*
X21000D01*
X20000Y279000D02*
Y281000D01*
X19000Y270000D02*
X21000D01*
X20000Y269000D02*
Y271000D01*
X19000Y300000D02*
X21000D01*
X20000Y299000D02*
Y301000D01*
X19000Y290000D02*
X21000D01*
X20000Y289000D02*
Y291000D01*
X19000Y310000D02*
X21000D01*
X20000Y309000D02*
Y311000D01*
X19000Y330000D02*
X21000D01*
X20000Y329000D02*
Y331000D01*
X19000Y320000D02*
X21000D01*
X20000Y319000D02*
Y321000D01*
X19000Y350000D02*
X21000D01*
X20000Y349000D02*
Y351000D01*
X19000Y340000D02*
X21000D01*
X20000Y339000D02*
Y341000D01*
X19000Y370000D02*
X21000D01*
X20000Y369000D02*
Y371000D01*
X19000Y360000D02*
X21000D01*
X20000Y359000D02*
Y361000D01*
X19000Y390000D02*
X21000D01*
X20000Y389000D02*
Y391000D01*
X19000Y380000D02*
X21000D01*
X20000Y379000D02*
Y381000D01*
X19000Y400000D02*
X21000D01*
X20000Y399000D02*
Y401000D01*
X19000Y410000D02*
X21000D01*
X20000Y409000D02*
Y411000D01*
X19000Y420000D02*
X21000D01*
X20000Y419000D02*
Y421000D01*
X19000Y440000D02*
X21000D01*
X20000Y439000D02*
Y441000D01*
X19000Y430000D02*
X21000D01*
X20000Y429000D02*
Y431000D01*
X19000Y460000D02*
X21000D01*
X20000Y459000D02*
Y461000D01*
X19000Y450000D02*
X21000D01*
X20000Y449000D02*
Y451000D01*
X19000Y480000D02*
X21000D01*
X20000Y479000D02*
Y481000D01*
X19000Y470000D02*
X21000D01*
X20000Y469000D02*
Y471000D01*
X19000Y500000D02*
X21000D01*
X20000Y499000D02*
Y501000D01*
X19000Y490000D02*
X21000D01*
X20000Y489000D02*
Y491000D01*
X19000Y510000D02*
X21000D01*
X20000Y509000D02*
Y511000D01*
X19000Y550000D02*
X21000D01*
X20000Y549000D02*
Y551000D01*
X19000Y540000D02*
X21000D01*
X20000Y539000D02*
Y541000D01*
X19000Y570000D02*
X21000D01*
X20000Y569000D02*
Y571000D01*
X19000Y560000D02*
X21000D01*
X20000Y559000D02*
Y561000D01*
X19000Y530000D02*
X21000D01*
X20000Y529000D02*
Y531000D01*
X19000Y520000D02*
X21000D01*
X20000Y519000D02*
Y521000D01*
X19000Y590000D02*
X21000D01*
X20000Y589000D02*
Y591000D01*
X19000Y580000D02*
X21000D01*
X20000Y579000D02*
Y581000D01*
X503818Y429446D02*
X505818D01*
X504818Y428446D02*
Y430446D01*
X504086Y451119D02*
X506086D01*
X505086Y450120D02*
Y452119D01*
X518268Y363086D02*
X520268D01*
X519268Y362086D02*
Y364086D01*
X489000Y430000D02*
X491000D01*
X490000Y429000D02*
Y431000D01*
X489000Y450000D02*
X491000D01*
X490000Y449000D02*
Y451000D01*
X1409000Y610000D02*
X1411000D01*
X1410000Y609000D02*
Y611000D01*
X1399000Y610000D02*
X1401000D01*
X1400000Y609000D02*
Y611000D01*
X1419000Y610000D02*
X1421000D01*
X1420000Y609000D02*
Y611000D01*
X1319000Y610000D02*
X1321000D01*
X1320000Y609000D02*
Y611000D01*
X1339000Y610000D02*
X1341000D01*
X1340000Y609000D02*
Y611000D01*
X1329000Y610000D02*
X1331000D01*
X1330000Y609000D02*
Y611000D01*
X1369000Y610000D02*
X1371000D01*
X1370000Y609000D02*
Y611000D01*
X1359000Y610000D02*
X1361000D01*
X1360000Y609000D02*
Y611000D01*
X1389000Y610000D02*
X1391000D01*
X1390000Y609000D02*
Y611000D01*
X1379000Y610000D02*
X1381000D01*
X1380000Y609000D02*
Y611000D01*
X1349000Y610000D02*
X1351000D01*
X1350000Y609000D02*
Y611000D01*
X1409000Y620000D02*
X1411000D01*
X1410000Y619000D02*
Y621000D01*
X1399000Y620000D02*
X1401000D01*
X1400000Y619000D02*
Y621000D01*
X1419000Y620000D02*
X1421000D01*
X1420000Y619000D02*
Y621000D01*
X1319000Y620000D02*
X1321000D01*
X1320000Y619000D02*
Y621000D01*
X1339000Y620000D02*
X1341000D01*
X1340000Y619000D02*
Y621000D01*
X1329000Y620000D02*
X1331000D01*
X1330000Y619000D02*
Y621000D01*
X1369000Y620000D02*
X1371000D01*
X1370000Y619000D02*
Y621000D01*
X1359000Y620000D02*
X1361000D01*
X1360000Y619000D02*
Y621000D01*
X1389000Y620000D02*
X1391000D01*
X1390000Y619000D02*
Y621000D01*
X1379000Y620000D02*
X1381000D01*
X1380000Y619000D02*
Y621000D01*
X1349000Y620000D02*
X1351000D01*
X1350000Y619000D02*
Y621000D01*
X1349000Y630000D02*
X1351000D01*
X1350000Y629000D02*
Y631000D01*
X1379000Y630000D02*
X1381000D01*
X1380000Y629000D02*
Y631000D01*
X1389000Y630000D02*
X1391000D01*
X1390000Y629000D02*
Y631000D01*
X1359000Y630000D02*
X1361000D01*
X1360000Y629000D02*
Y631000D01*
X1369000Y630000D02*
X1371000D01*
X1370000Y629000D02*
Y631000D01*
X1329000Y630000D02*
X1331000D01*
X1330000Y629000D02*
Y631000D01*
X1339000Y630000D02*
X1341000D01*
X1340000Y629000D02*
Y631000D01*
X1319000Y630000D02*
X1321000D01*
X1320000Y629000D02*
Y631000D01*
X1309000Y630000D02*
X1311000D01*
X1310000Y629000D02*
Y631000D01*
X1419000Y630000D02*
X1421000D01*
X1420000Y629000D02*
Y631000D01*
X1399000Y630000D02*
X1401000D01*
X1400000Y629000D02*
Y631000D01*
X1409000Y630000D02*
X1411000D01*
X1410000Y629000D02*
Y631000D01*
X149000Y640000D02*
X151000D01*
X150000Y639000D02*
Y641000D01*
X159000Y640000D02*
X161000D01*
X160000Y639000D02*
Y641000D01*
X79000Y640000D02*
X81000D01*
X80000Y639000D02*
Y641000D01*
X89000Y640000D02*
X91000D01*
X90000Y639000D02*
Y641000D01*
X69000Y640000D02*
X71000D01*
X70000Y639000D02*
Y641000D01*
X129000Y640000D02*
X131000D01*
X130000Y639000D02*
Y641000D01*
X139000Y640000D02*
X141000D01*
X140000Y639000D02*
Y641000D01*
X99000Y640000D02*
X101000D01*
X100000Y639000D02*
Y641000D01*
X119000Y640000D02*
X121000D01*
X120000Y639000D02*
Y641000D01*
X109000Y640000D02*
X111000D01*
X110000Y639000D02*
Y641000D01*
X189000Y640000D02*
X191000D01*
X190000Y639000D02*
Y641000D01*
X169000Y640000D02*
X171000D01*
X170000Y639000D02*
Y641000D01*
X179000Y640000D02*
X181000D01*
X180000Y639000D02*
Y641000D01*
X229000Y640000D02*
X231000D01*
X230000Y639000D02*
Y641000D01*
X199000Y640000D02*
X201000D01*
X200000Y639000D02*
Y641000D01*
X219000Y640000D02*
X221000D01*
X220000Y639000D02*
Y641000D01*
X209000Y640000D02*
X211000D01*
X210000Y639000D02*
Y641000D01*
X259000Y640000D02*
X261000D01*
X260000Y639000D02*
Y641000D01*
X239000Y640000D02*
X241000D01*
X240000Y639000D02*
Y641000D01*
X249000Y640000D02*
X251000D01*
X250000Y639000D02*
Y641000D01*
X299000Y640000D02*
X301000D01*
X300000Y639000D02*
Y641000D01*
X309000Y640000D02*
X311000D01*
X310000Y639000D02*
Y641000D01*
X269000Y640000D02*
X271000D01*
X270000Y639000D02*
Y641000D01*
X289000Y640000D02*
X291000D01*
X290000Y639000D02*
Y641000D01*
X279000Y640000D02*
X281000D01*
X280000Y639000D02*
Y641000D01*
X409000Y640000D02*
X411000D01*
X410000Y639000D02*
Y641000D01*
X419000Y640000D02*
X421000D01*
X420000Y639000D02*
Y641000D01*
X449000Y640000D02*
X451000D01*
X450000Y639000D02*
Y641000D01*
X429000Y640000D02*
X431000D01*
X430000Y639000D02*
Y641000D01*
X439000Y640000D02*
X441000D01*
X440000Y639000D02*
Y641000D01*
X339000Y640000D02*
X341000D01*
X340000Y639000D02*
Y641000D01*
X349000Y640000D02*
X351000D01*
X350000Y639000D02*
Y641000D01*
X319000Y640000D02*
X321000D01*
X320000Y639000D02*
Y641000D01*
X329000Y640000D02*
X331000D01*
X330000Y639000D02*
Y641000D01*
X389000Y640000D02*
X391000D01*
X390000Y639000D02*
Y641000D01*
X399000Y640000D02*
X401000D01*
X400000Y639000D02*
Y641000D01*
X359000Y640000D02*
X361000D01*
X360000Y639000D02*
Y641000D01*
X379000Y640000D02*
X381000D01*
X380000Y639000D02*
Y641000D01*
X369000Y640000D02*
X371000D01*
X370000Y639000D02*
Y641000D01*
X569000Y640000D02*
X571000D01*
X570000Y639000D02*
Y641000D01*
X579000Y640000D02*
X581000D01*
X580000Y639000D02*
Y641000D01*
X549000Y640000D02*
X551000D01*
X550000Y639000D02*
Y641000D01*
X559000Y640000D02*
X561000D01*
X560000Y639000D02*
Y641000D01*
X609000Y640000D02*
X611000D01*
X610000Y639000D02*
Y641000D01*
X619000Y640000D02*
X621000D01*
X620000Y639000D02*
Y641000D01*
X589000Y640000D02*
X591000D01*
X590000Y639000D02*
Y641000D01*
X599000Y640000D02*
X601000D01*
X600000Y639000D02*
Y641000D01*
X479000Y640000D02*
X481000D01*
X480000Y639000D02*
Y641000D01*
X489000Y640000D02*
X491000D01*
X490000Y639000D02*
Y641000D01*
X459000Y640000D02*
X461000D01*
X460000Y639000D02*
Y641000D01*
X469000Y640000D02*
X471000D01*
X470000Y639000D02*
Y641000D01*
X529000Y640000D02*
X531000D01*
X530000Y639000D02*
Y641000D01*
X539000Y640000D02*
X541000D01*
X540000Y639000D02*
Y641000D01*
X499000Y640000D02*
X501000D01*
X500000Y639000D02*
Y641000D01*
X519000Y640000D02*
X521000D01*
X520000Y639000D02*
Y641000D01*
X509000Y640000D02*
X511000D01*
X510000Y639000D02*
Y641000D01*
X629000Y640000D02*
X631000D01*
X630000Y639000D02*
Y641000D01*
X639000Y640000D02*
X641000D01*
X640000Y639000D02*
Y641000D01*
X649000Y640000D02*
X651000D01*
X650000Y639000D02*
Y641000D01*
X669000Y640000D02*
X671000D01*
X670000Y639000D02*
Y641000D01*
X659000Y640000D02*
X661000D01*
X660000Y639000D02*
Y641000D01*
X679000Y640000D02*
X681000D01*
X680000Y639000D02*
Y641000D01*
X689000Y640000D02*
X691000D01*
X690000Y639000D02*
Y641000D01*
X699000Y640000D02*
X701000D01*
X700000Y639000D02*
Y641000D01*
X719000Y640000D02*
X721000D01*
X720000Y639000D02*
Y641000D01*
X709000Y640000D02*
X711000D01*
X710000Y639000D02*
Y641000D01*
X749000Y640000D02*
X751000D01*
X750000Y639000D02*
Y641000D01*
X729000Y640000D02*
X731000D01*
X730000Y639000D02*
Y641000D01*
X739000Y640000D02*
X741000D01*
X740000Y639000D02*
Y641000D01*
X759000Y640000D02*
X761000D01*
X760000Y639000D02*
Y641000D01*
X779000Y640000D02*
X781000D01*
X780000Y639000D02*
Y641000D01*
X769000Y640000D02*
X771000D01*
X770000Y639000D02*
Y641000D01*
X879000Y640000D02*
X881000D01*
X880000Y639000D02*
Y641000D01*
X809000Y640000D02*
X811000D01*
X810000Y639000D02*
Y641000D01*
X819000Y640000D02*
X821000D01*
X820000Y639000D02*
Y641000D01*
X789000Y640000D02*
X791000D01*
X790000Y639000D02*
Y641000D01*
X799000Y640000D02*
X801000D01*
X800000Y639000D02*
Y641000D01*
X859000Y640000D02*
X861000D01*
X860000Y639000D02*
Y641000D01*
X869000Y640000D02*
X871000D01*
X870000Y639000D02*
Y641000D01*
X829000Y640000D02*
X831000D01*
X830000Y639000D02*
Y641000D01*
X849000Y640000D02*
X851000D01*
X850000Y639000D02*
Y641000D01*
X839000Y640000D02*
X841000D01*
X840000Y639000D02*
Y641000D01*
X979000Y640000D02*
X981000D01*
X980000Y639000D02*
Y641000D01*
X989000Y640000D02*
X991000D01*
X990000Y639000D02*
Y641000D01*
X999000Y640000D02*
X1001000D01*
X1000000Y639000D02*
Y641000D01*
X1009000Y640000D02*
X1011000D01*
X1010000Y639000D02*
Y641000D01*
X909000Y640000D02*
X911000D01*
X910000Y639000D02*
Y641000D01*
X919000Y640000D02*
X921000D01*
X920000Y639000D02*
Y641000D01*
X889000Y640000D02*
X891000D01*
X890000Y639000D02*
Y641000D01*
X899000Y640000D02*
X901000D01*
X900000Y639000D02*
Y641000D01*
X959000Y640000D02*
X961000D01*
X960000Y639000D02*
Y641000D01*
X969000Y640000D02*
X971000D01*
X970000Y639000D02*
Y641000D01*
X929000Y640000D02*
X931000D01*
X930000Y639000D02*
Y641000D01*
X949000Y640000D02*
X951000D01*
X950000Y639000D02*
Y641000D01*
X939000Y640000D02*
X941000D01*
X940000Y639000D02*
Y641000D01*
X1039000Y640000D02*
X1041000D01*
X1040000Y639000D02*
Y641000D01*
X1019000Y640000D02*
X1021000D01*
X1020000Y639000D02*
Y641000D01*
X1029000Y640000D02*
X1031000D01*
X1030000Y639000D02*
Y641000D01*
X1079000Y640000D02*
X1081000D01*
X1080000Y639000D02*
Y641000D01*
X1049000Y640000D02*
X1051000D01*
X1050000Y639000D02*
Y641000D01*
X1069000Y640000D02*
X1071000D01*
X1070000Y639000D02*
Y641000D01*
X1059000Y640000D02*
X1061000D01*
X1060000Y639000D02*
Y641000D01*
X1179000Y640000D02*
X1181000D01*
X1180000Y639000D02*
Y641000D01*
X1189000Y640000D02*
X1191000D01*
X1190000Y639000D02*
Y641000D01*
X1109000Y640000D02*
X1111000D01*
X1110000Y639000D02*
Y641000D01*
X1119000Y640000D02*
X1121000D01*
X1120000Y639000D02*
Y641000D01*
X1089000Y640000D02*
X1091000D01*
X1090000Y639000D02*
Y641000D01*
X1099000Y640000D02*
X1101000D01*
X1100000Y639000D02*
Y641000D01*
X1159000Y640000D02*
X1161000D01*
X1160000Y639000D02*
Y641000D01*
X1169000Y640000D02*
X1171000D01*
X1170000Y639000D02*
Y641000D01*
X1129000Y640000D02*
X1131000D01*
X1130000Y639000D02*
Y641000D01*
X1149000Y640000D02*
X1151000D01*
X1150000Y639000D02*
Y641000D01*
X1139000Y640000D02*
X1141000D01*
X1140000Y639000D02*
Y641000D01*
X1199000Y640000D02*
X1201000D01*
X1200000Y639000D02*
Y641000D01*
X1209000Y640000D02*
X1211000D01*
X1210000Y639000D02*
Y641000D01*
X1249000Y640000D02*
X1251000D01*
X1250000Y639000D02*
Y641000D01*
X1219000Y640000D02*
X1221000D01*
X1220000Y639000D02*
Y641000D01*
X1239000Y640000D02*
X1241000D01*
X1240000Y639000D02*
Y641000D01*
X1229000Y640000D02*
X1231000D01*
X1230000Y639000D02*
Y641000D01*
X1349000Y640000D02*
X1351000D01*
X1350000Y639000D02*
Y641000D01*
X1379000Y640000D02*
X1381000D01*
X1380000Y639000D02*
Y641000D01*
X1389000Y640000D02*
X1391000D01*
X1390000Y639000D02*
Y641000D01*
X1359000Y640000D02*
X1361000D01*
X1360000Y639000D02*
Y641000D01*
X1369000Y640000D02*
X1371000D01*
X1370000Y639000D02*
Y641000D01*
X1279000Y640000D02*
X1281000D01*
X1280000Y639000D02*
Y641000D01*
X1289000Y640000D02*
X1291000D01*
X1290000Y639000D02*
Y641000D01*
X1259000Y640000D02*
X1261000D01*
X1260000Y639000D02*
Y641000D01*
X1269000Y640000D02*
X1271000D01*
X1270000Y639000D02*
Y641000D01*
X1329000Y640000D02*
X1331000D01*
X1330000Y639000D02*
Y641000D01*
X1339000Y640000D02*
X1341000D01*
X1340000Y639000D02*
Y641000D01*
X1299000Y640000D02*
X1301000D01*
X1300000Y639000D02*
Y641000D01*
X1319000Y640000D02*
X1321000D01*
X1320000Y639000D02*
Y641000D01*
X1309000Y640000D02*
X1311000D01*
X1310000Y639000D02*
Y641000D01*
X1419000Y640000D02*
X1421000D01*
X1420000Y639000D02*
Y641000D01*
X1399000Y640000D02*
X1401000D01*
X1400000Y639000D02*
Y641000D01*
X1409000Y640000D02*
X1411000D01*
X1410000Y639000D02*
Y641000D01*
X770000Y278000D02*
X772000D01*
X771000Y277000D02*
Y279000D01*
X709000Y277000D02*
X711000D01*
X710000Y276000D02*
Y278000D01*
X693000Y277000D02*
X695000D01*
X694000Y276000D02*
Y278000D01*
X661000Y279000D02*
X663000D01*
X662000Y278000D02*
Y280000D01*
X647000Y279000D02*
X649000D01*
X648000Y278000D02*
Y280000D01*
X806323Y513227D02*
X808323D01*
X807323Y512227D02*
Y514227D01*
X792000Y513000D02*
X794000D01*
X793000Y512000D02*
Y514000D01*
X762000Y514000D02*
X764000D01*
X763000Y513000D02*
Y515000D01*
X741000Y514000D02*
X743000D01*
X742000Y513000D02*
Y515000D01*
X728000Y514000D02*
X730000D01*
X729000Y513000D02*
Y515000D01*
X701076Y511988D02*
X703076D01*
X702076Y510988D02*
Y512988D01*
X690000Y512000D02*
X692000D01*
X691000Y511000D02*
Y513000D01*
X646596Y512845D02*
X648596D01*
X647596Y511845D02*
Y513845D01*
X657000Y513000D02*
X659000D01*
X658000Y512000D02*
Y514000D01*
X637000Y513000D02*
X639000D01*
X638000Y512000D02*
Y514000D01*
X285000Y49000D02*
X287000D01*
X286000Y48000D02*
Y50000D01*
X290000Y39000D02*
X292000D01*
X291000Y38000D02*
Y40000D01*
X294000Y21000D02*
X296000D01*
X295000Y20000D02*
Y22000D01*
X302000Y63000D02*
X304000D01*
X303000Y62000D02*
Y64000D01*
X1028500Y85031D02*
X1030500D01*
X1029500Y84031D02*
Y86031D01*
X324000Y13000D02*
X326000D01*
X325000Y12000D02*
Y14000D01*
X1434000Y503000D02*
X1436000D01*
X1435000Y502000D02*
Y504000D01*
Y178000D02*
X1437000D01*
X1436000Y177000D02*
Y179000D01*
Y205000D02*
X1438000D01*
X1437000Y204000D02*
Y206000D01*
X1434000Y243000D02*
X1436000D01*
X1435000Y242000D02*
Y244000D01*
Y468000D02*
X1437000D01*
X1436000Y467000D02*
Y469000D01*
Y438000D02*
X1438000D01*
X1437000Y437000D02*
Y439000D01*
X193000Y46000D02*
X195000D01*
X194000Y45000D02*
Y47000D01*
X132000Y63000D02*
X134000D01*
X133000Y62000D02*
Y64000D01*
X140000Y73000D02*
X142000D01*
X141000Y72000D02*
Y74000D01*
X689000Y210000D02*
X691000D01*
X690000Y209000D02*
Y211000D01*
X642541Y191000D02*
X644540D01*
X643540Y190000D02*
Y192000D01*
X544000Y324000D02*
X546000D01*
X545000Y323000D02*
Y325000D01*
X487000Y418000D02*
X489000D01*
X488000Y417000D02*
Y419000D01*
X422000Y571000D02*
X424000D01*
X423000Y570000D02*
Y572000D01*
X419000Y548000D02*
X421000D01*
X420000Y547000D02*
Y549000D01*
X426000Y491000D02*
X428000D01*
X427000Y490000D02*
Y492000D01*
X408000Y491000D02*
X410000D01*
X409000Y490000D02*
Y492000D01*
X376000Y491000D02*
X378000D01*
X377000Y490000D02*
Y492000D01*
X440000Y498000D02*
X442000D01*
X441000Y497000D02*
Y499000D01*
X398694Y363140D02*
X400694D01*
X399693Y362140D02*
Y364140D01*
X435000Y362000D02*
X437000D01*
X436000Y361000D02*
Y363000D01*
X354000Y362000D02*
X356000D01*
X355000Y361000D02*
Y363000D01*
X397813Y344078D02*
X399813D01*
X398813Y343078D02*
Y345078D01*
X370000Y259000D02*
X372000D01*
X371000Y258000D02*
Y260000D01*
X346000Y271000D02*
X348000D01*
X347000Y270000D02*
Y272000D01*
X368000Y312850D02*
X370000D01*
X369000Y311850D02*
Y313850D01*
X1061129Y400044D02*
X1063129D01*
X1062129Y399044D02*
Y401044D01*
X1114250Y494000D02*
X1116250D01*
X1115250Y493000D02*
Y495000D01*
X1112146Y474146D02*
X1114146D01*
X1113146Y473146D02*
Y475146D01*
X1052100Y473000D02*
X1054100D01*
X1053100Y472000D02*
Y474000D01*
X971100Y496000D02*
X973100D01*
X972100Y495000D02*
Y497000D01*
X950000Y408000D02*
X952000D01*
X951000Y407000D02*
Y409000D01*
X965000Y348000D02*
X967000D01*
X966000Y347000D02*
Y349000D01*
X875000Y165000D02*
X877000D01*
X876000Y164000D02*
Y166000D01*
X1032012Y193975D02*
X1034012D01*
X1033012Y192975D02*
Y194975D01*
X1160000Y187000D02*
X1162000D01*
X1161000Y186000D02*
Y188000D01*
X1172000Y231000D02*
X1174000D01*
X1173000Y230000D02*
Y232000D01*
X1231300Y244000D02*
X1233300D01*
X1232300Y243000D02*
Y245000D01*
X1276000Y261000D02*
X1278000D01*
X1277000Y260000D02*
Y262000D01*
X1209000Y281000D02*
X1211000D01*
X1210000Y280000D02*
Y282000D01*
X1269000Y89000D02*
X1271000D01*
X1270000Y88000D02*
Y90000D01*
X1208000Y102000D02*
X1210000D01*
X1209000Y101000D02*
Y103000D01*
X1124000Y87500D02*
X1126000D01*
X1125000Y86500D02*
Y88500D01*
X1087331Y96305D02*
X1089331D01*
X1088331Y95305D02*
Y97305D01*
X997000Y95500D02*
X999000D01*
X998000Y94500D02*
Y96500D01*
X905000Y80000D02*
X907000D01*
X906000Y79000D02*
Y81000D01*
X903000Y141000D02*
X905000D01*
X904000Y140000D02*
Y142000D01*
X812000Y85000D02*
X814000D01*
X813000Y84000D02*
Y86000D01*
X806000Y185000D02*
X808000D01*
X807000Y184000D02*
Y186000D01*
X834000Y194000D02*
X836000D01*
X835000Y193000D02*
Y195000D01*
X753200Y183000D02*
X755200D01*
X754200Y182000D02*
Y184000D01*
X745000Y127000D02*
X747000D01*
X746000Y126000D02*
Y128000D01*
X309797Y65564D02*
X311797D01*
X310797Y64564D02*
Y66564D01*
X252000Y51000D02*
X254000D01*
X253000Y50000D02*
Y52000D01*
X364822Y40398D02*
X366822D01*
X365822Y39398D02*
Y41398D01*
X401000Y61930D02*
X403000D01*
X402000Y60930D02*
Y62930D01*
X519000Y118200D02*
X521000D01*
X520000Y117200D02*
Y119200D01*
X470000Y83000D02*
X472000D01*
X471000Y82000D02*
Y84000D01*
X434000Y240000D02*
X436000D01*
X435000Y239000D02*
Y241000D01*
X518000Y198000D02*
X520000D01*
X519000Y197000D02*
Y199000D01*
X369000Y119500D02*
X371000D01*
X370000Y118500D02*
Y120500D01*
X245000Y118000D02*
X247000D01*
X246000Y117000D02*
Y119000D01*
X165535Y238465D02*
X167535D01*
X166535Y237465D02*
Y239465D01*
X186000Y240000D02*
X188000D01*
X187000Y239000D02*
Y241000D01*
X455000Y533000D02*
X457000D01*
X456000Y532000D02*
Y534000D01*
X354000Y533000D02*
X356000D01*
X355000Y532000D02*
Y534000D01*
X435000Y345000D02*
X437000D01*
X436000Y344000D02*
Y346000D01*
X361000Y329000D02*
X363000D01*
X362000Y328000D02*
Y330000D01*
X1261000Y490000D02*
X1263000D01*
X1262000Y489000D02*
Y491000D01*
X1300000Y588000D02*
X1302000D01*
X1301000Y587000D02*
Y589000D01*
X1264000Y593000D02*
X1266000D01*
X1265000Y592000D02*
Y594000D01*
X161307Y262329D02*
X163307D01*
X162307Y261329D02*
Y263329D01*
X393686Y118500D02*
X395686D01*
X394686Y117500D02*
Y119500D01*
X560000Y97000D02*
X562000D01*
X561000Y96000D02*
Y98000D01*
X492000Y111000D02*
X494000D01*
X493000Y110000D02*
Y112000D01*
X568750Y186000D02*
X570750D01*
X569750Y185000D02*
Y187000D01*
X568000Y153000D02*
X570000D01*
X569000Y152000D02*
Y154000D01*
X463000Y147000D02*
X465000D01*
X464000Y146000D02*
Y148000D01*
X451000Y170000D02*
X453000D01*
X452000Y169000D02*
Y171000D01*
X1101923Y295077D02*
X1103923D01*
X1102923Y294077D02*
Y296077D01*
X1024000Y296000D02*
X1026000D01*
X1025000Y295000D02*
Y297000D01*
X1003000Y325000D02*
X1005000D01*
X1004000Y324000D02*
Y326000D01*
X1036000Y590500D02*
X1038000D01*
X1037000Y589500D02*
Y591500D01*
X1014000Y562000D02*
X1016000D01*
X1015000Y561000D02*
Y563000D01*
X1024000Y537000D02*
X1026000D01*
X1025000Y536000D02*
Y538000D01*
X1014000Y537000D02*
X1016000D01*
X1015000Y536000D02*
Y538000D01*
X1024000Y547000D02*
X1026000D01*
X1025000Y546000D02*
Y548000D01*
X1014000Y547000D02*
X1016000D01*
X1015000Y546000D02*
Y548000D01*
X1004000Y537000D02*
X1006000D01*
X1005000Y536000D02*
Y538000D01*
X1004000Y547000D02*
X1006000D01*
X1005000Y546000D02*
Y548000D01*
X1024000Y562000D02*
X1026000D01*
X1025000Y561000D02*
Y563000D01*
X1004000Y562000D02*
X1006000D01*
X1005000Y561000D02*
Y563000D01*
X1055000Y586800D02*
X1057000D01*
X1056000Y585800D02*
Y587800D01*
X994000Y583000D02*
X996000D01*
X995000Y582000D02*
Y584000D01*
X1001000Y461000D02*
X1003000D01*
X1002000Y460000D02*
Y462000D01*
X1081000Y433000D02*
X1083000D01*
X1082000Y432000D02*
Y434000D01*
X903900Y198000D02*
X905900D01*
X904900Y197000D02*
Y199000D01*
X949429Y207500D02*
X951429D01*
X950429Y206500D02*
Y208500D01*
X906000Y161000D02*
X908000D01*
X907000Y160000D02*
Y162000D01*
X842000Y159050D02*
X844000D01*
X843000Y158050D02*
Y160050D01*
X897000Y110125D02*
X899000D01*
X898000Y109125D02*
Y111125D01*
X951000Y96000D02*
X953000D01*
X952000Y95000D02*
Y97000D01*
X944000Y80000D02*
X946000D01*
X945000Y79000D02*
Y81000D01*
X878800Y82000D02*
X880800D01*
X879800Y81000D02*
Y83000D01*
X853000Y83000D02*
X855000D01*
X854000Y82000D02*
Y84000D01*
X841000Y110000D02*
X843000D01*
X842000Y109000D02*
Y111000D01*
X798000Y125000D02*
X800000D01*
X799000Y124000D02*
Y126000D01*
X708000Y128000D02*
X710000D01*
X709000Y127000D02*
Y129000D01*
X659000Y128000D02*
X661000D01*
X660000Y127000D02*
Y129000D01*
X571000Y61000D02*
X573000D01*
X572000Y60000D02*
Y62000D01*
X498000Y59000D02*
X500000D01*
X499000Y58000D02*
Y60000D01*
X462000Y33000D02*
X464000D01*
X463000Y32000D02*
Y34000D01*
X442000Y37000D02*
X444000D01*
X443000Y36000D02*
Y38000D01*
X432000Y21000D02*
X434000D01*
X433000Y20000D02*
Y22000D01*
X426000Y93500D02*
X428000D01*
X427000Y92500D02*
Y94500D01*
X353107Y64893D02*
X355107D01*
X354107Y63893D02*
Y65893D01*
X366000Y84000D02*
X368000D01*
X367000Y83000D02*
Y85000D01*
X374000Y179000D02*
X376000D01*
X375000Y178000D02*
Y180000D01*
X333000Y172000D02*
X335000D01*
X334000Y171000D02*
Y173000D01*
X327000Y177000D02*
X329000D01*
X328000Y176000D02*
Y178000D01*
X333000Y182000D02*
X335000D01*
X334000Y181000D02*
Y183000D01*
X322000Y172000D02*
X324000D01*
X323000Y171000D02*
Y173000D01*
X322000Y182000D02*
X324000D01*
X323000Y181000D02*
Y183000D01*
X340000Y195000D02*
X342000D01*
X341000Y194000D02*
Y196000D01*
X275389Y209389D02*
X277389D01*
X276389Y208389D02*
Y210389D01*
X260000Y153000D02*
X262000D01*
X261000Y152000D02*
Y154000D01*
X252000Y174000D02*
X254000D01*
X253000Y173000D02*
Y175000D01*
X206759Y126654D02*
X208759D01*
X207759Y125654D02*
Y127654D01*
X346000Y132000D02*
X348000D01*
X347000Y131000D02*
Y133000D01*
X307000Y131000D02*
X309000D01*
X308000Y130000D02*
Y132000D01*
X343652Y103902D02*
X345652D01*
X344652Y102902D02*
Y104902D01*
X303965Y103965D02*
X305965D01*
X304965Y102965D02*
Y104965D01*
X262000Y91000D02*
X264000D01*
X263000Y90000D02*
Y92000D01*
X158000Y207000D02*
X160000D01*
X159000Y206000D02*
Y208000D01*
X120000Y207000D02*
X122000D01*
X121000Y206000D02*
Y208000D01*
X128000Y235000D02*
X130000D01*
X129000Y234000D02*
Y236000D01*
X95000Y240000D02*
X97000D01*
X96000Y239000D02*
Y241000D01*
X95000Y270000D02*
X97000D01*
X96000Y269000D02*
Y271000D01*
X254000Y407000D02*
X256000D01*
X255000Y406000D02*
Y408000D01*
X254000Y401000D02*
X256000D01*
X255000Y400000D02*
Y402000D01*
X70000Y509000D02*
X72000D01*
X71000Y508000D02*
Y510000D01*
X627000Y540000D02*
X629000D01*
X628000Y539000D02*
Y541000D01*
X525000Y140000D02*
X527000D01*
X526000Y139000D02*
Y141000D01*
X346000Y324000D02*
X348000D01*
X347000Y323000D02*
Y325000D01*
X261798Y361138D02*
X263798D01*
X262798Y360138D02*
Y362138D01*
X262725Y529089D02*
X264725D01*
X263725Y528089D02*
Y530089D01*
X125000Y591400D02*
X127000D01*
X126000Y590400D02*
Y592400D01*
X119000Y295000D02*
X121000D01*
X120000Y294000D02*
Y296000D01*
X295000Y30000D02*
X297000D01*
X296000Y29000D02*
Y31000D01*
X274000Y33000D02*
X276000D01*
X275000Y32000D02*
Y34000D01*
X89000Y300000D02*
X91000D01*
X90000Y299000D02*
Y301000D01*
X83000Y300000D02*
X85000D01*
X84000Y299000D02*
Y301000D01*
X1169000Y489000D02*
X1171000D01*
X1170000Y488000D02*
Y490000D01*
X1144000Y393000D02*
X1146000D01*
X1145000Y392000D02*
Y394000D01*
X1168000Y395653D02*
X1170000D01*
X1169000Y394653D02*
Y396653D01*
X1164000Y299000D02*
X1166000D01*
X1165000Y298000D02*
Y300000D01*
X1077000Y262000D02*
X1079000D01*
X1078000Y261000D02*
Y263000D01*
X1070500Y252000D02*
X1072500D01*
X1071500Y251000D02*
Y253000D01*
X1077000Y250000D02*
X1079000D01*
X1078000Y249000D02*
Y251000D01*
X1070000Y262000D02*
X1072000D01*
X1071000Y261000D02*
Y263000D01*
X1231300Y237000D02*
X1233300D01*
X1232300Y236000D02*
Y238000D01*
X1191000Y282000D02*
X1193000D01*
X1192000Y281000D02*
Y283000D01*
X1225000Y297071D02*
X1227000D01*
X1226000Y296071D02*
Y298071D01*
X990000Y323000D02*
X992000D01*
X991000Y322000D02*
Y324000D01*
X1275000Y321000D02*
X1277000D01*
X1276000Y320000D02*
Y322000D01*
X978000Y561000D02*
X980000D01*
X979000Y560000D02*
Y562000D01*
X1068000Y504000D02*
X1070000D01*
X1069000Y503000D02*
Y505000D01*
X1131000Y430000D02*
X1133000D01*
X1132000Y429000D02*
Y431000D01*
X711000Y561000D02*
X713000D01*
X712000Y560000D02*
Y562000D01*
X369000Y342000D02*
X371000D01*
X370000Y341000D02*
Y343000D01*
X231000Y140000D02*
X233000D01*
X232000Y139000D02*
Y141000D01*
X1255000Y593000D02*
X1257000D01*
X1256000Y592000D02*
Y594000D01*
X1301000Y595000D02*
X1303000D01*
X1302000Y594000D02*
Y596000D01*
X1293000Y595000D02*
X1295000D01*
X1294000Y594000D02*
Y596000D01*
X353000Y321000D02*
X355000D01*
X354000Y320000D02*
Y322000D01*
X372000Y467000D02*
X374000D01*
X373000Y466000D02*
Y468000D01*
X968500Y328600D02*
X970500D01*
X969500Y327600D02*
Y329600D01*
X870000Y250000D02*
X872000D01*
X871000Y249000D02*
Y251000D01*
X1247000Y506000D02*
X1249000D01*
X1248000Y505000D02*
Y507000D01*
X1032633Y536300D02*
X1034632D01*
X1033633Y535300D02*
Y537300D01*
X271000Y422000D02*
X273000D01*
X272000Y421000D02*
Y423000D01*
X250500Y467000D02*
X252500D01*
X251500Y466000D02*
Y468000D01*
X272000Y413000D02*
X274000D01*
X273000Y412000D02*
Y414000D01*
X1412000Y195000D02*
X1414000D01*
X1413000Y194000D02*
Y196000D01*
X1428000Y216000D02*
X1430000D01*
X1429000Y215000D02*
Y217000D01*
X1428000Y479000D02*
X1430000D01*
X1429000Y478000D02*
Y480000D01*
X1418000Y185000D02*
X1420000D01*
X1419000Y184000D02*
Y186000D01*
X1421000Y261000D02*
X1423000D01*
X1422000Y260000D02*
Y262000D01*
X1428000Y449000D02*
X1430000D01*
X1429000Y448000D02*
Y450000D01*
X1428000Y514000D02*
X1430000D01*
X1429000Y513000D02*
Y515000D01*
X1409000Y650000D02*
X1411000D01*
X1410000Y649000D02*
Y651000D01*
X1399000Y650000D02*
X1401000D01*
X1400000Y649000D02*
Y651000D01*
X1419000Y650000D02*
X1421000D01*
X1420000Y649000D02*
Y651000D01*
X1489000Y610000D02*
X1491000D01*
X1490000Y609000D02*
Y611000D01*
X1489000Y590000D02*
X1491000D01*
X1490000Y589000D02*
Y591000D01*
X1489000Y600000D02*
X1491000D01*
X1490000Y599000D02*
Y601000D01*
X1309000Y650000D02*
X1311000D01*
X1310000Y649000D02*
Y651000D01*
X1319000Y650000D02*
X1321000D01*
X1320000Y649000D02*
Y651000D01*
X1299000Y650000D02*
X1301000D01*
X1300000Y649000D02*
Y651000D01*
X1339000Y650000D02*
X1341000D01*
X1340000Y649000D02*
Y651000D01*
X1329000Y650000D02*
X1331000D01*
X1330000Y649000D02*
Y651000D01*
X1269000Y650000D02*
X1271000D01*
X1270000Y649000D02*
Y651000D01*
X1259000Y650000D02*
X1261000D01*
X1260000Y649000D02*
Y651000D01*
X1289000Y650000D02*
X1291000D01*
X1290000Y649000D02*
Y651000D01*
X1279000Y650000D02*
X1281000D01*
X1280000Y649000D02*
Y651000D01*
X1369000Y650000D02*
X1371000D01*
X1370000Y649000D02*
Y651000D01*
X1359000Y650000D02*
X1361000D01*
X1360000Y649000D02*
Y651000D01*
X1389000Y650000D02*
X1391000D01*
X1390000Y649000D02*
Y651000D01*
X1379000Y650000D02*
X1381000D01*
X1380000Y649000D02*
Y651000D01*
X1349000Y650000D02*
X1351000D01*
X1350000Y649000D02*
Y651000D01*
X1489000Y540000D02*
X1491000D01*
X1490000Y539000D02*
Y541000D01*
X1489000Y530000D02*
X1491000D01*
X1490000Y529000D02*
Y531000D01*
X1489000Y550000D02*
X1491000D01*
X1490000Y549000D02*
Y551000D01*
X1489000Y510000D02*
X1491000D01*
X1490000Y509000D02*
Y511000D01*
X1489000Y520000D02*
X1491000D01*
X1490000Y519000D02*
Y521000D01*
X1489000Y570000D02*
X1491000D01*
X1490000Y569000D02*
Y571000D01*
X1489000Y580000D02*
X1491000D01*
X1490000Y579000D02*
Y581000D01*
X1489000Y560000D02*
X1491000D01*
X1490000Y559000D02*
Y561000D01*
X1489000Y480000D02*
X1491000D01*
X1490000Y479000D02*
Y481000D01*
X1489000Y490000D02*
X1491000D01*
X1490000Y489000D02*
Y491000D01*
X1489000Y460000D02*
X1491000D01*
X1490000Y459000D02*
Y461000D01*
X1489000Y470000D02*
X1491000D01*
X1490000Y469000D02*
Y471000D01*
X1489000Y500000D02*
X1491000D01*
X1490000Y499000D02*
Y501000D01*
X1296000Y521000D02*
X1298000D01*
X1297000Y520000D02*
Y522000D01*
X1229000Y650000D02*
X1231000D01*
X1230000Y649000D02*
Y651000D01*
X1239000Y650000D02*
X1241000D01*
X1240000Y649000D02*
Y651000D01*
X1219000Y650000D02*
X1221000D01*
X1220000Y649000D02*
Y651000D01*
X1249000Y650000D02*
X1251000D01*
X1250000Y649000D02*
Y651000D01*
X1209000Y650000D02*
X1211000D01*
X1210000Y649000D02*
Y651000D01*
X1199000Y650000D02*
X1201000D01*
X1200000Y649000D02*
Y651000D01*
X1215170Y554412D02*
X1217170D01*
X1216170Y553412D02*
Y555412D01*
X1215170Y572412D02*
X1217170D01*
X1216170Y571412D02*
Y573412D01*
X1209170Y572412D02*
X1211170D01*
X1210170Y571412D02*
Y573412D01*
X1193181Y572412D02*
X1195181D01*
X1194181Y571412D02*
Y573412D01*
X1215000Y559000D02*
X1217000D01*
X1216000Y558000D02*
Y560000D01*
X1139000Y650000D02*
X1141000D01*
X1140000Y649000D02*
Y651000D01*
X1149000Y650000D02*
X1151000D01*
X1150000Y649000D02*
Y651000D01*
X1129000Y650000D02*
X1131000D01*
X1130000Y649000D02*
Y651000D01*
X1169000Y650000D02*
X1171000D01*
X1170000Y649000D02*
Y651000D01*
X1159000Y650000D02*
X1161000D01*
X1160000Y649000D02*
Y651000D01*
X1099000Y650000D02*
X1101000D01*
X1100000Y649000D02*
Y651000D01*
X1089000Y650000D02*
X1091000D01*
X1090000Y649000D02*
Y651000D01*
X1119000Y650000D02*
X1121000D01*
X1120000Y649000D02*
Y651000D01*
X1109000Y650000D02*
X1111000D01*
X1110000Y649000D02*
Y651000D01*
X1189000Y650000D02*
X1191000D01*
X1190000Y649000D02*
Y651000D01*
X1179000Y650000D02*
X1181000D01*
X1180000Y649000D02*
Y651000D01*
X1187250Y488759D02*
X1189250D01*
X1188250Y487759D02*
Y489759D01*
X1213920Y465653D02*
X1215920D01*
X1214920Y464653D02*
Y466653D01*
X1213920Y471653D02*
X1215920D01*
X1214920Y470653D02*
Y472653D01*
X1213920Y459653D02*
X1215920D01*
X1214920Y458653D02*
Y460653D01*
X1207920Y477653D02*
X1209920D01*
X1208920Y476653D02*
Y478653D01*
X1191931Y477653D02*
X1193931D01*
X1192931Y476653D02*
Y478653D01*
X1213920Y477653D02*
X1215920D01*
X1214920Y476653D02*
Y478653D01*
X1156170Y510412D02*
X1158170D01*
X1157170Y509412D02*
Y511412D01*
X1489000Y450000D02*
X1491000D01*
X1490000Y449000D02*
Y451000D01*
X1489000Y440000D02*
X1491000D01*
X1490000Y439000D02*
Y441000D01*
X1489000Y410000D02*
X1491000D01*
X1490000Y409000D02*
Y411000D01*
X1489000Y420000D02*
X1491000D01*
X1490000Y419000D02*
Y421000D01*
X1489000Y390000D02*
X1491000D01*
X1490000Y389000D02*
Y391000D01*
X1489000Y400000D02*
X1491000D01*
X1490000Y399000D02*
Y401000D01*
X1489000Y430000D02*
X1491000D01*
X1490000Y429000D02*
Y431000D01*
X1191941Y382653D02*
X1193941D01*
X1192941Y381653D02*
Y383653D01*
X1213931Y382653D02*
X1215931D01*
X1214931Y381653D02*
Y383653D01*
X1207931Y382653D02*
X1209931D01*
X1208931Y381653D02*
Y383653D01*
X1154920Y415653D02*
X1156920D01*
X1155920Y414653D02*
Y416653D01*
X1186000Y394000D02*
X1188000D01*
X1187000Y393000D02*
Y395000D01*
X1489000Y380000D02*
X1491000D01*
X1490000Y379000D02*
Y381000D01*
X1489000Y370000D02*
X1491000D01*
X1490000Y369000D02*
Y371000D01*
X1489000Y360000D02*
X1491000D01*
X1490000Y359000D02*
Y361000D01*
X1213931Y364653D02*
X1215931D01*
X1214931Y363653D02*
Y365653D01*
X1489000Y300000D02*
X1491000D01*
X1490000Y299000D02*
Y301000D01*
X1489000Y310000D02*
X1491000D01*
X1490000Y309000D02*
Y311000D01*
X1489000Y280000D02*
X1491000D01*
X1490000Y279000D02*
Y281000D01*
X1489000Y290000D02*
X1491000D01*
X1490000Y289000D02*
Y291000D01*
X1489000Y340000D02*
X1491000D01*
X1490000Y339000D02*
Y341000D01*
X1489000Y350000D02*
X1491000D01*
X1490000Y349000D02*
Y351000D01*
X1489000Y320000D02*
X1491000D01*
X1490000Y319000D02*
Y321000D01*
X1489000Y330000D02*
X1491000D01*
X1490000Y329000D02*
Y331000D01*
X1154931Y320653D02*
X1156931D01*
X1155931Y319653D02*
Y321653D01*
X1186011Y299000D02*
X1188010D01*
X1187010Y298000D02*
Y300000D01*
X1135000Y399000D02*
X1137000D01*
X1136000Y398000D02*
Y400000D01*
X1129000Y393000D02*
X1131000D01*
X1130000Y392000D02*
Y394000D01*
X1102000Y421000D02*
X1104000D01*
X1103000Y420000D02*
Y422000D01*
X1130000Y383200D02*
X1132000D01*
X1131000Y382200D02*
Y384200D01*
X1129000Y357000D02*
X1131000D01*
X1130000Y356000D02*
Y358000D01*
Y331000D02*
X1132000D01*
X1131000Y330000D02*
Y332000D01*
X1089000Y380000D02*
X1091000D01*
X1090000Y379000D02*
Y381000D01*
X1089000Y355000D02*
X1091000D01*
X1090000Y354000D02*
Y356000D01*
X1089000Y365000D02*
X1091000D01*
X1090000Y364000D02*
Y366000D01*
X1089000Y340000D02*
X1091000D01*
X1090000Y339000D02*
Y341000D01*
X1059000Y650000D02*
X1061000D01*
X1060000Y649000D02*
Y651000D01*
X1069000Y650000D02*
X1071000D01*
X1070000Y649000D02*
Y651000D01*
X1049000Y650000D02*
X1051000D01*
X1050000Y649000D02*
Y651000D01*
X1079000Y650000D02*
X1081000D01*
X1080000Y649000D02*
Y651000D01*
X1029000Y650000D02*
X1031000D01*
X1030000Y649000D02*
Y651000D01*
X1019000Y650000D02*
X1021000D01*
X1020000Y649000D02*
Y651000D01*
X1039000Y650000D02*
X1041000D01*
X1040000Y649000D02*
Y651000D01*
X939000Y650000D02*
X941000D01*
X940000Y649000D02*
Y651000D01*
X949000Y650000D02*
X951000D01*
X950000Y649000D02*
Y651000D01*
X929000Y650000D02*
X931000D01*
X930000Y649000D02*
Y651000D01*
X969000Y650000D02*
X971000D01*
X970000Y649000D02*
Y651000D01*
X959000Y650000D02*
X961000D01*
X960000Y649000D02*
Y651000D01*
X899000Y650000D02*
X901000D01*
X900000Y649000D02*
Y651000D01*
X889000Y650000D02*
X891000D01*
X890000Y649000D02*
Y651000D01*
X919000Y650000D02*
X921000D01*
X920000Y649000D02*
Y651000D01*
X909000Y650000D02*
X911000D01*
X910000Y649000D02*
Y651000D01*
X1009000Y650000D02*
X1011000D01*
X1010000Y649000D02*
Y651000D01*
X999000Y650000D02*
X1001000D01*
X1000000Y649000D02*
Y651000D01*
X989000Y650000D02*
X991000D01*
X990000Y649000D02*
Y651000D01*
X979000Y650000D02*
X981000D01*
X980000Y649000D02*
Y651000D01*
X1016000Y407000D02*
X1018000D01*
X1017000Y406000D02*
Y408000D01*
X839000Y650000D02*
X841000D01*
X840000Y649000D02*
Y651000D01*
X849000Y650000D02*
X851000D01*
X850000Y649000D02*
Y651000D01*
X829000Y650000D02*
X831000D01*
X830000Y649000D02*
Y651000D01*
X869000Y650000D02*
X871000D01*
X870000Y649000D02*
Y651000D01*
X859000Y650000D02*
X861000D01*
X860000Y649000D02*
Y651000D01*
X799000Y650000D02*
X801000D01*
X800000Y649000D02*
Y651000D01*
X789000Y650000D02*
X791000D01*
X790000Y649000D02*
Y651000D01*
X819000Y650000D02*
X821000D01*
X820000Y649000D02*
Y651000D01*
X809000Y650000D02*
X811000D01*
X810000Y649000D02*
Y651000D01*
X879000Y650000D02*
X881000D01*
X880000Y649000D02*
Y651000D01*
X769000Y650000D02*
X771000D01*
X770000Y649000D02*
Y651000D01*
X779000Y650000D02*
X781000D01*
X780000Y649000D02*
Y651000D01*
X759000Y650000D02*
X761000D01*
X760000Y649000D02*
Y651000D01*
X739000Y650000D02*
X741000D01*
X740000Y649000D02*
Y651000D01*
X729000Y650000D02*
X731000D01*
X730000Y649000D02*
Y651000D01*
X749000Y650000D02*
X751000D01*
X750000Y649000D02*
Y651000D01*
X879000Y454000D02*
X881000D01*
X880000Y453000D02*
Y455000D01*
X770540Y494300D02*
X772540D01*
X771540Y493300D02*
Y495300D01*
X750540Y494300D02*
X752540D01*
X751540Y493300D02*
Y495300D01*
X782000Y442000D02*
X784000D01*
X783000Y441000D02*
Y443000D01*
X1059000Y380000D02*
X1061000D01*
X1060000Y379000D02*
Y381000D01*
X1079000Y380000D02*
X1081000D01*
X1080000Y379000D02*
Y381000D01*
X1079000Y365000D02*
X1081000D01*
X1080000Y364000D02*
Y366000D01*
X1059000Y365000D02*
X1061000D01*
X1060000Y364000D02*
Y366000D01*
X1079000Y355000D02*
X1081000D01*
X1080000Y354000D02*
Y356000D01*
X1059000Y355000D02*
X1061000D01*
X1060000Y354000D02*
Y356000D01*
X1048607Y365584D02*
X1050607D01*
X1049607Y364584D02*
Y366584D01*
X1049000Y355000D02*
X1051000D01*
X1050000Y354000D02*
Y356000D01*
X992000Y398000D02*
X994000D01*
X993000Y397000D02*
Y399000D01*
X1003000Y388000D02*
X1005000D01*
X1004000Y387000D02*
Y389000D01*
X1000000Y359000D02*
X1002000D01*
X1001000Y358000D02*
Y360000D01*
X1079000Y340000D02*
X1081000D01*
X1080000Y339000D02*
Y341000D01*
X1059000Y340000D02*
X1061000D01*
X1060000Y339000D02*
Y341000D01*
X1049000Y340000D02*
X1051000D01*
X1050000Y339000D02*
Y341000D01*
X986000Y279000D02*
X988000D01*
X987000Y278000D02*
Y280000D01*
X848000Y358000D02*
X850000D01*
X849000Y357000D02*
Y359000D01*
X781000Y381000D02*
X783000D01*
X782000Y380000D02*
Y382000D01*
X768000Y358000D02*
X770000D01*
X769000Y357000D02*
Y359000D01*
X816000Y340000D02*
X818000D01*
X817000Y339000D02*
Y341000D01*
X792430Y323430D02*
X794430D01*
X793430Y322430D02*
Y324430D01*
X784000Y332000D02*
X786000D01*
X785000Y331000D02*
Y333000D01*
X1489000Y270000D02*
X1491000D01*
X1490000Y269000D02*
Y271000D01*
X1489000Y260000D02*
X1491000D01*
X1490000Y259000D02*
Y261000D01*
X1489000Y250000D02*
X1491000D01*
X1490000Y249000D02*
Y251000D01*
X1489000Y240000D02*
X1491000D01*
X1490000Y239000D02*
Y241000D01*
X1169000Y272100D02*
X1171000D01*
X1170000Y271100D02*
Y273100D01*
X1169000Y254100D02*
X1171000D01*
X1170000Y253100D02*
Y255100D01*
X1124000Y247100D02*
X1126000D01*
X1125000Y246100D02*
Y248100D01*
X1141000Y233100D02*
X1143000D01*
X1142000Y232100D02*
Y234100D01*
X1147000Y233100D02*
X1149000D01*
X1148000Y232100D02*
Y234100D01*
X1130000Y247100D02*
X1132000D01*
X1131000Y246100D02*
Y248100D01*
X1124000Y241100D02*
X1126000D01*
X1125000Y240100D02*
Y242100D01*
X1130000Y241100D02*
X1132000D01*
X1131000Y240100D02*
Y242100D01*
X1489000Y220000D02*
X1491000D01*
X1490000Y219000D02*
Y221000D01*
X1489000Y210000D02*
X1491000D01*
X1490000Y209000D02*
Y211000D01*
X1489000Y230000D02*
X1491000D01*
X1490000Y229000D02*
Y231000D01*
X1489000Y190000D02*
X1491000D01*
X1490000Y189000D02*
Y191000D01*
X1489000Y200000D02*
X1491000D01*
X1490000Y199000D02*
Y201000D01*
X1489000Y180000D02*
X1491000D01*
X1490000Y179000D02*
Y181000D01*
X1489000Y170000D02*
X1491000D01*
X1490000Y169000D02*
Y171000D01*
X1166499Y181000D02*
X1168499D01*
X1167499Y180000D02*
Y182000D01*
X1166499Y163000D02*
X1168499D01*
X1167499Y162000D02*
Y164000D01*
X1159000Y221000D02*
X1161000D01*
X1160000Y220000D02*
Y222000D01*
X1166000Y213000D02*
X1168000D01*
X1167000Y212000D02*
Y214000D01*
X1166000Y204100D02*
X1168000D01*
X1167000Y203100D02*
Y205100D01*
X1110000Y261100D02*
X1112000D01*
X1111000Y260100D02*
Y262100D01*
X1118000Y241100D02*
X1120000D01*
X1119000Y240100D02*
Y242100D01*
X1118000Y247100D02*
X1120000D01*
X1119000Y246100D02*
Y248100D01*
X1101000Y231100D02*
X1103000D01*
X1102000Y230100D02*
Y232100D01*
X1089000Y228100D02*
X1091000D01*
X1090000Y227100D02*
Y229100D01*
X1077000Y272100D02*
X1079000D01*
X1078000Y271100D02*
Y273100D01*
X1069000Y272000D02*
X1071000D01*
X1070000Y271000D02*
Y273000D01*
X1101000Y223100D02*
X1103000D01*
X1102000Y222100D02*
Y224100D01*
X1089000Y222000D02*
X1091000D01*
X1090000Y221000D02*
Y223000D01*
X1107499Y170000D02*
X1109499D01*
X1108499Y169000D02*
Y171000D01*
X1066000Y204000D02*
X1068000D01*
X1067000Y203000D02*
Y205000D01*
X1074499Y181000D02*
X1076499D01*
X1075499Y180000D02*
Y182000D01*
X1066499Y181000D02*
X1068499D01*
X1067499Y180000D02*
Y182000D01*
X1074000Y168000D02*
X1076000D01*
X1075000Y167000D02*
Y169000D01*
X1489000Y110000D02*
X1491000D01*
X1490000Y109000D02*
Y111000D01*
X1489000Y100000D02*
X1491000D01*
X1490000Y99000D02*
Y101000D01*
X1489000Y120000D02*
X1491000D01*
X1490000Y119000D02*
Y121000D01*
X1489000Y80000D02*
X1491000D01*
X1490000Y79000D02*
Y81000D01*
X1489000Y90000D02*
X1491000D01*
X1490000Y89000D02*
Y91000D01*
X1489000Y150000D02*
X1491000D01*
X1490000Y149000D02*
Y151000D01*
X1489000Y160000D02*
X1491000D01*
X1490000Y159000D02*
Y161000D01*
X1489000Y130000D02*
X1491000D01*
X1490000Y129000D02*
Y131000D01*
X1489000Y140000D02*
X1491000D01*
X1490000Y139000D02*
Y141000D01*
X1489000Y60000D02*
X1491000D01*
X1490000Y59000D02*
Y61000D01*
X1489000Y70000D02*
X1491000D01*
X1490000Y69000D02*
Y71000D01*
X1359000Y10000D02*
X1361000D01*
X1360000Y9000D02*
Y11000D01*
X1349000Y10000D02*
X1351000D01*
X1350000Y9000D02*
Y11000D01*
X1319000Y10000D02*
X1321000D01*
X1320000Y9000D02*
Y11000D01*
X1309000Y10000D02*
X1311000D01*
X1310000Y9000D02*
Y11000D01*
X1339000Y10000D02*
X1341000D01*
X1340000Y9000D02*
Y11000D01*
X1329000Y10000D02*
X1331000D01*
X1330000Y9000D02*
Y11000D01*
X1409000Y10000D02*
X1411000D01*
X1410000Y9000D02*
Y11000D01*
X1399000Y10000D02*
X1401000D01*
X1400000Y9000D02*
Y11000D01*
X1429000Y10000D02*
X1431000D01*
X1430000Y9000D02*
Y11000D01*
X1419000Y10000D02*
X1421000D01*
X1420000Y9000D02*
Y11000D01*
X1369000Y10000D02*
X1371000D01*
X1370000Y9000D02*
Y11000D01*
X1389000Y10000D02*
X1391000D01*
X1390000Y9000D02*
Y11000D01*
X1379000Y10000D02*
X1381000D01*
X1380000Y9000D02*
Y11000D01*
X1219000Y10000D02*
X1221000D01*
X1220000Y9000D02*
Y11000D01*
X1189000Y10000D02*
X1191000D01*
X1190000Y9000D02*
Y11000D01*
X1179000Y10000D02*
X1181000D01*
X1180000Y9000D02*
Y11000D01*
X1209000Y10000D02*
X1211000D01*
X1210000Y9000D02*
Y11000D01*
X1199000Y10000D02*
X1201000D01*
X1200000Y9000D02*
Y11000D01*
X1279000Y10000D02*
X1281000D01*
X1280000Y9000D02*
Y11000D01*
X1269000Y10000D02*
X1271000D01*
X1270000Y9000D02*
Y11000D01*
X1299000Y10000D02*
X1301000D01*
X1300000Y9000D02*
Y11000D01*
X1289000Y10000D02*
X1291000D01*
X1290000Y9000D02*
Y11000D01*
X1239000Y10000D02*
X1241000D01*
X1240000Y9000D02*
Y11000D01*
X1229000Y10000D02*
X1231000D01*
X1230000Y9000D02*
Y11000D01*
X1259000Y10000D02*
X1261000D01*
X1260000Y9000D02*
Y11000D01*
X1249000Y10000D02*
X1251000D01*
X1250000Y9000D02*
Y11000D01*
X1127499Y156000D02*
X1129499D01*
X1128499Y155000D02*
Y157000D01*
X1121499Y150000D02*
X1123499D01*
X1122499Y149000D02*
Y151000D01*
X1121499Y156000D02*
X1123499D01*
X1122499Y155000D02*
Y157000D01*
X1127499Y150000D02*
X1129499D01*
X1128499Y149000D02*
Y151000D01*
X1115499Y150000D02*
X1117499D01*
X1116499Y149000D02*
Y151000D01*
X1115499Y156000D02*
X1117499D01*
X1116499Y155000D02*
Y157000D01*
X1144499Y142000D02*
X1146499D01*
X1145499Y141000D02*
Y143000D01*
X1155499Y130000D02*
X1157499D01*
X1156499Y129000D02*
Y131000D01*
X1138499Y142000D02*
X1140499D01*
X1139499Y141000D02*
Y143000D01*
X1067000Y160000D02*
X1069000D01*
X1068000Y159000D02*
Y161000D01*
X1106499Y140000D02*
X1108499D01*
X1107499Y139000D02*
Y141000D01*
X1086499Y137000D02*
X1088499D01*
X1087499Y136000D02*
Y138000D01*
X1098499Y132000D02*
X1100499D01*
X1099499Y131000D02*
Y133000D01*
X1076499Y128000D02*
X1078499D01*
X1077499Y127000D02*
Y129000D01*
X1063499Y123000D02*
X1065499D01*
X1064499Y122000D02*
Y124000D01*
X1163499Y113000D02*
X1165499D01*
X1164499Y112000D02*
Y114000D01*
X1163499Y123000D02*
X1165499D01*
X1164499Y122000D02*
Y124000D01*
X1149000Y10000D02*
X1151000D01*
X1150000Y9000D02*
Y11000D01*
X1139000Y10000D02*
X1141000D01*
X1140000Y9000D02*
Y11000D01*
X1169000Y10000D02*
X1171000D01*
X1170000Y9000D02*
Y11000D01*
X1159000Y10000D02*
X1161000D01*
X1160000Y9000D02*
Y11000D01*
X1063499Y113000D02*
X1065499D01*
X1064499Y112000D02*
Y114000D01*
X1109000Y10000D02*
X1111000D01*
X1110000Y9000D02*
Y11000D01*
X1129000Y10000D02*
X1131000D01*
X1130000Y9000D02*
Y11000D01*
X1119000Y10000D02*
X1121000D01*
X1120000Y9000D02*
Y11000D01*
X1079000Y10000D02*
X1081000D01*
X1080000Y9000D02*
Y11000D01*
X1069000Y10000D02*
X1071000D01*
X1070000Y9000D02*
Y11000D01*
X1099000Y10000D02*
X1101000D01*
X1100000Y9000D02*
Y11000D01*
X1089000Y10000D02*
X1091000D01*
X1090000Y9000D02*
Y11000D01*
X1024000Y247000D02*
X1026000D01*
X1025000Y246000D02*
Y248000D01*
X1030000Y247000D02*
X1032000D01*
X1031000Y246000D02*
Y248000D01*
X1018000Y241000D02*
X1020000D01*
X1019000Y240000D02*
Y242000D01*
X1024000Y241000D02*
X1026000D01*
X1025000Y240000D02*
Y242000D01*
X1018000Y247000D02*
X1020000D01*
X1019000Y246000D02*
Y248000D01*
X1047000Y233000D02*
X1049000D01*
X1048000Y232000D02*
Y234000D01*
X1041000Y233000D02*
X1043000D01*
X1042000Y232000D02*
Y234000D01*
X1030000Y241000D02*
X1032000D01*
X1031000Y240000D02*
Y242000D01*
X1010000Y261000D02*
X1012000D01*
X1011000Y260000D02*
Y262000D01*
X1009000Y231000D02*
X1011000D01*
X1010000Y230000D02*
Y232000D01*
X1001000Y223000D02*
X1003000D01*
X1002000Y222000D02*
Y224000D01*
X1007499Y170000D02*
X1009499D01*
X1008499Y169000D02*
Y171000D01*
X1027499Y156000D02*
X1029499D01*
X1028499Y155000D02*
Y157000D01*
X1021499Y150000D02*
X1023499D01*
X1022499Y149000D02*
Y151000D01*
X1027499Y150000D02*
X1029499D01*
X1028499Y149000D02*
Y151000D01*
X1021499Y156000D02*
X1023499D01*
X1022499Y155000D02*
Y157000D01*
X1015499Y156000D02*
X1017499D01*
X1016499Y155000D02*
Y157000D01*
X1015499Y150000D02*
X1017499D01*
X1016499Y149000D02*
Y151000D01*
X979000Y220300D02*
X981000D01*
X980000Y219300D02*
Y221300D01*
X974499Y172000D02*
X976499D01*
X975499Y171000D02*
Y173000D01*
X803000Y259000D02*
X805000D01*
X804000Y258000D02*
Y260000D01*
X783000Y259000D02*
X785000D01*
X784000Y258000D02*
Y260000D01*
X755000Y259000D02*
X757000D01*
X756000Y258000D02*
Y260000D01*
X735000Y259000D02*
X737000D01*
X736000Y258000D02*
Y260000D01*
X1038499Y142000D02*
X1040499D01*
X1039499Y141000D02*
Y143000D01*
X1044499Y142000D02*
X1046499D01*
X1045499Y141000D02*
Y143000D01*
X1055499Y130000D02*
X1057499D01*
X1056499Y129000D02*
Y131000D01*
X1006499Y140000D02*
X1008499D01*
X1007499Y139000D02*
Y141000D01*
X998499Y132000D02*
X1000499D01*
X999499Y131000D02*
Y133000D01*
X986499Y137000D02*
X988499D01*
X987499Y136000D02*
Y138000D01*
X989000Y10000D02*
X991000D01*
X990000Y9000D02*
Y11000D01*
X979000Y10000D02*
X981000D01*
X980000Y9000D02*
Y11000D01*
X969000Y10000D02*
X971000D01*
X970000Y9000D02*
Y11000D01*
X1039000Y10000D02*
X1041000D01*
X1040000Y9000D02*
Y11000D01*
X1029000Y10000D02*
X1031000D01*
X1030000Y9000D02*
Y11000D01*
X1059000Y10000D02*
X1061000D01*
X1060000Y9000D02*
Y11000D01*
X1049000Y10000D02*
X1051000D01*
X1050000Y9000D02*
Y11000D01*
X999000Y10000D02*
X1001000D01*
X1000000Y9000D02*
Y11000D01*
X1019000Y10000D02*
X1021000D01*
X1020000Y9000D02*
Y11000D01*
X1009000Y10000D02*
X1011000D01*
X1010000Y9000D02*
Y11000D01*
X959000Y10000D02*
X961000D01*
X960000Y9000D02*
Y11000D01*
X949000Y10000D02*
X951000D01*
X950000Y9000D02*
Y11000D01*
X919000Y10000D02*
X921000D01*
X920000Y9000D02*
Y11000D01*
X909000Y10000D02*
X911000D01*
X910000Y9000D02*
Y11000D01*
X939000Y10000D02*
X941000D01*
X940000Y9000D02*
Y11000D01*
X929000Y10000D02*
X931000D01*
X930000Y9000D02*
Y11000D01*
X879000Y10000D02*
X881000D01*
X880000Y9000D02*
Y11000D01*
X869000Y10000D02*
X871000D01*
X870000Y9000D02*
Y11000D01*
X899000Y10000D02*
X901000D01*
X900000Y9000D02*
Y11000D01*
X889000Y10000D02*
X891000D01*
X890000Y9000D02*
Y11000D01*
X839000Y10000D02*
X841000D01*
X840000Y9000D02*
Y11000D01*
X859000Y10000D02*
X861000D01*
X860000Y9000D02*
Y11000D01*
X849000Y10000D02*
X851000D01*
X850000Y9000D02*
Y11000D01*
X729000Y10000D02*
X731000D01*
X730000Y9000D02*
Y11000D01*
X749000Y10000D02*
X751000D01*
X750000Y9000D02*
Y11000D01*
X739000Y10000D02*
X741000D01*
X740000Y9000D02*
Y11000D01*
X809000Y10000D02*
X811000D01*
X810000Y9000D02*
Y11000D01*
X799000Y10000D02*
X801000D01*
X800000Y9000D02*
Y11000D01*
X829000Y10000D02*
X831000D01*
X830000Y9000D02*
Y11000D01*
X819000Y10000D02*
X821000D01*
X820000Y9000D02*
Y11000D01*
X769000Y10000D02*
X771000D01*
X770000Y9000D02*
Y11000D01*
X759000Y10000D02*
X761000D01*
X760000Y9000D02*
Y11000D01*
X789000Y10000D02*
X791000D01*
X790000Y9000D02*
Y11000D01*
X779000Y10000D02*
X781000D01*
X780000Y9000D02*
Y11000D01*
X709000Y650000D02*
X711000D01*
X710000Y649000D02*
Y651000D01*
X719000Y650000D02*
X721000D01*
X720000Y649000D02*
Y651000D01*
X699000Y650000D02*
X701000D01*
X700000Y649000D02*
Y651000D01*
X689000Y650000D02*
X691000D01*
X690000Y649000D02*
Y651000D01*
X679000Y650000D02*
X681000D01*
X680000Y649000D02*
Y651000D01*
X659000Y650000D02*
X661000D01*
X660000Y649000D02*
Y651000D01*
X669000Y650000D02*
X671000D01*
X670000Y649000D02*
Y651000D01*
X649000Y650000D02*
X651000D01*
X650000Y649000D02*
Y651000D01*
X639000Y650000D02*
X641000D01*
X640000Y649000D02*
Y651000D01*
X629000Y650000D02*
X631000D01*
X630000Y649000D02*
Y651000D01*
X714540Y494300D02*
X716540D01*
X715540Y493300D02*
Y495300D01*
X698540Y494300D02*
X700540D01*
X699540Y493300D02*
Y495300D01*
X687000Y494000D02*
X689000D01*
X688000Y493000D02*
Y495000D01*
X675000Y493000D02*
X677000D01*
X676000Y492000D02*
Y494000D01*
X639000Y495000D02*
X641000D01*
X640000Y494000D02*
Y496000D01*
X626000Y495000D02*
X628000D01*
X627000Y494000D02*
Y496000D01*
X650000Y487000D02*
X652000D01*
X651000Y486000D02*
Y488000D01*
X650000Y493000D02*
X652000D01*
X651000Y492000D02*
Y494000D01*
X509000Y650000D02*
X511000D01*
X510000Y649000D02*
Y651000D01*
X519000Y650000D02*
X521000D01*
X520000Y649000D02*
Y651000D01*
X499000Y650000D02*
X501000D01*
X500000Y649000D02*
Y651000D01*
X539000Y650000D02*
X541000D01*
X540000Y649000D02*
Y651000D01*
X529000Y650000D02*
X531000D01*
X530000Y649000D02*
Y651000D01*
X469000Y650000D02*
X471000D01*
X470000Y649000D02*
Y651000D01*
X459000Y650000D02*
X461000D01*
X460000Y649000D02*
Y651000D01*
X489000Y650000D02*
X491000D01*
X490000Y649000D02*
Y651000D01*
X479000Y650000D02*
X481000D01*
X480000Y649000D02*
Y651000D01*
X599000Y650000D02*
X601000D01*
X600000Y649000D02*
Y651000D01*
X589000Y650000D02*
X591000D01*
X590000Y649000D02*
Y651000D01*
X619000Y650000D02*
X621000D01*
X620000Y649000D02*
Y651000D01*
X609000Y650000D02*
X611000D01*
X610000Y649000D02*
Y651000D01*
X559000Y650000D02*
X561000D01*
X560000Y649000D02*
Y651000D01*
X549000Y650000D02*
X551000D01*
X550000Y649000D02*
Y651000D01*
X579000Y650000D02*
X581000D01*
X580000Y649000D02*
Y651000D01*
X569000Y650000D02*
X571000D01*
X570000Y649000D02*
Y651000D01*
X369000Y650000D02*
X371000D01*
X370000Y649000D02*
Y651000D01*
X379000Y650000D02*
X381000D01*
X380000Y649000D02*
Y651000D01*
X359000Y650000D02*
X361000D01*
X360000Y649000D02*
Y651000D01*
X399000Y650000D02*
X401000D01*
X400000Y649000D02*
Y651000D01*
X389000Y650000D02*
X391000D01*
X390000Y649000D02*
Y651000D01*
X329000Y650000D02*
X331000D01*
X330000Y649000D02*
Y651000D01*
X319000Y650000D02*
X321000D01*
X320000Y649000D02*
Y651000D01*
X349000Y650000D02*
X351000D01*
X350000Y649000D02*
Y651000D01*
X339000Y650000D02*
X341000D01*
X340000Y649000D02*
Y651000D01*
X439000Y650000D02*
X441000D01*
X440000Y649000D02*
Y651000D01*
X429000Y650000D02*
X431000D01*
X430000Y649000D02*
Y651000D01*
X449000Y650000D02*
X451000D01*
X450000Y649000D02*
Y651000D01*
X419000Y650000D02*
X421000D01*
X420000Y649000D02*
Y651000D01*
X409000Y650000D02*
X411000D01*
X410000Y649000D02*
Y651000D01*
X695000Y462000D02*
X697000D01*
X696000Y461000D02*
Y463000D01*
X460000Y462000D02*
X462000D01*
X461000Y461000D02*
Y463000D01*
X575000Y440000D02*
X577000D01*
X576000Y439000D02*
Y441000D01*
X686000Y403000D02*
X688000D01*
X687000Y402000D02*
Y404000D01*
X573000Y407000D02*
X575000D01*
X574000Y406000D02*
Y408000D01*
X431000Y393000D02*
X433000D01*
X432000Y392000D02*
Y394000D01*
X469000Y370000D02*
X471000D01*
X470000Y369000D02*
Y371000D01*
X415000Y465000D02*
X417000D01*
X416000Y464000D02*
Y466000D01*
X417000Y444000D02*
X419000D01*
X418000Y443000D02*
Y445000D01*
X417000Y414000D02*
X419000D01*
X418000Y413000D02*
Y415000D01*
X417000Y429000D02*
X419000D01*
X418000Y428000D02*
Y430000D01*
X402000Y444000D02*
X404000D01*
X403000Y443000D02*
Y445000D01*
X387000Y429000D02*
X389000D01*
X388000Y428000D02*
Y430000D01*
X402000Y429000D02*
X404000D01*
X403000Y428000D02*
Y430000D01*
X387000Y414000D02*
X389000D01*
X388000Y413000D02*
Y415000D01*
X387000Y444000D02*
X389000D01*
X388000Y443000D02*
Y445000D01*
X402000Y414000D02*
X404000D01*
X403000Y413000D02*
Y415000D01*
X279000Y650000D02*
X281000D01*
X280000Y649000D02*
Y651000D01*
X289000Y650000D02*
X291000D01*
X290000Y649000D02*
Y651000D01*
X269000Y650000D02*
X271000D01*
X270000Y649000D02*
Y651000D01*
X309000Y650000D02*
X311000D01*
X310000Y649000D02*
Y651000D01*
X299000Y650000D02*
X301000D01*
X300000Y649000D02*
Y651000D01*
X249000Y650000D02*
X251000D01*
X250000Y649000D02*
Y651000D01*
X239000Y650000D02*
X241000D01*
X240000Y649000D02*
Y651000D01*
X259000Y650000D02*
X261000D01*
X260000Y649000D02*
Y651000D01*
X275000Y546000D02*
X277000D01*
X276000Y545000D02*
Y547000D01*
X275000Y553000D02*
X277000D01*
X276000Y552000D02*
Y554000D01*
X261000Y546000D02*
X263000D01*
X262000Y545000D02*
Y547000D01*
X261000Y553000D02*
X263000D01*
X262000Y552000D02*
Y554000D01*
X209000Y650000D02*
X211000D01*
X210000Y649000D02*
Y651000D01*
X219000Y650000D02*
X221000D01*
X220000Y649000D02*
Y651000D01*
X199000Y650000D02*
X201000D01*
X200000Y649000D02*
Y651000D01*
X229000Y650000D02*
X231000D01*
X230000Y649000D02*
Y651000D01*
X179000Y650000D02*
X181000D01*
X180000Y649000D02*
Y651000D01*
X169000Y650000D02*
X171000D01*
X170000Y649000D02*
Y651000D01*
X189000Y650000D02*
X191000D01*
X190000Y649000D02*
Y651000D01*
X224000Y565000D02*
X226000D01*
X225000Y564000D02*
Y566000D01*
X224000Y571000D02*
X226000D01*
X225000Y570000D02*
Y572000D01*
X224000Y553000D02*
X226000D01*
X225000Y552000D02*
Y554000D01*
X224000Y559000D02*
X226000D01*
X225000Y558000D02*
Y560000D01*
X218000Y571000D02*
X220000D01*
X219000Y570000D02*
Y572000D01*
X202011Y570999D02*
X204011D01*
X203011Y569999D02*
Y571999D01*
X281000Y505000D02*
X283000D01*
X282000Y504000D02*
Y506000D01*
X279000Y488000D02*
X281000D01*
X280000Y487000D02*
Y489000D01*
X289000Y488000D02*
X291000D01*
X290000Y487000D02*
Y489000D01*
X274000Y505000D02*
X276000D01*
X275000Y504000D02*
Y506000D01*
X267000Y505000D02*
X269000D01*
X268000Y504000D02*
Y506000D01*
X270000Y488000D02*
X272000D01*
X271000Y487000D02*
Y489000D01*
X165000Y509000D02*
X167000D01*
X166000Y508000D02*
Y510000D01*
X196080Y487347D02*
X198080D01*
X197080Y486347D02*
Y488347D01*
X109000Y650000D02*
X111000D01*
X110000Y649000D02*
Y651000D01*
X119000Y650000D02*
X121000D01*
X120000Y649000D02*
Y651000D01*
X99000Y650000D02*
X101000D01*
X100000Y649000D02*
Y651000D01*
X139000Y650000D02*
X141000D01*
X140000Y649000D02*
Y651000D01*
X129000Y650000D02*
X131000D01*
X130000Y649000D02*
Y651000D01*
X69000Y650000D02*
X71000D01*
X70000Y649000D02*
Y651000D01*
X59000Y650000D02*
X61000D01*
X60000Y649000D02*
Y651000D01*
X89000Y650000D02*
X91000D01*
X90000Y649000D02*
Y651000D01*
X79000Y650000D02*
X81000D01*
X80000Y649000D02*
Y651000D01*
X159000Y650000D02*
X161000D01*
X160000Y649000D02*
Y651000D01*
X149000Y650000D02*
X151000D01*
X150000Y649000D02*
Y651000D01*
X107000Y572000D02*
X109000D01*
X108000Y571000D02*
Y573000D01*
X9000Y600000D02*
X11000D01*
X10000Y599000D02*
Y601000D01*
X9000Y580000D02*
X11000D01*
X10000Y579000D02*
Y581000D01*
X9000Y590000D02*
X11000D01*
X10000Y589000D02*
Y591000D01*
X128931Y565653D02*
X130931D01*
X129931Y564653D02*
Y566653D01*
X128931Y559653D02*
X130931D01*
X129931Y558653D02*
Y560653D01*
X128931Y571653D02*
X130931D01*
X129931Y570653D02*
Y572653D01*
X128931Y553653D02*
X130931D01*
X129931Y552653D02*
Y554653D01*
X123000Y572000D02*
X125000D01*
X124000Y571000D02*
Y573000D01*
X9000Y520000D02*
X11000D01*
X10000Y519000D02*
Y521000D01*
X9000Y530000D02*
X11000D01*
X10000Y529000D02*
Y531000D01*
X9000Y560000D02*
X11000D01*
X10000Y559000D02*
Y561000D01*
X9000Y570000D02*
X11000D01*
X10000Y569000D02*
Y571000D01*
X9000Y540000D02*
X11000D01*
X10000Y539000D02*
Y541000D01*
X9000Y550000D02*
X11000D01*
X10000Y549000D02*
Y551000D01*
X102294Y494442D02*
X104294D01*
X103294Y493442D02*
Y495442D01*
X9000Y510000D02*
X11000D01*
X10000Y509000D02*
Y511000D01*
X9000Y490000D02*
X11000D01*
X10000Y489000D02*
Y491000D01*
X9000Y500000D02*
X11000D01*
X10000Y499000D02*
Y501000D01*
X224000Y460000D02*
X226000D01*
X225000Y459000D02*
Y461000D01*
X295000Y428000D02*
X297000D01*
X296000Y427000D02*
Y429000D01*
X218000Y478000D02*
X220000D01*
X219000Y477000D02*
Y479000D01*
X202011Y478000D02*
X204011D01*
X203011Y477000D02*
Y479000D01*
X224000Y466000D02*
X226000D01*
X225000Y465000D02*
Y467000D01*
X224000Y472000D02*
X226000D01*
X225000Y471000D02*
Y473000D01*
X273500Y384000D02*
X275500D01*
X274500Y383000D02*
Y385000D01*
X259500Y384000D02*
X261500D01*
X260500Y383000D02*
Y385000D01*
X273500Y377000D02*
X275500D01*
X274500Y376000D02*
Y378000D01*
X259500Y377000D02*
X261500D01*
X260500Y376000D02*
Y378000D01*
X202011Y383000D02*
X204011D01*
X203011Y382000D02*
Y384000D01*
X218000Y383000D02*
X220000D01*
X219000Y382000D02*
Y384000D01*
X196080Y394347D02*
X198080D01*
X197080Y393347D02*
Y395347D01*
X224000Y371000D02*
X226000D01*
X225000Y370000D02*
Y372000D01*
X224000Y377000D02*
X226000D01*
X225000Y376000D02*
Y378000D01*
X224000Y365000D02*
X226000D01*
X225000Y364000D02*
Y366000D01*
X224000Y383000D02*
X226000D01*
X225000Y382000D02*
Y384000D01*
X129000Y478000D02*
X131000D01*
X130000Y477000D02*
Y479000D01*
X129000Y472000D02*
X131000D01*
X130000Y471000D02*
Y473000D01*
X123000Y478000D02*
X125000D01*
X124000Y477000D02*
Y479000D01*
X129000Y466000D02*
X131000D01*
X130000Y465000D02*
Y467000D01*
X107011Y478000D02*
X109011D01*
X108011Y477000D02*
Y479000D01*
X165000Y416000D02*
X167000D01*
X166000Y415000D02*
Y417000D01*
X129000Y460000D02*
X131000D01*
X130000Y459000D02*
Y461000D01*
X9000Y470000D02*
X11000D01*
X10000Y469000D02*
Y471000D01*
X9000Y480000D02*
X11000D01*
X10000Y479000D02*
Y481000D01*
X9000Y450000D02*
X11000D01*
X10000Y449000D02*
Y451000D01*
X9000Y460000D02*
X11000D01*
X10000Y459000D02*
Y461000D01*
X70000Y416000D02*
X72000D01*
X71000Y415000D02*
Y417000D01*
X9000Y430000D02*
X11000D01*
X10000Y429000D02*
Y431000D01*
X9000Y440000D02*
X11000D01*
X10000Y439000D02*
Y441000D01*
X9000Y420000D02*
X11000D01*
X10000Y419000D02*
Y421000D01*
X123000Y383000D02*
X125000D01*
X124000Y382000D02*
Y384000D01*
X107011Y383000D02*
X109011D01*
X108011Y382000D02*
Y384000D01*
X129000Y371000D02*
X131000D01*
X130000Y370000D02*
Y372000D01*
X129000Y377000D02*
X131000D01*
X130000Y376000D02*
Y378000D01*
X129000Y365000D02*
X131000D01*
X130000Y364000D02*
Y366000D01*
X129000Y383000D02*
X131000D01*
X130000Y382000D02*
Y384000D01*
X101080Y394347D02*
X103080D01*
X102080Y393347D02*
Y395347D01*
X9000Y410000D02*
X11000D01*
X10000Y409000D02*
Y411000D01*
X9000Y400000D02*
X11000D01*
X10000Y399000D02*
Y401000D01*
X9000Y380000D02*
X11000D01*
X10000Y379000D02*
Y381000D01*
X9000Y390000D02*
X11000D01*
X10000Y389000D02*
Y391000D01*
X9000Y360000D02*
X11000D01*
X10000Y359000D02*
Y361000D01*
X9000Y370000D02*
X11000D01*
X10000Y369000D02*
Y371000D01*
X707000Y259000D02*
X709000D01*
X708000Y258000D02*
Y260000D01*
X635000Y259000D02*
X637000D01*
X636000Y258000D02*
Y260000D01*
X667000Y259000D02*
X669000D01*
X668000Y258000D02*
Y260000D01*
X647000Y259000D02*
X649000D01*
X648000Y258000D02*
Y260000D01*
X493000Y160000D02*
X495000D01*
X494000Y159000D02*
Y161000D01*
X462000Y349000D02*
X464000D01*
X463000Y348000D02*
Y350000D01*
X456000Y183000D02*
X458000D01*
X457000Y182000D02*
Y184000D01*
X417000Y174000D02*
X419000D01*
X418000Y173000D02*
Y175000D01*
X566000Y130000D02*
X568000D01*
X567000Y129000D02*
Y131000D01*
X619000Y10000D02*
X621000D01*
X620000Y9000D02*
Y11000D01*
X639000Y10000D02*
X641000D01*
X640000Y9000D02*
Y11000D01*
X629000Y10000D02*
X631000D01*
X630000Y9000D02*
Y11000D01*
X589000Y10000D02*
X591000D01*
X590000Y9000D02*
Y11000D01*
X609000Y10000D02*
X611000D01*
X610000Y9000D02*
Y11000D01*
X599000Y10000D02*
X601000D01*
X600000Y9000D02*
Y11000D01*
X699000Y10000D02*
X701000D01*
X700000Y9000D02*
Y11000D01*
X689000Y10000D02*
X691000D01*
X690000Y9000D02*
Y11000D01*
X719000Y10000D02*
X721000D01*
X720000Y9000D02*
Y11000D01*
X709000Y10000D02*
X711000D01*
X710000Y9000D02*
Y11000D01*
X659000Y10000D02*
X661000D01*
X660000Y9000D02*
Y11000D01*
X649000Y10000D02*
X651000D01*
X650000Y9000D02*
Y11000D01*
X679000Y10000D02*
X681000D01*
X680000Y9000D02*
Y11000D01*
X669000Y10000D02*
X671000D01*
X670000Y9000D02*
Y11000D01*
X499000Y10000D02*
X501000D01*
X500000Y9000D02*
Y11000D01*
X489000Y10000D02*
X491000D01*
X490000Y9000D02*
Y11000D01*
X479000Y10000D02*
X481000D01*
X480000Y9000D02*
Y11000D01*
X559000Y10000D02*
X561000D01*
X560000Y9000D02*
Y11000D01*
X549000Y10000D02*
X551000D01*
X550000Y9000D02*
Y11000D01*
X579000Y10000D02*
X581000D01*
X580000Y9000D02*
Y11000D01*
X569000Y10000D02*
X571000D01*
X570000Y9000D02*
Y11000D01*
X519000Y10000D02*
X521000D01*
X520000Y9000D02*
Y11000D01*
X509000Y10000D02*
X511000D01*
X510000Y9000D02*
Y11000D01*
X539000Y10000D02*
X541000D01*
X540000Y9000D02*
Y11000D01*
X529000Y10000D02*
X531000D01*
X530000Y9000D02*
Y11000D01*
X392000Y45000D02*
X394000D01*
X393000Y44000D02*
Y46000D01*
X389000Y10000D02*
X391000D01*
X390000Y9000D02*
Y11000D01*
X449000Y10000D02*
X451000D01*
X450000Y9000D02*
Y11000D01*
X439000Y10000D02*
X441000D01*
X440000Y9000D02*
Y11000D01*
X469000Y10000D02*
X471000D01*
X470000Y9000D02*
Y11000D01*
X459000Y10000D02*
X461000D01*
X460000Y9000D02*
Y11000D01*
X409000Y10000D02*
X411000D01*
X410000Y9000D02*
Y11000D01*
X399000Y10000D02*
X401000D01*
X400000Y9000D02*
Y11000D01*
X429000Y10000D02*
X431000D01*
X430000Y9000D02*
Y11000D01*
X419000Y10000D02*
X421000D01*
X420000Y9000D02*
Y11000D01*
X299000Y10000D02*
X301000D01*
X300000Y9000D02*
Y11000D01*
X289000Y10000D02*
X291000D01*
X290000Y9000D02*
Y11000D01*
X359000Y10000D02*
X361000D01*
X360000Y9000D02*
Y11000D01*
X349000Y10000D02*
X351000D01*
X350000Y9000D02*
Y11000D01*
X379000Y10000D02*
X381000D01*
X380000Y9000D02*
Y11000D01*
X369000Y10000D02*
X371000D01*
X370000Y9000D02*
Y11000D01*
X319000Y10000D02*
X321000D01*
X320000Y9000D02*
Y11000D01*
X309000Y10000D02*
X311000D01*
X310000Y9000D02*
Y11000D01*
X339000Y10000D02*
X341000D01*
X340000Y9000D02*
Y11000D01*
X329000Y10000D02*
X331000D01*
X330000Y9000D02*
Y11000D01*
X279500Y336000D02*
X281500D01*
X280500Y335000D02*
Y337000D01*
X274500Y322000D02*
X276500D01*
X275500Y321000D02*
Y323000D01*
X272500Y336000D02*
X274500D01*
X273500Y335000D02*
Y337000D01*
X284500Y322000D02*
X286500D01*
X285500Y321000D02*
Y323000D01*
X265500Y336000D02*
X267500D01*
X266500Y335000D02*
Y337000D01*
X264500Y322000D02*
X266500D01*
X265500Y321000D02*
Y323000D01*
X203000Y288000D02*
X205000D01*
X204000Y287000D02*
Y289000D01*
X196080Y299347D02*
X198080D01*
X197080Y298347D02*
Y300347D01*
X245000Y250000D02*
X247000D01*
X246000Y249000D02*
Y251000D01*
X237000Y250000D02*
X239000D01*
X238000Y249000D02*
Y251000D01*
X230000Y250000D02*
X232000D01*
X231000Y249000D02*
Y251000D01*
X203000Y281000D02*
X205000D01*
X204000Y280000D02*
Y282000D01*
X165000Y321000D02*
X167000D01*
X166000Y320000D02*
Y322000D01*
X101080Y299347D02*
X103080D01*
X102080Y298347D02*
Y300347D01*
X128000Y284000D02*
X130000D01*
X129000Y283000D02*
Y285000D01*
X105000Y288000D02*
X107000D01*
X106000Y287000D02*
Y289000D01*
X70000Y321000D02*
X72000D01*
X71000Y320000D02*
Y322000D01*
X9000Y340000D02*
X11000D01*
X10000Y339000D02*
Y341000D01*
X9000Y350000D02*
X11000D01*
X10000Y349000D02*
Y351000D01*
X9000Y320000D02*
X11000D01*
X10000Y319000D02*
Y321000D01*
X9000Y330000D02*
X11000D01*
X10000Y329000D02*
Y331000D01*
X9000Y310000D02*
X11000D01*
X10000Y309000D02*
Y311000D01*
X9000Y290000D02*
X11000D01*
X10000Y289000D02*
Y291000D01*
X9000Y300000D02*
X11000D01*
X10000Y299000D02*
Y301000D01*
X9000Y270000D02*
X11000D01*
X10000Y269000D02*
Y271000D01*
X9000Y280000D02*
X11000D01*
X10000Y279000D02*
Y281000D01*
X9000Y250000D02*
X11000D01*
X10000Y249000D02*
Y251000D01*
X9000Y260000D02*
X11000D01*
X10000Y259000D02*
Y261000D01*
X9000Y200000D02*
X11000D01*
X10000Y199000D02*
Y201000D01*
X86000Y186000D02*
X88000D01*
X87000Y185000D02*
Y187000D01*
X9000Y190000D02*
X11000D01*
X10000Y189000D02*
Y191000D01*
X9000Y230000D02*
X11000D01*
X10000Y229000D02*
Y231000D01*
X9000Y240000D02*
X11000D01*
X10000Y239000D02*
Y241000D01*
X9000Y210000D02*
X11000D01*
X10000Y209000D02*
Y211000D01*
X9000Y220000D02*
X11000D01*
X10000Y219000D02*
Y221000D01*
X225000Y180000D02*
X227000D01*
X226000Y179000D02*
Y181000D01*
X177266Y155734D02*
X179266D01*
X178266Y154734D02*
Y156734D01*
X219000Y10000D02*
X221000D01*
X220000Y9000D02*
Y11000D01*
X209000Y10000D02*
X211000D01*
X210000Y9000D02*
Y11000D01*
X279000Y10000D02*
X281000D01*
X280000Y9000D02*
Y11000D01*
X269000Y10000D02*
X271000D01*
X270000Y9000D02*
Y11000D01*
X239000Y10000D02*
X241000D01*
X240000Y9000D02*
Y11000D01*
X229000Y10000D02*
X231000D01*
X230000Y9000D02*
Y11000D01*
X259000Y10000D02*
X261000D01*
X260000Y9000D02*
Y11000D01*
X249000Y10000D02*
X251000D01*
X250000Y9000D02*
Y11000D01*
X161900Y103900D02*
X163900D01*
X162900Y102900D02*
Y104900D01*
X199000Y10000D02*
X201000D01*
X200000Y9000D02*
Y11000D01*
X189000Y10000D02*
X191000D01*
X190000Y9000D02*
Y11000D01*
X159000Y10000D02*
X161000D01*
X160000Y9000D02*
Y11000D01*
X179000Y10000D02*
X181000D01*
X180000Y9000D02*
Y11000D01*
X169000Y10000D02*
X171000D01*
X170000Y9000D02*
Y11000D01*
X99000Y173000D02*
X101000D01*
X100000Y172000D02*
Y174000D01*
X85000Y116000D02*
X87000D01*
X86000Y115000D02*
Y117000D01*
X84750Y152000D02*
X86750D01*
X85750Y151000D02*
Y153000D01*
X9000Y140000D02*
X11000D01*
X10000Y139000D02*
Y141000D01*
X9000Y170000D02*
X11000D01*
X10000Y169000D02*
Y171000D01*
X9000Y180000D02*
X11000D01*
X10000Y179000D02*
Y181000D01*
X9000Y150000D02*
X11000D01*
X10000Y149000D02*
Y151000D01*
X9000Y160000D02*
X11000D01*
X10000Y159000D02*
Y161000D01*
X9000Y90000D02*
X11000D01*
X10000Y89000D02*
Y91000D01*
X9000Y120000D02*
X11000D01*
X10000Y119000D02*
Y121000D01*
X9000Y130000D02*
X11000D01*
X10000Y129000D02*
Y131000D01*
X9000Y100000D02*
X11000D01*
X10000Y99000D02*
Y101000D01*
X9000Y110000D02*
X11000D01*
X10000Y109000D02*
Y111000D01*
X69000Y10000D02*
X71000D01*
X70000Y9000D02*
Y11000D01*
X129000Y10000D02*
X131000D01*
X130000Y9000D02*
Y11000D01*
X119000Y10000D02*
X121000D01*
X120000Y9000D02*
Y11000D01*
X149000Y10000D02*
X151000D01*
X150000Y9000D02*
Y11000D01*
X139000Y10000D02*
X141000D01*
X140000Y9000D02*
Y11000D01*
X89000Y10000D02*
X91000D01*
X90000Y9000D02*
Y11000D01*
X79000Y10000D02*
X81000D01*
X80000Y9000D02*
Y11000D01*
X109000Y10000D02*
X111000D01*
X110000Y9000D02*
Y11000D01*
X99000Y10000D02*
X101000D01*
X100000Y9000D02*
Y11000D01*
X9000Y70000D02*
X11000D01*
X10000Y69000D02*
Y71000D01*
X9000Y80000D02*
X11000D01*
X10000Y79000D02*
Y81000D01*
X59000Y10000D02*
X61000D01*
X60000Y9000D02*
Y11000D01*
X9000Y60000D02*
X11000D01*
X10000Y59000D02*
Y61000D01*
X1278000Y490000D02*
X1280000D01*
X1279000Y489000D02*
Y491000D01*
X1272000Y470000D02*
X1274000D01*
X1273000Y469000D02*
Y471000D01*
X1057000Y152000D02*
X1059000D01*
X1058000Y151000D02*
Y153000D01*
X1109000Y116000D02*
X1111000D01*
X1110000Y115000D02*
Y117000D01*
X1071000Y154000D02*
X1073000D01*
X1072000Y153000D02*
Y155000D01*
X1155000Y153000D02*
X1157000D01*
X1156000Y152000D02*
Y154000D01*
X986000Y150500D02*
X988000D01*
X987000Y149500D02*
Y151500D01*
X1157000Y243500D02*
X1159000D01*
X1158000Y242500D02*
Y244500D01*
X1089000Y241500D02*
X1091000D01*
X1090000Y240500D02*
Y242500D01*
X1058000Y243500D02*
X1060000D01*
X1059000Y242500D02*
Y244500D01*
X989000Y241500D02*
X991000D01*
X990000Y240500D02*
Y242500D01*
X738000Y173000D02*
X740000D01*
X739000Y172000D02*
Y174000D01*
X691000Y173000D02*
X693000D01*
X692000Y172000D02*
Y174000D01*
X744000Y60000D02*
X746000D01*
X745000Y59000D02*
Y61000D01*
X714000D02*
X716000D01*
X715000Y60000D02*
Y62000D01*
X683000Y59000D02*
X685000D01*
X684000Y58000D02*
Y60000D01*
X895000Y169000D02*
X897000D01*
X896000Y168000D02*
Y170000D01*
X842721Y168050D02*
X844721D01*
X843721Y167050D02*
Y169050D01*
X928000Y81000D02*
X930000D01*
X929000Y80000D02*
Y82000D01*
X895000Y81000D02*
X897000D01*
X896000Y80000D02*
Y82000D01*
X869000Y81000D02*
X871000D01*
X870000Y80000D02*
Y82000D01*
X842000Y81000D02*
X844000D01*
X843000Y80000D02*
Y82000D01*
X897000Y125000D02*
X899000D01*
X898000Y124000D02*
Y126000D01*
X831285Y128267D02*
X833285D01*
X832285Y127267D02*
Y129267D01*
X207000Y114000D02*
X209000D01*
X208000Y113000D02*
Y115000D01*
X327000Y84000D02*
X329000D01*
X328000Y83000D02*
Y85000D01*
X247000Y152000D02*
X249000D01*
X248000Y151000D02*
Y153000D01*
X366000Y106000D02*
X368000D01*
X367000Y105000D02*
Y107000D01*
X564000Y23000D02*
X566000D01*
X565000Y22000D02*
Y24000D01*
X991000Y83000D02*
X993000D01*
X992000Y82000D02*
Y84000D01*
X1201000Y35000D02*
X1203000D01*
X1202000Y34000D02*
Y36000D01*
X1108000Y41000D02*
X1110000D01*
X1109000Y40000D02*
Y42000D01*
X1082000Y39000D02*
X1084000D01*
X1083000Y38000D02*
Y40000D01*
X1051000Y38000D02*
X1053000D01*
X1052000Y37000D02*
Y39000D01*
X1021000D02*
X1023000D01*
X1022000Y38000D02*
Y40000D01*
X758000Y41000D02*
X760000D01*
X759000Y40000D02*
Y42000D01*
X756000Y52000D02*
X758000D01*
X757000Y51000D02*
Y53000D01*
X721000Y41000D02*
X723000D01*
X722000Y40000D02*
Y42000D01*
X691000Y39000D02*
X693000D01*
X692000Y38000D02*
Y40000D01*
X664000Y39000D02*
X666000D01*
X665000Y38000D02*
Y40000D01*
X1126000Y506000D02*
X1128000D01*
X1127000Y505000D02*
Y507000D01*
X781000Y368000D02*
X783000D01*
X782000Y367000D02*
Y369000D01*
X807000Y177000D02*
X809000D01*
X808000Y176000D02*
Y178000D01*
X769200Y192000D02*
X771200D01*
X770200Y191000D02*
Y193000D01*
X752000Y175000D02*
X754000D01*
X753000Y174000D02*
Y176000D01*
X635000Y287000D02*
X637000D01*
X636000Y286000D02*
Y288000D01*
X433000Y511000D02*
X435000D01*
X434000Y510000D02*
Y512000D01*
X390000Y504000D02*
X392000D01*
X391000Y503000D02*
Y505000D01*
X201000Y105000D02*
X203000D01*
X202000Y104000D02*
Y106000D01*
Y141000D02*
X204000D01*
X203000Y140000D02*
Y142000D01*
X200000Y177000D02*
X202000D01*
X201000Y176000D02*
Y178000D01*
X172000Y77000D02*
X174000D01*
X173000Y76000D02*
Y78000D01*
X172000Y68000D02*
X174000D01*
X173000Y67000D02*
Y69000D01*
X105000Y264000D02*
X107000D01*
X106000Y263000D02*
Y265000D01*
X71000Y264000D02*
X73000D01*
X72000Y263000D02*
Y265000D01*
X128000Y273000D02*
X130000D01*
X129000Y272000D02*
Y274000D01*
X1141000Y265000D02*
X1143000D01*
X1142000Y264000D02*
Y266000D01*
X1041000Y265000D02*
X1043000D01*
X1042000Y264000D02*
Y266000D01*
X1039000Y176000D02*
X1041000D01*
X1040000Y175000D02*
Y177000D01*
X1146000Y181000D02*
X1148000D01*
X1147000Y180000D02*
Y182000D01*
X1172319Y171250D02*
X1174319D01*
X1173319Y170250D02*
Y172250D01*
X1178000Y132500D02*
X1180000D01*
X1179000Y131500D02*
Y133500D01*
X1231500Y152000D02*
X1233500D01*
X1232500Y151000D02*
Y153000D01*
X523000Y178000D02*
X525000D01*
X524000Y177000D02*
Y179000D01*
X562000Y170000D02*
X564000D01*
X563000Y169000D02*
Y171000D01*
X424462Y468102D02*
X426462D01*
X425462Y467102D02*
Y469102D01*
X435000Y399000D02*
X437000D01*
X436000Y398000D02*
Y400000D01*
X137000Y283000D02*
X139000D01*
X138000Y282000D02*
Y284000D01*
X339000Y424000D02*
X341000D01*
X340000Y423000D02*
Y425000D01*
X530000Y311000D02*
X532000D01*
X531000Y310000D02*
Y312000D01*
X550360Y334250D02*
X552360D01*
X551360Y333250D02*
Y335250D01*
X452000Y364000D02*
X454000D01*
X453000Y363000D02*
Y365000D01*
X466000Y332000D02*
X468000D01*
X467000Y331000D02*
Y333000D01*
X385000Y313000D02*
X387000D01*
X386000Y312000D02*
Y314000D01*
X336000Y271000D02*
X338000D01*
X337000Y270000D02*
Y272000D01*
X407000Y260000D02*
X409000D01*
X408000Y259000D02*
Y261000D01*
X493000Y212750D02*
X495000D01*
X494000Y211750D02*
Y213750D01*
X464000Y212750D02*
X466000D01*
X465000Y211750D02*
Y213750D01*
X457000Y212750D02*
X459000D01*
X458000Y211750D02*
Y213750D01*
X567000Y121000D02*
X569000D01*
X568000Y120000D02*
Y122000D01*
X462750Y122000D02*
X464750D01*
X463750Y121000D02*
Y123000D01*
X478588Y138462D02*
X480588D01*
X479588Y137462D02*
Y139461D01*
X489000Y59000D02*
X491000D01*
X490000Y58000D02*
Y60000D01*
X411000Y71000D02*
X413000D01*
X412000Y70000D02*
Y72000D01*
X160215Y41785D02*
X162215D01*
X161215Y40785D02*
Y42785D01*
X348000Y196000D02*
X350000D01*
X349000Y195000D02*
Y197000D01*
X307000Y198000D02*
X309000D01*
X308000Y197000D02*
Y199000D01*
X285000Y258000D02*
X287000D01*
X286000Y257000D02*
Y259000D01*
X375000Y41000D02*
X377000D01*
X376000Y40000D02*
Y42000D01*
X93000Y252000D02*
X95000D01*
X94000Y251000D02*
Y253000D01*
X86000Y252000D02*
X88000D01*
X87000Y251000D02*
Y253000D01*
X114000Y244000D02*
X116000D01*
X115000Y243000D02*
Y245000D01*
X748000Y462000D02*
X750000D01*
X749000Y461000D02*
Y463000D01*
X734000Y437000D02*
X736000D01*
X735000Y436000D02*
Y438000D01*
X725000Y462000D02*
X727000D01*
X726000Y461000D02*
Y463000D01*
X708000Y552000D02*
X710000D01*
X709000Y551000D02*
Y553000D01*
X706000Y559000D02*
X708000D01*
X707000Y558000D02*
Y560000D01*
X176011Y383000D02*
X178011D01*
X177011Y382000D02*
Y384000D01*
X258000Y570000D02*
X260000D01*
X259000Y569000D02*
Y571000D01*
X83080Y394347D02*
X85080D01*
X84080Y393347D02*
Y395347D01*
X120000Y61000D02*
X122000D01*
X121000Y60000D02*
Y62000D01*
X113000Y61000D02*
X115000D01*
X114000Y60000D02*
Y62000D01*
X113000Y67000D02*
X115000D01*
X114000Y66000D02*
Y68000D01*
X202080Y254347D02*
X204080D01*
X203080Y253347D02*
Y255347D01*
X193000Y254000D02*
X195000D01*
X194000Y253000D02*
Y255000D01*
X202080Y261347D02*
X204080D01*
X203080Y260347D02*
Y262347D01*
X193080Y261347D02*
X195080D01*
X194080Y260347D02*
Y262347D01*
X277000Y441000D02*
X279000D01*
X278000Y440000D02*
Y442000D01*
X285000Y441000D02*
X287000D01*
X286000Y440000D02*
Y442000D01*
X269000Y441000D02*
X271000D01*
X270000Y440000D02*
Y442000D01*
X284000Y273000D02*
X286000D01*
X285000Y272000D02*
Y274000D01*
X276000Y273000D02*
X278000D01*
X277000Y272000D02*
Y274000D01*
X268000Y273000D02*
X270000D01*
X269000Y272000D02*
Y274000D01*
X260000Y273000D02*
X262000D01*
X261000Y272000D02*
Y274000D01*
X1159941Y382653D02*
X1161941D01*
X1160941Y381653D02*
Y383653D01*
X1165941Y382653D02*
X1167941D01*
X1166941Y381653D02*
Y383653D01*
X1143000Y595500D02*
X1145000D01*
X1144000Y594500D02*
Y596500D01*
X1167000Y572000D02*
X1169000D01*
X1168000Y571000D02*
Y573000D01*
X1161000Y572000D02*
X1163000D01*
X1162000Y571000D02*
Y573000D01*
X1166000Y352000D02*
X1168000D01*
X1167000Y351000D02*
Y353000D01*
X1166000Y343000D02*
X1168000D01*
X1167000Y342000D02*
Y344000D01*
X1168000Y366000D02*
X1170000D01*
X1169000Y365000D02*
Y367000D01*
X1146000D02*
X1148000D01*
X1147000Y366000D02*
Y368000D01*
X1155000Y343000D02*
X1157000D01*
X1156000Y342000D02*
Y344000D01*
X1155000Y352000D02*
X1157000D01*
X1156000Y351000D02*
Y353000D01*
X1154989Y438000D02*
X1156989D01*
X1155989Y437000D02*
Y439000D01*
X1163989Y438000D02*
X1165989D01*
X1164989Y437000D02*
Y439000D01*
X1154989Y447000D02*
X1156989D01*
X1155989Y446000D02*
Y448000D01*
X1163989Y447000D02*
X1165989D01*
X1164989Y446000D02*
Y448000D01*
X1156239Y532759D02*
X1158239D01*
X1157239Y531759D02*
Y533759D01*
X1165239Y532759D02*
X1167239D01*
X1166239Y531759D02*
Y533759D01*
X1156239Y541759D02*
X1158239D01*
X1157239Y540759D02*
Y542759D01*
X1165239Y541759D02*
X1167239D01*
X1166239Y540759D02*
Y542759D01*
X165069Y531347D02*
X167069D01*
X166069Y530347D02*
Y532347D01*
X174069Y531347D02*
X176069D01*
X175069Y530347D02*
Y532347D01*
X165069Y540347D02*
X167069D01*
X166069Y539347D02*
Y541347D01*
X174069Y540347D02*
X176069D01*
X175069Y539347D02*
Y541347D01*
X165069Y438347D02*
X167069D01*
X166069Y437347D02*
Y439347D01*
X174069Y438347D02*
X176069D01*
X175069Y437347D02*
Y439347D01*
X165069Y447347D02*
X167069D01*
X166069Y446347D02*
Y448347D01*
X174069Y447347D02*
X176069D01*
X175069Y446347D02*
Y448347D01*
X165069Y343347D02*
X167069D01*
X166069Y342347D02*
Y344347D01*
X174069Y343347D02*
X176069D01*
X175069Y342347D02*
Y344347D01*
X165069Y352347D02*
X167069D01*
X166069Y351347D02*
Y353347D01*
X174069Y352347D02*
X176069D01*
X175069Y351347D02*
Y353347D01*
X70069Y343347D02*
X72069D01*
X71069Y342347D02*
Y344347D01*
X79069Y343347D02*
X81069D01*
X80069Y342347D02*
Y344347D01*
X70069Y352347D02*
X72069D01*
X71069Y351347D02*
Y353347D01*
X79069Y352347D02*
X81069D01*
X80069Y351347D02*
Y353347D01*
X70069Y438347D02*
X72069D01*
X71069Y437347D02*
Y439347D01*
X79069Y438347D02*
X81069D01*
X80069Y437347D02*
Y439347D01*
X70069Y447347D02*
X72069D01*
X71069Y446347D02*
Y448347D01*
X79069Y447347D02*
X81069D01*
X80069Y446347D02*
Y448347D01*
X79000Y541000D02*
X81000D01*
X80000Y540000D02*
Y542000D01*
X70000Y541000D02*
X72000D01*
X71000Y540000D02*
Y542000D01*
X79000Y532000D02*
X81000D01*
X80000Y531000D02*
Y533000D01*
X70000Y532000D02*
X72000D01*
X71000Y531000D02*
Y533000D01*
X1158000Y44000D02*
X1160000D01*
X1159000Y43000D02*
Y45000D01*
X1036000Y57000D02*
X1038000D01*
X1037000Y56000D02*
Y58000D01*
X480000Y68000D02*
X482000D01*
X481000Y67000D02*
Y69000D01*
X484243Y72600D02*
X486243D01*
X485243Y71600D02*
Y73600D01*
X372000Y201000D02*
X374000D01*
X373000Y200000D02*
Y202000D01*
X412000Y299000D02*
X414000D01*
X413000Y298000D02*
Y300000D01*
X411000Y348000D02*
X413000D01*
X412000Y347000D02*
Y349000D01*
X457000Y343000D02*
X459000D01*
X458000Y342000D02*
Y344000D01*
X404000Y338000D02*
X406000D01*
X405000Y337000D02*
Y339000D01*
X416000Y329000D02*
X418000D01*
X417000Y328000D02*
Y330000D01*
X469500Y400679D02*
X471500D01*
X470500Y399679D02*
Y401679D01*
X415000Y505000D02*
X417000D01*
X416000Y504000D02*
Y506000D01*
X617000Y192000D02*
X619000D01*
X618000Y191000D02*
Y193000D01*
X821000Y304000D02*
X823000D01*
X822000Y303000D02*
Y305000D01*
X815000Y304000D02*
X817000D01*
X816000Y303000D02*
Y305000D01*
X994000Y537000D02*
X996000D01*
X995000Y536000D02*
Y538000D01*
X1112000Y507000D02*
X1114000D01*
X1113000Y506000D02*
Y508000D01*
X1083107Y321107D02*
X1085107D01*
X1084107Y320107D02*
Y322107D01*
X887000Y262000D02*
X889000D01*
X888000Y261000D02*
Y263000D01*
X1094000Y506000D02*
X1096000D01*
X1095000Y505000D02*
Y507000D01*
X1086000Y473000D02*
X1088000D01*
X1087000Y472000D02*
Y474000D01*
X1106000Y206000D02*
X1108000D01*
X1107000Y205000D02*
Y207000D01*
X1127000Y278000D02*
X1129000D01*
X1128000Y277000D02*
Y279000D01*
X1120000Y277000D02*
X1122000D01*
X1121000Y276000D02*
Y278000D01*
X1094000Y116000D02*
X1096000D01*
X1095000Y115000D02*
Y117000D01*
X1081000Y83000D02*
X1083000D01*
X1082000Y82000D02*
Y84000D01*
X1068000Y83000D02*
X1070000D01*
X1069000Y82000D02*
Y84000D01*
X1148784Y197534D02*
X1150784D01*
X1149784Y196534D02*
Y198534D01*
X1080000Y194000D02*
X1082000D01*
X1081000Y193000D02*
Y195000D01*
X1039000Y82000D02*
X1041000D01*
X1040000Y81000D02*
Y83000D01*
X1138000Y200000D02*
X1140000D01*
X1139000Y199000D02*
Y201000D01*
X1131000Y591000D02*
X1133000D01*
X1132000Y590000D02*
Y592000D01*
X1135000Y595500D02*
X1137000D01*
X1136000Y594500D02*
Y596500D01*
X1186000Y288000D02*
X1188000D01*
X1187000Y287000D02*
Y289000D01*
X395894Y467265D02*
X397894D01*
X396894Y466265D02*
Y468265D01*
X381000Y467879D02*
X383000D01*
X382000Y466879D02*
Y468879D01*
X594000Y593000D02*
X596000D01*
X595000Y592000D02*
Y594000D01*
X596000Y585000D02*
X598000D01*
X597000Y584000D02*
Y586000D01*
X584000Y575000D02*
X586000D01*
X585000Y574000D02*
Y576000D01*
X543000Y569000D02*
X545000D01*
X544000Y568000D02*
Y570000D01*
X575000Y595000D02*
X577000D01*
X576000Y594000D02*
Y596000D01*
X569000Y574000D02*
X571000D01*
X570000Y573000D02*
Y575000D01*
X576000Y580000D02*
X578000D01*
X577000Y579000D02*
Y581000D01*
X535000Y472000D02*
X537000D01*
X536000Y471000D02*
Y473000D01*
X549000Y552000D02*
X551000D01*
X550000Y551000D02*
Y553000D01*
X544000Y560000D02*
X546000D01*
X545000Y559000D02*
Y561000D01*
X540000Y427000D02*
X542000D01*
X541000Y426000D02*
Y428000D01*
X544500Y422000D02*
X546500D01*
X545500Y421000D02*
Y423000D01*
X586000Y519000D02*
X588000D01*
X587000Y518000D02*
Y520000D01*
X402000Y505000D02*
X404000D01*
X403000Y504000D02*
Y506000D01*
X386000Y586000D02*
X388000D01*
X387000Y585000D02*
Y587000D01*
X431000Y545000D02*
X433000D01*
X432000Y544000D02*
Y546000D01*
X422000Y536000D02*
X424000D01*
X423000Y535000D02*
Y537000D01*
X830000Y498000D02*
X832000D01*
X831000Y497000D02*
Y499000D01*
X832000Y463000D02*
X834000D01*
X833000Y462000D02*
Y464000D01*
Y472000D02*
X835000D01*
X834000Y471000D02*
Y473000D01*
X831000Y490000D02*
X833000D01*
X832000Y489000D02*
Y491000D01*
X836000Y276000D02*
X838000D01*
X837000Y275000D02*
Y277000D01*
X469000Y430000D02*
X471000D01*
X470000Y429000D02*
Y431000D01*
X468000Y437000D02*
X470000D01*
X469000Y436000D02*
Y438000D01*
X714000Y333000D02*
X716000D01*
X715000Y332000D02*
Y334000D01*
X707000D02*
X709000D01*
X708000Y333000D02*
Y335000D01*
X727000Y332000D02*
X729000D01*
X728000Y331000D02*
Y333000D01*
X577000Y357000D02*
X579000D01*
X578000Y356000D02*
Y358000D01*
X585000Y367000D02*
X587000D01*
X586000Y366000D02*
Y368000D01*
X1120000Y348000D02*
X1122000D01*
X1121000Y347000D02*
Y349000D01*
X1029000Y394000D02*
X1031000D01*
X1030000Y393000D02*
Y395000D01*
X1092000Y316000D02*
X1094000D01*
X1093000Y315000D02*
Y317000D01*
X968500Y368000D02*
X970500D01*
X969500Y367000D02*
Y369000D01*
X968500Y380500D02*
X970500D01*
X969500Y379500D02*
Y381500D01*
X968500Y389724D02*
X970500D01*
X969500Y388724D02*
Y390724D01*
X969000Y395000D02*
X971000D01*
X970000Y394000D02*
Y396000D01*
X897000Y379000D02*
X899000D01*
X898000Y378000D02*
Y380000D01*
X1039000Y281000D02*
X1041000D01*
X1040000Y280000D02*
Y282000D01*
X1139000Y283000D02*
X1141000D01*
X1140000Y282000D02*
Y284000D01*
X529000Y158000D02*
X531000D01*
X530000Y157000D02*
Y159000D01*
X518000Y173000D02*
X520000D01*
X519000Y172000D02*
Y174000D01*
X546000Y175000D02*
X548000D01*
X547000Y174000D02*
Y176000D01*
X281000Y66000D02*
X283000D01*
X282000Y65000D02*
Y67000D01*
X289000Y66000D02*
X291000D01*
X290000Y65000D02*
Y67000D01*
X291000Y48000D02*
X293000D01*
X292000Y47000D02*
Y49000D01*
X273000Y64000D02*
X275000D01*
X274000Y63000D02*
Y65000D01*
X444000Y120000D02*
X446000D01*
X445000Y119000D02*
Y121000D01*
Y131000D02*
X447000D01*
X446000Y130000D02*
Y132000D01*
X451000Y71000D02*
X453000D01*
X452000Y70000D02*
Y72000D01*
X484000Y96000D02*
X486000D01*
X485000Y95000D02*
Y97000D01*
X391000Y65000D02*
X393000D01*
X392000Y64000D02*
Y66000D01*
X388000Y59000D02*
X390000D01*
X389000Y58000D02*
Y60000D01*
X428359Y71600D02*
X430359D01*
X429359Y70600D02*
Y72600D01*
X425000Y76000D02*
X427000D01*
X426000Y75000D02*
Y77000D01*
X443000Y81000D02*
X445000D01*
X444000Y80000D02*
Y82000D01*
X456000Y130000D02*
X458000D01*
X457000Y129000D02*
Y131000D01*
X621000Y260000D02*
X623000D01*
X622000Y259000D02*
Y261000D01*
X703000Y211000D02*
X705000D01*
X704000Y210000D02*
Y212000D01*
X666865Y116000D02*
X668865D01*
X667865Y115000D02*
Y117000D01*
X634000Y73000D02*
X636000D01*
X635000Y72000D02*
Y74000D01*
X247000Y71000D02*
X249000D01*
X248000Y70000D02*
Y72000D01*
X638000Y104000D02*
X640000D01*
X639000Y103000D02*
Y105000D01*
X668000Y133000D02*
X670000D01*
X669000Y132000D02*
Y134000D01*
X674000Y133000D02*
X676000D01*
X675000Y132000D02*
Y134000D01*
X804000Y220000D02*
X806000D01*
X805000Y219000D02*
Y221000D01*
X834000Y239000D02*
X836000D01*
X835000Y238000D02*
Y240000D01*
X769000Y224000D02*
X771000D01*
X770000Y223000D02*
Y225000D01*
X785000Y224000D02*
X787000D01*
X786000Y223000D02*
Y225000D01*
X778000Y224000D02*
X780000D01*
X779000Y223000D02*
Y225000D01*
X845000Y224000D02*
X847000D01*
X846000Y223000D02*
Y225000D01*
X1008000Y120000D02*
X1010000D01*
X1009000Y119000D02*
Y121000D01*
X1115000Y219000D02*
X1117000D01*
X1116000Y218000D02*
Y220000D01*
X1011012Y215975D02*
X1013012D01*
X1012012Y214975D02*
Y216975D01*
X924000Y141000D02*
X926000D01*
X925000Y140000D02*
Y142000D01*
X960000Y225000D02*
X962000D01*
X961000Y224000D02*
Y226000D01*
X966000Y227000D02*
X968000D01*
X967000Y226000D02*
Y228000D01*
X954000Y227000D02*
X956000D01*
X955000Y226000D02*
Y228000D01*
X875000Y144000D02*
X877000D01*
X876000Y143000D02*
Y145000D01*
X932000Y140000D02*
X934000D01*
X933000Y139000D02*
Y141000D01*
X884000Y144000D02*
X886000D01*
X885000Y143000D02*
Y145000D01*
X858000Y59000D02*
X860000D01*
X859000Y58000D02*
Y60000D01*
X744042Y349000D02*
X746041D01*
X745042Y348000D02*
Y350000D01*
X728000Y357000D02*
X730000D01*
X729000Y356000D02*
Y358000D01*
X732000Y362000D02*
X734000D01*
X733000Y361000D02*
Y363000D01*
X646000Y330000D02*
X648000D01*
X647000Y329000D02*
Y331000D01*
X649829Y322535D02*
X651829D01*
X650829Y321535D02*
Y323535D01*
X825000Y363000D02*
X827000D01*
X826000Y362000D02*
Y364000D01*
X667000Y204000D02*
X669000D01*
X668000Y203000D02*
Y205000D01*
X713000Y208000D02*
X715000D01*
X714000Y207000D02*
Y209000D01*
X857000Y412000D02*
X859000D01*
X858000Y411000D02*
Y413000D01*
X872000Y360000D02*
X874000D01*
X873000Y359000D02*
Y361000D01*
X830000Y383000D02*
X832000D01*
X831000Y382000D02*
Y384000D01*
X887997Y456039D02*
X889997D01*
X888997Y455039D02*
Y457039D01*
X813000Y357000D02*
X815000D01*
X814000Y356000D02*
Y358000D01*
X628000Y287000D02*
X630000D01*
X629000Y286000D02*
Y288000D01*
X973000Y385000D02*
X975000D01*
X974000Y384000D02*
Y386000D01*
X973000Y360000D02*
X975000D01*
X974000Y359000D02*
Y361000D01*
X973000Y348000D02*
X975000D01*
X974000Y347000D02*
Y349000D01*
X973000Y373000D02*
X975000D01*
X974000Y372000D02*
Y374000D01*
X611000Y140000D02*
X613000D01*
X612000Y139000D02*
Y141000D01*
X621000Y54000D02*
X623000D01*
X622000Y53000D02*
Y55000D01*
X613000Y80000D02*
X615000D01*
X614000Y79000D02*
Y81000D01*
X600000Y83000D02*
X602000D01*
X601000Y82000D02*
Y84000D01*
Y92000D02*
X603000D01*
X602000Y91000D02*
Y93000D01*
X1068000Y169000D02*
X1070000D01*
X1069000Y168000D02*
Y170000D01*
X981000Y195000D02*
X983000D01*
X982000Y194000D02*
Y196000D01*
X811000Y221000D02*
X813000D01*
X812000Y220000D02*
Y222000D01*
X911000Y215500D02*
X913000D01*
X912000Y214500D02*
Y216500D01*
X482115Y184750D02*
X484115D01*
X483115Y183750D02*
Y185750D01*
X591250Y447750D02*
X593250D01*
X592250Y446750D02*
Y448750D01*
X602360Y406000D02*
X604360D01*
X603360Y405000D02*
Y407000D01*
X700750Y436250D02*
X702750D01*
X701750Y435250D02*
Y437250D01*
X781000Y463000D02*
X783000D01*
X782000Y462000D02*
Y464000D01*
X874000Y437000D02*
X876000D01*
X875000Y436000D02*
Y438000D01*
X992000Y343000D02*
X994000D01*
X993000Y342000D02*
Y344000D01*
X1020000Y424000D02*
X1022000D01*
X1021000Y423000D02*
Y425000D01*
X1027000Y388000D02*
X1029000D01*
X1028000Y387000D02*
Y389000D01*
X695000Y380000D02*
X697000D01*
X696000Y379000D02*
Y381000D01*
X1053000Y424000D02*
X1055000D01*
X1054000Y423000D02*
Y425000D01*
X468000Y408000D02*
X470000D01*
X469000Y407000D02*
Y409000D01*
X1298000Y513000D02*
X1300000D01*
X1299000Y512000D02*
Y514000D01*
X1230000Y189000D02*
X1232000D01*
X1231000Y188000D02*
Y190000D01*
X798000Y305000D02*
X800000D01*
X799000Y304000D02*
Y306000D01*
X740000D02*
X742000D01*
X741000Y305000D02*
Y307000D01*
X662000Y541000D02*
X664000D01*
X663000Y540000D02*
Y542000D01*
X647000D02*
X649000D01*
X648000Y541000D02*
Y543000D01*
X687000Y542000D02*
X689000D01*
X688000Y541000D02*
Y543000D01*
X751000Y542000D02*
X753000D01*
X752000Y541000D02*
Y543000D01*
X783000Y542000D02*
X785000D01*
X784000Y541000D02*
Y543000D01*
X720000Y548000D02*
X722000D01*
X721000Y547000D02*
Y549000D01*
X178080Y299347D02*
X180080D01*
X179080Y298347D02*
Y300347D01*
X187080Y394347D02*
X189080D01*
X188080Y393347D02*
Y395347D01*
X187080Y487347D02*
X189080D01*
X188080Y486347D02*
Y488347D01*
X767460Y306700D02*
X769460D01*
X768460Y305700D02*
Y307700D01*
X715460Y306700D02*
X717460D01*
X716460Y305700D02*
Y307700D01*
X683460Y306700D02*
X685460D01*
X684460Y305700D02*
Y307700D01*
X651460Y306700D02*
X653460D01*
X652460Y305700D02*
Y307700D01*
X69011Y478000D02*
X71011D01*
X70011Y477000D02*
Y479000D01*
X75011Y478000D02*
X77011D01*
X76011Y477000D02*
Y479000D01*
X81011Y478000D02*
X83011D01*
X82011Y477000D02*
Y479000D01*
X81173Y470000D02*
X83173D01*
X82173Y469000D02*
Y471000D01*
X137000Y401000D02*
X139000D01*
X138000Y400000D02*
Y402000D01*
X137000Y407000D02*
X139000D01*
X138000Y406000D02*
Y408000D01*
X143000Y407000D02*
X145000D01*
X144000Y406000D02*
Y408000D01*
X143000Y401000D02*
X145000D01*
X144000Y400000D02*
Y402000D01*
X149000Y401000D02*
X151000D01*
X150000Y400000D02*
Y402000D01*
X149000Y407000D02*
X151000D01*
X150000Y406000D02*
Y408000D01*
X857000Y235000D02*
X859000D01*
X858000Y234000D02*
Y236000D01*
X862000Y225000D02*
X864000D01*
X863000Y224000D02*
Y226000D01*
X852000Y226203D02*
X854000D01*
X853000Y225203D02*
Y227203D01*
X843000Y242000D02*
X845000D01*
X844000Y241000D02*
Y243000D01*
X761000Y77000D02*
X763000D01*
X762000Y76000D02*
Y78000D01*
X729000Y56000D02*
X731000D01*
X730000Y55000D02*
Y57000D01*
X731000Y87000D02*
X733000D01*
X732000Y86000D02*
Y88000D01*
X768000Y86000D02*
X770000D01*
X769000Y85000D02*
Y87000D01*
X774596Y78000D02*
X776596D01*
X775596Y77000D02*
Y79000D01*
X1055250Y318000D02*
X1057250D01*
X1056250Y317000D02*
Y319000D01*
X1117000Y288000D02*
X1119000D01*
X1118000Y287000D02*
Y289000D01*
X1068000Y315000D02*
X1070000D01*
X1069000Y314000D02*
Y316000D01*
X1076000Y315000D02*
X1078000D01*
X1077000Y314000D02*
Y316000D01*
X1088029Y156595D02*
X1090029D01*
X1089029Y155595D02*
Y157595D01*
X836000Y204000D02*
X838000D01*
X837000Y203000D02*
Y205000D01*
X818000Y224000D02*
X820000D01*
X819000Y223000D02*
Y225000D01*
X198000Y51000D02*
X200000D01*
X199000Y50000D02*
Y52000D01*
X107000Y53000D02*
X109000D01*
X108000Y52000D02*
Y54000D01*
X117000Y35000D02*
X119000D01*
X118000Y34000D02*
Y36000D01*
X198000Y39000D02*
X200000D01*
X199000Y38000D02*
Y40000D01*
X629000Y61000D02*
X631000D01*
X630000Y60000D02*
Y62000D01*
X718000Y317000D02*
X720000D01*
X719000Y316000D02*
Y318000D01*
X172000Y37000D02*
X174000D01*
X173000Y36000D02*
Y38000D01*
X690000Y322000D02*
X692000D01*
X691000Y321000D02*
Y323000D01*
X1080000Y424000D02*
X1082000D01*
X1081000Y423000D02*
Y425000D01*
X737000Y330000D02*
X739000D01*
X738000Y329000D02*
Y331000D01*
X468000Y444000D02*
X470000D01*
X469000Y443000D02*
Y445000D01*
X1089000Y424000D02*
X1091000D01*
X1090000Y423000D02*
Y425000D01*
X890000Y249000D02*
X892000D01*
X891000Y248000D02*
Y250000D01*
X743000Y326000D02*
X745000D01*
X744000Y325000D02*
Y327000D01*
X1071000Y424000D02*
X1073000D01*
X1072000Y423000D02*
Y425000D01*
X883000Y247000D02*
X885000D01*
X884000Y246000D02*
Y248000D01*
X921000Y215000D02*
X923000D01*
X922000Y214000D02*
Y216000D01*
X902000Y102000D02*
X904000D01*
X903000Y101000D02*
Y103000D01*
X1025000Y334000D02*
X1027000D01*
X1026000Y333000D02*
Y335000D01*
X1025500Y360810D02*
X1027500D01*
X1026500Y359810D02*
Y361810D01*
X837000Y101050D02*
X839000D01*
X838000Y100050D02*
Y102050D01*
X1026000Y343000D02*
X1028000D01*
X1027000Y342000D02*
Y344000D01*
X1050250Y314000D02*
X1052250D01*
X1051250Y313000D02*
Y315000D01*
X848000Y214000D02*
X850000D01*
X849000Y213000D02*
Y215000D01*
X979000Y312000D02*
X981000D01*
X980000Y311000D02*
Y313000D01*
X913000Y94000D02*
X915000D01*
X914000Y93000D02*
Y95000D01*
X1061000Y313000D02*
X1063000D01*
X1062000Y312000D02*
Y314000D01*
X1026000Y351500D02*
X1028000D01*
X1027000Y350500D02*
Y352500D01*
X545000Y284000D02*
X547000D01*
X546000Y283000D02*
Y285000D01*
X785000Y494000D02*
X787000D01*
X786000Y493000D02*
Y495000D01*
X785000Y317000D02*
X787000D01*
X786000Y316000D02*
Y318000D01*
X779000Y317000D02*
X781000D01*
X780000Y316000D02*
Y318000D01*
X773000Y317000D02*
X775000D01*
X774000Y316000D02*
Y318000D01*
X766000Y317000D02*
X768000D01*
X767000Y316000D02*
Y318000D01*
X868000Y214000D02*
X870000D01*
X869000Y213000D02*
Y215000D01*
X867000Y60000D02*
X869000D01*
X868000Y59000D02*
Y61000D01*
X933000Y215000D02*
X935000D01*
X934000Y214000D02*
Y216000D01*
X927000Y60000D02*
X929000D01*
X928000Y59000D02*
Y61000D01*
X523000Y102000D02*
X525000D01*
X524000Y101000D02*
Y103000D01*
X712000Y137000D02*
X714000D01*
X713000Y136000D02*
Y138000D01*
X709000Y153000D02*
X711000D01*
X710000Y152000D02*
Y154000D01*
X731000Y466000D02*
X733000D01*
X732000Y465000D02*
Y467000D01*
X342000Y75000D02*
X344000D01*
X343000Y74000D02*
Y76000D01*
X346243Y70757D02*
X348243D01*
X347243Y69757D02*
Y71757D01*
X316000Y67000D02*
X318000D01*
X317000Y66000D02*
Y68000D01*
X164011Y478000D02*
X166011D01*
X165011Y477000D02*
Y479000D01*
X170011Y478000D02*
X172011D01*
X171011Y477000D02*
Y479000D01*
X176011Y478000D02*
X178011D01*
X177011Y477000D02*
Y479000D01*
X176173Y470000D02*
X178173D01*
X177173Y469000D02*
Y471000D01*
X232000Y401000D02*
X234000D01*
X233000Y400000D02*
Y402000D01*
X232000Y407000D02*
X234000D01*
X233000Y406000D02*
Y408000D01*
X238000Y407000D02*
X240000D01*
X239000Y406000D02*
Y408000D01*
X238000Y401000D02*
X240000D01*
X239000Y400000D02*
Y402000D01*
X244000Y401000D02*
X246000D01*
X245000Y400000D02*
Y402000D01*
X244000Y407000D02*
X246000D01*
X245000Y406000D02*
Y408000D01*
X81173Y375000D02*
X83173D01*
X82173Y374000D02*
Y376000D01*
X137000Y306000D02*
X139000D01*
X138000Y305000D02*
Y307000D01*
X137000Y312000D02*
X139000D01*
X138000Y311000D02*
Y313000D01*
X143000Y312000D02*
X145000D01*
X144000Y311000D02*
Y313000D01*
X143000Y306000D02*
X145000D01*
X144000Y305000D02*
Y307000D01*
X149000Y306000D02*
X151000D01*
X150000Y305000D02*
Y307000D01*
X149000Y312000D02*
X151000D01*
X150000Y311000D02*
Y313000D01*
X69011Y383000D02*
X71011D01*
X70011Y382000D02*
Y384000D01*
X75011Y383000D02*
X77011D01*
X76011Y382000D02*
Y384000D01*
X81011Y383000D02*
X83011D01*
X82011Y382000D02*
Y384000D01*
X100000Y151000D02*
X102000D01*
X101000Y150000D02*
Y152000D01*
X97000Y101000D02*
X99000D01*
X98000Y100000D02*
Y102000D01*
X210000Y188000D02*
X212000D01*
X211000Y187000D02*
Y189000D01*
X194931Y366069D02*
X196931D01*
X195931Y365069D02*
Y367069D01*
X361625Y385000D02*
X363625D01*
X362625Y384000D02*
Y386000D01*
X379000Y390000D02*
X381000D01*
X380000Y389000D02*
Y391000D01*
X99931Y366069D02*
X101931D01*
X100931Y365069D02*
Y367069D01*
X99931Y461069D02*
X101931D01*
X100931Y460069D02*
Y462069D01*
X352000Y386000D02*
X354000D01*
X353000Y385000D02*
Y387000D01*
X374000Y400000D02*
X376000D01*
X375000Y399000D02*
Y401000D01*
X100000Y554000D02*
X102000D01*
X101000Y553000D02*
Y555000D01*
X69011Y572000D02*
X71011D01*
X70011Y571000D02*
Y573000D01*
X75011Y572000D02*
X77011D01*
X76011Y571000D02*
Y573000D01*
X81011Y572000D02*
X83011D01*
X82011Y571000D02*
Y573000D01*
X81173Y564000D02*
X83173D01*
X82173Y563000D02*
Y565000D01*
X143000Y501000D02*
X145000D01*
X144000Y500000D02*
Y502000D01*
X143000Y495000D02*
X145000D01*
X144000Y494000D02*
Y496000D01*
X149000Y495000D02*
X151000D01*
X150000Y494000D02*
Y496000D01*
X149000Y501000D02*
X151000D01*
X150000Y500000D02*
Y502000D01*
X306500Y323000D02*
X308500D01*
X307500Y322000D02*
Y324000D01*
X306500Y329000D02*
X308500D01*
X307500Y328000D02*
Y330000D01*
X311500Y329000D02*
X313500D01*
X312500Y328000D02*
Y330000D01*
X311500Y323000D02*
X313500D01*
X312500Y322000D02*
Y324000D01*
X308000Y498000D02*
X310000D01*
X309000Y497000D02*
Y499000D01*
X308000Y492000D02*
X310000D01*
X309000Y491000D02*
Y493000D01*
X313000Y498000D02*
X315000D01*
X314000Y497000D02*
Y499000D01*
X313000Y492000D02*
X315000D01*
X314000Y491000D02*
Y493000D01*
X411000Y357000D02*
X413000D01*
X412000Y356000D02*
Y358000D01*
X403000Y352000D02*
X405000D01*
X404000Y351000D02*
Y353000D01*
X322500Y340000D02*
X324500D01*
X323500Y339000D02*
Y341000D01*
X334500Y340000D02*
X336500D01*
X335500Y339000D02*
Y341000D01*
X334500Y348000D02*
X336500D01*
X335500Y347000D02*
Y349000D01*
X334500Y356000D02*
X336500D01*
X335500Y355000D02*
Y357000D01*
X324000Y509000D02*
X326000D01*
X325000Y508000D02*
Y510000D01*
X336000Y509000D02*
X338000D01*
X337000Y508000D02*
Y510000D01*
X336000Y525000D02*
X338000D01*
X337000Y524000D02*
Y526000D01*
X336000Y517000D02*
X338000D01*
X337000Y516000D02*
Y518000D01*
X379000Y558000D02*
X381000D01*
X380000Y557000D02*
Y559000D01*
X434000Y556000D02*
X436000D01*
X435000Y555000D02*
Y557000D01*
X383000Y522000D02*
X385000D01*
X384000Y521000D02*
Y523000D01*
X435000Y522000D02*
X437000D01*
X436000Y521000D02*
Y523000D01*
X551000Y200000D02*
X553000D01*
X552000Y199000D02*
Y201000D01*
X544000Y197000D02*
X546000D01*
X545000Y196000D02*
Y198000D01*
X85069Y325347D02*
X87069D01*
X86069Y324347D02*
Y326347D01*
X108000Y316000D02*
X110000D01*
X109000Y315000D02*
Y317000D01*
X180069Y325347D02*
X182069D01*
X181069Y324347D02*
Y326347D01*
X203000Y316000D02*
X205000D01*
X204000Y315000D02*
Y317000D01*
X85069Y420347D02*
X87069D01*
X86069Y419347D02*
Y421347D01*
X108000Y411000D02*
X110000D01*
X109000Y410000D02*
Y412000D01*
X145750Y261500D02*
X147750D01*
X146750Y260500D02*
Y262500D01*
X739000Y474000D02*
X741000D01*
X740000Y473000D02*
Y475000D01*
X202000Y216000D02*
X204000D01*
X203000Y215000D02*
Y217000D01*
X202000Y159000D02*
X204000D01*
X203000Y158000D02*
Y160000D01*
Y195000D02*
X205000D01*
X204000Y194000D02*
Y196000D01*
X202000Y132000D02*
X204000D01*
X203000Y131000D02*
Y133000D01*
X195000Y202000D02*
X197000D01*
X196000Y201000D02*
Y203000D01*
X210000Y201000D02*
X212000D01*
X211000Y200000D02*
Y202000D01*
X202000Y168000D02*
X204000D01*
X203000Y167000D02*
Y169000D01*
X202000Y123000D02*
X204000D01*
X203000Y122000D02*
Y124000D01*
X202000Y96000D02*
X204000D01*
X203000Y95000D02*
Y97000D01*
X202000Y208000D02*
X204000D01*
X203000Y207000D02*
Y209000D01*
X127000Y101000D02*
X129000D01*
X128000Y100000D02*
Y102000D01*
X617000Y438000D02*
X619000D01*
X618000Y437000D02*
Y439000D01*
X721250Y435500D02*
X723250D01*
X722250Y434500D02*
Y436500D01*
X396000Y87000D02*
X398000D01*
X397000Y86000D02*
Y88000D01*
X399000Y177000D02*
X401000D01*
X400000Y176000D02*
Y178000D01*
X378000Y146000D02*
X380000D01*
X379000Y145000D02*
Y147000D01*
X346000Y123000D02*
X348000D01*
X347000Y122000D02*
Y124000D01*
X238000Y101000D02*
X240000D01*
X239000Y100000D02*
Y102000D01*
X307000Y123000D02*
X309000D01*
X308000Y122000D02*
Y124000D01*
X164011Y570999D02*
X166011D01*
X165011Y569999D02*
Y571999D01*
X170011Y570999D02*
X172011D01*
X171011Y569999D02*
Y571999D01*
X176011Y570999D02*
X178011D01*
X177011Y569999D02*
Y571999D01*
X176173Y562999D02*
X178173D01*
X177173Y561999D02*
Y563999D01*
X232000Y500000D02*
X234000D01*
X233000Y499000D02*
Y501000D01*
X232000Y494000D02*
X234000D01*
X233000Y493000D02*
Y495000D01*
X238000Y494000D02*
X240000D01*
X239000Y493000D02*
Y495000D01*
X238000Y500000D02*
X240000D01*
X239000Y499000D02*
Y501000D01*
X244000Y494000D02*
X246000D01*
X245000Y493000D02*
Y495000D01*
X244000Y500000D02*
X246000D01*
X245000Y499000D02*
Y501000D01*
X180069Y513348D02*
X182069D01*
X181069Y512347D02*
Y514347D01*
X203000Y504000D02*
X205000D01*
X204000Y503000D02*
Y505000D01*
X1076000Y473000D02*
X1078000D01*
X1077000Y472000D02*
Y474000D01*
X451000Y253000D02*
X453000D01*
X452000Y252000D02*
Y254000D01*
X656000Y206000D02*
X658000D01*
X657000Y205000D02*
Y207000D01*
X461000Y253000D02*
X463000D01*
X462000Y252000D02*
Y254000D01*
X658000Y212000D02*
X660000D01*
X659000Y211000D02*
Y213000D01*
X389000Y390000D02*
X391000D01*
X390000Y389000D02*
Y391000D01*
X194931Y554069D02*
X196931D01*
X195931Y553069D02*
Y555069D01*
X369000Y390000D02*
X371000D01*
X370000Y389000D02*
Y391000D01*
X194931Y461069D02*
X196931D01*
X195931Y460069D02*
Y462069D01*
X180069Y420347D02*
X182069D01*
X181069Y419347D02*
Y421347D01*
X203000Y411000D02*
X205000D01*
X204000Y410000D02*
Y412000D01*
X154750Y261500D02*
X156750D01*
X155750Y260500D02*
Y262500D01*
X232000Y312000D02*
X234000D01*
X233000Y311000D02*
Y313000D01*
X232000Y306000D02*
X234000D01*
X233000Y305000D02*
Y307000D01*
X238000Y306000D02*
X240000D01*
X239000Y305000D02*
Y307000D01*
X238000Y312000D02*
X240000D01*
X239000Y311000D02*
Y313000D01*
X164011Y383000D02*
X166011D01*
X165011Y382000D02*
Y384000D01*
X170011Y383000D02*
X172011D01*
X171011Y382000D02*
Y384000D01*
X176173Y375000D02*
X178173D01*
X177173Y374000D02*
Y376000D01*
X244000Y306000D02*
X246000D01*
X245000Y305000D02*
Y307000D01*
X244000Y312000D02*
X246000D01*
X245000Y311000D02*
Y313000D01*
X791000Y349000D02*
X793000D01*
X792000Y348000D02*
Y350000D01*
X1106000Y331000D02*
X1108000D01*
X1107000Y330000D02*
Y332000D01*
X1095750Y386300D02*
X1097750D01*
X1096750Y385300D02*
Y387300D01*
X757000Y404000D02*
X759000D01*
X758000Y403000D02*
Y405000D01*
X1264000Y385000D02*
X1266000D01*
X1265000Y384000D02*
Y386000D01*
X751000Y381000D02*
X753000D01*
X752000Y380000D02*
Y382000D01*
X1255000Y352000D02*
X1257000D01*
X1256000Y351000D02*
Y353000D01*
X834000Y409000D02*
X836000D01*
X835000Y408000D02*
Y410000D01*
X1263000Y399000D02*
X1265000D01*
X1264000Y398000D02*
Y400000D01*
X719750Y424750D02*
X721750D01*
X720750Y423750D02*
Y425750D01*
X1243000Y420000D02*
X1245000D01*
X1244000Y419000D02*
Y421000D01*
X178080Y487347D02*
X180080D01*
X179080Y486347D02*
Y488347D01*
X655000Y226000D02*
X657000D01*
X656000Y225000D02*
Y227000D01*
X539000Y278000D02*
X541000D01*
X540000Y277000D02*
Y279000D01*
X187080Y299347D02*
X189080D01*
X188080Y298347D02*
Y300347D01*
X92080Y394347D02*
X94080D01*
X93080Y393347D02*
Y395347D01*
X178080Y394347D02*
X180080D01*
X179080Y393347D02*
Y395347D01*
X708000Y540000D02*
X710000D01*
X709000Y539000D02*
Y541000D01*
X603000Y41000D02*
X605000D01*
X604000Y40000D02*
Y42000D01*
X581000Y56000D02*
X583000D01*
X582000Y55000D02*
Y57000D01*
X403000Y151100D02*
X405000D01*
X404000Y150100D02*
Y152100D01*
X403000Y157100D02*
X405000D01*
X404000Y156100D02*
Y158100D01*
X401900Y104000D02*
X403900D01*
X402900Y103000D02*
Y105000D01*
X407900Y104000D02*
X409900D01*
X408900Y103000D02*
Y105000D01*
X289000Y95000D02*
X291000D01*
X290000Y94000D02*
Y96000D01*
X283000Y95000D02*
X285000D01*
X284000Y94000D02*
Y96000D01*
X238000Y190000D02*
X240000D01*
X239000Y189000D02*
Y191000D01*
X237000Y159000D02*
X239000D01*
X238000Y158000D02*
Y160000D01*
X797000Y541000D02*
X799000D01*
X798000Y540000D02*
Y542000D01*
X1259000Y454000D02*
X1261000D01*
X1260000Y453000D02*
Y455000D01*
X1275000Y193000D02*
X1277000D01*
X1276000Y192000D02*
Y194000D01*
X1260000Y175000D02*
X1262000D01*
X1261000Y174000D02*
Y176000D01*
X1259000Y157000D02*
X1261000D01*
X1260000Y156000D02*
Y158000D01*
X1175000Y210000D02*
X1177000D01*
X1176000Y209000D02*
Y211000D01*
X1173000Y198000D02*
X1175000D01*
X1174000Y197000D02*
Y199000D01*
X1173000Y190000D02*
X1175000D01*
X1174000Y189000D02*
Y191000D01*
X1173000Y178000D02*
X1175000D01*
X1174000Y177000D02*
Y179000D01*
X1173000Y165000D02*
X1175000D01*
X1174000Y164000D02*
Y166000D01*
X1172000Y152000D02*
X1174000D01*
X1173000Y151000D02*
Y153000D01*
X1172000Y140000D02*
X1174000D01*
X1173000Y139000D02*
Y141000D01*
X1232000Y227000D02*
X1234000D01*
X1233000Y226000D02*
Y228000D01*
X1232000Y216250D02*
X1234000D01*
X1233000Y215250D02*
Y217250D01*
X1232000Y207000D02*
X1234000D01*
X1233000Y206000D02*
Y208000D01*
X1231000Y200000D02*
X1233000D01*
X1232000Y199000D02*
Y201000D01*
X1231000Y177000D02*
X1233000D01*
X1232000Y176000D02*
Y178000D01*
Y167000D02*
X1234000D01*
X1233000Y166000D02*
Y168000D01*
X1231000Y143000D02*
X1233000D01*
X1232000Y142000D02*
Y144000D01*
X99000Y118000D02*
X101000D01*
X100000Y117000D02*
Y119000D01*
X99000Y129000D02*
X101000D01*
X100000Y128000D02*
Y130000D01*
X99000Y140000D02*
X101000D01*
X100000Y139000D02*
Y141000D01*
X99000Y163000D02*
X101000D01*
X100000Y162000D02*
Y164000D01*
X99000Y184000D02*
X101000D01*
X100000Y183000D02*
Y185000D01*
X99000Y195000D02*
X101000D01*
X100000Y194000D02*
Y196000D01*
X605000Y67000D02*
X607000D01*
X606000Y66000D02*
Y68000D01*
X155000Y80000D02*
X157000D01*
X156000Y79000D02*
Y81000D01*
X713500Y423500D02*
X715500D01*
X714500Y422500D02*
Y424500D01*
X707663Y421912D02*
X709662D01*
X708662Y420913D02*
Y422912D01*
X1244000Y391000D02*
X1246000D01*
X1245000Y390000D02*
Y392000D01*
X1194000Y224000D02*
X1196000D01*
X1195000Y223000D02*
Y225000D01*
X616000Y216000D02*
X618000D01*
X617000Y215000D02*
Y217000D01*
X136750Y238500D02*
X138750D01*
X137750Y237500D02*
Y239500D01*
X145750Y238696D02*
X147750D01*
X146750Y237696D02*
Y239696D01*
X621540Y217460D02*
X623540D01*
X622541Y216460D02*
Y218459D01*
X717000Y323000D02*
X719000D01*
X718000Y322000D02*
Y324000D01*
X1260000Y220000D02*
X1262000D01*
X1261000Y219000D02*
Y221000D01*
X1263000Y333000D02*
X1265000D01*
X1264000Y332000D02*
Y334000D01*
X720000Y311000D02*
X722000D01*
X721000Y310000D02*
Y312000D01*
X1274000Y298000D02*
X1276000D01*
X1275000Y297000D02*
Y299000D01*
X1021000Y487000D02*
X1023000D01*
X1022000Y486000D02*
Y488000D01*
X993000Y330000D02*
X995000D01*
X994000Y329000D02*
Y331000D01*
X718000Y329000D02*
X720000D01*
X719000Y328000D02*
Y330000D01*
X1002000Y344000D02*
X1004000D01*
X1003000Y343000D02*
Y345000D01*
X1025000Y481000D02*
X1027000D01*
X1026000Y480000D02*
Y482000D01*
X1259000Y211000D02*
X1261000D01*
X1260000Y210000D02*
Y212000D01*
X1261000Y347000D02*
X1263000D01*
X1262000Y346000D02*
Y348000D01*
X645000Y308000D02*
X647000D01*
X646000Y307000D02*
Y309000D01*
X807003Y340998D02*
X809003D01*
X808003Y339998D02*
Y341998D01*
X270000Y71000D02*
X272000D01*
X271000Y70000D02*
Y72000D01*
X270000Y77000D02*
X272000D01*
X271000Y76000D02*
Y78000D01*
X656000Y325000D02*
X658000D01*
X657000Y324000D02*
Y326000D01*
X355000Y278000D02*
X357000D01*
X356000Y277000D02*
Y279000D01*
X656000Y220000D02*
X658000D01*
X657000Y219000D02*
Y221000D01*
X589000Y225000D02*
X591000D01*
X590000Y224000D02*
Y226000D01*
X154750Y238500D02*
X156750D01*
X155750Y237500D02*
Y239500D01*
X1008000Y505000D02*
X1010000D01*
X1009000Y504000D02*
Y506000D01*
X1021000Y475000D02*
X1023000D01*
X1022000Y474000D02*
Y476000D01*
X887000Y400000D02*
X889000D01*
X888000Y399000D02*
Y401000D01*
X907000Y445000D02*
X909000D01*
X908000Y444000D02*
Y446000D01*
X903180Y440240D02*
X905180D01*
X904180Y439240D02*
Y441240D01*
X882000Y405000D02*
X884000D01*
X883000Y404000D02*
Y406000D01*
X877000Y409000D02*
X879000D01*
X878000Y408000D02*
Y410000D01*
X687000Y550000D02*
X689000D01*
X688000Y549000D02*
Y551000D01*
X1100000Y583000D02*
X1102000D01*
X1101000Y582000D02*
Y584000D01*
X687000Y559000D02*
X689000D01*
X688000Y558000D02*
Y560000D01*
X1092000Y582000D02*
X1094000D01*
X1093000Y581000D02*
Y583000D01*
X693000Y562000D02*
X695000D01*
X694000Y561000D02*
Y563000D01*
X1093000Y558000D02*
X1095000D01*
X1094000Y557000D02*
Y559000D01*
X726000Y556000D02*
X728000D01*
X727000Y555000D02*
Y557000D01*
X1075000Y575000D02*
X1077000D01*
X1076000Y574000D02*
Y576000D01*
X909000Y400000D02*
X911000D01*
X910000Y399000D02*
Y401000D01*
X900000Y436000D02*
X902000D01*
X901000Y435000D02*
Y437000D01*
X414000Y390000D02*
X416000D01*
X415000Y389000D02*
Y391000D01*
X1301000Y576000D02*
X1303000D01*
X1302000Y575000D02*
Y577000D01*
X786000Y479000D02*
X788000D01*
X787000Y478000D02*
Y480000D01*
X636750Y438250D02*
X638750D01*
X637750Y437250D02*
Y439250D01*
X643091Y438518D02*
X645091D01*
X644091Y437518D02*
Y439518D01*
X649750Y438500D02*
X651750D01*
X650750Y437500D02*
Y439500D01*
X656250Y438422D02*
X658250D01*
X657250Y437422D02*
Y439422D01*
X836000Y437000D02*
X838000D01*
X837000Y436000D02*
Y438000D01*
X843000Y437000D02*
X845000D01*
X844000Y436000D02*
Y438000D01*
X849000Y437000D02*
X851000D01*
X850000Y436000D02*
Y438000D01*
X772000Y463000D02*
X774000D01*
X773000Y462000D02*
Y464000D01*
X447000Y139000D02*
X449000D01*
X448000Y138000D02*
Y140000D01*
X601000Y131000D02*
X603000D01*
X602000Y130000D02*
Y132000D01*
X251000Y97000D02*
X253000D01*
X252000Y96000D02*
Y98000D01*
X284000Y153000D02*
X286000D01*
X285000Y152000D02*
Y154000D01*
X252000Y106000D02*
X254000D01*
X253000Y105000D02*
Y107000D01*
X252000Y115000D02*
X254000D01*
X253000Y114000D02*
Y116000D01*
X351500Y179500D02*
X353500D01*
X352500Y178500D02*
Y180500D01*
X617000Y198000D02*
X619000D01*
X618000Y197000D02*
Y199000D01*
X301000Y180000D02*
X303000D01*
X302000Y179000D02*
Y181000D01*
X301500Y187710D02*
X303500D01*
X302500Y186710D02*
Y188710D01*
X617000Y205000D02*
X619000D01*
X618000Y204000D02*
Y206000D01*
X811000Y545000D02*
X813000D01*
X812000Y544000D02*
Y546000D01*
X1264000Y462000D02*
X1266000D01*
X1265000Y461000D02*
Y463000D01*
X1258000Y139000D02*
X1260000D01*
X1259000Y138000D02*
Y140000D01*
X129000Y47000D02*
X131000D01*
X130000Y46000D02*
Y48000D01*
X107000Y73000D02*
X109000D01*
X108000Y72000D02*
Y74000D01*
X904000Y402000D02*
X906000D01*
X905000Y401000D02*
Y403000D01*
X624000Y438000D02*
X626000D01*
X625000Y437000D02*
Y439000D01*
X1223170Y495412D02*
X1225170D01*
X1224170Y494412D02*
Y496412D01*
X1223170Y501412D02*
X1225170D01*
X1224170Y500412D02*
Y502412D01*
X1229170Y495412D02*
X1231170D01*
X1230170Y494412D02*
Y496412D01*
X1229170Y501412D02*
X1231170D01*
X1230170Y500412D02*
Y502412D01*
X1235170Y495412D02*
X1237170D01*
X1236170Y494412D02*
Y496412D01*
X1235170Y501412D02*
X1237170D01*
X1236170Y500412D02*
Y502412D01*
X1167343Y564412D02*
X1169343D01*
X1168343Y563412D02*
Y565412D01*
X468000Y450000D02*
X470000D01*
X469000Y449000D02*
Y451000D01*
X821000Y409000D02*
X823000D01*
X822000Y408000D02*
Y410000D01*
X468000Y456000D02*
X470000D01*
X469000Y455000D02*
Y457000D01*
X468000Y414000D02*
X470000D01*
X469000Y413000D02*
Y415000D01*
X1036000Y424000D02*
X1038000D01*
X1037000Y423000D02*
Y425000D01*
X635000Y407000D02*
X637000D01*
X636000Y406000D02*
Y408000D01*
X1029000Y424000D02*
X1031000D01*
X1030000Y423000D02*
Y425000D01*
X626000Y407000D02*
X628000D01*
X627000Y406000D02*
Y408000D01*
X1062000Y424000D02*
X1064000D01*
X1063000Y423000D02*
Y425000D01*
X1186101Y555481D02*
X1188101D01*
X1187101Y554481D02*
Y556481D01*
X409000Y385000D02*
X411000D01*
X410000Y384000D02*
Y386000D01*
X694000Y238000D02*
X696000D01*
X695000Y237000D02*
Y239000D01*
X683000Y238000D02*
X685000D01*
X684000Y237000D02*
Y239000D01*
X557000Y145000D02*
X559000D01*
X558000Y144000D02*
Y146000D01*
X542000Y142000D02*
X544000D01*
X543000Y141000D02*
Y143000D01*
X770000Y201000D02*
X772000D01*
X771000Y200000D02*
Y202000D01*
X762000Y198000D02*
X764000D01*
X763000Y197000D02*
Y199000D01*
X1194170Y505412D02*
X1196170D01*
X1195170Y504412D02*
Y506412D01*
X1171239Y514759D02*
X1173239D01*
X1172239Y513759D02*
Y515759D01*
X779000Y479000D02*
X781000D01*
X780000Y478000D02*
Y480000D01*
X773000Y471000D02*
X775000D01*
X774000Y470000D02*
Y472000D01*
X660000Y485000D02*
X662000D01*
X661000Y484000D02*
Y486000D01*
X666000Y485000D02*
X668000D01*
X667000Y484000D02*
Y486000D01*
X688000Y589000D02*
X690000D01*
X689000Y588000D02*
Y590000D01*
X688000Y583000D02*
X690000D01*
X689000Y582000D02*
Y584000D01*
X715000Y574000D02*
X717000D01*
X716000Y573000D02*
Y575000D01*
X715000Y568000D02*
X717000D01*
X716000Y567000D02*
Y569000D01*
X546240Y145180D02*
X548240D01*
X547240Y144180D02*
Y146180D01*
X582000Y352000D02*
X584000D01*
X583000Y351000D02*
Y353000D01*
X1221931Y305653D02*
X1223931D01*
X1222931Y304653D02*
Y306653D01*
X1221931Y311653D02*
X1223931D01*
X1222931Y310653D02*
Y312653D01*
X1227931Y311653D02*
X1229931D01*
X1228931Y310653D02*
Y312653D01*
X1227931Y305653D02*
X1229931D01*
X1228931Y304653D02*
Y306653D01*
X1153941Y382653D02*
X1155941D01*
X1154941Y381653D02*
Y383653D01*
X1233920Y406653D02*
X1235920D01*
X1234920Y405653D02*
Y407653D01*
X1233920Y400653D02*
X1235920D01*
X1234920Y399653D02*
Y401653D01*
X1227920Y400653D02*
X1229920D01*
X1228920Y399653D02*
Y401653D01*
X1227920Y406653D02*
X1229920D01*
X1228920Y405653D02*
Y407653D01*
X1221920Y406653D02*
X1223920D01*
X1222920Y405653D02*
Y407653D01*
X1221920Y400653D02*
X1223920D01*
X1222920Y399653D02*
Y401653D01*
X1166093Y469653D02*
X1168093D01*
X1167093Y468653D02*
Y470653D01*
X1165931Y477653D02*
X1167931D01*
X1166931Y476653D02*
Y478653D01*
X1153931Y477653D02*
X1155931D01*
X1154931Y476653D02*
Y478653D01*
X1184862Y365722D02*
X1186862D01*
X1185862Y364722D02*
Y366722D01*
X1184851Y460722D02*
X1186851D01*
X1185851Y459722D02*
Y461722D01*
X1192920Y410653D02*
X1194920D01*
X1193920Y409653D02*
Y411653D01*
X1169989Y420000D02*
X1171989D01*
X1170989Y419001D02*
Y421001D01*
X1192931Y315653D02*
X1194931D01*
X1193931Y314653D02*
Y316653D01*
X1170000Y325000D02*
X1172000D01*
X1171000Y324000D02*
Y326000D01*
X1084000Y581000D02*
X1086000D01*
X1085000Y580000D02*
Y582000D01*
X719000Y558000D02*
X721000D01*
X720000Y557000D02*
Y559000D01*
X1074000Y568000D02*
X1076000D01*
X1075000Y567000D02*
Y569000D01*
X751000Y438000D02*
X753000D01*
X752000Y437000D02*
Y439000D01*
X551000Y24000D02*
X553000D01*
X552000Y23000D02*
Y25000D01*
X457000Y24000D02*
X459000D01*
X458000Y23000D02*
Y25000D01*
X670000Y336000D02*
X672000D01*
X671000Y335000D02*
Y337000D01*
X676000Y324000D02*
X678000D01*
X677000Y323000D02*
Y325000D01*
X899000Y258000D02*
X901000D01*
X900000Y257000D02*
Y259000D01*
Y266000D02*
X902000D01*
X901000Y265000D02*
Y267000D01*
X1091000Y565000D02*
X1093000D01*
X1092000Y564000D02*
Y566000D01*
X797000Y242000D02*
X799000D01*
X798000Y241000D02*
Y243000D01*
X803000Y242000D02*
X805000D01*
X804000Y241000D02*
Y243000D01*
X1023000Y277000D02*
X1025000D01*
X1024000Y276000D02*
Y278000D01*
X1028751Y253503D02*
X1030751D01*
X1029751Y252503D02*
Y254503D01*
X1128751Y253603D02*
X1130751D01*
X1129751Y252603D02*
Y254603D01*
X1045000Y247000D02*
X1047000D01*
X1046000Y246000D02*
Y248000D01*
X1145000Y247100D02*
X1147000D01*
X1146000Y246100D02*
Y248100D01*
X1016501Y265731D02*
X1018501D01*
X1017501Y264731D02*
Y266731D01*
X1116501Y265831D02*
X1118501D01*
X1117501Y264831D02*
Y266831D01*
X1027000Y267000D02*
X1029000D01*
X1028000Y266000D02*
Y268000D01*
X1003000Y266000D02*
X1005000D01*
X1004000Y265000D02*
Y267000D01*
X1019251Y253503D02*
X1021251D01*
X1020251Y252503D02*
Y254503D01*
X1119250Y253603D02*
X1121251D01*
X1120250Y252603D02*
Y254603D01*
X1103000Y266100D02*
X1105000D01*
X1104000Y265100D02*
Y267100D01*
X1120000Y229071D02*
X1122000D01*
X1121000Y228071D02*
Y230071D01*
X1026250Y162502D02*
X1028250D01*
X1027250Y161502D02*
Y163502D01*
X1126250Y162502D02*
X1128250D01*
X1127250Y161502D02*
Y163502D01*
X1007499Y176000D02*
X1009499D01*
X1008499Y175000D02*
Y177000D01*
X1110499Y187000D02*
X1112499D01*
X1111499Y186000D02*
Y188000D01*
X1042499Y156000D02*
X1044499D01*
X1043499Y155000D02*
Y157000D01*
X1142499Y156000D02*
X1144499D01*
X1143499Y155000D02*
Y157000D01*
X1166499Y172000D02*
X1168499D01*
X1167499Y171000D02*
Y173000D01*
X1014000Y174730D02*
X1016000D01*
X1015000Y173731D02*
Y175730D01*
X1114000Y174730D02*
X1116000D01*
X1115000Y173731D02*
Y175730D01*
X1019499Y181000D02*
X1021499D01*
X1020499Y180000D02*
Y182000D01*
X1119499Y181000D02*
X1121499D01*
X1120499Y180000D02*
Y182000D01*
X1024499Y176000D02*
X1026499D01*
X1025499Y175000D02*
Y177000D01*
X1124499Y176000D02*
X1126499D01*
X1125499Y175000D02*
Y177000D01*
X1116750Y162502D02*
X1118750D01*
X1117750Y161502D02*
Y163502D01*
X1100499Y175000D02*
X1102499D01*
X1101499Y174000D02*
Y176000D01*
X974499Y163000D02*
X976499D01*
X975499Y162000D02*
Y164000D01*
X1016750Y162502D02*
X1018750D01*
X1017750Y161502D02*
Y163502D01*
X1000499Y173000D02*
X1002499D01*
X1001499Y172000D02*
Y174000D01*
X1075000Y160000D02*
X1077000D01*
X1076000Y159000D02*
Y161000D01*
X1117000Y135000D02*
X1119000D01*
X1118000Y134000D02*
Y136000D01*
X1018000Y133000D02*
X1020000D01*
X1019000Y132000D02*
Y134000D01*
X971000Y217000D02*
X973000D01*
X972000Y216000D02*
Y218000D01*
X1018793Y228449D02*
X1020793D01*
X1019793Y227449D02*
Y229450D01*
X1074000Y207000D02*
X1076000D01*
X1075000Y206000D02*
Y208000D01*
X1194000Y232000D02*
X1196000D01*
X1195000Y231000D02*
Y233000D01*
Y241000D02*
X1197000D01*
X1196000Y240000D02*
Y242000D01*
X1194000Y248000D02*
X1196000D01*
X1195000Y247000D02*
Y249000D01*
X1225100Y153400D02*
X1227100D01*
X1226100Y152400D02*
Y154400D01*
X1243000Y403000D02*
X1245000D01*
X1244000Y402000D02*
Y404000D01*
X1240000Y114000D02*
X1242000D01*
X1241000Y113000D02*
Y115000D01*
X1232000Y134000D02*
X1234000D01*
X1233000Y133000D02*
Y135000D01*
X917000Y60000D02*
X919000D01*
X918000Y59000D02*
Y61000D01*
X1026000Y185000D02*
X1028000D01*
X1027000Y184000D02*
Y186000D01*
X1002000Y89000D02*
X1004000D01*
X1003000Y88000D02*
Y90000D01*
X1049000Y195000D02*
X1051000D01*
X1050000Y194000D02*
Y196000D01*
X1049000Y189000D02*
X1051000D01*
X1050000Y188000D02*
Y190000D01*
X1024000Y89000D02*
X1026000D01*
X1025000Y88000D02*
Y90000D01*
M02*
