G04*
G04 #@! TF.GenerationSoftware,Altium Limited,Altium Designer,24.9.1 (31)*
G04*
G04 Layer_Color=255*
%FSLAX44Y44*%
%MOMM*%
G71*
G04*
G04 #@! TF.SameCoordinates,11843470-2C0B-4DC8-9AB9-1888B6BF92CD*
G04*
G04*
G04 #@! TF.FilePolarity,Positive*
G04*
G01*
G75*
G04:AMPARAMS|DCode=22|XSize=0.9mm|YSize=0.95mm|CornerRadius=0.1mm|HoleSize=0mm|Usage=FLASHONLY|Rotation=0.000|XOffset=0mm|YOffset=0mm|HoleType=Round|Shape=RoundedRectangle|*
%AMROUNDEDRECTD22*
21,1,0.9000,0.7500,0,0,0.0*
21,1,0.7000,0.9500,0,0,0.0*
1,1,0.2000,0.3500,-0.3750*
1,1,0.2000,-0.3500,-0.3750*
1,1,0.2000,-0.3500,0.3750*
1,1,0.2000,0.3500,0.3750*
%
%ADD22ROUNDEDRECTD22*%
G04:AMPARAMS|DCode=32|XSize=0.95mm|YSize=0.85mm|CornerRadius=0.2125mm|HoleSize=0mm|Usage=FLASHONLY|Rotation=270.000|XOffset=0mm|YOffset=0mm|HoleType=Round|Shape=RoundedRectangle|*
%AMROUNDEDRECTD32*
21,1,0.9500,0.4250,0,0,270.0*
21,1,0.5250,0.8500,0,0,270.0*
1,1,0.4250,-0.2125,-0.2625*
1,1,0.4250,-0.2125,0.2625*
1,1,0.4250,0.2125,0.2625*
1,1,0.4250,0.2125,-0.2625*
%
%ADD32ROUNDEDRECTD32*%
G04:AMPARAMS|DCode=36|XSize=1.2mm|YSize=1.3mm|CornerRadius=0.25mm|HoleSize=0mm|Usage=FLASHONLY|Rotation=180.000|XOffset=0mm|YOffset=0mm|HoleType=Round|Shape=RoundedRectangle|*
%AMROUNDEDRECTD36*
21,1,1.2000,0.8000,0,0,180.0*
21,1,0.7000,1.3000,0,0,180.0*
1,1,0.5000,-0.3500,0.4000*
1,1,0.5000,0.3500,0.4000*
1,1,0.5000,0.3500,-0.4000*
1,1,0.5000,-0.3500,-0.4000*
%
%ADD36ROUNDEDRECTD36*%
G04:AMPARAMS|DCode=47|XSize=1.64mm|YSize=0.59mm|CornerRadius=0.1475mm|HoleSize=0mm|Usage=FLASHONLY|Rotation=180.000|XOffset=0mm|YOffset=0mm|HoleType=Round|Shape=RoundedRectangle|*
%AMROUNDEDRECTD47*
21,1,1.6400,0.2950,0,0,180.0*
21,1,1.3450,0.5900,0,0,180.0*
1,1,0.2950,-0.6725,0.1475*
1,1,0.2950,0.6725,0.1475*
1,1,0.2950,0.6725,-0.1475*
1,1,0.2950,-0.6725,-0.1475*
%
%ADD47ROUNDEDRECTD47*%
G04:AMPARAMS|DCode=48|XSize=1.21mm|YSize=0.59mm|CornerRadius=0.0738mm|HoleSize=0mm|Usage=FLASHONLY|Rotation=180.000|XOffset=0mm|YOffset=0mm|HoleType=Round|Shape=RoundedRectangle|*
%AMROUNDEDRECTD48*
21,1,1.2100,0.4425,0,0,180.0*
21,1,1.0625,0.5900,0,0,180.0*
1,1,0.1475,-0.5313,0.2213*
1,1,0.1475,0.5313,0.2213*
1,1,0.1475,0.5313,-0.2213*
1,1,0.1475,-0.5313,-0.2213*
%
%ADD48ROUNDEDRECTD48*%
G04:AMPARAMS|DCode=58|XSize=1.32mm|YSize=0.6mm|CornerRadius=0.075mm|HoleSize=0mm|Usage=FLASHONLY|Rotation=180.000|XOffset=0mm|YOffset=0mm|HoleType=Round|Shape=RoundedRectangle|*
%AMROUNDEDRECTD58*
21,1,1.3200,0.4500,0,0,180.0*
21,1,1.1700,0.6000,0,0,180.0*
1,1,0.1500,-0.5850,0.2250*
1,1,0.1500,0.5850,0.2250*
1,1,0.1500,0.5850,-0.2250*
1,1,0.1500,-0.5850,-0.2250*
%
%ADD58ROUNDEDRECTD58*%
G04:AMPARAMS|DCode=59|XSize=1.64mm|YSize=0.59mm|CornerRadius=0.1475mm|HoleSize=0mm|Usage=FLASHONLY|Rotation=90.000|XOffset=0mm|YOffset=0mm|HoleType=Round|Shape=RoundedRectangle|*
%AMROUNDEDRECTD59*
21,1,1.6400,0.2950,0,0,90.0*
21,1,1.3450,0.5900,0,0,90.0*
1,1,0.2950,0.1475,0.6725*
1,1,0.2950,0.1475,-0.6725*
1,1,0.2950,-0.1475,-0.6725*
1,1,0.2950,-0.1475,0.6725*
%
%ADD59ROUNDEDRECTD59*%
G04:AMPARAMS|DCode=60|XSize=0.65mm|YSize=0.6mm|CornerRadius=0.15mm|HoleSize=0mm|Usage=FLASHONLY|Rotation=90.000|XOffset=0mm|YOffset=0mm|HoleType=Round|Shape=RoundedRectangle|*
%AMROUNDEDRECTD60*
21,1,0.6500,0.3000,0,0,90.0*
21,1,0.3500,0.6000,0,0,90.0*
1,1,0.3000,0.1500,0.1750*
1,1,0.3000,0.1500,-0.1750*
1,1,0.3000,-0.1500,-0.1750*
1,1,0.3000,-0.1500,0.1750*
%
%ADD60ROUNDEDRECTD60*%
%ADD61R,0.6000X1.0000*%
%ADD62R,1.2500X1.8000*%
G04:AMPARAMS|DCode=66|XSize=0.65mm|YSize=0.6mm|CornerRadius=0.15mm|HoleSize=0mm|Usage=FLASHONLY|Rotation=180.000|XOffset=0mm|YOffset=0mm|HoleType=Round|Shape=RoundedRectangle|*
%AMROUNDEDRECTD66*
21,1,0.6500,0.3000,0,0,180.0*
21,1,0.3500,0.6000,0,0,180.0*
1,1,0.3000,-0.1750,0.1500*
1,1,0.3000,0.1750,0.1500*
1,1,0.3000,0.1750,-0.1500*
1,1,0.3000,-0.1750,-0.1500*
%
%ADD66ROUNDEDRECTD66*%
G04:AMPARAMS|DCode=68|XSize=1.2mm|YSize=1.3mm|CornerRadius=0.25mm|HoleSize=0mm|Usage=FLASHONLY|Rotation=270.000|XOffset=0mm|YOffset=0mm|HoleType=Round|Shape=RoundedRectangle|*
%AMROUNDEDRECTD68*
21,1,1.2000,0.8000,0,0,270.0*
21,1,0.7000,1.3000,0,0,270.0*
1,1,0.5000,-0.4000,-0.3500*
1,1,0.5000,-0.4000,0.3500*
1,1,0.5000,0.4000,0.3500*
1,1,0.5000,0.4000,-0.3500*
%
%ADD68ROUNDEDRECTD68*%
%ADD131C,1.3000*%
%ADD133C,1.5000*%
%ADD134C,1.5240*%
%ADD136C,4.0000*%
%ADD151C,0.5000*%
%ADD152C,6.3500*%
G04:AMPARAMS|DCode=154|XSize=0.9mm|YSize=0.95mm|CornerRadius=0.1mm|HoleSize=0mm|Usage=FLASHONLY|Rotation=270.000|XOffset=0mm|YOffset=0mm|HoleType=Round|Shape=RoundedRectangle|*
%AMROUNDEDRECTD154*
21,1,0.9000,0.7500,0,0,270.0*
21,1,0.7000,0.9500,0,0,270.0*
1,1,0.2000,-0.3750,-0.3500*
1,1,0.2000,-0.3750,0.3500*
1,1,0.2000,0.3750,0.3500*
1,1,0.2000,0.3750,-0.3500*
%
%ADD154ROUNDEDRECTD154*%
G04:AMPARAMS|DCode=155|XSize=1.3081mm|YSize=0.4572mm|CornerRadius=0.1143mm|HoleSize=0mm|Usage=FLASHONLY|Rotation=270.000|XOffset=0mm|YOffset=0mm|HoleType=Round|Shape=RoundedRectangle|*
%AMROUNDEDRECTD155*
21,1,1.3081,0.2286,0,0,270.0*
21,1,1.0795,0.4572,0,0,270.0*
1,1,0.2286,-0.1143,-0.5397*
1,1,0.2286,-0.1143,0.5397*
1,1,0.2286,0.1143,0.5397*
1,1,0.2286,0.1143,-0.5397*
%
%ADD155ROUNDEDRECTD155*%
%ADD156R,0.9779X0.4064*%
%ADD157R,1.3000X0.8000*%
%ADD158R,3.0000X2.1000*%
G04:AMPARAMS|DCode=159|XSize=1.57mm|YSize=0.41mm|CornerRadius=0.0513mm|HoleSize=0mm|Usage=FLASHONLY|Rotation=0.000|XOffset=0mm|YOffset=0mm|HoleType=Round|Shape=RoundedRectangle|*
%AMROUNDEDRECTD159*
21,1,1.5700,0.3075,0,0,0.0*
21,1,1.4675,0.4100,0,0,0.0*
1,1,0.1025,0.7338,-0.1538*
1,1,0.1025,-0.7338,-0.1538*
1,1,0.1025,-0.7338,0.1538*
1,1,0.1025,0.7338,0.1538*
%
%ADD159ROUNDEDRECTD159*%
G04:AMPARAMS|DCode=160|XSize=2.7mm|YSize=1.3mm|CornerRadius=0.25mm|HoleSize=0mm|Usage=FLASHONLY|Rotation=180.000|XOffset=0mm|YOffset=0mm|HoleType=Round|Shape=RoundedRectangle|*
%AMROUNDEDRECTD160*
21,1,2.7000,0.8000,0,0,180.0*
21,1,2.2000,1.3000,0,0,180.0*
1,1,0.5000,-1.1000,0.4000*
1,1,0.5000,1.1000,0.4000*
1,1,0.5000,1.1000,-0.4000*
1,1,0.5000,-1.1000,-0.4000*
%
%ADD160ROUNDEDRECTD160*%
G04:AMPARAMS|DCode=161|XSize=1.5mm|YSize=0.45mm|CornerRadius=0.1125mm|HoleSize=0mm|Usage=FLASHONLY|Rotation=180.000|XOffset=0mm|YOffset=0mm|HoleType=Round|Shape=RoundedRectangle|*
%AMROUNDEDRECTD161*
21,1,1.5000,0.2250,0,0,180.0*
21,1,1.2750,0.4500,0,0,180.0*
1,1,0.2250,-0.6375,0.1125*
1,1,0.2250,0.6375,0.1125*
1,1,0.2250,0.6375,-0.1125*
1,1,0.2250,-0.6375,-0.1125*
%
%ADD161ROUNDEDRECTD161*%
G04:AMPARAMS|DCode=162|XSize=1.32mm|YSize=0.6mm|CornerRadius=0.075mm|HoleSize=0mm|Usage=FLASHONLY|Rotation=90.000|XOffset=0mm|YOffset=0mm|HoleType=Round|Shape=RoundedRectangle|*
%AMROUNDEDRECTD162*
21,1,1.3200,0.4500,0,0,90.0*
21,1,1.1700,0.6000,0,0,90.0*
1,1,0.1500,0.2250,0.5850*
1,1,0.1500,0.2250,-0.5850*
1,1,0.1500,-0.2250,-0.5850*
1,1,0.1500,-0.2250,0.5850*
%
%ADD162ROUNDEDRECTD162*%
%ADD163R,1.4000X0.3000*%
%ADD164R,0.8000X1.3000*%
%ADD165R,2.1000X3.0000*%
G04:AMPARAMS|DCode=166|XSize=2.7mm|YSize=1.3mm|CornerRadius=0.25mm|HoleSize=0mm|Usage=FLASHONLY|Rotation=270.000|XOffset=0mm|YOffset=0mm|HoleType=Round|Shape=RoundedRectangle|*
%AMROUNDEDRECTD166*
21,1,2.7000,0.8000,0,0,270.0*
21,1,2.2000,1.3000,0,0,270.0*
1,1,0.5000,-0.4000,-1.1000*
1,1,0.5000,-0.4000,1.1000*
1,1,0.5000,0.4000,1.1000*
1,1,0.5000,0.4000,-1.1000*
%
%ADD166ROUNDEDRECTD166*%
G04:AMPARAMS|DCode=167|XSize=1.65mm|YSize=2.55mm|CornerRadius=0.25mm|HoleSize=0mm|Usage=FLASHONLY|Rotation=90.000|XOffset=0mm|YOffset=0mm|HoleType=Round|Shape=RoundedRectangle|*
%AMROUNDEDRECTD167*
21,1,1.6500,2.0500,0,0,90.0*
21,1,1.1500,2.5500,0,0,90.0*
1,1,0.5000,1.0250,0.5750*
1,1,0.5000,1.0250,-0.5750*
1,1,0.5000,-1.0250,-0.5750*
1,1,0.5000,-1.0250,0.5750*
%
%ADD167ROUNDEDRECTD167*%
G04:AMPARAMS|DCode=168|XSize=1.1mm|YSize=0.6mm|CornerRadius=0.05mm|HoleSize=0mm|Usage=FLASHONLY|Rotation=180.000|XOffset=0mm|YOffset=0mm|HoleType=Round|Shape=RoundedRectangle|*
%AMROUNDEDRECTD168*
21,1,1.1000,0.5000,0,0,180.0*
21,1,1.0000,0.6000,0,0,180.0*
1,1,0.1000,-0.5000,0.2500*
1,1,0.1000,0.5000,0.2500*
1,1,0.1000,0.5000,-0.2500*
1,1,0.1000,-0.5000,-0.2500*
%
%ADD168ROUNDEDRECTD168*%
G04:AMPARAMS|DCode=169|XSize=0.84mm|YSize=0.26mm|CornerRadius=0.0325mm|HoleSize=0mm|Usage=FLASHONLY|Rotation=270.000|XOffset=0mm|YOffset=0mm|HoleType=Round|Shape=RoundedRectangle|*
%AMROUNDEDRECTD169*
21,1,0.8400,0.1950,0,0,270.0*
21,1,0.7750,0.2600,0,0,270.0*
1,1,0.0650,-0.0975,-0.3875*
1,1,0.0650,-0.0975,0.3875*
1,1,0.0650,0.0975,0.3875*
1,1,0.0650,0.0975,-0.3875*
%
%ADD169ROUNDEDRECTD169*%
G04:AMPARAMS|DCode=170|XSize=0.26mm|YSize=0.84mm|CornerRadius=0.0325mm|HoleSize=0mm|Usage=FLASHONLY|Rotation=270.000|XOffset=0mm|YOffset=0mm|HoleType=Round|Shape=RoundedRectangle|*
%AMROUNDEDRECTD170*
21,1,0.2600,0.7750,0,0,270.0*
21,1,0.1950,0.8400,0,0,270.0*
1,1,0.0650,-0.3875,-0.0975*
1,1,0.0650,-0.3875,0.0975*
1,1,0.0650,0.3875,0.0975*
1,1,0.0650,0.3875,-0.0975*
%
%ADD170ROUNDEDRECTD170*%
%ADD171R,4.6000X4.6000*%
G04:AMPARAMS|DCode=172|XSize=1.57mm|YSize=0.41mm|CornerRadius=0.0513mm|HoleSize=0mm|Usage=FLASHONLY|Rotation=270.000|XOffset=0mm|YOffset=0mm|HoleType=Round|Shape=RoundedRectangle|*
%AMROUNDEDRECTD172*
21,1,1.5700,0.3075,0,0,270.0*
21,1,1.4675,0.4100,0,0,270.0*
1,1,0.1025,-0.1538,-0.7338*
1,1,0.1025,-0.1538,0.7338*
1,1,0.1025,0.1538,0.7338*
1,1,0.1025,0.1538,-0.7338*
%
%ADD172ROUNDEDRECTD172*%
%ADD173R,0.7500X0.8500*%
D22*
X1168189Y67968D02*
D03*
X1201800Y68000D02*
D03*
X1168189Y43968D02*
D03*
X1201800Y44000D02*
D03*
X700190Y141968D02*
D03*
X733800Y142000D02*
D03*
X651189Y141968D02*
D03*
X684800Y142000D02*
D03*
X651189Y165968D02*
D03*
X684800Y166000D02*
D03*
X700189Y165968D02*
D03*
X733800Y166000D02*
D03*
X428800Y322250D02*
D03*
X395189Y322218D02*
D03*
D32*
X129250Y86000D02*
D03*
X144750D02*
D03*
D36*
X233000Y287002D02*
D03*
X215000D02*
D03*
D47*
X94650Y51350D02*
D03*
Y38650D02*
D03*
X147350Y64050D02*
D03*
Y25950D02*
D03*
X94650D02*
D03*
Y64050D02*
D03*
X147350Y38650D02*
D03*
Y51350D02*
D03*
X263350Y25950D02*
D03*
X210650Y51350D02*
D03*
Y25950D02*
D03*
Y38650D02*
D03*
X263350Y64050D02*
D03*
X210650D02*
D03*
X263350Y38650D02*
D03*
Y51350D02*
D03*
D48*
X358450Y30500D02*
D03*
Y49500D02*
D03*
X383550D02*
D03*
Y40000D02*
D03*
Y30500D02*
D03*
X358450Y40000D02*
D03*
X129450Y143500D02*
D03*
Y134000D02*
D03*
Y124500D02*
D03*
X154550D02*
D03*
Y143500D02*
D03*
Y134000D02*
D03*
Y181500D02*
D03*
Y162500D02*
D03*
X129450D02*
D03*
Y172000D02*
D03*
Y181500D02*
D03*
X154550Y172000D02*
D03*
D58*
X1114000Y103000D02*
D03*
X1134000Y112500D02*
D03*
Y93500D02*
D03*
X1122000Y201000D02*
D03*
X1142000Y210500D02*
D03*
Y191500D02*
D03*
X1018000Y199000D02*
D03*
X1038000Y208500D02*
D03*
Y189500D02*
D03*
X1015000Y102000D02*
D03*
X1035000Y111500D02*
D03*
Y92500D02*
D03*
X712000Y103500D02*
D03*
X732000Y113000D02*
D03*
X712000Y122500D02*
D03*
X663000Y103500D02*
D03*
X683000Y113000D02*
D03*
X663000Y122500D02*
D03*
D59*
X871300Y179700D02*
D03*
X884000Y127000D02*
D03*
X858600Y179700D02*
D03*
X845900D02*
D03*
X858600Y127000D02*
D03*
X871300D02*
D03*
X845900D02*
D03*
X884000Y179700D02*
D03*
X937350Y179350D02*
D03*
X950050Y126650D02*
D03*
X924650Y179350D02*
D03*
X911950D02*
D03*
X924650Y126650D02*
D03*
X937350D02*
D03*
X911950D02*
D03*
X950050Y179350D02*
D03*
D60*
X1384000Y571250D02*
D03*
Y560750D02*
D03*
X1385000Y432750D02*
D03*
Y443250D02*
D03*
X1374000Y476750D02*
D03*
Y487250D02*
D03*
X1385000Y480250D02*
D03*
Y469750D02*
D03*
X1369000Y571250D02*
D03*
Y560750D02*
D03*
X253000Y278750D02*
D03*
Y289250D02*
D03*
X415000Y535750D02*
D03*
Y546250D02*
D03*
X696000Y385750D02*
D03*
Y396250D02*
D03*
X430000Y561750D02*
D03*
Y572250D02*
D03*
X638002Y533250D02*
D03*
Y522750D02*
D03*
X793001Y533250D02*
D03*
Y522750D02*
D03*
X763001Y533250D02*
D03*
Y522750D02*
D03*
X722001Y298250D02*
D03*
Y287750D02*
D03*
X752002Y298250D02*
D03*
Y287750D02*
D03*
X662001Y298250D02*
D03*
Y287750D02*
D03*
X694001Y298250D02*
D03*
Y287750D02*
D03*
X778001Y298250D02*
D03*
Y287750D02*
D03*
X733001Y533250D02*
D03*
Y522750D02*
D03*
X807001Y298250D02*
D03*
Y287750D02*
D03*
X658001Y533250D02*
D03*
Y522750D02*
D03*
X698001Y533250D02*
D03*
Y522750D02*
D03*
X1132000Y504250D02*
D03*
Y493750D02*
D03*
X166000Y46750D02*
D03*
Y57250D02*
D03*
X757000Y174750D02*
D03*
Y185250D02*
D03*
X812000Y176750D02*
D03*
Y187250D02*
D03*
X1157000Y87750D02*
D03*
Y98250D02*
D03*
X1092000Y89500D02*
D03*
Y100000D02*
D03*
X1063000Y88750D02*
D03*
Y99250D02*
D03*
X992000Y88750D02*
D03*
Y99250D02*
D03*
X1422000Y242750D02*
D03*
Y253250D02*
D03*
X363000Y378250D02*
D03*
Y367750D02*
D03*
X1424000Y513500D02*
D03*
Y503000D02*
D03*
X281000Y46750D02*
D03*
Y57250D02*
D03*
X391000Y473750D02*
D03*
Y484250D02*
D03*
X382000Y473750D02*
D03*
Y484250D02*
D03*
X437000Y473750D02*
D03*
Y484250D02*
D03*
X86000Y134250D02*
D03*
Y123750D02*
D03*
X87000Y167750D02*
D03*
Y178250D02*
D03*
X880000Y436750D02*
D03*
Y447250D02*
D03*
X403000Y546250D02*
D03*
Y535750D02*
D03*
X642001Y298250D02*
D03*
Y287750D02*
D03*
X652001Y298250D02*
D03*
Y287750D02*
D03*
X706000Y219750D02*
D03*
Y230250D02*
D03*
X675000Y219750D02*
D03*
Y230250D02*
D03*
X400000Y572250D02*
D03*
Y561750D02*
D03*
X386650Y572641D02*
D03*
Y562141D02*
D03*
X391000Y522250D02*
D03*
Y511750D02*
D03*
X427000Y522250D02*
D03*
Y511750D02*
D03*
X403000Y511750D02*
D03*
Y522250D02*
D03*
X415000Y511750D02*
D03*
Y522250D02*
D03*
X775000Y175750D02*
D03*
Y186250D02*
D03*
X831000Y176750D02*
D03*
Y187250D02*
D03*
X1419000Y205250D02*
D03*
Y194750D02*
D03*
X1420000Y427750D02*
D03*
Y438250D02*
D03*
X1428000Y194750D02*
D03*
Y205250D02*
D03*
X1429000Y427750D02*
D03*
Y438250D02*
D03*
X1419000Y178250D02*
D03*
Y167750D02*
D03*
X1420000Y457750D02*
D03*
Y468250D02*
D03*
X1428000Y167750D02*
D03*
Y178250D02*
D03*
X1429000Y457750D02*
D03*
Y468250D02*
D03*
X715000Y219750D02*
D03*
Y230250D02*
D03*
X322000Y24750D02*
D03*
Y35250D02*
D03*
X376000Y323250D02*
D03*
Y312750D02*
D03*
X376000Y344250D02*
D03*
Y333750D02*
D03*
X196000Y83250D02*
D03*
Y72750D02*
D03*
X186000Y83250D02*
D03*
Y72750D02*
D03*
X682000Y340250D02*
D03*
Y329750D02*
D03*
X189000Y57250D02*
D03*
Y46750D02*
D03*
X281000Y36250D02*
D03*
Y25750D02*
D03*
X539000Y334250D02*
D03*
Y323750D02*
D03*
X766000Y175750D02*
D03*
Y186250D02*
D03*
X822000Y176750D02*
D03*
Y187250D02*
D03*
X697000Y103250D02*
D03*
Y92750D02*
D03*
X648000Y103250D02*
D03*
Y92750D02*
D03*
X697000Y112750D02*
D03*
Y123250D02*
D03*
X648000Y112750D02*
D03*
Y123250D02*
D03*
X811000Y533250D02*
D03*
Y522750D02*
D03*
X691000Y340250D02*
D03*
Y329750D02*
D03*
X166000Y25750D02*
D03*
Y36250D02*
D03*
X98000Y79750D02*
D03*
Y90250D02*
D03*
X116000Y90250D02*
D03*
Y79750D02*
D03*
X910000Y206250D02*
D03*
Y195750D02*
D03*
X911000Y100750D02*
D03*
Y111250D02*
D03*
X831950Y132100D02*
D03*
Y142600D02*
D03*
X898000Y129750D02*
D03*
Y140250D02*
D03*
X844950Y205600D02*
D03*
Y195100D02*
D03*
X898000Y120000D02*
D03*
Y109500D02*
D03*
X832000Y123250D02*
D03*
Y112750D02*
D03*
X846950Y101100D02*
D03*
Y111600D02*
D03*
X921000Y206250D02*
D03*
Y195750D02*
D03*
X931000Y206250D02*
D03*
Y195750D02*
D03*
X921000Y100750D02*
D03*
Y111250D02*
D03*
X931000Y100750D02*
D03*
Y111250D02*
D03*
X856950Y205600D02*
D03*
Y195100D02*
D03*
X865950Y205600D02*
D03*
Y195100D02*
D03*
X855950Y101100D02*
D03*
Y111600D02*
D03*
X864950Y101100D02*
D03*
Y111600D02*
D03*
X799210Y333750D02*
D03*
Y323250D02*
D03*
X808210Y333750D02*
D03*
Y323250D02*
D03*
X817210D02*
D03*
Y333750D02*
D03*
X399000Y34750D02*
D03*
Y45250D02*
D03*
X802000Y533250D02*
D03*
Y522750D02*
D03*
X696000Y445750D02*
D03*
Y456250D02*
D03*
X427000Y473750D02*
D03*
Y484250D02*
D03*
X373000Y473750D02*
D03*
Y484250D02*
D03*
X435000Y378250D02*
D03*
Y367750D02*
D03*
X418000Y473750D02*
D03*
Y484250D02*
D03*
X409000Y473750D02*
D03*
Y484250D02*
D03*
X426000Y378250D02*
D03*
Y367750D02*
D03*
X400000Y473750D02*
D03*
Y484250D02*
D03*
X785000Y348250D02*
D03*
Y337750D02*
D03*
X750000Y359000D02*
D03*
Y369500D02*
D03*
X807000Y267750D02*
D03*
Y278250D02*
D03*
X494000Y220750D02*
D03*
Y231250D02*
D03*
X476000Y220750D02*
D03*
Y231250D02*
D03*
X485000Y220750D02*
D03*
Y231250D02*
D03*
X467000Y231250D02*
D03*
Y220750D02*
D03*
X107000Y90250D02*
D03*
Y79750D02*
D03*
X89000D02*
D03*
Y90250D02*
D03*
X408000Y378250D02*
D03*
Y367750D02*
D03*
X399000Y378250D02*
D03*
Y367750D02*
D03*
X390000Y378250D02*
D03*
Y367750D02*
D03*
X381000Y378250D02*
D03*
Y367750D02*
D03*
X372000Y378250D02*
D03*
Y367750D02*
D03*
X354000Y378250D02*
D03*
Y367750D02*
D03*
X417000Y378250D02*
D03*
Y367750D02*
D03*
X666000Y219750D02*
D03*
Y230250D02*
D03*
X695000D02*
D03*
Y219750D02*
D03*
X686000Y230250D02*
D03*
Y219750D02*
D03*
X521000Y334250D02*
D03*
Y323750D02*
D03*
X530000Y334250D02*
D03*
Y323750D02*
D03*
X687000Y385750D02*
D03*
Y396250D02*
D03*
X696000Y436250D02*
D03*
Y425750D02*
D03*
Y416250D02*
D03*
Y405750D02*
D03*
X458000Y220750D02*
D03*
Y231250D02*
D03*
X189000Y36250D02*
D03*
Y25750D02*
D03*
X788000Y462250D02*
D03*
Y451750D02*
D03*
Y370750D02*
D03*
Y381250D02*
D03*
X1142000Y504250D02*
D03*
Y493750D02*
D03*
X890000Y447250D02*
D03*
Y436750D02*
D03*
X687000Y425750D02*
D03*
Y436250D02*
D03*
X788000Y401250D02*
D03*
Y390750D02*
D03*
Y430750D02*
D03*
Y441250D02*
D03*
Y421250D02*
D03*
Y410750D02*
D03*
X444000Y378250D02*
D03*
Y367750D02*
D03*
D61*
X917500Y68700D02*
D03*
X887500D02*
D03*
X857500D02*
D03*
X827500D02*
D03*
X842500D02*
D03*
X872500D02*
D03*
X902500D02*
D03*
X932500D02*
D03*
X722500D02*
D03*
X752500D02*
D03*
X692500D02*
D03*
X662500D02*
D03*
X737500D02*
D03*
X707500D02*
D03*
X677500D02*
D03*
X647500D02*
D03*
X1112500D02*
D03*
X1082500D02*
D03*
X1052500D02*
D03*
X1022500D02*
D03*
X1007500D02*
D03*
X1037500D02*
D03*
X1067500D02*
D03*
X1097500D02*
D03*
D62*
X801450Y16800D02*
D03*
X958550D02*
D03*
X621450D02*
D03*
X778550D02*
D03*
X981450D02*
D03*
X1138550D02*
D03*
D66*
X1047250Y587000D02*
D03*
X1036750D02*
D03*
X285750Y435000D02*
D03*
X296250D02*
D03*
X1047250Y516000D02*
D03*
X1036750D02*
D03*
X478250Y349000D02*
D03*
X467750D02*
D03*
X459250Y495000D02*
D03*
X448750D02*
D03*
X488750Y53000D02*
D03*
X499250D02*
D03*
X387750Y340250D02*
D03*
X398250D02*
D03*
X96250Y147000D02*
D03*
X85750D02*
D03*
X96250Y156000D02*
D03*
X85750D02*
D03*
X381250Y300250D02*
D03*
X370750D02*
D03*
X592250Y406000D02*
D03*
X581750D02*
D03*
X866250Y357000D02*
D03*
X855750D02*
D03*
X318750Y434000D02*
D03*
X329250D02*
D03*
X707250Y590000D02*
D03*
X696750D02*
D03*
X1126250Y224000D02*
D03*
X1115750D02*
D03*
X1137750D02*
D03*
X1148250D02*
D03*
X1120500Y124000D02*
D03*
X1110000D02*
D03*
X1131750D02*
D03*
X1142250D02*
D03*
X1019250Y125000D02*
D03*
X1008750D02*
D03*
X1030750D02*
D03*
X1041250D02*
D03*
X1022250Y222000D02*
D03*
X1011750D02*
D03*
X1033750D02*
D03*
X1044250D02*
D03*
X707250Y581000D02*
D03*
X696750D02*
D03*
X721750Y575000D02*
D03*
X732250D02*
D03*
X721750Y566000D02*
D03*
X732250D02*
D03*
X676750Y486000D02*
D03*
X687250D02*
D03*
X676750Y477000D02*
D03*
X687250D02*
D03*
X488750Y35000D02*
D03*
X499250D02*
D03*
X488750Y44000D02*
D03*
X499250D02*
D03*
X445250Y281250D02*
D03*
X434750D02*
D03*
X445250Y291250D02*
D03*
X434750D02*
D03*
X370750Y280250D02*
D03*
X381250D02*
D03*
X370750Y290250D02*
D03*
X381250D02*
D03*
X336750Y315000D02*
D03*
X347250D02*
D03*
X587750Y33000D02*
D03*
X598250D02*
D03*
X578250Y33000D02*
D03*
X567750D02*
D03*
X308250Y39000D02*
D03*
X297750D02*
D03*
X308250Y48000D02*
D03*
X297750D02*
D03*
X297750Y30000D02*
D03*
X308250D02*
D03*
X297750Y57000D02*
D03*
X308250D02*
D03*
X336750Y306000D02*
D03*
X347250D02*
D03*
X347250Y296000D02*
D03*
X336750D02*
D03*
X196250Y186000D02*
D03*
X185750D02*
D03*
X196250Y177000D02*
D03*
X185750D02*
D03*
X196250Y114000D02*
D03*
X185750D02*
D03*
X196250Y105000D02*
D03*
X185750D02*
D03*
X196250Y150000D02*
D03*
X185750D02*
D03*
X196250Y141000D02*
D03*
X185750D02*
D03*
X185750Y195000D02*
D03*
X196250D02*
D03*
X185750Y168000D02*
D03*
X196250D02*
D03*
X185750Y123000D02*
D03*
X196250D02*
D03*
X185750Y96000D02*
D03*
X196250D02*
D03*
X105750Y101000D02*
D03*
X116250D02*
D03*
X185750Y159000D02*
D03*
X196250D02*
D03*
X185750Y132000D02*
D03*
X196250D02*
D03*
X845750Y87000D02*
D03*
X856250D02*
D03*
X941750Y196000D02*
D03*
X952250D02*
D03*
X932750Y87000D02*
D03*
X943250D02*
D03*
X940000Y111250D02*
D03*
X950500D02*
D03*
X902750Y87000D02*
D03*
X913250D02*
D03*
X875700Y195350D02*
D03*
X886200D02*
D03*
X870750Y87000D02*
D03*
X881250D02*
D03*
X874700Y111350D02*
D03*
X885200D02*
D03*
X941750Y206000D02*
D03*
X952250D02*
D03*
X940000Y100750D02*
D03*
X950500D02*
D03*
X875700Y204350D02*
D03*
X886200D02*
D03*
X874700Y102350D02*
D03*
X885200D02*
D03*
X592250Y441000D02*
D03*
X581750D02*
D03*
X453750Y370000D02*
D03*
X464250D02*
D03*
X452750Y406000D02*
D03*
X463250D02*
D03*
X463250Y415000D02*
D03*
X452750D02*
D03*
X463250Y424000D02*
D03*
X452750D02*
D03*
X463250Y433000D02*
D03*
X452750D02*
D03*
X463250Y442000D02*
D03*
X452750D02*
D03*
X464250Y379000D02*
D03*
X453750D02*
D03*
X347250Y287000D02*
D03*
X336750D02*
D03*
X336750Y278000D02*
D03*
X347250D02*
D03*
X464250Y388000D02*
D03*
X453750D02*
D03*
X581750Y387000D02*
D03*
X592250D02*
D03*
X581750Y378000D02*
D03*
X592250D02*
D03*
X478250Y338000D02*
D03*
X467750D02*
D03*
X478250Y360000D02*
D03*
X467750D02*
D03*
X581750Y396000D02*
D03*
X592250D02*
D03*
X866250Y366000D02*
D03*
X855750D02*
D03*
X1036750Y528000D02*
D03*
X1047250D02*
D03*
X866250Y375000D02*
D03*
X855750D02*
D03*
X592250Y415000D02*
D03*
X581750D02*
D03*
Y429000D02*
D03*
X592250D02*
D03*
X464250Y397000D02*
D03*
X453750D02*
D03*
D68*
X327998Y421000D02*
D03*
Y403000D02*
D03*
X262748Y419000D02*
D03*
Y401000D02*
D03*
X678000Y530000D02*
D03*
Y512000D02*
D03*
X716000Y530000D02*
D03*
Y512000D02*
D03*
X778000Y530000D02*
D03*
Y512000D02*
D03*
X677000Y295000D02*
D03*
Y277000D02*
D03*
X737000Y295000D02*
D03*
Y277000D02*
D03*
X792000Y295000D02*
D03*
Y277000D02*
D03*
X623000Y530000D02*
D03*
Y512000D02*
D03*
D131*
X622000Y569000D02*
D03*
X616000Y181000D02*
D03*
X823000Y200000D02*
D03*
X902000Y223000D02*
D03*
X836000Y219000D02*
D03*
X731000Y226000D02*
D03*
X724000Y240000D02*
D03*
D133*
X1402100Y368400D02*
D03*
Y393800D02*
D03*
X1325900Y368400D02*
D03*
Y393800D02*
D03*
X1402100Y419200D02*
D03*
X1325900D02*
D03*
X1402100Y470000D02*
D03*
Y444600D02*
D03*
Y520800D02*
D03*
X1325900Y571600D02*
D03*
X1402100D02*
D03*
Y546200D02*
D03*
X1325900Y495400D02*
D03*
Y470000D02*
D03*
Y444600D02*
D03*
Y546200D02*
D03*
X1402100Y495400D02*
D03*
X1325900Y520800D02*
D03*
Y286200D02*
D03*
Y184600D02*
D03*
Y210000D02*
D03*
Y235400D02*
D03*
X1402100Y286200D02*
D03*
Y311600D02*
D03*
X1325900D02*
D03*
X1402100Y260800D02*
D03*
X1325900Y159200D02*
D03*
X1402100D02*
D03*
X1325900Y133800D02*
D03*
Y108400D02*
D03*
X1402100Y133800D02*
D03*
Y108400D02*
D03*
Y184600D02*
D03*
Y210000D02*
D03*
Y235400D02*
D03*
X1325900Y260800D02*
D03*
D134*
X17140Y620000D02*
D03*
X23836Y603835D02*
D03*
X40000Y597140D02*
D03*
X23836Y636165D02*
D03*
X40000Y642860D02*
D03*
X56164Y603835D02*
D03*
Y636165D02*
D03*
X62860Y620000D02*
D03*
X1460000Y597140D02*
D03*
X1476164Y603835D02*
D03*
X1443836D02*
D03*
X1482860Y620000D02*
D03*
X1437140D02*
D03*
X1476164Y636165D02*
D03*
X1443836D02*
D03*
X1460000Y642860D02*
D03*
X1443836Y23836D02*
D03*
X1437140Y40000D02*
D03*
X1460000Y17140D02*
D03*
X1476164Y56164D02*
D03*
X1443836D02*
D03*
X1460000Y62860D02*
D03*
X1476164Y23836D02*
D03*
X1482860Y40000D02*
D03*
X23836Y23836D02*
D03*
X40000Y17140D02*
D03*
X17140Y40000D02*
D03*
X56164Y23836D02*
D03*
Y56164D02*
D03*
X62860Y40000D02*
D03*
X23836Y56164D02*
D03*
X40000Y62860D02*
D03*
X483835Y503836D02*
D03*
X500000Y497140D02*
D03*
X516164Y503836D02*
D03*
X477140Y520000D02*
D03*
X522860D02*
D03*
X483835Y536164D02*
D03*
X516164D02*
D03*
X500000Y542860D02*
D03*
X940000Y257140D02*
D03*
X923835Y263836D02*
D03*
X956165D02*
D03*
X917140Y280000D02*
D03*
X923835Y296164D02*
D03*
X962860Y280000D02*
D03*
X940000Y302860D02*
D03*
X956165Y296164D02*
D03*
X483835Y263836D02*
D03*
X500000Y257140D02*
D03*
X516164Y263836D02*
D03*
X477140Y280000D02*
D03*
X522860D02*
D03*
X483835Y296164D02*
D03*
X516164D02*
D03*
X500000Y302860D02*
D03*
X923835Y503836D02*
D03*
X917140Y520000D02*
D03*
X923835Y536164D02*
D03*
X940000Y497140D02*
D03*
X956165Y503836D02*
D03*
Y536164D02*
D03*
X962860Y520000D02*
D03*
X940000Y542860D02*
D03*
D136*
X570000Y470000D02*
D03*
X870000Y330000D02*
D03*
D151*
X323000Y549500D02*
D03*
Y562500D02*
D03*
X284000Y549500D02*
D03*
Y562500D02*
D03*
X297000Y549500D02*
D03*
Y562500D02*
D03*
X310000Y549500D02*
D03*
Y562500D02*
D03*
X308500Y393500D02*
D03*
Y380500D02*
D03*
X295500Y393500D02*
D03*
Y380500D02*
D03*
X282500Y393500D02*
D03*
Y380500D02*
D03*
X321500Y393500D02*
D03*
Y380500D02*
D03*
D152*
X40000Y620000D02*
D03*
X1460000D02*
D03*
Y40000D02*
D03*
X40000D02*
D03*
X500000Y520000D02*
D03*
X940000Y280000D02*
D03*
X500000D02*
D03*
X940000Y520000D02*
D03*
D154*
X528000Y69800D02*
D03*
X528032Y36189D02*
D03*
X1078032Y107189D02*
D03*
X1078000Y140800D02*
D03*
X976032Y89189D02*
D03*
X976000Y122800D02*
D03*
X551000Y69800D02*
D03*
X551032Y36189D02*
D03*
D155*
X1354250Y544526D02*
D03*
X1360750D02*
D03*
X1367250D02*
D03*
X1373750D02*
D03*
Y501474D02*
D03*
X1367250D02*
D03*
X1360750D02*
D03*
X1354250D02*
D03*
D156*
X394602Y299775D02*
D03*
Y280725D02*
D03*
X421399Y280852D02*
D03*
Y290250D02*
D03*
Y299648D02*
D03*
D157*
X982500Y410000D02*
D03*
Y397500D02*
D03*
Y322500D02*
D03*
Y435000D02*
D03*
Y422500D02*
D03*
Y485000D02*
D03*
Y472500D02*
D03*
Y460000D02*
D03*
Y447500D02*
D03*
Y385000D02*
D03*
Y372500D02*
D03*
Y360000D02*
D03*
Y347500D02*
D03*
Y335000D02*
D03*
Y497500D02*
D03*
X1182500Y240000D02*
D03*
Y215000D02*
D03*
Y202500D02*
D03*
Y190000D02*
D03*
Y177500D02*
D03*
Y165000D02*
D03*
Y152500D02*
D03*
Y140000D02*
D03*
Y227500D02*
D03*
X1242500Y252500D02*
D03*
Y227500D02*
D03*
Y215000D02*
D03*
Y202500D02*
D03*
Y190000D02*
D03*
Y177500D02*
D03*
Y165000D02*
D03*
Y152500D02*
D03*
Y140000D02*
D03*
Y127500D02*
D03*
Y240000D02*
D03*
D158*
X1010000Y297000D02*
D03*
Y523000D02*
D03*
X1210000Y114500D02*
D03*
Y265500D02*
D03*
X1270000Y102000D02*
D03*
Y278000D02*
D03*
D159*
X1063300Y516250D02*
D03*
Y522750D02*
D03*
Y529250D02*
D03*
Y535750D02*
D03*
Y542250D02*
D03*
Y548750D02*
D03*
Y555250D02*
D03*
Y561750D02*
D03*
Y568250D02*
D03*
Y574750D02*
D03*
Y581250D02*
D03*
Y587750D02*
D03*
X1120700D02*
D03*
Y581250D02*
D03*
Y574750D02*
D03*
Y568250D02*
D03*
Y561750D02*
D03*
Y555250D02*
D03*
Y548750D02*
D03*
Y542250D02*
D03*
Y535750D02*
D03*
Y529250D02*
D03*
Y522750D02*
D03*
Y516250D02*
D03*
D160*
X1224000Y517000D02*
D03*
Y545000D02*
D03*
X1192000Y517000D02*
D03*
Y545000D02*
D03*
X1190920Y421653D02*
D03*
Y449653D02*
D03*
X1222920Y421653D02*
D03*
Y449653D02*
D03*
X1222931Y326653D02*
D03*
Y354653D02*
D03*
X1190931Y326653D02*
D03*
Y354653D02*
D03*
X106000Y327000D02*
D03*
Y355000D02*
D03*
X138000Y327000D02*
D03*
Y355000D02*
D03*
X201000Y327000D02*
D03*
Y355000D02*
D03*
X233000Y327000D02*
D03*
Y355000D02*
D03*
X307000Y283000D02*
D03*
Y311000D02*
D03*
X274000Y283000D02*
D03*
Y311000D02*
D03*
X201000Y422000D02*
D03*
Y450000D02*
D03*
X233000Y422000D02*
D03*
Y450000D02*
D03*
X138000Y422000D02*
D03*
Y450000D02*
D03*
X106000Y422000D02*
D03*
Y450000D02*
D03*
X104000Y515000D02*
D03*
Y543000D02*
D03*
X139000Y515000D02*
D03*
Y543000D02*
D03*
X233000Y515000D02*
D03*
Y543000D02*
D03*
X201000Y515000D02*
D03*
Y543000D02*
D03*
X280000Y450000D02*
D03*
Y478000D02*
D03*
X312000Y450000D02*
D03*
Y478000D02*
D03*
D161*
X758000Y91250D02*
D03*
Y97750D02*
D03*
Y104250D02*
D03*
Y110750D02*
D03*
Y117250D02*
D03*
Y123750D02*
D03*
Y130250D02*
D03*
Y136750D02*
D03*
X816000Y117250D02*
D03*
Y110750D02*
D03*
Y104250D02*
D03*
Y97750D02*
D03*
Y143250D02*
D03*
Y136750D02*
D03*
Y130250D02*
D03*
Y123750D02*
D03*
Y162750D02*
D03*
Y149750D02*
D03*
X758000D02*
D03*
Y156250D02*
D03*
X816000D02*
D03*
X758000Y162750D02*
D03*
X816000Y91250D02*
D03*
X758000Y143250D02*
D03*
X498000Y398250D02*
D03*
X556000Y365750D02*
D03*
X498000Y359250D02*
D03*
Y346250D02*
D03*
X556000Y352750D02*
D03*
Y359250D02*
D03*
Y372250D02*
D03*
Y378750D02*
D03*
Y385250D02*
D03*
Y391750D02*
D03*
Y398250D02*
D03*
Y404750D02*
D03*
Y411250D02*
D03*
Y417750D02*
D03*
X498000Y411250D02*
D03*
Y404750D02*
D03*
Y385250D02*
D03*
Y372250D02*
D03*
Y365750D02*
D03*
Y378750D02*
D03*
Y391750D02*
D03*
Y352750D02*
D03*
X556000Y346250D02*
D03*
X498000Y417750D02*
D03*
D162*
X580000Y68000D02*
D03*
X589500Y48000D02*
D03*
X570500D02*
D03*
X752252Y334210D02*
D03*
X771251D02*
D03*
X761751Y354210D02*
D03*
D163*
X473000Y48000D02*
D03*
X429000Y38000D02*
D03*
Y33000D02*
D03*
Y48000D02*
D03*
Y43000D02*
D03*
X473000Y38000D02*
D03*
Y43000D02*
D03*
Y53000D02*
D03*
Y33000D02*
D03*
X429000Y53000D02*
D03*
D164*
X408750Y188500D02*
D03*
X383750D02*
D03*
X396250D02*
D03*
X371250D02*
D03*
X495750Y128500D02*
D03*
X545750D02*
D03*
X558250D02*
D03*
X508250D02*
D03*
X533250D02*
D03*
X520750D02*
D03*
X494750Y188500D02*
D03*
X557250D02*
D03*
X544750D02*
D03*
X507250D02*
D03*
X532250D02*
D03*
X519750D02*
D03*
X273250Y188500D02*
D03*
X260750D02*
D03*
X285750D02*
D03*
X248250D02*
D03*
X396250Y128500D02*
D03*
X383750D02*
D03*
X408750D02*
D03*
X371250D02*
D03*
X285750Y128500D02*
D03*
X260750D02*
D03*
X273250D02*
D03*
X248250D02*
D03*
X148750Y249500D02*
D03*
X161250D02*
D03*
X260750Y249500D02*
D03*
X273250D02*
D03*
X285750D02*
D03*
X248250D02*
D03*
X408750D02*
D03*
X396250D02*
D03*
X383750D02*
D03*
X371250D02*
D03*
X1073750Y482500D02*
D03*
X1086250D02*
D03*
X1085250Y408500D02*
D03*
X1072750D02*
D03*
D165*
X345750Y161000D02*
D03*
X434250D02*
D03*
X470250Y101000D02*
D03*
X583750D02*
D03*
X469250Y161000D02*
D03*
X582750D02*
D03*
X222750Y161000D02*
D03*
X311250D02*
D03*
X345750Y101000D02*
D03*
X434250D02*
D03*
X222750Y101000D02*
D03*
X311250D02*
D03*
X123250Y222000D02*
D03*
X186750D02*
D03*
X222750Y222000D02*
D03*
X311250D02*
D03*
X345750D02*
D03*
X434250D02*
D03*
X1048250Y455000D02*
D03*
X1111750D02*
D03*
X1047250Y381000D02*
D03*
X1110750D02*
D03*
D166*
X147000Y282000D02*
D03*
X119000D02*
D03*
X165000Y282000D02*
D03*
X193000D02*
D03*
D167*
X319000Y352000D02*
D03*
X278000D02*
D03*
X320500Y521000D02*
D03*
X279500D02*
D03*
D168*
X282750Y401500D02*
D03*
Y420500D02*
D03*
X308750Y401500D02*
D03*
Y420500D02*
D03*
Y411000D02*
D03*
D169*
X380500Y399550D02*
D03*
X385500D02*
D03*
X390500D02*
D03*
X395500D02*
D03*
X400500D02*
D03*
X405500D02*
D03*
X410500D02*
D03*
X415500D02*
D03*
X420500D02*
D03*
X425500D02*
D03*
Y458450D02*
D03*
X420500D02*
D03*
X415500D02*
D03*
X410500D02*
D03*
X405500D02*
D03*
X400500D02*
D03*
X395500D02*
D03*
X390500D02*
D03*
X385500D02*
D03*
X380500D02*
D03*
D170*
X373550Y451500D02*
D03*
Y446500D02*
D03*
Y441500D02*
D03*
Y436500D02*
D03*
Y431500D02*
D03*
Y426500D02*
D03*
Y421500D02*
D03*
Y416500D02*
D03*
Y411500D02*
D03*
Y406500D02*
D03*
X432450D02*
D03*
Y411500D02*
D03*
Y416500D02*
D03*
Y421500D02*
D03*
Y426500D02*
D03*
Y431500D02*
D03*
Y436500D02*
D03*
Y441500D02*
D03*
Y446500D02*
D03*
Y451500D02*
D03*
D171*
X403000Y429000D02*
D03*
D172*
X605250Y449700D02*
D03*
X611750D02*
D03*
X618250D02*
D03*
X624750D02*
D03*
X631250D02*
D03*
X637750D02*
D03*
X644250D02*
D03*
X650750D02*
D03*
X657250D02*
D03*
X663750D02*
D03*
X670250D02*
D03*
X676750D02*
D03*
Y392300D02*
D03*
X670250D02*
D03*
X663750D02*
D03*
X657250D02*
D03*
X650750D02*
D03*
X644250D02*
D03*
X637750D02*
D03*
X631250D02*
D03*
X624750D02*
D03*
X618250D02*
D03*
X611750D02*
D03*
X605250D02*
D03*
X706250D02*
D03*
X712750D02*
D03*
X719250D02*
D03*
X725750D02*
D03*
X732250D02*
D03*
X738750D02*
D03*
X745250D02*
D03*
X751750D02*
D03*
X758250D02*
D03*
X764750D02*
D03*
X771250D02*
D03*
X777750D02*
D03*
Y449700D02*
D03*
X771250D02*
D03*
X764750D02*
D03*
X758250D02*
D03*
X751750D02*
D03*
X745250D02*
D03*
X738750D02*
D03*
X732250D02*
D03*
X725750D02*
D03*
X719250D02*
D03*
X712750D02*
D03*
X706250D02*
D03*
X798250D02*
D03*
X804750D02*
D03*
X811250D02*
D03*
X817750D02*
D03*
X824250D02*
D03*
X830750D02*
D03*
X837250D02*
D03*
X843750D02*
D03*
X850250D02*
D03*
X856750D02*
D03*
X863250D02*
D03*
X869750D02*
D03*
Y392300D02*
D03*
X863250D02*
D03*
X856750D02*
D03*
X850250D02*
D03*
X843750D02*
D03*
X837250D02*
D03*
X830750D02*
D03*
X824250D02*
D03*
X817750D02*
D03*
X811250D02*
D03*
X804750D02*
D03*
X798250D02*
D03*
X883250Y364300D02*
D03*
X889750D02*
D03*
X896250D02*
D03*
X902750D02*
D03*
X909250D02*
D03*
X915750D02*
D03*
X922250D02*
D03*
X928750D02*
D03*
X935250D02*
D03*
X941750D02*
D03*
X948250D02*
D03*
X954750D02*
D03*
Y421700D02*
D03*
X948250D02*
D03*
X941750D02*
D03*
X935250D02*
D03*
X928750D02*
D03*
X922250D02*
D03*
X915750D02*
D03*
X909250D02*
D03*
X902750D02*
D03*
X896250D02*
D03*
X889750D02*
D03*
X883250D02*
D03*
D173*
X448750Y469250D02*
D03*
X459250Y482750D02*
D03*
X448750D02*
D03*
X459250Y469250D02*
D03*
M02*
