G04*
G04 #@! TF.GenerationSoftware,Altium Limited,Altium Designer,24.9.1 (31)*
G04*
G04 Layer_Color=8388736*
%FSLAX44Y44*%
%MOMM*%
G71*
G04*
G04 #@! TF.SameCoordinates,11843470-2C0B-4DC8-9AB9-1888B6BF92CD*
G04*
G04*
G04 #@! TF.FilePolarity,Negative*
G04*
G01*
G75*
%ADD21R,0.6604X1.0414*%
%ADD64R,0.7000X1.0000*%
%ADD74R,3.1750X1.2700*%
%ADD75R,1.4986X2.0574*%
G04:AMPARAMS|DCode=76|XSize=1.1032mm|YSize=1.1532mm|CornerRadius=0.2016mm|HoleSize=0mm|Usage=FLASHONLY|Rotation=0.000|XOffset=0mm|YOffset=0mm|HoleType=Round|Shape=RoundedRectangle|*
%AMROUNDEDRECTD76*
21,1,1.1032,0.7500,0,0,0.0*
21,1,0.7000,1.1532,0,0,0.0*
1,1,0.4032,0.3500,-0.3750*
1,1,0.4032,-0.3500,-0.3750*
1,1,0.4032,-0.3500,0.3750*
1,1,0.4032,0.3500,0.3750*
%
%ADD76ROUNDEDRECTD76*%
G04:AMPARAMS|DCode=77|XSize=0.25mm|YSize=0.75mm|CornerRadius=0.075mm|HoleSize=0mm|Usage=FLASHONLY|Rotation=180.000|XOffset=0mm|YOffset=0mm|HoleType=Round|Shape=RoundedRectangle|*
%AMROUNDEDRECTD77*
21,1,0.2500,0.6000,0,0,180.0*
21,1,0.1000,0.7500,0,0,180.0*
1,1,0.1500,-0.0500,0.3000*
1,1,0.1500,0.0500,0.3000*
1,1,0.1500,0.0500,-0.3000*
1,1,0.1500,-0.0500,-0.3000*
%
%ADD77ROUNDEDRECTD77*%
%ADD78R,0.5032X0.8532*%
%ADD79R,0.8532X0.4532*%
%ADD80R,0.4532X0.8532*%
%ADD81R,2.6032X0.5032*%
%ADD82R,4.7000X4.7000*%
G04:AMPARAMS|DCode=83|XSize=0.36mm|YSize=0.94mm|CornerRadius=0.0825mm|HoleSize=0mm|Usage=FLASHONLY|Rotation=180.000|XOffset=0mm|YOffset=0mm|HoleType=Round|Shape=RoundedRectangle|*
%AMROUNDEDRECTD83*
21,1,0.3600,0.7750,0,0,180.0*
21,1,0.1950,0.9400,0,0,180.0*
1,1,0.1650,-0.0975,0.3875*
1,1,0.1650,0.0975,0.3875*
1,1,0.1650,0.0975,-0.3875*
1,1,0.1650,-0.0975,-0.3875*
%
%ADD83ROUNDEDRECTD83*%
G04:AMPARAMS|DCode=84|XSize=0.94mm|YSize=0.36mm|CornerRadius=0.0825mm|HoleSize=0mm|Usage=FLASHONLY|Rotation=180.000|XOffset=0mm|YOffset=0mm|HoleType=Round|Shape=RoundedRectangle|*
%AMROUNDEDRECTD84*
21,1,0.9400,0.1950,0,0,180.0*
21,1,0.7750,0.3600,0,0,180.0*
1,1,0.1650,-0.3875,0.0975*
1,1,0.1650,0.3875,0.0975*
1,1,0.1650,0.3875,-0.0975*
1,1,0.1650,-0.3875,-0.0975*
%
%ADD84ROUNDEDRECTD84*%
G04:AMPARAMS|DCode=85|XSize=1.1532mm|YSize=1.0532mm|CornerRadius=0.3141mm|HoleSize=0mm|Usage=FLASHONLY|Rotation=180.000|XOffset=0mm|YOffset=0mm|HoleType=Round|Shape=RoundedRectangle|*
%AMROUNDEDRECTD85*
21,1,1.1532,0.4250,0,0,180.0*
21,1,0.5250,1.0532,0,0,180.0*
1,1,0.6282,-0.2625,0.2125*
1,1,0.6282,0.2625,0.2125*
1,1,0.6282,0.2625,-0.2125*
1,1,0.6282,-0.2625,-0.2125*
%
%ADD85ROUNDEDRECTD85*%
G04:AMPARAMS|DCode=86|XSize=1.8532mm|YSize=2.7532mm|CornerRadius=0.3516mm|HoleSize=0mm|Usage=FLASHONLY|Rotation=180.000|XOffset=0mm|YOffset=0mm|HoleType=Round|Shape=RoundedRectangle|*
%AMROUNDEDRECTD86*
21,1,1.8532,2.0500,0,0,180.0*
21,1,1.1500,2.7532,0,0,180.0*
1,1,0.7032,-0.5750,1.0250*
1,1,0.7032,0.5750,1.0250*
1,1,0.7032,0.5750,-1.0250*
1,1,0.7032,-0.5750,-1.0250*
%
%ADD86ROUNDEDRECTD86*%
G04:AMPARAMS|DCode=87|XSize=1.1532mm|YSize=1.0532mm|CornerRadius=0.3141mm|HoleSize=0mm|Usage=FLASHONLY|Rotation=270.000|XOffset=0mm|YOffset=0mm|HoleType=Round|Shape=RoundedRectangle|*
%AMROUNDEDRECTD87*
21,1,1.1532,0.4250,0,0,270.0*
21,1,0.5250,1.0532,0,0,270.0*
1,1,0.6282,-0.2125,-0.2625*
1,1,0.6282,-0.2125,0.2625*
1,1,0.6282,0.2125,0.2625*
1,1,0.6282,0.2125,-0.2625*
%
%ADD87ROUNDEDRECTD87*%
%ADD88R,2.3632X1.7232*%
G04:AMPARAMS|DCode=89|XSize=1.7mm|YSize=1.5mm|CornerRadius=0.057mm|HoleSize=0mm|Usage=FLASHONLY|Rotation=0.000|XOffset=0mm|YOffset=0mm|HoleType=Round|Shape=RoundedRectangle|*
%AMROUNDEDRECTD89*
21,1,1.7000,1.3860,0,0,0.0*
21,1,1.5860,1.5000,0,0,0.0*
1,1,0.1140,0.7930,-0.6930*
1,1,0.1140,-0.7930,-0.6930*
1,1,0.1140,-0.7930,0.6930*
1,1,0.1140,0.7930,0.6930*
%
%ADD89ROUNDEDRECTD89*%
%ADD90R,0.7016X1.6516*%
G04:AMPARAMS|DCode=91|XSize=1.4032mm|YSize=1.5032mm|CornerRadius=0.3516mm|HoleSize=0mm|Usage=FLASHONLY|Rotation=180.000|XOffset=0mm|YOffset=0mm|HoleType=Round|Shape=RoundedRectangle|*
%AMROUNDEDRECTD91*
21,1,1.4032,0.8000,0,0,180.0*
21,1,0.7000,1.5032,0,0,180.0*
1,1,0.7032,-0.3500,0.4000*
1,1,0.7032,0.3500,0.4000*
1,1,0.7032,0.3500,-0.4000*
1,1,0.7032,-0.3500,-0.4000*
%
%ADD91ROUNDEDRECTD91*%
%ADD92R,3.5032X3.3532*%
%ADD93O,0.4516X1.5016*%
%ADD94R,2.3532X1.1532*%
%ADD95R,2.3532X3.4532*%
%ADD96R,0.7620X3.1242*%
%ADD97R,1.1938X0.7112*%
%ADD98R,0.9906X0.9144*%
%ADD99R,1.2954X1.2446*%
%ADD100R,1.3970X1.2446*%
%ADD101R,2.5908X1.2446*%
G04:AMPARAMS|DCode=102|XSize=1.8432mm|YSize=0.7932mm|CornerRadius=0.2491mm|HoleSize=0mm|Usage=FLASHONLY|Rotation=180.000|XOffset=0mm|YOffset=0mm|HoleType=Round|Shape=RoundedRectangle|*
%AMROUNDEDRECTD102*
21,1,1.8432,0.2950,0,0,180.0*
21,1,1.3450,0.7932,0,0,180.0*
1,1,0.4982,-0.6725,0.1475*
1,1,0.4982,0.6725,0.1475*
1,1,0.4982,0.6725,-0.1475*
1,1,0.4982,-0.6725,-0.1475*
%
%ADD102ROUNDEDRECTD102*%
G04:AMPARAMS|DCode=103|XSize=1.4132mm|YSize=0.7932mm|CornerRadius=0.1754mm|HoleSize=0mm|Usage=FLASHONLY|Rotation=180.000|XOffset=0mm|YOffset=0mm|HoleType=Round|Shape=RoundedRectangle|*
%AMROUNDEDRECTD103*
21,1,1.4132,0.4425,0,0,180.0*
21,1,1.0625,0.7932,0,0,180.0*
1,1,0.3507,-0.5313,0.2213*
1,1,0.3507,0.5313,0.2213*
1,1,0.3507,0.5313,-0.2213*
1,1,0.3507,-0.5313,-0.2213*
%
%ADD103ROUNDEDRECTD103*%
G04:AMPARAMS|DCode=104|XSize=0.91mm|YSize=0.34mm|CornerRadius=0.0491mm|HoleSize=0mm|Usage=FLASHONLY|Rotation=270.000|XOffset=0mm|YOffset=0mm|HoleType=Round|Shape=RoundedRectangle|*
%AMROUNDEDRECTD104*
21,1,0.9100,0.2418,0,0,270.0*
21,1,0.8118,0.3400,0,0,270.0*
1,1,0.0982,-0.1209,-0.4059*
1,1,0.0982,-0.1209,0.4059*
1,1,0.0982,0.1209,0.4059*
1,1,0.0982,0.1209,-0.4059*
%
%ADD104ROUNDEDRECTD104*%
G04:AMPARAMS|DCode=105|XSize=0.34mm|YSize=0.91mm|CornerRadius=0.0491mm|HoleSize=0mm|Usage=FLASHONLY|Rotation=270.000|XOffset=0mm|YOffset=0mm|HoleType=Round|Shape=RoundedRectangle|*
%AMROUNDEDRECTD105*
21,1,0.3400,0.8118,0,0,270.0*
21,1,0.2418,0.9100,0,0,270.0*
1,1,0.0982,-0.4059,-0.1209*
1,1,0.0982,-0.4059,0.1209*
1,1,0.0982,0.4059,0.1209*
1,1,0.0982,0.4059,-0.1209*
%
%ADD105ROUNDEDRECTD105*%
%ADD106R,1.7800X1.7800*%
G04:AMPARAMS|DCode=107|XSize=1.4132mm|YSize=0.7932mm|CornerRadius=0.1754mm|HoleSize=0mm|Usage=FLASHONLY|Rotation=270.000|XOffset=0mm|YOffset=0mm|HoleType=Round|Shape=RoundedRectangle|*
%AMROUNDEDRECTD107*
21,1,1.4132,0.4425,0,0,270.0*
21,1,1.0625,0.7932,0,0,270.0*
1,1,0.3507,-0.2213,-0.5313*
1,1,0.3507,-0.2213,0.5313*
1,1,0.3507,0.2213,0.5313*
1,1,0.3507,0.2213,-0.5313*
%
%ADD107ROUNDEDRECTD107*%
G04:AMPARAMS|DCode=108|XSize=0.6604mm|YSize=1.5748mm|CornerRadius=0.2159mm|HoleSize=0mm|Usage=FLASHONLY|Rotation=0.000|XOffset=0mm|YOffset=0mm|HoleType=Round|Shape=RoundedRectangle|*
%AMROUNDEDRECTD108*
21,1,0.6604,1.1430,0,0,0.0*
21,1,0.2286,1.5748,0,0,0.0*
1,1,0.4318,0.1143,-0.5715*
1,1,0.4318,-0.1143,-0.5715*
1,1,0.4318,-0.1143,0.5715*
1,1,0.4318,0.1143,0.5715*
%
%ADD108ROUNDEDRECTD108*%
%ADD109R,1.5032X1.8032*%
%ADD110R,1.7526X1.6256*%
%ADD111R,2.0032X1.8032*%
%ADD112R,1.2032X1.8032*%
%ADD113O,1.5016X0.4516*%
G04:AMPARAMS|DCode=114|XSize=1.5232mm|YSize=0.8032mm|CornerRadius=0.1766mm|HoleSize=0mm|Usage=FLASHONLY|Rotation=180.000|XOffset=0mm|YOffset=0mm|HoleType=Round|Shape=RoundedRectangle|*
%AMROUNDEDRECTD114*
21,1,1.5232,0.4500,0,0,180.0*
21,1,1.1700,0.8032,0,0,180.0*
1,1,0.3532,-0.5850,0.2250*
1,1,0.3532,0.5850,0.2250*
1,1,0.3532,0.5850,-0.2250*
1,1,0.3532,-0.5850,-0.2250*
%
%ADD114ROUNDEDRECTD114*%
G04:AMPARAMS|DCode=115|XSize=1.8432mm|YSize=0.7932mm|CornerRadius=0.2491mm|HoleSize=0mm|Usage=FLASHONLY|Rotation=90.000|XOffset=0mm|YOffset=0mm|HoleType=Round|Shape=RoundedRectangle|*
%AMROUNDEDRECTD115*
21,1,1.8432,0.2950,0,0,90.0*
21,1,1.3450,0.7932,0,0,90.0*
1,1,0.4982,0.1475,0.6725*
1,1,0.4982,0.1475,-0.6725*
1,1,0.4982,-0.1475,-0.6725*
1,1,0.4982,-0.1475,0.6725*
%
%ADD115ROUNDEDRECTD115*%
G04:AMPARAMS|DCode=116|XSize=0.75mm|YSize=0.7mm|CornerRadius=0.2mm|HoleSize=0mm|Usage=FLASHONLY|Rotation=90.000|XOffset=0mm|YOffset=0mm|HoleType=Round|Shape=RoundedRectangle|*
%AMROUNDEDRECTD116*
21,1,0.7500,0.3000,0,0,90.0*
21,1,0.3500,0.7000,0,0,90.0*
1,1,0.4000,0.1500,0.1750*
1,1,0.4000,0.1500,-0.1750*
1,1,0.4000,-0.1500,-0.1750*
1,1,0.4000,-0.1500,0.1750*
%
%ADD116ROUNDEDRECTD116*%
%ADD117R,0.7524X1.1524*%
%ADD118R,1.4024X1.9524*%
%ADD119R,0.7500X0.3500*%
%ADD120R,0.3500X0.7500*%
%ADD121R,0.7500X0.3286*%
%ADD122R,0.7500X0.4000*%
G04:AMPARAMS|DCode=123|XSize=0.75mm|YSize=0.7mm|CornerRadius=0.2mm|HoleSize=0mm|Usage=FLASHONLY|Rotation=180.000|XOffset=0mm|YOffset=0mm|HoleType=Round|Shape=RoundedRectangle|*
%AMROUNDEDRECTD123*
21,1,0.7500,0.3000,0,0,180.0*
21,1,0.3500,0.7000,0,0,180.0*
1,1,0.4000,-0.1750,0.1500*
1,1,0.4000,0.1750,0.1500*
1,1,0.4000,0.1750,-0.1500*
1,1,0.4000,-0.1750,-0.1500*
%
%ADD123ROUNDEDRECTD123*%
%ADD124R,1.2032X1.7032*%
G04:AMPARAMS|DCode=125|XSize=1.4032mm|YSize=1.5032mm|CornerRadius=0.3516mm|HoleSize=0mm|Usage=FLASHONLY|Rotation=270.000|XOffset=0mm|YOffset=0mm|HoleType=Round|Shape=RoundedRectangle|*
%AMROUNDEDRECTD125*
21,1,1.4032,0.8000,0,0,270.0*
21,1,0.7000,1.5032,0,0,270.0*
1,1,0.7032,-0.4000,-0.3500*
1,1,0.7032,-0.4000,0.3500*
1,1,0.7032,0.4000,0.3500*
1,1,0.7032,0.4000,-0.3500*
%
%ADD125ROUNDEDRECTD125*%
G04:AMPARAMS|DCode=126|XSize=2.1732mm|YSize=0.8032mm|CornerRadius=0.2516mm|HoleSize=0mm|Usage=FLASHONLY|Rotation=180.000|XOffset=0mm|YOffset=0mm|HoleType=Round|Shape=RoundedRectangle|*
%AMROUNDEDRECTD126*
21,1,2.1732,0.3000,0,0,180.0*
21,1,1.6700,0.8032,0,0,180.0*
1,1,0.5032,-0.8350,0.1500*
1,1,0.5032,0.8350,0.1500*
1,1,0.5032,0.8350,-0.1500*
1,1,0.5032,-0.8350,-0.1500*
%
%ADD126ROUNDEDRECTD126*%
%ADD127R,2.9210X3.6068*%
G04:AMPARAMS|DCode=128|XSize=1.9532mm|YSize=1.4532mm|CornerRadius=0.3516mm|HoleSize=0mm|Usage=FLASHONLY|Rotation=90.000|XOffset=0mm|YOffset=0mm|HoleType=Round|Shape=RoundedRectangle|*
%AMROUNDEDRECTD128*
21,1,1.9532,0.7500,0,0,90.0*
21,1,1.2500,1.4532,0,0,90.0*
1,1,0.7032,0.3750,0.6250*
1,1,0.7032,0.3750,-0.6250*
1,1,0.7032,-0.3750,-0.6250*
1,1,0.7032,-0.3750,0.6250*
%
%ADD128ROUNDEDRECTD128*%
%ADD129R,0.9500X0.8500*%
%ADD130R,2.2032X4.4032*%
%ADD131C,1.3000*%
%ADD132C,0.6016*%
%ADD133C,1.5000*%
%ADD134C,1.5240*%
%ADD135C,6.5532*%
%ADD136C,4.0000*%
G36*
X40000Y655000D02*
X1460000Y655000D01*
X1460000Y654999D01*
X1462294Y655000D01*
X1466843Y654401D01*
X1471275Y653214D01*
X1475513Y651458D01*
X1479487Y649164D01*
X1483127Y646371D01*
X1486371Y643127D01*
X1489164Y639487D01*
X1491458Y635513D01*
X1493214Y631275D01*
X1494401Y626843D01*
X1495000Y622294D01*
X1495000Y620000D01*
X1495000Y40000D01*
X1495000Y40000D01*
Y37706D01*
X1494401Y33157D01*
X1493213Y28725D01*
X1491458Y24486D01*
X1489164Y20513D01*
X1486371Y16873D01*
X1483126Y13629D01*
X1479487Y10836D01*
X1475513Y8542D01*
X1471274Y6786D01*
X1466843Y5599D01*
X1462294Y5000D01*
X39998D01*
X37704Y5000D01*
X33155Y5599D01*
X28723Y6786D01*
X24485Y8542D01*
X20512Y10836D01*
X16872Y13629D01*
X13628Y16874D01*
X10835Y20513D01*
X8541Y24487D01*
X6786Y28726D01*
X5598Y33157D01*
X5000Y37706D01*
X5000Y40000D01*
Y70000D01*
Y110000D01*
Y620000D01*
X5000Y622294D01*
X5598Y626843D01*
X6786Y631275D01*
X8541Y635514D01*
X10835Y639487D01*
X13628Y643127D01*
X16872Y646372D01*
X20512Y649165D01*
X24486Y651459D01*
X28725Y653214D01*
X33157Y654402D01*
X37706Y655000D01*
X40000Y655000D01*
D02*
G37*
%LPC*%
G36*
X1440000Y600000D02*
X965000D01*
Y255000D01*
X960000Y250000D01*
X920000D01*
X915000Y255000D01*
Y600000D01*
X525000D01*
Y255000D01*
X520000Y250000D01*
X480000D01*
X475000Y255000D01*
Y600000D01*
X60000D01*
Y110000D01*
Y70000D01*
Y15157D01*
X1440000D01*
Y600000D01*
D02*
G37*
%LPD*%
G36*
X320500Y543000D02*
X286500D01*
Y569000D01*
X320500D01*
Y543000D01*
D02*
G37*
G36*
X319000Y374000D02*
X285000D01*
Y400000D01*
X319000D01*
Y374000D01*
D02*
G37*
D21*
X240000Y70420D02*
D03*
X225000D02*
D03*
X210000D02*
D03*
X195000D02*
D03*
X180000D02*
D03*
X165000D02*
D03*
X150000D02*
D03*
X135000D02*
D03*
X120000D02*
D03*
D64*
X1018000Y153000D02*
D03*
X1027000D02*
D03*
X1118000D02*
D03*
X1127000D02*
D03*
X1029501Y244000D02*
D03*
X1020501D02*
D03*
X1129501D02*
D03*
X1120501D02*
D03*
D74*
X382000Y353800D02*
D03*
Y379200D02*
D03*
X436610Y303000D02*
D03*
Y277600D02*
D03*
Y379200D02*
D03*
X382000Y303000D02*
D03*
X436610Y328400D02*
D03*
X382000Y277600D02*
D03*
Y328400D02*
D03*
X436610Y353800D02*
D03*
D75*
X96950Y18520D02*
D03*
X263050D02*
D03*
D76*
X640200Y166000D02*
D03*
X673810Y165968D02*
D03*
X762190Y189032D02*
D03*
X795800Y189000D02*
D03*
X745810Y188968D02*
D03*
X712200Y189000D02*
D03*
X790200Y142000D02*
D03*
X823811Y141968D02*
D03*
X790200Y166000D02*
D03*
X823810Y165968D02*
D03*
X740200Y166000D02*
D03*
X773810Y165968D02*
D03*
X740200Y142000D02*
D03*
X773811Y141968D02*
D03*
X690200Y142000D02*
D03*
X723811Y141968D02*
D03*
X690200Y166000D02*
D03*
X723811Y165968D02*
D03*
X640200Y142000D02*
D03*
X673811Y141968D02*
D03*
X1068200Y462000D02*
D03*
X1101811Y461968D02*
D03*
D77*
X787790Y501400D02*
D03*
X707790D02*
D03*
X703790D02*
D03*
X695790D02*
D03*
X691790D02*
D03*
X683790D02*
D03*
X679790D02*
D03*
X663790Y532200D02*
D03*
X659790D02*
D03*
X711790D02*
D03*
X783790Y501400D02*
D03*
X611790D02*
D03*
X615790D02*
D03*
X619790D02*
D03*
X623790D02*
D03*
X643790D02*
D03*
X647790D02*
D03*
X655790D02*
D03*
X659790D02*
D03*
X631790D02*
D03*
X635790D02*
D03*
X759790D02*
D03*
X719790D02*
D03*
X723790D02*
D03*
X743790Y532200D02*
D03*
X747790D02*
D03*
X735790D02*
D03*
X739790D02*
D03*
X731790D02*
D03*
X727790D02*
D03*
X715790D02*
D03*
X719790D02*
D03*
X703790D02*
D03*
X699790D02*
D03*
X695790D02*
D03*
X691790D02*
D03*
X747790Y501400D02*
D03*
X743790D02*
D03*
X731790D02*
D03*
X727790D02*
D03*
X635790Y532200D02*
D03*
X631790D02*
D03*
X623790D02*
D03*
X619790D02*
D03*
X643790D02*
D03*
X639790D02*
D03*
X615790D02*
D03*
X611790D02*
D03*
X655790D02*
D03*
X651790D02*
D03*
X683790D02*
D03*
X679790D02*
D03*
X675790D02*
D03*
X671790D02*
D03*
Y501400D02*
D03*
X667790D02*
D03*
X799790Y532200D02*
D03*
X795790D02*
D03*
X791790D02*
D03*
X787790D02*
D03*
X775790Y501400D02*
D03*
X779790Y532200D02*
D03*
X767790D02*
D03*
X771790D02*
D03*
X763790Y501400D02*
D03*
X767790D02*
D03*
X755790D02*
D03*
Y532200D02*
D03*
X759790D02*
D03*
X779790Y501400D02*
D03*
X775790Y532200D02*
D03*
X763790D02*
D03*
X723790D02*
D03*
X627790D02*
D03*
X647790D02*
D03*
X667790D02*
D03*
X783790D02*
D03*
X751790D02*
D03*
X687790D02*
D03*
X791790Y501400D02*
D03*
X803790D02*
D03*
X795790D02*
D03*
X807790Y532200D02*
D03*
X803790D02*
D03*
X807790Y501400D02*
D03*
X799790D02*
D03*
X735790D02*
D03*
X739790D02*
D03*
X687790D02*
D03*
X699790D02*
D03*
X715790D02*
D03*
X675790D02*
D03*
X627790D02*
D03*
X639790D02*
D03*
X651790D02*
D03*
X663790D02*
D03*
X771790D02*
D03*
X751790D02*
D03*
X711790D02*
D03*
X707790Y532200D02*
D03*
X728250Y296900D02*
D03*
X732250Y266100D02*
D03*
X772250D02*
D03*
X792250D02*
D03*
X684250D02*
D03*
X672250D02*
D03*
X660250D02*
D03*
X648250D02*
D03*
X696250D02*
D03*
X736250D02*
D03*
X720250D02*
D03*
X708250D02*
D03*
X760250D02*
D03*
X756250D02*
D03*
X820250D02*
D03*
X828250D02*
D03*
X824250Y296900D02*
D03*
X828250D02*
D03*
X816250Y266100D02*
D03*
X824250D02*
D03*
X812250D02*
D03*
X708250Y296900D02*
D03*
X772250D02*
D03*
X804250D02*
D03*
X688250D02*
D03*
X668250D02*
D03*
X648250D02*
D03*
X744250D02*
D03*
X784250D02*
D03*
X796250D02*
D03*
X800250Y266100D02*
D03*
X780250Y296900D02*
D03*
X776250D02*
D03*
Y266100D02*
D03*
X788250D02*
D03*
X784250D02*
D03*
X792250Y296900D02*
D03*
X788250D02*
D03*
X800250D02*
D03*
X796250Y266100D02*
D03*
X808250Y296900D02*
D03*
X812250D02*
D03*
X816250D02*
D03*
X820250D02*
D03*
X688250Y266100D02*
D03*
X692250D02*
D03*
Y296900D02*
D03*
X696250D02*
D03*
X700250D02*
D03*
X704250D02*
D03*
X672250D02*
D03*
X676250D02*
D03*
X632250D02*
D03*
X636250D02*
D03*
X660250D02*
D03*
X664250D02*
D03*
X640250D02*
D03*
X644250D02*
D03*
X652250D02*
D03*
X656250D02*
D03*
X748250Y266100D02*
D03*
X752250D02*
D03*
X764250D02*
D03*
X768250D02*
D03*
X712250Y296900D02*
D03*
X716250D02*
D03*
X720250D02*
D03*
X724250D02*
D03*
X740250D02*
D03*
X736250D02*
D03*
X748250D02*
D03*
X752250D02*
D03*
X760250D02*
D03*
X756250D02*
D03*
X768250D02*
D03*
X764250D02*
D03*
X744250Y266100D02*
D03*
X740250D02*
D03*
X780250D02*
D03*
X656250D02*
D03*
X652250D02*
D03*
X680250D02*
D03*
X676250D02*
D03*
X668250D02*
D03*
X664250D02*
D03*
X644250D02*
D03*
X640250D02*
D03*
X636250D02*
D03*
X632250D02*
D03*
X804250D02*
D03*
X732250Y296900D02*
D03*
X680250D02*
D03*
X684250D02*
D03*
X700250Y266100D02*
D03*
X704250D02*
D03*
X712250D02*
D03*
X716250D02*
D03*
X724250D02*
D03*
X728250D02*
D03*
X808250D02*
D03*
D78*
X1184250Y528029D02*
D03*
X1198250Y528000D02*
D03*
Y546499D02*
D03*
X1184250D02*
D03*
X193080Y526618D02*
D03*
X207080Y526589D02*
D03*
Y545088D02*
D03*
X193080D02*
D03*
X207080Y338588D02*
D03*
Y357088D02*
D03*
X193080D02*
D03*
Y338617D02*
D03*
X112080Y338588D02*
D03*
X98080Y338617D02*
D03*
X112080Y357088D02*
D03*
X98080D02*
D03*
X207080Y433588D02*
D03*
X193080Y433617D02*
D03*
X207080Y452088D02*
D03*
X193080D02*
D03*
X98080Y433617D02*
D03*
X112080Y433588D02*
D03*
Y452088D02*
D03*
X98080D02*
D03*
X112010Y527241D02*
D03*
Y545741D02*
D03*
X98011D02*
D03*
Y527270D02*
D03*
X1183000Y433270D02*
D03*
X1197000Y451741D02*
D03*
Y433241D02*
D03*
X1183000Y451741D02*
D03*
X1183011Y338270D02*
D03*
X1197011Y356740D02*
D03*
Y338241D02*
D03*
X1183011Y356740D02*
D03*
D79*
X1182500Y530029D02*
D03*
X1200000Y530000D02*
D03*
Y544500D02*
D03*
X1182500Y544499D02*
D03*
X191330Y528618D02*
D03*
X208830Y528588D02*
D03*
Y543088D02*
D03*
X191330D02*
D03*
X208830Y340588D02*
D03*
Y355088D02*
D03*
X191330D02*
D03*
Y340617D02*
D03*
X113830Y340588D02*
D03*
X96330Y340617D02*
D03*
X113830Y355088D02*
D03*
X96330D02*
D03*
X208830Y435588D02*
D03*
X191330Y435617D02*
D03*
X208830Y450088D02*
D03*
X191330D02*
D03*
X96330Y435617D02*
D03*
X113830Y435588D02*
D03*
Y450088D02*
D03*
X96330D02*
D03*
X113761Y529241D02*
D03*
Y543741D02*
D03*
X96260Y543740D02*
D03*
Y529270D02*
D03*
X1181250Y435271D02*
D03*
Y449741D02*
D03*
X1198750Y449741D02*
D03*
Y435241D02*
D03*
X1181261Y340270D02*
D03*
Y354740D02*
D03*
X1198761Y354740D02*
D03*
Y340241D02*
D03*
D80*
X1193498Y528000D02*
D03*
X1189007Y528030D02*
D03*
Y546499D02*
D03*
X1193498D02*
D03*
X197836Y545088D02*
D03*
X202328Y526589D02*
D03*
X197836Y526618D02*
D03*
X202328Y545088D02*
D03*
Y338588D02*
D03*
X197836Y338618D02*
D03*
Y357088D02*
D03*
X202328D02*
D03*
X102837Y338618D02*
D03*
Y357088D02*
D03*
X107328Y338588D02*
D03*
Y357088D02*
D03*
X202328Y433588D02*
D03*
X197836Y433618D02*
D03*
Y452088D02*
D03*
X202328D02*
D03*
X107328Y433588D02*
D03*
X102837Y433618D02*
D03*
Y452088D02*
D03*
X107328D02*
D03*
X102767Y527270D02*
D03*
Y545741D02*
D03*
X107259Y527241D02*
D03*
Y545741D02*
D03*
X1187757Y433271D02*
D03*
X1192248Y433241D02*
D03*
X1187757Y451741D02*
D03*
X1192248D02*
D03*
X1187767Y338270D02*
D03*
X1192259Y338241D02*
D03*
X1187767Y356740D02*
D03*
X1192259D02*
D03*
D81*
X1191239Y539759D02*
D03*
X1191250Y534759D02*
D03*
X200069Y538347D02*
D03*
X200080Y533347D02*
D03*
X200069Y350348D02*
D03*
X200080Y345347D02*
D03*
X105069Y350348D02*
D03*
X105080Y345347D02*
D03*
X200069Y445347D02*
D03*
X200080Y440347D02*
D03*
X105069Y445347D02*
D03*
X105080Y440347D02*
D03*
X105000Y539000D02*
D03*
X105011Y534000D02*
D03*
X1189989Y445000D02*
D03*
X1190000Y440000D02*
D03*
Y350000D02*
D03*
X1190011Y345000D02*
D03*
D82*
X1069000Y359000D02*
D03*
D83*
X1091500Y388450D02*
D03*
X1086500D02*
D03*
X1081500D02*
D03*
X1076500D02*
D03*
X1071500D02*
D03*
X1066500D02*
D03*
X1061500D02*
D03*
X1056500D02*
D03*
X1051500D02*
D03*
X1046500D02*
D03*
Y329550D02*
D03*
X1051500D02*
D03*
X1056500D02*
D03*
X1061500D02*
D03*
X1066500D02*
D03*
X1071500D02*
D03*
X1076500D02*
D03*
X1081500D02*
D03*
X1086500D02*
D03*
X1091500D02*
D03*
D84*
X1098450Y336500D02*
D03*
Y341500D02*
D03*
Y346500D02*
D03*
Y351500D02*
D03*
Y356500D02*
D03*
Y361500D02*
D03*
Y366500D02*
D03*
Y371500D02*
D03*
Y376500D02*
D03*
Y381500D02*
D03*
X1039550D02*
D03*
Y376500D02*
D03*
Y371500D02*
D03*
Y366500D02*
D03*
Y361500D02*
D03*
Y356500D02*
D03*
Y351500D02*
D03*
Y346500D02*
D03*
Y341500D02*
D03*
Y336500D02*
D03*
D85*
X168931Y374402D02*
D03*
Y358903D02*
D03*
X73931Y374402D02*
D03*
Y358903D02*
D03*
X168931Y562402D02*
D03*
Y546902D02*
D03*
Y469403D02*
D03*
Y453903D02*
D03*
X73931Y563403D02*
D03*
Y547903D02*
D03*
Y469403D02*
D03*
Y453903D02*
D03*
X284000Y40750D02*
D03*
Y25250D02*
D03*
X980499Y150750D02*
D03*
Y135250D02*
D03*
X1062499Y151750D02*
D03*
Y136250D02*
D03*
X1080499Y150750D02*
D03*
Y135250D02*
D03*
X1162499Y151750D02*
D03*
Y136250D02*
D03*
X1065000Y242750D02*
D03*
Y227250D02*
D03*
X983000Y241750D02*
D03*
Y226250D02*
D03*
X1165000Y242750D02*
D03*
Y227250D02*
D03*
X1160101Y563814D02*
D03*
Y548314D02*
D03*
X1158851Y453556D02*
D03*
Y469056D02*
D03*
X1158862Y358555D02*
D03*
Y374055D02*
D03*
X1083000Y241750D02*
D03*
Y226250D02*
D03*
D86*
X142000Y559500D02*
D03*
Y518500D02*
D03*
Y371500D02*
D03*
Y330500D02*
D03*
Y425500D02*
D03*
Y466500D02*
D03*
X237000Y559500D02*
D03*
Y518500D02*
D03*
Y466500D02*
D03*
Y425500D02*
D03*
Y371500D02*
D03*
Y330500D02*
D03*
X1127000Y446500D02*
D03*
Y487500D02*
D03*
X1226931Y330153D02*
D03*
Y371153D02*
D03*
X1226920Y466153D02*
D03*
Y425153D02*
D03*
X1228170Y519912D02*
D03*
Y560912D02*
D03*
D87*
X87250Y588000D02*
D03*
X102750D02*
D03*
X179750Y588000D02*
D03*
X164250D02*
D03*
X150250Y293000D02*
D03*
X165750D02*
D03*
X79250Y292000D02*
D03*
X94750D02*
D03*
X316250Y78000D02*
D03*
X331750D02*
D03*
X298750Y210000D02*
D03*
X283250D02*
D03*
D88*
X451300Y447950D02*
D03*
Y422550D02*
D03*
X368700D02*
D03*
Y447950D02*
D03*
D89*
X365500Y532500D02*
D03*
X444500Y487500D02*
D03*
X365500D02*
D03*
X444500Y532500D02*
D03*
X445500Y600750D02*
D03*
X366500Y555750D02*
D03*
X445500D02*
D03*
X366500Y600750D02*
D03*
D90*
X322550Y529000D02*
D03*
X309850D02*
D03*
X297150D02*
D03*
X284450D02*
D03*
Y583000D02*
D03*
X297150D02*
D03*
X309850D02*
D03*
X322550D02*
D03*
X321050Y414000D02*
D03*
X308350D02*
D03*
X295650D02*
D03*
X282950D02*
D03*
Y360000D02*
D03*
X295650D02*
D03*
X308350D02*
D03*
X321050D02*
D03*
D91*
X312000Y509998D02*
D03*
X294000D02*
D03*
X310500Y339998D02*
D03*
X292500D02*
D03*
X1100000Y439998D02*
D03*
X1082000D02*
D03*
D92*
X329500Y462000D02*
D03*
X274500D02*
D03*
X273000Y292000D02*
D03*
X328000D02*
D03*
D93*
X123750Y276500D02*
D03*
X110750D02*
D03*
X117250D02*
D03*
X110750Y235500D02*
D03*
X117250D02*
D03*
X104250D02*
D03*
Y276500D02*
D03*
X123750Y235500D02*
D03*
X1291500Y561500D02*
D03*
X1285000D02*
D03*
X1278500D02*
D03*
X1285000Y520500D02*
D03*
X1278500D02*
D03*
X1272000Y561500D02*
D03*
Y520500D02*
D03*
X1291500D02*
D03*
D94*
X238000Y288000D02*
D03*
Y265000D02*
D03*
Y242000D02*
D03*
D95*
X180000Y265000D02*
D03*
D96*
X180373Y133050D02*
D03*
Y174950D02*
D03*
D97*
X108023Y151000D02*
D03*
Y118000D02*
D03*
Y129000D02*
D03*
Y140000D02*
D03*
Y162000D02*
D03*
Y184000D02*
D03*
Y195000D02*
D03*
Y173000D02*
D03*
D98*
X134823Y100400D02*
D03*
D99*
X147523Y100250D02*
D03*
D100*
X173623D02*
D03*
X167923Y206750D02*
D03*
D101*
X136073Y206750D02*
D03*
D102*
X218650Y100950D02*
D03*
Y139050D02*
D03*
Y113650D02*
D03*
X271350Y100950D02*
D03*
Y139050D02*
D03*
Y113650D02*
D03*
Y126350D02*
D03*
X218650D02*
D03*
X383650Y100950D02*
D03*
Y139050D02*
D03*
Y113650D02*
D03*
X436350Y100950D02*
D03*
Y139050D02*
D03*
Y113650D02*
D03*
Y126350D02*
D03*
X383650D02*
D03*
X1041350Y568050D02*
D03*
X988650Y555350D02*
D03*
X1041350D02*
D03*
X988650Y568050D02*
D03*
Y529950D02*
D03*
Y542650D02*
D03*
X1041350Y529950D02*
D03*
Y542650D02*
D03*
D103*
X235450Y164500D02*
D03*
Y174000D02*
D03*
Y183500D02*
D03*
X260550D02*
D03*
Y164500D02*
D03*
Y174000D02*
D03*
X383450Y188500D02*
D03*
Y169500D02*
D03*
X408550D02*
D03*
Y179000D02*
D03*
Y188500D02*
D03*
X383450Y179000D02*
D03*
D104*
X335500Y191700D02*
D03*
X330500D02*
D03*
X325500D02*
D03*
X320500D02*
D03*
Y162300D02*
D03*
X325500D02*
D03*
X330500D02*
D03*
X335500D02*
D03*
D105*
X313300Y184500D02*
D03*
Y179500D02*
D03*
Y174500D02*
D03*
Y169500D02*
D03*
X342700D02*
D03*
Y174500D02*
D03*
Y179500D02*
D03*
Y184500D02*
D03*
D106*
X328000Y177000D02*
D03*
D107*
X317500Y139550D02*
D03*
X298500D02*
D03*
Y114450D02*
D03*
X308000D02*
D03*
X317500D02*
D03*
X308000Y139550D02*
D03*
X356500Y114450D02*
D03*
X347000D02*
D03*
X337500D02*
D03*
Y139550D02*
D03*
X356500D02*
D03*
X347000D02*
D03*
D108*
X346500Y55802D02*
D03*
X333500D02*
D03*
X340000D02*
D03*
X327000D02*
D03*
X353000D02*
D03*
D109*
X373750Y29202D02*
D03*
X306250D02*
D03*
D110*
X315125Y54952D02*
D03*
X364875D02*
D03*
D111*
X328500Y29202D02*
D03*
D112*
X355494D02*
D03*
D113*
X475500Y39250D02*
D03*
Y45750D02*
D03*
Y52250D02*
D03*
X434500Y45750D02*
D03*
Y52250D02*
D03*
Y58750D02*
D03*
X475500D02*
D03*
X434500Y39250D02*
D03*
X534500Y122750D02*
D03*
X493500D02*
D03*
Y129250D02*
D03*
X534500Y116250D02*
D03*
Y129250D02*
D03*
Y135750D02*
D03*
X493500D02*
D03*
Y116250D02*
D03*
X494500Y172750D02*
D03*
Y179250D02*
D03*
X535500Y166250D02*
D03*
Y172750D02*
D03*
Y179250D02*
D03*
Y185750D02*
D03*
X494500D02*
D03*
Y166250D02*
D03*
D114*
X693000Y185500D02*
D03*
X673000Y195000D02*
D03*
X693000Y204500D02*
D03*
X792000Y113000D02*
D03*
X812000Y103500D02*
D03*
Y122500D02*
D03*
X742000Y113000D02*
D03*
X762000Y103500D02*
D03*
Y122500D02*
D03*
X692000Y113000D02*
D03*
X712000Y103500D02*
D03*
Y122500D02*
D03*
X642000Y113000D02*
D03*
X662000Y103500D02*
D03*
Y122500D02*
D03*
D115*
X940350Y125650D02*
D03*
X953050Y178350D02*
D03*
X914950Y125650D02*
D03*
X927650D02*
D03*
X940350Y178350D02*
D03*
X927650D02*
D03*
X914950D02*
D03*
X953050Y125650D02*
D03*
X875350Y125650D02*
D03*
X888050Y178350D02*
D03*
X849950Y125650D02*
D03*
X862650D02*
D03*
X875350Y178350D02*
D03*
X862650D02*
D03*
X849950D02*
D03*
X888050Y125650D02*
D03*
D116*
X902000Y172250D02*
D03*
Y161750D02*
D03*
X1080000Y111750D02*
D03*
Y122250D02*
D03*
X1092499Y150250D02*
D03*
Y139750D02*
D03*
X1150499Y153250D02*
D03*
Y142750D02*
D03*
X979499Y111750D02*
D03*
Y122250D02*
D03*
X992499Y150250D02*
D03*
Y139750D02*
D03*
X1050499Y153250D02*
D03*
Y142750D02*
D03*
X337000Y415500D02*
D03*
Y405000D02*
D03*
X71000Y432250D02*
D03*
Y421750D02*
D03*
X166000Y432250D02*
D03*
Y421750D02*
D03*
X267000Y365750D02*
D03*
Y376250D02*
D03*
X91931Y561403D02*
D03*
Y571903D02*
D03*
X116931Y561403D02*
D03*
Y571903D02*
D03*
X338500Y584500D02*
D03*
Y574000D02*
D03*
X268500Y534750D02*
D03*
Y545250D02*
D03*
X91931Y372402D02*
D03*
Y382903D02*
D03*
X116931Y372402D02*
D03*
Y382903D02*
D03*
X71000Y337250D02*
D03*
Y326750D02*
D03*
X186931Y372402D02*
D03*
Y382903D02*
D03*
X211931Y372402D02*
D03*
Y382903D02*
D03*
X91931Y467402D02*
D03*
Y477903D02*
D03*
X116931Y467402D02*
D03*
Y477903D02*
D03*
X186931Y467402D02*
D03*
Y477903D02*
D03*
X211931Y467402D02*
D03*
Y477903D02*
D03*
X91000Y229750D02*
D03*
Y240250D02*
D03*
X90000Y279250D02*
D03*
Y268750D02*
D03*
X423000Y184250D02*
D03*
Y173750D02*
D03*
X1056000Y306250D02*
D03*
Y295750D02*
D03*
X1038000Y306250D02*
D03*
Y295750D02*
D03*
X1047000Y306250D02*
D03*
Y295750D02*
D03*
X221000Y168750D02*
D03*
Y179250D02*
D03*
X193000Y114750D02*
D03*
Y125250D02*
D03*
X367000Y99250D02*
D03*
Y88750D02*
D03*
X1053000Y244250D02*
D03*
Y233750D02*
D03*
X995000Y241250D02*
D03*
Y230750D02*
D03*
X981501Y202750D02*
D03*
Y213250D02*
D03*
X1153000Y244250D02*
D03*
Y233750D02*
D03*
X1095000Y241250D02*
D03*
Y230750D02*
D03*
X1081501Y202850D02*
D03*
Y213350D02*
D03*
X1136000Y415250D02*
D03*
Y404750D02*
D03*
X166000Y337250D02*
D03*
Y326750D02*
D03*
X1017000Y417250D02*
D03*
Y406750D02*
D03*
X981000Y418250D02*
D03*
Y407750D02*
D03*
X79931Y514403D02*
D03*
Y524902D02*
D03*
X267000Y356250D02*
D03*
Y345750D02*
D03*
Y416250D02*
D03*
Y405750D02*
D03*
X115931Y494403D02*
D03*
Y504902D02*
D03*
X124931D02*
D03*
Y494403D02*
D03*
X79931D02*
D03*
Y504902D02*
D03*
X97931D02*
D03*
Y494403D02*
D03*
X267000Y396250D02*
D03*
Y385750D02*
D03*
X100931Y561403D02*
D03*
Y571903D02*
D03*
X268500Y514750D02*
D03*
Y525250D02*
D03*
Y585250D02*
D03*
Y574750D02*
D03*
X93000Y304750D02*
D03*
Y315250D02*
D03*
X116000Y304750D02*
D03*
Y315250D02*
D03*
X125000D02*
D03*
Y304750D02*
D03*
X80000Y326750D02*
D03*
Y337250D02*
D03*
X268500Y565250D02*
D03*
Y554750D02*
D03*
X71000Y304750D02*
D03*
Y315250D02*
D03*
X100931Y372402D02*
D03*
Y382903D02*
D03*
X175000Y326750D02*
D03*
Y337250D02*
D03*
X211000Y304750D02*
D03*
Y315250D02*
D03*
X220000Y304750D02*
D03*
Y315250D02*
D03*
X80000Y421750D02*
D03*
Y432250D02*
D03*
X84000Y304750D02*
D03*
Y315250D02*
D03*
X116000Y410250D02*
D03*
Y399750D02*
D03*
X125000Y410250D02*
D03*
Y399750D02*
D03*
X166000Y305750D02*
D03*
Y316250D02*
D03*
X188000Y304750D02*
D03*
Y315250D02*
D03*
X71000Y399750D02*
D03*
Y410250D02*
D03*
X195931Y372402D02*
D03*
Y382903D02*
D03*
X100931Y467402D02*
D03*
Y477903D02*
D03*
X197000Y503250D02*
D03*
Y492750D02*
D03*
X188000Y399750D02*
D03*
Y410250D02*
D03*
X175000Y421750D02*
D03*
Y432250D02*
D03*
X179000Y399750D02*
D03*
Y410250D02*
D03*
X197000D02*
D03*
Y399750D02*
D03*
X166000D02*
D03*
Y410250D02*
D03*
X195931Y467402D02*
D03*
Y477903D02*
D03*
X147000Y266750D02*
D03*
Y277250D02*
D03*
X138000Y266750D02*
D03*
Y277250D02*
D03*
X81000Y268750D02*
D03*
Y279250D02*
D03*
X72000Y268750D02*
D03*
Y279250D02*
D03*
X138000Y244750D02*
D03*
Y255250D02*
D03*
X147000Y244750D02*
D03*
Y255250D02*
D03*
X156000Y266750D02*
D03*
Y277250D02*
D03*
X1054000Y408750D02*
D03*
Y419250D02*
D03*
X1270000Y506250D02*
D03*
Y495750D02*
D03*
X1297000Y495750D02*
D03*
Y506250D02*
D03*
X1008000Y418250D02*
D03*
Y407750D02*
D03*
X990000Y418250D02*
D03*
Y407750D02*
D03*
X999000Y418250D02*
D03*
Y407750D02*
D03*
X186931Y560402D02*
D03*
Y570902D02*
D03*
X211931Y560402D02*
D03*
Y570902D02*
D03*
X179000Y304750D02*
D03*
Y315250D02*
D03*
X93000Y399750D02*
D03*
Y410250D02*
D03*
X84000Y399750D02*
D03*
Y410250D02*
D03*
X175000Y514750D02*
D03*
Y525250D02*
D03*
X211000Y503250D02*
D03*
Y492750D02*
D03*
X220000Y503250D02*
D03*
Y492750D02*
D03*
X179000D02*
D03*
Y503250D02*
D03*
X188000Y492750D02*
D03*
Y503250D02*
D03*
X166000Y492750D02*
D03*
Y503250D02*
D03*
X195931Y560402D02*
D03*
Y570902D02*
D03*
X211000Y410250D02*
D03*
Y399750D02*
D03*
X220000Y410250D02*
D03*
Y399750D02*
D03*
X72000Y258250D02*
D03*
Y247750D02*
D03*
X81000Y258250D02*
D03*
Y247750D02*
D03*
X156000Y244750D02*
D03*
Y255250D02*
D03*
X452000Y153500D02*
D03*
Y164000D02*
D03*
X1295000Y576750D02*
D03*
Y587250D02*
D03*
X777000Y92750D02*
D03*
Y103250D02*
D03*
X827000Y92750D02*
D03*
Y103250D02*
D03*
X677000Y92750D02*
D03*
Y103250D02*
D03*
X727000Y92750D02*
D03*
Y103250D02*
D03*
X777000Y112750D02*
D03*
Y123250D02*
D03*
X827000Y112750D02*
D03*
Y123250D02*
D03*
X677000Y112750D02*
D03*
Y123250D02*
D03*
X727000Y112750D02*
D03*
Y123250D02*
D03*
X197000Y315250D02*
D03*
Y304750D02*
D03*
X102000Y315250D02*
D03*
Y304750D02*
D03*
Y410250D02*
D03*
Y399750D02*
D03*
X836650Y170900D02*
D03*
Y160400D02*
D03*
X849000Y99750D02*
D03*
Y110250D02*
D03*
X836650Y180400D02*
D03*
Y190900D02*
D03*
X902000Y181750D02*
D03*
Y192250D02*
D03*
X849000Y204250D02*
D03*
Y193750D02*
D03*
X914000Y99750D02*
D03*
Y110250D02*
D03*
X914000Y204250D02*
D03*
Y193750D02*
D03*
X859000Y99750D02*
D03*
Y110250D02*
D03*
X872000Y99750D02*
D03*
Y110250D02*
D03*
X859000Y204250D02*
D03*
Y193750D02*
D03*
X869000Y204250D02*
D03*
Y193750D02*
D03*
X923000Y99750D02*
D03*
Y110250D02*
D03*
X935000Y99750D02*
D03*
Y110250D02*
D03*
X925000Y204250D02*
D03*
Y193750D02*
D03*
X934000Y204250D02*
D03*
Y193750D02*
D03*
X1092000Y306250D02*
D03*
Y295750D02*
D03*
X1083000Y306250D02*
D03*
Y295750D02*
D03*
X1157170Y526661D02*
D03*
Y516162D02*
D03*
X1178101Y561814D02*
D03*
Y572314D02*
D03*
X1261000Y506250D02*
D03*
Y495750D02*
D03*
X1265000Y576750D02*
D03*
Y587250D02*
D03*
X1276750Y587250D02*
D03*
Y576750D02*
D03*
X1285750Y587250D02*
D03*
Y576750D02*
D03*
X1279000Y506250D02*
D03*
Y495750D02*
D03*
X1288000Y506250D02*
D03*
Y495750D02*
D03*
X71000Y525250D02*
D03*
Y514750D02*
D03*
X166000Y525250D02*
D03*
Y514750D02*
D03*
X1074000Y306250D02*
D03*
Y295750D02*
D03*
X1065000Y306250D02*
D03*
Y295750D02*
D03*
X1081000Y419250D02*
D03*
Y408750D02*
D03*
X1090000Y419250D02*
D03*
Y408750D02*
D03*
X1026000Y417250D02*
D03*
Y406750D02*
D03*
X1063000Y419250D02*
D03*
Y408750D02*
D03*
X1072000Y419250D02*
D03*
Y408750D02*
D03*
X1203101Y561814D02*
D03*
Y572314D02*
D03*
X1035000Y417250D02*
D03*
Y406750D02*
D03*
X1166170Y516162D02*
D03*
Y526662D02*
D03*
X1202170Y504662D02*
D03*
Y494162D02*
D03*
X1211170Y504662D02*
D03*
Y494162D02*
D03*
X1179170D02*
D03*
Y504662D02*
D03*
X1170170D02*
D03*
Y494162D02*
D03*
X1157170D02*
D03*
Y504662D02*
D03*
X1188170D02*
D03*
Y494162D02*
D03*
X1187101Y561814D02*
D03*
Y572314D02*
D03*
X1155931Y336903D02*
D03*
Y326403D02*
D03*
X1176851Y467056D02*
D03*
Y477556D02*
D03*
X1201851Y467056D02*
D03*
Y477556D02*
D03*
X1156000Y432250D02*
D03*
Y421750D02*
D03*
X1176862Y372055D02*
D03*
Y382555D02*
D03*
X1201862Y372055D02*
D03*
Y382555D02*
D03*
X1164920Y421403D02*
D03*
Y431903D02*
D03*
X1200920Y409903D02*
D03*
Y399403D02*
D03*
X1209920Y409903D02*
D03*
Y399403D02*
D03*
X1177920Y409903D02*
D03*
Y399403D02*
D03*
X1168920Y409903D02*
D03*
Y399403D02*
D03*
X1155920D02*
D03*
Y409903D02*
D03*
X1186920D02*
D03*
Y399403D02*
D03*
X1185851Y467056D02*
D03*
Y477556D02*
D03*
X1164931Y326403D02*
D03*
Y336903D02*
D03*
X1200931Y314903D02*
D03*
Y304403D02*
D03*
X1209931Y314903D02*
D03*
Y304403D02*
D03*
X1177931Y314903D02*
D03*
Y304403D02*
D03*
X1168931Y314903D02*
D03*
Y304403D02*
D03*
X1155931D02*
D03*
Y314903D02*
D03*
X1186931D02*
D03*
Y304403D02*
D03*
X1185862Y372055D02*
D03*
Y382555D02*
D03*
X416000Y86250D02*
D03*
Y75750D02*
D03*
X452000Y86250D02*
D03*
Y75750D02*
D03*
X1045000Y419250D02*
D03*
Y408750D02*
D03*
D117*
X842500Y68700D02*
D03*
X872500D02*
D03*
X902500D02*
D03*
X932500D02*
D03*
X827500D02*
D03*
X857500D02*
D03*
X887500D02*
D03*
X917500D02*
D03*
X1327500D02*
D03*
X1342500D02*
D03*
X1372500D02*
D03*
X1357500D02*
D03*
X1267500D02*
D03*
X1282500D02*
D03*
X1312500D02*
D03*
X1297500D02*
D03*
X1007500D02*
D03*
X1037500D02*
D03*
X1067500D02*
D03*
X1097500D02*
D03*
X1022500D02*
D03*
X1052500D02*
D03*
X1082500D02*
D03*
X1112500D02*
D03*
X557500Y68700D02*
D03*
X542500D02*
D03*
X527500D02*
D03*
X572500D02*
D03*
X737500Y68700D02*
D03*
X707500D02*
D03*
X647500D02*
D03*
X677500D02*
D03*
X662500D02*
D03*
X692500D02*
D03*
X722500D02*
D03*
X752500D02*
D03*
D118*
X801450Y16800D02*
D03*
X958550D02*
D03*
X1241450D02*
D03*
X1398550D02*
D03*
X981450D02*
D03*
X1138550D02*
D03*
X501450Y16800D02*
D03*
X598550D02*
D03*
X621450Y16800D02*
D03*
X778550D02*
D03*
D119*
X1008250Y166000D02*
D03*
Y161000D02*
D03*
Y156000D02*
D03*
Y151000D02*
D03*
Y146000D02*
D03*
X1036750D02*
D03*
Y151000D02*
D03*
Y161000D02*
D03*
Y166000D02*
D03*
X1108250D02*
D03*
Y161000D02*
D03*
Y156000D02*
D03*
Y151000D02*
D03*
Y146000D02*
D03*
X1136750D02*
D03*
Y151000D02*
D03*
Y161000D02*
D03*
Y166000D02*
D03*
X1039251Y257000D02*
D03*
Y252000D02*
D03*
Y242000D02*
D03*
Y237000D02*
D03*
X1010751D02*
D03*
Y242000D02*
D03*
Y247000D02*
D03*
Y252000D02*
D03*
Y257000D02*
D03*
X1139251D02*
D03*
Y252000D02*
D03*
Y242000D02*
D03*
Y237000D02*
D03*
X1110751D02*
D03*
Y242000D02*
D03*
Y247000D02*
D03*
Y252000D02*
D03*
Y257000D02*
D03*
D120*
X1015000Y141900D02*
D03*
X1020000D02*
D03*
X1025000D02*
D03*
X1015000Y170100D02*
D03*
X1020000D02*
D03*
X1025000D02*
D03*
X1030000D02*
D03*
Y141900D02*
D03*
X1115000D02*
D03*
X1120000D02*
D03*
X1125000D02*
D03*
X1115000Y170100D02*
D03*
X1120000D02*
D03*
X1125000D02*
D03*
X1130000D02*
D03*
Y141900D02*
D03*
X1032501Y232900D02*
D03*
Y261100D02*
D03*
X1027501D02*
D03*
X1022501D02*
D03*
X1017501D02*
D03*
X1027501Y232900D02*
D03*
X1022501D02*
D03*
X1017501D02*
D03*
X1132501D02*
D03*
Y261100D02*
D03*
X1127501D02*
D03*
X1122501D02*
D03*
X1117501D02*
D03*
X1127501Y232900D02*
D03*
X1122501D02*
D03*
X1117501D02*
D03*
D121*
X1036750Y156000D02*
D03*
X1136750D02*
D03*
X1039251Y247000D02*
D03*
X1139251D02*
D03*
D122*
X1017750Y162502D02*
D03*
X1027250D02*
D03*
X1117750D02*
D03*
X1127250D02*
D03*
X1029751Y253502D02*
D03*
X1020251D02*
D03*
X1129751D02*
D03*
X1120251D02*
D03*
D123*
X1091749Y181000D02*
D03*
X1081249D02*
D03*
X1151249Y163000D02*
D03*
X1161749D02*
D03*
X1101249Y181000D02*
D03*
X1111749D02*
D03*
X1151249Y172000D02*
D03*
X1161749D02*
D03*
X1141749Y181000D02*
D03*
X1131249D02*
D03*
X991749Y180000D02*
D03*
X981249D02*
D03*
X1051249Y163000D02*
D03*
X1061749D02*
D03*
X1001249Y181000D02*
D03*
X1011749D02*
D03*
X1051249Y172000D02*
D03*
X1061749D02*
D03*
X1041749Y181000D02*
D03*
X1031249D02*
D03*
X1091749Y172000D02*
D03*
X1081249D02*
D03*
X1091749Y163000D02*
D03*
X1081249D02*
D03*
X1151249Y181000D02*
D03*
X1161749D02*
D03*
X1147249Y113000D02*
D03*
X1157749D02*
D03*
X1147249Y123000D02*
D03*
X1157749D02*
D03*
X991749Y171000D02*
D03*
X981249D02*
D03*
X991749Y162000D02*
D03*
X981249D02*
D03*
X1051249Y181000D02*
D03*
X1061749D02*
D03*
X1047249Y113000D02*
D03*
X1057749D02*
D03*
X1047249Y123000D02*
D03*
X1057749D02*
D03*
X562250Y141000D02*
D03*
X551750D02*
D03*
X552750Y153000D02*
D03*
X563250D02*
D03*
X552750Y165000D02*
D03*
X563250D02*
D03*
X552750Y174000D02*
D03*
X563250D02*
D03*
X552750Y186000D02*
D03*
X563250D02*
D03*
X552750Y195000D02*
D03*
X563250D02*
D03*
X1251250Y121000D02*
D03*
X1240750D02*
D03*
X1240750Y130000D02*
D03*
X1251250D02*
D03*
X1240750Y139000D02*
D03*
X1251250D02*
D03*
X1251250Y148000D02*
D03*
X1240750D02*
D03*
X1251250Y157000D02*
D03*
X1240750D02*
D03*
Y166000D02*
D03*
X1251250D02*
D03*
X1240750Y175000D02*
D03*
X1251250D02*
D03*
Y184000D02*
D03*
X1240750D02*
D03*
X1251250Y193000D02*
D03*
X1240750D02*
D03*
Y202000D02*
D03*
X1251250D02*
D03*
X1240750Y211000D02*
D03*
X1251250D02*
D03*
X1240750Y220000D02*
D03*
X1251250D02*
D03*
X1240750Y228750D02*
D03*
X1251250D02*
D03*
X1056750Y435000D02*
D03*
X1067250D02*
D03*
X352250Y101000D02*
D03*
X341750D02*
D03*
X1020250Y325000D02*
D03*
X1009750D02*
D03*
X1020250Y334000D02*
D03*
X1009750D02*
D03*
X313250Y101000D02*
D03*
X302750D02*
D03*
X1020250Y343000D02*
D03*
X1009750D02*
D03*
X296250Y198000D02*
D03*
X285750D02*
D03*
X1020250Y352000D02*
D03*
X1009750D02*
D03*
X1020250Y361000D02*
D03*
X1009750D02*
D03*
X1049750Y214000D02*
D03*
X1060250D02*
D03*
X1049750Y204000D02*
D03*
X1060250D02*
D03*
X1020250Y89000D02*
D03*
X1009750D02*
D03*
X1050250Y89000D02*
D03*
X1039750D02*
D03*
X1053750Y272000D02*
D03*
X1064250D02*
D03*
X994250Y254000D02*
D03*
X983750D02*
D03*
X994250Y263000D02*
D03*
X983750D02*
D03*
X1149750Y214000D02*
D03*
X1160250D02*
D03*
X1149750Y204000D02*
D03*
X1160250D02*
D03*
X1082250Y89000D02*
D03*
X1071750D02*
D03*
X1110250Y89000D02*
D03*
X1099750D02*
D03*
X1153750Y272000D02*
D03*
X1164250D02*
D03*
X1094250Y254000D02*
D03*
X1083750D02*
D03*
X1094250Y263000D02*
D03*
X1083750D02*
D03*
X1056750Y446000D02*
D03*
X1067250D02*
D03*
X1010250Y583000D02*
D03*
X999750D02*
D03*
X1113750Y393000D02*
D03*
X1124250D02*
D03*
X475250Y184000D02*
D03*
X464750D02*
D03*
X474250Y140000D02*
D03*
X463750D02*
D03*
X985750Y355000D02*
D03*
X996250D02*
D03*
X1113750Y384000D02*
D03*
X1124250D02*
D03*
X1020250Y388000D02*
D03*
X1009750D02*
D03*
X1113750Y331000D02*
D03*
X1124250D02*
D03*
X1020250Y379000D02*
D03*
X1009750D02*
D03*
X1113750Y375000D02*
D03*
X1124250D02*
D03*
X1113750Y366000D02*
D03*
X1124250D02*
D03*
X138250Y296000D02*
D03*
X127750D02*
D03*
X194000Y588000D02*
D03*
X204500D02*
D03*
X67250Y292000D02*
D03*
X56750D02*
D03*
X1195250Y175000D02*
D03*
X1184750D02*
D03*
X1195250Y166000D02*
D03*
X1184750D02*
D03*
X1030250Y583000D02*
D03*
X1019750D02*
D03*
X1039750Y583000D02*
D03*
X1050250D02*
D03*
X1184750Y211000D02*
D03*
X1195250D02*
D03*
X1184750Y202000D02*
D03*
X1195250D02*
D03*
X359250Y201000D02*
D03*
X348750D02*
D03*
X296250Y189000D02*
D03*
X285750D02*
D03*
X277250Y87000D02*
D03*
X266750D02*
D03*
X1184750Y193000D02*
D03*
X1195250D02*
D03*
X1184750Y184000D02*
D03*
X1195250D02*
D03*
X1044250Y272000D02*
D03*
X1033750D02*
D03*
X1053750Y263000D02*
D03*
X1064250D02*
D03*
X1003750Y272000D02*
D03*
X1014250D02*
D03*
X1053750Y254000D02*
D03*
X1064250D02*
D03*
X994250Y272000D02*
D03*
X983750D02*
D03*
X1144250D02*
D03*
X1133750D02*
D03*
X1153750Y263000D02*
D03*
X1164250D02*
D03*
X1103750Y273000D02*
D03*
X1114250D02*
D03*
X1153750Y254000D02*
D03*
X1164250D02*
D03*
X1094250Y273000D02*
D03*
X1083750D02*
D03*
X474250Y113000D02*
D03*
X463750D02*
D03*
X474250Y122000D02*
D03*
X463750D02*
D03*
X551500Y113000D02*
D03*
X562000D02*
D03*
X551750Y122000D02*
D03*
X562250D02*
D03*
X474250Y131000D02*
D03*
X463750D02*
D03*
X474250Y104000D02*
D03*
X463750D02*
D03*
X541250Y103000D02*
D03*
X530750D02*
D03*
X541250Y153000D02*
D03*
X530750D02*
D03*
X550750Y103000D02*
D03*
X561250D02*
D03*
X419250Y61000D02*
D03*
X408750D02*
D03*
X419250Y52000D02*
D03*
X408750D02*
D03*
X1184750Y157000D02*
D03*
X1195250D02*
D03*
X1184750Y148000D02*
D03*
X1195250D02*
D03*
X1184750Y121000D02*
D03*
X1195250D02*
D03*
X391250Y87000D02*
D03*
X380750D02*
D03*
Y154000D02*
D03*
X391250D02*
D03*
X296250Y180000D02*
D03*
X285750D02*
D03*
X438250Y87000D02*
D03*
X427750D02*
D03*
X277250Y153000D02*
D03*
X266750D02*
D03*
X206250Y88000D02*
D03*
X195750D02*
D03*
X214750Y153000D02*
D03*
X225250D02*
D03*
X657250Y182000D02*
D03*
X646750D02*
D03*
X657250Y191000D02*
D03*
X646750D02*
D03*
X1195250Y139000D02*
D03*
X1184750D02*
D03*
X408750Y34000D02*
D03*
X419250D02*
D03*
X1020250Y370000D02*
D03*
X1009750D02*
D03*
X552000Y131500D02*
D03*
X562500D02*
D03*
X979750Y583000D02*
D03*
X990250D02*
D03*
X895750Y87000D02*
D03*
X906250D02*
D03*
X881750Y110000D02*
D03*
X892250D02*
D03*
X934750Y87000D02*
D03*
X945250D02*
D03*
X878750Y194000D02*
D03*
X889250D02*
D03*
X845750Y87000D02*
D03*
X856250D02*
D03*
X944750Y110000D02*
D03*
X955250D02*
D03*
X870750Y87000D02*
D03*
X881250D02*
D03*
X943750Y194000D02*
D03*
X954250D02*
D03*
X881750Y100000D02*
D03*
X892250D02*
D03*
X878750Y204000D02*
D03*
X889250D02*
D03*
X944750Y101000D02*
D03*
X955250D02*
D03*
X943750Y203000D02*
D03*
X954250D02*
D03*
X419250Y43000D02*
D03*
X408750D02*
D03*
X465750Y25000D02*
D03*
X476250D02*
D03*
X443250Y25000D02*
D03*
X432750D02*
D03*
X1113750Y357000D02*
D03*
X1124250D02*
D03*
X781250Y215000D02*
D03*
X770750D02*
D03*
X781250Y206000D02*
D03*
X770750D02*
D03*
X1184750Y130000D02*
D03*
X1195250D02*
D03*
X294500Y71000D02*
D03*
X305000D02*
D03*
X294500Y80000D02*
D03*
X305000D02*
D03*
X1009750Y397000D02*
D03*
X1020250D02*
D03*
X126250Y588000D02*
D03*
X115750D02*
D03*
D124*
X1123849Y116315D02*
D03*
X1095387D02*
D03*
X1024348Y115315D02*
D03*
X995886D02*
D03*
X1126350Y207415D02*
D03*
X1097887D02*
D03*
X1026350Y207316D02*
D03*
X997888D02*
D03*
D125*
X990501Y386250D02*
D03*
Y368250D02*
D03*
D126*
X1039750Y461300D02*
D03*
X990250Y512100D02*
D03*
X1039750Y474000D02*
D03*
Y486700D02*
D03*
X990250Y435900D02*
D03*
Y499400D02*
D03*
Y474000D02*
D03*
Y448600D02*
D03*
Y486700D02*
D03*
X1039750Y448600D02*
D03*
Y499400D02*
D03*
Y512100D02*
D03*
Y435900D02*
D03*
X990250Y461300D02*
D03*
D127*
X1015000Y549000D02*
D03*
D128*
X1070000Y490000D02*
D03*
X1098000D02*
D03*
D129*
X1120750Y415250D02*
D03*
X1107250Y404750D02*
D03*
Y415250D02*
D03*
X1120750Y404750D02*
D03*
D130*
X1120700Y533000D02*
D03*
X1077300D02*
D03*
D131*
X622000Y569000D02*
D03*
X616000Y181000D02*
D03*
X823000Y200000D02*
D03*
X902000Y223000D02*
D03*
X836000Y219000D02*
D03*
X731000Y226000D02*
D03*
X724000Y240000D02*
D03*
D132*
X323000Y549500D02*
D03*
Y562500D02*
D03*
X284000Y549500D02*
D03*
Y562500D02*
D03*
X297000Y549500D02*
D03*
Y562500D02*
D03*
X310000Y549500D02*
D03*
Y562500D02*
D03*
X308500Y393500D02*
D03*
Y380500D02*
D03*
X295500Y393500D02*
D03*
Y380500D02*
D03*
X282500Y393500D02*
D03*
Y380500D02*
D03*
X321500Y393500D02*
D03*
Y380500D02*
D03*
D133*
X1402100Y368400D02*
D03*
Y393800D02*
D03*
X1325900Y368400D02*
D03*
Y393800D02*
D03*
X1402100Y419200D02*
D03*
X1325900D02*
D03*
X1402100Y470000D02*
D03*
Y444600D02*
D03*
Y520800D02*
D03*
X1325900Y571600D02*
D03*
X1402100D02*
D03*
Y546200D02*
D03*
X1325900Y495400D02*
D03*
Y470000D02*
D03*
Y444600D02*
D03*
Y546200D02*
D03*
X1402100Y495400D02*
D03*
X1325900Y520800D02*
D03*
Y286200D02*
D03*
Y184600D02*
D03*
Y210000D02*
D03*
Y235400D02*
D03*
X1402100Y286200D02*
D03*
Y311600D02*
D03*
X1325900D02*
D03*
X1402100Y260800D02*
D03*
X1325900Y159200D02*
D03*
X1402100D02*
D03*
X1325900Y133800D02*
D03*
Y108400D02*
D03*
X1402100Y133800D02*
D03*
Y108400D02*
D03*
Y184600D02*
D03*
Y210000D02*
D03*
Y235400D02*
D03*
X1325900Y260800D02*
D03*
D134*
X17140Y620000D02*
D03*
X23836Y603835D02*
D03*
X40000Y597140D02*
D03*
X23836Y636165D02*
D03*
X40000Y642860D02*
D03*
X56164Y603835D02*
D03*
Y636165D02*
D03*
X62860Y620000D02*
D03*
X1460000Y597140D02*
D03*
X1476164Y603835D02*
D03*
X1443836D02*
D03*
X1482860Y620000D02*
D03*
X1437140D02*
D03*
X1476164Y636165D02*
D03*
X1443836D02*
D03*
X1460000Y642860D02*
D03*
X1443836Y23836D02*
D03*
X1437140Y40000D02*
D03*
X1460000Y17140D02*
D03*
X1476164Y56164D02*
D03*
X1443836D02*
D03*
X1460000Y62860D02*
D03*
X1476164Y23836D02*
D03*
X1482860Y40000D02*
D03*
X23836Y23836D02*
D03*
X40000Y17140D02*
D03*
X17140Y40000D02*
D03*
X56164Y23836D02*
D03*
Y56164D02*
D03*
X62860Y40000D02*
D03*
X23836Y56164D02*
D03*
X40000Y62860D02*
D03*
X483835Y503836D02*
D03*
X500000Y497140D02*
D03*
X516164Y503836D02*
D03*
X477140Y520000D02*
D03*
X522860D02*
D03*
X483835Y536164D02*
D03*
X516164D02*
D03*
X500000Y542860D02*
D03*
X940000Y257140D02*
D03*
X923835Y263836D02*
D03*
X956165D02*
D03*
X917140Y280000D02*
D03*
X923835Y296164D02*
D03*
X962860Y280000D02*
D03*
X940000Y302860D02*
D03*
X956165Y296164D02*
D03*
X483835Y263836D02*
D03*
X500000Y257140D02*
D03*
X516164Y263836D02*
D03*
X477140Y280000D02*
D03*
X522860D02*
D03*
X483835Y296164D02*
D03*
X516164D02*
D03*
X500000Y302860D02*
D03*
X923835Y503836D02*
D03*
X917140Y520000D02*
D03*
X923835Y536164D02*
D03*
X940000Y497140D02*
D03*
X956165Y503836D02*
D03*
Y536164D02*
D03*
X962860Y520000D02*
D03*
X940000Y542860D02*
D03*
D135*
X40000Y620000D02*
D03*
X1460000D02*
D03*
Y40000D02*
D03*
X40000D02*
D03*
X500000Y520000D02*
D03*
X940000Y280000D02*
D03*
X500000D02*
D03*
X940000Y520000D02*
D03*
D136*
X570000Y470000D02*
D03*
X870000Y330000D02*
D03*
M02*
